<svg width="67" height="32" viewBox="0 0 67 32" fill="none" xmlns="http://www.w3.org/2000/svg">
<path d="M10.7982 19.5348L13.7373 6.07374L13.4909 4.63952H15.9654L16.9293 9.70485L18.6233 18.7782L19.1036 21.3426H19.1067L18.6264 18.7782H18.6271L18.6264 18.7751L16.9324 9.7017L18.2691 16.7269L18.3482 17.1416L18.6484 18.7751L18.8538 19.8926L19.1036 21.2603L19.1188 21.3401L19.1293 21.3383L19.2465 21.9665C20.0528 25.6257 21.7802 30.083 25.6139 31.0491C27.8957 31.6189 31.8808 30.7071 33.3883 28.6462H35.8881L35.8943 28.643C33.4988 31.926 28.9447 32.5433 25.2219 31.6062C20.0042 30.2891 17.5075 26.2242 16.5689 21.2317L16.1329 18.8194L14.0469 7.64089L11.3229 20.1205L11.0794 21.2349C11.0794 21.2349 10.9435 21.9315 11.3417 22.5393C11.8063 23.2516 12.4985 23.3528 12.4985 23.3528H9.02204L6.10515 7.74209L3.40309 20.0953C3.4014 20.1041 2.53483 24.6573 3.53884 27.9245H1.03906L2.77719 20.0636L5.79533 6.11175L5.52988 4.63952H8.0012L10.7982 19.5348ZM44.124 13.7509C47.3696 13.7509 48.3367 15.6946 48.3368 17.841V27.9371H46.5196L45.7167 25.7906C45.0973 26.9113 44.3925 27.9371 42.3162 27.9371C40.2398 27.937 37.3892 26.965 37.3892 24.1348H37.3861C37.3861 21.3109 42.1836 20.1838 46.0518 18.5819C45.9254 15.2958 45.7136 14.3208 43.7447 14.3208C41.7758 14.3208 40.4517 16.1031 40.4517 18.3223L38.3847 18.3003C38.3847 16.2742 40.8783 13.7509 44.124 13.7509ZM65.0391 27.9213H62.7763V16.5337H65.0391V27.9213ZM26.8527 13.7478C30.7873 13.7478 31.9409 16.0335 31.9409 18.5155V18.8099H22.7001C22.6496 19.4178 22.6211 20.1966 22.6211 20.9247C22.6211 25.5405 23.4585 27.3608 26.3881 27.3609C29.3177 27.3609 29.7192 26.1389 29.7192 23.1947H31.9409C31.9409 25.6767 30.171 27.9182 26.818 27.9182C23.5172 27.9182 20.6022 24.924 20.512 21.0165L20.5099 20.833C20.5099 16.8092 22.9181 13.7478 26.8527 13.7478ZM35.8912 15.7834C37.5061 11.4177 43.6089 8.94517 49.8316 13.2476L48.3368 14.2605C43.2834 10.1829 36.7382 12.703 35.8881 17.1859H35.8912V27.9182H33.4008V13.7603H35.218L35.8912 15.7834ZM50.8269 27.9179H50.8238V27.9085H50.8269V27.9179ZM53.2985 17.5277C54.3919 14.4189 56.0638 13.7255 58.6647 13.7255L61.0823 13.8364L61.0917 15.7771L57.96 14.9697C57.467 14.8494 57.0214 14.7956 56.6074 14.7956C54.7428 14.7956 53.9968 16.2709 53.5796 18.4395C53.8893 17.9488 54.3223 17.2934 55.6654 17.2934C58.4971 17.2934 61.0285 19.5127 61.0285 23.7486L61.0382 27.9085H58.8101V23.7929C58.8101 19.0695 57.2677 17.512 55.6907 17.8001C52.9318 18.3067 53.3394 21.0292 53.3142 26.4902L53.2888 27.9179L50.8269 27.9085V8.69502H53.2985V17.5277ZM46.0518 19.0094C42.8346 20.5069 39.6457 21.5072 39.6457 24.0525C39.6457 25.9963 41.4249 27.4336 42.7017 27.4337C46.257 27.4337 46.1277 21.1939 46.0518 19.0094ZM16.8693 22.7609C16.8756 22.7767 16.8786 22.7925 16.8818 22.8083H16.8787L16.8693 22.7609ZM26.4293 14.3588C24.0591 14.3588 22.9435 16.7869 22.7349 18.1989H29.7223C29.7223 15.2832 28.7995 14.3588 26.4293 14.3588ZM63.9076 13.7349C64.4696 13.7349 64.9253 14.1914 64.9253 14.7544C64.9253 15.3174 64.4696 15.7739 63.9076 15.7739C63.3456 15.7739 62.8901 15.3174 62.8901 14.7544C62.8901 14.1915 63.3456 13.735 63.9076 13.7349ZM6.7624 1.60352C7.39444 1.60352 7.90012 2.10999 7.90017 2.74311C7.90017 3.37628 7.39131 3.88294 6.7624 3.88294C6.13035 3.88292 5.62464 3.37627 5.62464 2.74311C5.62469 2.11 6.13039 1.60353 6.7624 1.60352ZM14.7266 1.60352C15.3586 1.60356 15.864 2.11002 15.8641 2.74311C15.8641 3.37626 15.3554 3.88289 14.7266 3.88294C14.0945 3.88294 13.5888 3.37628 13.5888 2.74311C13.5889 2.10999 14.0945 1.60352 14.7266 1.60352Z" fill="#374220"/>
</svg>
