<svg width="100" height="150" viewBox="0 0 100 150" fill="none" xmlns="http://www.w3.org/2000/svg">
<path d="M46.1582 54.5399C47.4935 53.329 46.5818 56.6892 47.6845 59.3211C48.3106 60.8149 56.5118 56.2807 52.1591 61.4344C50.2545 62.5324 48.1443 62.6696 46.1572 62.3006C46.1112 62.4797 46.0639 62.6586 46.0185 62.8377C46.0074 62.8934 45.9958 62.95 45.9843 63.0057C45.9001 63.4163 45.8593 63.8092 45.8193 64.2039C45.81 64.2949 45.8013 64.3842 45.792 64.4744C45.7195 65.1604 45.3341 66.4183 45.1338 67.1111C45.1301 67.1237 45.1266 67.1366 45.123 67.1492C45.0751 67.3136 45.0337 67.4708 44.9863 67.6551C44.8742 68.0948 44.72 68.6876 44.3681 69.9149C44.2895 70.2789 44.2116 70.6418 44.1347 71.0047C43.3045 74.9272 42.624 78.8761 42.2754 82.8621C42.273 82.9124 42.2708 82.9638 42.2685 83.0155C42.2223 84.0175 42.2017 85.2586 42.1543 86.0389C42.0922 87.0295 42.0556 87.7058 42.0273 88.2606C42.0225 91.4368 42.2892 94.6219 42.9179 97.7371C42.9548 97.9198 42.9928 98.1026 43.0322 98.285C43.172 98.9325 43.3296 99.5779 43.5019 100.22C43.9647 101.241 44.4235 102.264 44.8818 103.293C45.1735 103.949 45.4167 104.625 45.5341 105.129C45.5556 105.219 45.573 105.305 45.5869 105.384C45.7107 105.709 45.7126 105.925 45.6162 105.982H45.6152C45.6576 106.077 45.7 106.169 45.7382 106.257C46.2041 107.333 46.708 108.564 47.1064 109.472C47.1713 109.62 47.2333 109.761 47.291 109.889C47.6481 110.589 48.0197 111.283 48.4033 111.971C48.4193 112.021 48.4359 112.073 48.4521 112.126C48.6548 112.778 49.0499 113.507 49.708 114.632C49.9946 115.12 50.3339 115.686 50.7334 116.348C50.7792 116.424 50.8181 116.495 50.8545 116.56C50.6164 115.382 50.4442 114.187 50.3584 112.982C50.2915 112.061 50.341 111.164 50.4648 110.518C50.5798 109.926 50.723 109.59 50.8525 109.542C50.717 109.509 50.5372 109.194 50.3418 108.644C50.1294 108.047 49.9165 107.221 49.7597 106.344C49.5066 104.915 49.2799 103.463 49.206 101.974C49.2005 101.897 49.1957 101.819 49.1914 101.741C49.159 101.159 49.1314 100.615 49.1308 100.065C49.1307 99.9394 49.1315 99.8131 49.1347 99.6864C49.1311 98.7151 49.5676 96.8734 49.9423 95.9295C49.9487 95.912 49.9554 95.8943 49.9619 95.8768C50.0467 95.6475 50.1261 95.4387 50.2265 95.1883C50.4563 94.6294 50.758 93.8854 51.5527 92.5018C51.5991 92.4213 51.648 92.3391 51.6992 92.2567C51.9759 91.7839 52.2951 91.3394 52.6396 90.9256C54.998 88.1847 58.1034 86.6564 59.538 83.8514C60.7619 81.9744 61.9799 80.4291 63.2773 78.7781C63.3192 78.7236 63.3628 78.6674 63.4062 78.6112C64.2412 77.5242 65.3134 76.2057 66.0449 75.4149C66.9725 74.4067 67.6477 73.7594 68.2363 73.2469C68.6667 72.8615 69.0965 72.496 69.6279 72.1688C69.9156 72.0011 70.1805 71.8465 70.6093 71.7733C70.8032 71.7428 71.1027 71.7492 71.3564 71.8924C71.6263 72.0447 71.7647 72.2575 71.8564 72.4744C72.9956 76.2121 70.3287 79.0391 68.6015 81.6053C67.79 82.6971 66.9521 83.7585 66.1269 84.824C65.3675 85.8048 64.6161 86.7881 63.913 87.7957C63.5163 88.3859 63.1524 88.968 62.8476 89.5028C62.4117 90.2646 62.0784 90.964 61.8486 91.5399C61.5711 92.2299 61.3457 92.9904 61.3134 93.7059C61.276 94.5213 61.2371 95.3078 61.2021 95.9774C61.1908 96.1946 61.18 96.3998 61.1699 96.5897C61.1366 97.6492 61.0979 98.7117 61.041 99.7742C61.0309 99.8447 61.0204 99.916 61.0097 99.9881C60.8839 100.823 60.8105 101.84 60.6376 103.376C60.623 103.504 60.6045 103.636 60.582 103.771C60.4503 104.566 60.1712 105.458 59.7236 106.429C59.433 107.053 59.2364 107.347 59.081 107.589C59.0352 107.659 58.9912 107.725 58.9482 107.792C58.7995 108.024 58.6773 108.281 58.5253 108.587C58.33 108.98 58.0877 109.451 57.6943 110.022C56.4357 111.834 56.0093 112.695 55.706 113.353C55.6171 113.546 55.5376 113.722 55.4531 113.898C55.1762 114.471 54.7657 115.27 54.4873 115.888C54.2575 116.375 53.9425 117.403 53.8359 118.196C53.792 118.496 53.7274 118.898 53.6933 119.375C53.6596 119.841 53.6595 120.381 53.7285 120.948C53.8442 121.072 53.9496 121.176 54.0468 121.272C54.1628 121.386 54.2675 121.49 54.3662 121.601C54.6859 121.964 55.0607 122.54 55.3271 122.989C55.5377 123.346 56.079 123.969 56.5146 124.421C56.679 124.592 56.8787 124.841 57.1152 125.133C57.3602 125.435 57.6455 125.784 57.9726 126.138C58.801 127.031 59.2497 127.497 59.6093 127.873C59.7119 127.98 59.8074 128.08 59.9033 128.179C60.2069 128.492 60.5802 128.884 60.9599 129.276C61.4157 129.748 61.8804 130.219 62.248 130.568C63.1196 131.543 64.0082 132.51 64.9111 133.459C65.3761 133.948 65.7612 134.475 65.9804 134.938C66.1981 135.4 66.229 135.757 66.0595 135.936C65.8898 136.116 65.5298 136.105 65.0546 135.902C64.5786 135.699 64.0306 135.322 63.5292 134.852C62.5225 133.91 61.5293 132.944 60.5634 131.957C59.3857 130.753 58.2434 129.512 57.1523 128.226C56.3891 127.327 55.6453 126.412 54.9228 125.479C54.8485 125.383 54.7741 125.287 54.7001 125.19C54.2435 124.676 53.7953 124.154 53.4199 123.699L53.2685 123.759C53.2648 123.75 53.2615 123.741 53.2578 123.733L53.2226 123.748C53.1667 123.598 53.1164 123.451 53.0683 123.305C53.0545 123.273 53.0399 123.242 53.0263 123.212C53.0069 123.187 52.9874 123.163 52.9687 123.139C52.6135 122.686 52.3938 122.325 52.207 122.016C52.0785 121.804 51.9648 121.615 51.8349 121.435C51.7652 121.339 51.6683 121.208 51.5527 121.05C51.0795 120.404 50.2893 119.292 49.6728 118.212C49.3983 117.733 49.1032 117.161 48.8291 116.613C48.4364 115.83 48.0877 115.093 47.8672 114.746C47.4796 114.138 47.1063 113.396 46.789 112.737C46.4854 112.108 46.2308 111.555 46.039 111.262C45.8104 110.912 45.6736 110.586 45.4746 110.097C45.3368 109.758 45.1712 109.344 44.9316 108.783C44.6561 108.137 44.4946 107.666 44.3593 107.264C44.1704 106.7 44.0324 106.275 43.7412 105.674C43.4472 105.066 43.1758 104.415 42.9961 103.862C42.061 102.973 41.0712 102.128 40.0654 101.302C38.6652 100.154 37.2268 99.0458 35.7763 97.9539C34.7615 97.1906 33.7357 96.4387 32.7031 95.702C32.5957 95.6254 32.4896 95.5485 32.3838 95.4735C31.8567 95.1299 31.3285 94.7918 30.8574 94.492C30.5142 94.2732 30.1976 94.0501 29.9424 93.8582C29.4239 93.4672 29.083 93.1418 28.7978 92.8631C28.599 92.6681 28.4301 92.4947 28.2519 92.325C28.157 92.2346 28.021 92.1062 27.8691 91.9569C27.2307 91.337 26.2121 90.2264 25.4131 89.1141C25.0554 88.6216 24.6695 88.0353 24.3164 87.4627C23.8131 86.6494 23.3794 85.8653 23.1406 85.4871C22.7154 84.8168 22.2934 84.0196 21.9394 83.2996C21.603 82.6174 21.3277 82.0084 21.1455 81.6746C20.9281 81.2755 20.7801 80.9184 20.5703 80.3836C20.4257 80.0131 20.2503 79.5555 20.0166 78.9344C19.7477 78.217 19.5871 77.6971 19.4551 77.2567C19.27 76.6337 19.1394 76.1649 18.9014 75.4774C18.6375 74.7133 18.4022 73.9001 18.2627 73.2498C18.1987 72.9534 18.1218 72.6153 18.0469 72.2625C17.9474 71.7951 17.8522 71.3013 17.7881 70.8465C17.7353 70.4721 17.7152 70.1585 17.7002 69.8817C17.6955 69.7954 17.691 69.7117 17.6865 69.6317C17.6615 69.4536 17.6408 69.2749 17.6182 69.0965C17.5786 68.9988 17.5413 68.9053 17.5049 68.8192L17.5791 68.7967C17.5768 68.7771 17.5736 68.7577 17.5713 68.7381C17.5656 68.711 17.5598 68.6827 17.5537 68.6541L18.25 68.449C18.2631 68.4707 18.2767 68.493 18.29 68.5174C18.3008 68.5372 18.3096 68.5588 18.3203 68.5789L18.3809 68.5604C18.3872 68.6185 18.3947 68.677 18.4014 68.7352C18.5049 68.9371 18.6149 69.1587 18.7383 69.4178C19.0085 69.9885 19.2286 70.4767 19.4912 70.9979C19.6937 71.3984 19.9189 71.8114 20.2139 72.2645C20.4141 72.5721 20.6617 72.9183 20.9092 73.244C21.2802 73.7343 21.6751 74.2103 21.9316 74.5399C22.0281 74.6642 22.1074 74.7865 22.1777 74.8973L22.1787 74.8983C22.1835 74.9058 22.1885 74.9141 22.1934 74.9217C22.8707 75.7006 23.5949 76.445 24.3506 77.1531C24.4186 77.2125 24.4883 77.2731 24.5576 77.3328C24.8838 77.6133 25.2235 77.8924 25.4463 78.0506C25.693 78.2281 26.2786 78.7172 26.9062 79.199C27.3262 79.523 27.7573 79.8396 28.1201 80.0906C28.3257 80.2329 28.5085 80.3907 28.7002 80.5535C28.7042 80.5569 28.7089 80.5609 28.7129 80.5643C28.9002 80.723 29.0893 80.8854 29.3056 81.0408C29.4129 81.1179 29.5341 81.1994 29.665 81.2879C29.7799 81.3656 29.9009 81.4472 30.0234 81.535C30.1351 81.615 30.3837 81.8177 30.6924 82.077C30.8801 82.2348 31.1002 82.4217 31.3262 82.6151C31.9427 83.1021 32.5518 83.6092 33.1426 84.1365C33.2755 84.2364 33.3945 84.3182 33.4951 84.3758C33.5665 84.4164 33.6341 84.45 33.7021 84.4822C33.7952 84.5266 33.8924 84.5722 34.0107 84.6502C34.103 84.7111 34.1996 84.7943 34.2549 84.8612C34.2807 84.8925 34.2974 84.9204 34.3125 84.9451C34.3297 84.9733 34.3454 84.9986 34.3701 85.0233C34.388 85.041 34.411 85.0558 34.4385 85.074C34.4824 85.1032 34.5398 85.1412 34.6113 85.2137C34.8771 85.4831 35.1725 85.8045 35.4521 86.1229C35.764 86.4774 36.0588 86.832 36.2949 87.1141C36.5592 87.4288 36.9049 87.901 37.2353 88.3865C37.4635 88.7211 37.6905 89.0685 37.8799 89.3572C38.0687 89.6446 38.2731 89.9346 38.4687 90.2196C38.7059 90.5652 38.9202 90.8882 39.082 91.1912C39.1135 91.2506 39.138 91.3345 39.1679 91.4393C39.1891 91.5133 39.2131 91.599 39.2451 91.6942C39.4668 92.0711 39.6715 92.4291 39.8818 92.8094C39.8916 92.8207 39.902 92.8328 39.9121 92.8446V92.8455C40.1345 93.1034 40.4424 93.4721 40.7002 94.0594C40.6284 93.6524 40.5685 93.2723 40.5498 92.9813C40.5401 92.8315 40.5565 92.6998 40.5732 92.5701L40.5742 92.5682C40.5753 92.5595 40.576 92.5505 40.5771 92.5418C40.4554 91.5767 40.3567 90.6077 40.2812 89.6365C40.2693 89.5528 40.2574 89.4675 40.2461 89.3836C40.1904 88.9735 40.1417 88.5728 40.084 88.3123C40.0209 88.0299 39.9721 87.3163 39.9394 86.5633C39.9175 86.0707 39.9018 85.5592 39.8808 85.1424C39.8685 84.8987 39.9064 84.6689 39.9463 84.4324C39.9835 84.2119 40.0221 83.9854 40.0254 83.7371C40.027 83.613 40.0203 83.4783 40.0136 83.3348C40.0078 83.2081 40.002 83.0734 40.0019 82.9334C40.0019 82.8032 40.0349 82.5144 40.081 82.1463C40.1094 81.9194 40.1434 81.6603 40.1767 81.3895C40.2131 80.6693 40.261 79.9472 40.3203 79.2293C40.3092 79.0769 40.2884 78.9417 40.2549 78.8338C40.2308 78.7566 40.199 78.6889 40.167 78.6199C40.1234 78.526 40.0782 78.4281 40.0488 78.2977C40.0259 78.1957 40.027 78.0785 40.0508 78.0028C40.0618 77.9675 40.0773 77.9406 40.0918 77.9168C40.1083 77.8897 40.1233 77.8651 40.1269 77.8338C40.1294 77.8113 40.1227 77.7868 40.1152 77.7567C40.1032 77.7081 40.0878 77.6443 40.0986 77.5526C40.1392 77.2102 40.1987 76.8226 40.2597 76.4451C40.3277 76.0239 40.3981 75.613 40.4424 75.285C40.4917 74.9178 40.6103 74.3986 40.7343 73.8846C40.8208 73.5253 40.9103 73.1645 40.9775 72.8553C41.0433 72.5524 41.0851 72.23 41.1269 71.9188C41.1771 71.545 41.2271 71.1886 41.3193 70.8924C41.338 70.8328 41.3904 70.7645 41.456 70.6795C41.5026 70.6192 41.5565 70.5499 41.6093 70.4695C41.6901 70.0883 41.7741 69.7077 41.8623 69.327C41.8603 69.3127 41.8584 69.2978 41.8564 69.283V69.282C41.8102 68.9434 41.7484 68.4792 41.9863 67.9002C42.0467 67.7535 42.114 67.6681 42.1748 67.5916C42.2345 67.5166 42.2879 67.449 42.3222 67.3406C42.3612 67.2173 42.3746 67.0615 42.3886 66.8934C42.4084 66.657 42.4313 66.3934 42.5341 66.1502C42.5412 66.1336 42.5488 66.115 42.5566 66.0965C42.6308 65.9199 42.7417 65.6557 42.8935 65.407C43.1258 64.6131 43.3712 63.8207 43.6269 63.0291C43.7684 62.5915 43.9125 62.1553 44.0595 61.7205C38.3677 59.6386 34.9539 54.3095 43.3047 58.7479C43.7378 57.0248 44.701 56.2356 46.1582 54.5399ZM51.0468 109.242C51.0151 109.409 50.9689 109.51 50.9072 109.537C50.9966 109.552 51.0736 109.713 51.1396 109.985C51.1419 109.922 51.1455 109.867 51.1455 109.822C51.1118 109.626 51.0796 109.433 51.0468 109.242ZM29.2392 55.6326C29.3648 55.5461 29.6055 55.4961 29.7949 55.5721C29.9772 55.6458 30.0349 55.72 30.1025 55.7957C30.2875 56.0446 30.3062 56.1865 30.3613 56.3582C30.4293 56.6071 30.4747 56.8515 30.543 57.1287C30.5876 57.3104 30.6444 57.5215 30.6982 57.7313C30.7766 58.0346 30.8508 58.3424 30.876 58.5526C30.8854 58.6321 30.8781 58.7059 30.8701 58.7752V58.7762C30.8696 58.7808 30.8686 58.7853 30.8681 58.7899C30.9736 59.3008 31.0781 59.8108 31.1914 60.3133C31.2046 60.3557 31.2183 60.3982 31.2314 60.4402C31.297 60.6513 31.3633 60.8518 31.4248 60.9783C31.491 61.1128 31.5893 61.4755 31.7109 61.826C31.7908 62.0573 31.8809 62.2779 31.9668 62.4149C32.0136 62.4911 32.0387 62.5639 32.0215 62.574L32.1279 62.741C32.1656 62.797 32.2071 62.8526 32.2529 62.9061C32.2987 62.9594 32.3526 63.0154 32.4101 63.076C32.4618 63.1307 32.5123 63.1837 32.5635 63.2449C32.6108 63.3018 32.6987 63.4434 32.8027 63.6229C32.8691 63.7369 32.9392 63.8616 33.0146 63.9959C33.2407 64.3282 33.4552 64.6721 33.6553 65.0145C33.7108 65.0785 33.7672 65.1321 33.8203 65.1678C33.8584 65.1933 33.8974 65.2129 33.9375 65.2322C33.9919 65.2585 34.0488 65.2852 34.1074 65.3338C34.1532 65.3718 34.1922 65.4279 34.2031 65.4705C34.208 65.4902 34.2066 65.5085 34.206 65.5242C34.2054 65.5422 34.2059 65.5588 34.2138 65.574C34.2197 65.5848 34.2315 65.5936 34.2451 65.6043C34.2673 65.6219 34.2961 65.6458 34.3193 65.6912C34.4071 65.8634 34.4948 66.057 34.581 66.2528C34.675 66.4661 34.7657 66.6793 34.8428 66.8426C34.9299 67.0269 35.0237 67.3047 35.1133 67.5828C35.1761 67.7774 35.2359 67.9697 35.2939 68.1356C35.3499 68.2957 35.4257 68.4557 35.498 68.6131C35.5839 68.7996 35.6653 68.9815 35.7031 69.1473C35.7106 69.1805 35.7023 69.2289 35.6904 69.2889C35.682 69.3315 35.6719 69.3814 35.666 69.4354C35.7366 69.6377 35.8039 69.8391 35.8691 70.0428C35.8745 70.0487 35.8801 70.0552 35.8857 70.0613L35.9902 70.1795C36.0971 70.3104 36.2041 70.485 36.2324 70.742C36.2418 70.8285 36.2279 70.8888 36.2158 70.9432C36.2038 70.9967 36.194 71.0459 36.207 71.1072C36.2219 71.1767 36.2612 71.2518 36.3037 71.3338C36.3637 71.4495 36.4299 71.5807 36.4433 71.7264C36.4442 71.7361 36.4462 71.7468 36.4472 71.7576C36.4571 71.8628 36.4713 72.02 36.457 72.1824C36.5597 72.6247 36.6518 73.07 36.7344 73.5164C36.872 74.2611 36.982 75.0113 37.0664 75.7635C37.0977 76.0434 37.0887 76.3207 37.0439 76.5574C37.0431 76.5934 37.0416 76.6283 37.0381 76.6619C37.0065 76.9736 36.88 77.1571 36.7207 77.1942C36.7028 77.1981 36.6844 77.1985 36.666 77.199H36.6631C36.6633 77.2013 36.6638 77.2036 36.664 77.2059C36.6635 77.2036 36.6626 77.2013 36.6621 77.199C36.6437 77.2051 36.6244 77.2105 36.6054 77.2127C36.4451 77.2303 36.2742 77.1071 36.122 76.8738C36.111 76.8568 36.1035 76.8371 36.0928 76.8192C35.9401 76.6418 35.7905 76.4279 35.6513 76.2029C35.3141 75.6509 34.8364 75.1902 34.2861 74.7596C33.6167 74.2352 32.8486 73.7424 32.1162 73.1502C31.6154 72.7469 31.1297 72.3026 30.6904 71.8055L30.6426 71.7479C30.6335 71.7352 30.6252 71.7215 30.6162 71.7088C30.5785 71.6558 30.5406 71.6021 30.5029 71.5486C30.1561 71.1396 29.8137 70.7195 29.5879 70.409C29.4016 70.1536 29.2926 69.9458 29.2012 69.7684C29.1381 69.646 29.0835 69.5371 29.0176 69.4334C28.9822 69.3778 28.9332 69.3013 28.875 69.2098C28.6351 68.8354 28.2429 68.1771 27.9941 67.5184C27.8826 67.2271 27.7764 66.878 27.6924 66.5428C27.5699 66.0615 27.4937 65.6077 27.4258 65.3846C27.3052 64.9964 27.2389 64.5271 27.207 64.118C27.175 63.7252 27.1705 63.38 27.1357 63.1873C27.0945 62.9532 27.1051 62.7561 27.1318 62.4588C27.1509 62.2555 27.1782 62.0019 27.2158 61.6668C27.2606 61.2747 27.3243 61.0089 27.3818 60.7772C27.4626 60.4609 27.5318 60.2152 27.5771 59.8543C27.6306 59.4416 27.7222 59.0229 27.8359 58.7088C27.8873 58.5664 27.9425 58.3952 28.001 58.2234C28.0765 58.0007 28.1657 57.7569 28.2637 57.5496C28.3439 57.38 28.4332 57.2458 28.5137 57.1277C28.5386 57.0911 28.5631 57.0557 28.5859 57.0213C28.6441 56.8847 28.7041 56.7489 28.7656 56.6111C28.771 56.5868 28.7764 56.5599 28.7822 56.533C28.7974 56.4635 28.8151 56.3851 28.8389 56.2986L28.8223 56.3377C28.8476 56.2293 28.8612 56.1536 28.9248 56.0125C28.9786 55.9116 29.0157 55.7891 29.2392 55.6326ZM70.7851 72.7518C70.7252 72.7593 70.6547 72.7817 70.5781 72.8123C70.6948 72.8698 70.7889 72.9739 70.8544 73.1346C71.1002 73.7374 71.1721 74.384 71.1074 75.0653C71.1264 75.0007 71.1448 74.9384 71.162 74.8768V74.8758C71.1648 74.866 71.1681 74.8549 71.1708 74.8446C71.2705 74.1524 71.2154 73.4579 70.9472 72.8494C70.8587 72.7089 70.9229 72.7579 70.7851 72.7518ZM38.4824 20.4041C46.1494 19.647 48.669 39.3412 48.6816 39.4402C48.6858 39.3361 49.4246 21.0657 54.9726 22.7547C60.53 24.4475 51.9418 40.8153 51.9209 40.8553C51.9375 40.8281 60.0405 27.6272 64.2607 31.0799C68.4843 34.5364 54.3867 44.0184 54.3867 44.0184C54.3867 44.0184 70.0931 37.0149 71.957 42.9432C73.575 48.1075 54.958 47.7342 54.958 47.7342C54.958 47.7342 73.9488 51.5552 72.4228 55.8592C71.0622 59.69 62.1475 55.9676 56.9091 53.3797C57.7268 55.2777 58.3123 57.6011 56.4335 57.8777C54.5619 58.1561 53.0322 56.0788 52.0859 54.2889C51.7509 55.1416 51.3442 56.0577 50.8838 56.8621C50.5367 56.8644 50.1867 56.9202 49.9082 56.9734C49.601 57.0322 49.2707 57.1104 48.9775 57.1795L48.8886 57.2C48.6564 57.2546 48.447 57.3004 48.2588 57.3387C48.1732 56.8938 48.1381 56.419 48.1025 55.9285L48.0908 55.7625L48.0849 55.6863C48.0701 55.4902 48.0498 55.2602 48.0136 55.0467C47.9847 54.8759 47.9162 54.5067 47.6953 54.1629C47.5697 53.9676 47.3549 53.7166 47.0127 53.5477C46.6532 53.3704 46.283 53.347 45.9707 53.4031C45.4487 53.497 45.0811 53.812 44.917 53.9608L44.8466 54.0242L44.7851 54.0955C44.6254 54.2814 44.4604 54.4642 44.2949 54.6473C43.8547 55.1342 43.4089 55.6273 43.0361 56.2127C42.4978 55.9693 42.0269 55.7871 41.6201 55.6639C41.3202 55.5731 41.0113 55.5001 40.7099 55.4695C40.415 53.8518 40.5271 50.9253 40.6631 48.782C38.1945 49.6669 35.2144 50.3839 34.416 49.0604C33.6196 47.7293 36.0113 46.4352 38.2597 45.5574C33.2013 44.3329 22.6162 41.329 23.0459 37.7869C23.6117 33.1517 42.3883 42.6247 42.4795 42.6707C42.3911 42.6246 24.7535 33.4155 28.9004 29.9764C33.0584 26.5288 44.4541 40.7732 44.4541 40.7732C44.4541 40.7732 30.7942 21.1705 38.4824 20.4041Z" fill="#838D4C"/>
</svg>
