<svg width="100" height="150" viewBox="0 0 100 150" fill="none" xmlns="http://www.w3.org/2000/svg">
<path d="M46.2135 55.4818C46.8971 54.8622 46.7691 55.8938 46.9157 57.2259C47.0104 57.3838 47.0683 57.6236 47.0837 57.931C47.088 58.0247 47.0877 58.1225 47.0846 58.224C47.1448 58.4693 47.2209 58.7141 47.32 58.9505C47.7742 60.0342 53.7233 56.7444 50.5661 60.4828C49.2619 61.2346 47.8251 61.3653 46.4557 61.1527C46.307 61.714 46.1606 62.2761 46.0182 62.8382C46.0072 62.8939 45.9955 62.9506 45.9841 63.0062C45.8998 63.4168 45.859 63.8098 45.819 64.2044C45.8097 64.2954 45.801 64.3848 45.7917 64.475C45.7192 65.161 45.3338 66.4189 45.1335 67.1117C45.1299 67.1242 45.1263 67.1372 45.1227 67.1498C45.0748 67.3141 45.0334 67.4714 44.986 67.6556C44.8739 68.0953 44.7197 68.6882 44.3678 69.9154C44.2892 70.2794 44.2113 70.6423 44.1344 71.0052C43.3042 74.9277 42.6237 78.8767 42.2751 82.8627C42.2727 82.9129 42.2705 82.9643 42.2682 83.016C42.222 84.018 42.2014 85.2591 42.154 86.0394C42.0919 87.03 42.0553 87.7063 42.027 88.2611C42.0227 91.1007 42.2367 93.947 42.7311 96.7445C42.7527 96.5996 42.7795 96.4798 42.8053 96.3724C42.8328 96.2584 42.8581 96.1575 42.8708 96.0541C42.8776 95.9987 42.8856 95.9221 42.8962 95.8304C42.9386 95.4543 43.024 94.8172 43.1813 94.2513C43.2504 94.0007 43.3484 93.7139 43.446 93.4427C43.5852 93.0542 43.7243 92.6965 43.7614 92.5072C43.8258 92.1748 43.952 91.8066 44.069 91.4847C44.1804 91.1776 44.2831 90.9111 44.3083 90.7484C44.3384 90.5542 44.4045 90.4011 44.5046 90.1761C44.5742 90.02 44.6605 89.8288 44.7663 89.5658C44.8887 89.2618 44.9955 89.0545 45.0866 88.8793C45.2153 88.6326 45.3131 88.4482 45.4001 88.1478C45.4967 87.8143 45.6195 87.4732 45.7507 87.2211C45.8103 87.1064 45.8724 86.971 45.9372 86.8314C46.0229 86.6466 46.115 86.4528 46.2155 86.2845C46.2983 86.146 46.3869 86.0414 46.4655 85.9496C46.4899 85.9211 46.5138 85.8933 46.5358 85.8666C46.594 85.7525 46.6537 85.6383 46.7126 85.5248C46.7177 85.5041 46.7228 85.4811 46.7282 85.4584C46.7556 85.3438 46.7898 85.2025 46.8571 85.0414C46.9637 84.7862 47.098 84.5824 47.2409 84.3705C47.3523 84.2054 47.4698 84.0344 47.5856 83.8285C47.6645 83.6882 47.7485 83.523 47.8327 83.3607C47.9576 83.1197 48.0841 82.8828 48.194 82.7328C48.2351 82.6766 48.285 82.6368 48.3337 82.598H48.3346C48.3378 82.5955 48.3412 82.5927 48.3444 82.5902C48.577 82.2013 48.8146 81.8151 49.0573 81.4339C49.0753 81.399 49.0937 81.3634 49.112 81.3285C49.2019 81.1568 49.291 80.9901 49.3346 80.8714C49.3819 80.7425 49.5584 80.4611 49.7507 80.1664C49.8764 79.9732 50.0078 79.7744 50.11 79.6087C50.1698 79.5119 50.2529 79.4401 50.3376 79.3666C50.4165 79.2981 50.4978 79.2269 50.5661 79.1332C50.6002 79.0862 50.633 79.0317 50.6676 78.974C50.6982 78.9231 50.7313 78.8687 50.7682 78.8148C50.8027 78.7647 50.8967 78.6669 51.0173 78.5433C51.0918 78.4669 51.1767 78.38 51.2643 78.2884C51.4717 78.0214 51.6829 77.7578 51.8962 77.4984C51.9288 77.434 51.9512 77.3727 51.9606 77.3168C51.9674 77.2766 51.9679 77.2369 51.9684 77.1966C51.9692 77.1418 51.9705 77.0846 51.988 77.0209C52.0017 76.9711 52.0315 76.9245 52.0632 76.9037C52.0777 76.8942 52.0926 76.8897 52.1061 76.8861C52.1217 76.8819 52.1363 76.8775 52.1462 76.8666C52.153 76.8586 52.1563 76.8462 52.1598 76.8314C52.1657 76.8073 52.1734 76.7757 52.2018 76.7435C52.309 76.6232 52.4375 76.4915 52.5632 76.3646C52.7022 76.2241 52.8415 76.0854 52.946 75.9701C53.0631 75.8408 53.2528 75.6788 53.443 75.5199C53.5753 75.4093 53.7089 75.2986 53.82 75.1986C53.9285 75.1008 54.0287 74.985 54.1257 74.8744C54.2421 74.7415 54.3552 74.614 54.4733 74.5306C54.4973 74.5138 54.5406 74.5079 54.5954 74.4994C54.634 74.4935 54.6786 74.4866 54.7253 74.475C54.8599 74.3497 54.9959 74.226 55.1325 74.1048C55.1349 74.0982 55.1378 74.0912 55.1403 74.0843L55.1911 73.9554C55.25 73.8202 55.3436 73.6709 55.5407 73.5628C55.607 73.5267 55.6622 73.5188 55.7116 73.5121C55.7602 73.5055 55.8045 73.4992 55.8483 73.4681C55.898 73.4327 55.9423 73.3732 55.9899 73.3089C56.0569 73.2186 56.1323 73.1175 56.2428 73.0589C56.2503 73.055 56.2589 73.0507 56.2673 73.0462C56.3469 73.004 56.4667 72.9408 56.6042 72.8998C56.9179 72.6615 57.2284 72.4362 57.5514 72.2113C57.9377 71.9427 58.3327 71.6853 58.7292 71.4359C58.691 71.3832 58.6531 71.3303 58.6149 71.2777L58.5495 71.1488C58.3937 70.7665 58.3806 70.3005 58.4948 69.9144C58.507 69.8656 58.5205 69.8168 58.5358 69.7699C58.5785 69.6407 58.6292 69.5215 58.6813 69.4086C58.4276 68.9542 58.2862 67.9417 58.3639 67.3998C58.3648 67.3897 58.3659 67.3786 58.3669 67.3685C58.3798 67.239 58.3937 67.1158 58.4167 66.974C58.4785 66.6414 58.5541 66.1618 59.0007 65.3451C59.121 65.1049 59.2571 64.8729 59.404 64.6527C60.4253 63.1552 61.8584 62.0782 63.4714 61.3802C64.2479 61.0612 64.9086 60.5354 65.4391 59.8451C65.4565 59.821 65.4744 59.7958 65.4919 59.7709C65.7055 59.4683 65.9236 59.0918 66.1305 58.7337C66.2574 58.5157 66.3833 58.3058 66.5094 58.1293C66.6714 57.9057 66.8432 57.6872 67.1051 57.5091C67.3625 57.3245 67.747 57.2594 67.9997 57.3187C68.1448 57.3473 68.2813 57.3953 68.4079 57.4652C68.8404 57.6786 69.0426 58.1668 69.0749 58.5013C69.1172 58.8541 69.0771 59.1587 69.0221 59.4496C69.016 59.4797 69.0081 59.5097 69.0016 59.5394C69.4433 59.2604 69.9536 59.06 70.611 59.0365C70.8519 59.0527 71.1142 59.1437 71.3151 59.3011C71.6164 59.5184 71.7602 59.9218 71.7575 60.2269C71.7621 60.537 71.6921 60.8053 71.6091 61.0531C71.5213 61.3021 71.4157 61.5355 71.3005 61.7591C71.5516 61.6623 71.8277 61.5857 72.1335 61.558C72.5737 61.4968 73.2155 61.6968 73.4723 62.1214C73.5128 62.1801 73.5476 62.2398 73.5788 62.3011C73.6492 62.4394 73.6944 62.5839 73.7145 62.724C73.8195 63.5548 73.3118 64.0694 72.9323 64.4564C72.9013 64.4785 72.8697 64.5004 72.8376 64.5218C72.7896 64.5532 72.7413 64.5865 72.6921 64.6195C72.8136 64.6413 72.9418 64.6696 73.0759 64.7084C73.4415 64.8228 73.6344 64.9963 73.7536 65.1586C73.7887 65.2068 73.8198 65.2562 73.8464 65.308C73.9394 65.4853 74.0055 65.702 73.9997 65.931C73.9992 65.9556 73.9979 65.9814 73.9958 66.0072C73.9838 66.1825 73.8772 66.3941 73.7301 66.5218C73.585 66.6526 73.4214 66.7275 73.2526 66.7767C72.8679 66.8803 72.593 66.9161 72.361 66.9701C71.8955 67.0712 71.6405 67.1801 71.4362 67.2757C71.3467 67.3176 71.2672 67.3572 71.1852 67.3929C70.9178 67.507 70.5374 67.6448 70.2585 67.7718C70.0334 67.8665 69.6479 68.1672 69.4196 68.4476C69.3317 68.5518 69.2065 68.6863 69.0749 68.8587C69.0235 68.926 68.9717 68.9991 68.9196 69.0785C68.8229 69.2252 68.7108 69.3896 68.6003 69.5521C68.1402 70.2205 67.8503 70.5449 67.6188 70.807C67.5518 70.8815 67.4894 70.9492 67.4255 71.0169C67.2235 71.2309 66.9582 71.4861 66.6686 71.7259C66.3235 72.014 65.9393 72.2774 65.6286 72.4593C64.8091 72.8866 63.8032 73.138 62.8249 72.9515C62.324 72.8612 61.8933 72.6159 61.6471 72.3734C61.5176 72.2465 61.4377 72.1283 61.4001 72.0306C61.3421 72.1169 61.2369 72.2134 61.0749 72.3041C60.7913 72.4664 60.2604 72.5751 59.7477 72.3705C59.4198 72.6281 59.0899 72.896 58.7731 73.1625C58.7546 73.1805 58.7351 73.1983 58.7165 73.2162C58.5767 73.3502 58.4608 73.4973 58.3483 73.6429C58.3229 73.676 58.2969 73.7094 58.2712 73.7425C58.0762 73.9927 57.5826 74.3551 57.3229 74.5531C57.3182 74.5567 57.313 74.5602 57.3083 74.5638C57.2459 74.6111 57.1886 74.6586 57.1217 74.7142C56.9627 74.8474 56.7415 75.0301 56.2751 75.3851C56.1497 75.5011 56.024 75.6185 55.8981 75.7357C54.5437 76.9963 53.2324 78.3041 51.9987 79.6957C51.9843 79.714 51.9695 79.7334 51.9548 79.7523C51.6659 80.1197 51.3209 80.5796 51.0798 80.8529C50.7721 81.2008 50.5623 81.4342 50.3884 81.6273C49.4774 82.793 48.6329 84.0167 47.8942 85.3021C47.6633 85.7039 47.4424 86.1134 47.2331 86.5277C47.0405 86.9089 46.8558 87.2959 46.6813 87.6859C46.5927 87.9186 46.5144 88.1429 46.444 88.3509C46.345 88.6435 46.2614 88.9058 46.1833 89.1175C45.9943 89.6276 45.7507 90.1947 45.5798 90.6205C45.5518 90.6898 45.5255 90.7559 45.5016 90.8168C45.3935 91.1647 45.2925 91.5146 45.1979 91.8656C45.1848 91.8868 45.1706 91.9093 45.1569 91.931C44.9859 92.2038 44.8778 92.5719 44.7301 93.1546C44.6661 93.4088 44.5947 93.7049 44.5114 94.0521C44.4579 94.2759 44.401 94.3856 44.3542 94.475C44.3405 94.5011 44.3274 94.5259 44.3161 94.5511C44.2771 94.6379 44.28 94.7393 44.2848 94.8578C44.2911 95.0114 44.3004 95.1946 44.2233 95.4212C43.979 96.1473 44.023 96.4935 44.0534 96.7494C44.0627 96.8247 44.0715 96.8934 44.0729 96.9623C44.0772 97.1856 44.0163 97.497 43.9567 97.7308C43.9088 97.9168 43.9138 98.2976 43.9401 98.5863C43.9498 98.6957 43.9436 98.8421 43.9382 99.014C43.9325 99.1921 43.9272 99.3993 43.9421 99.6205C43.9804 100.18 44.011 100.473 44.0348 100.71C44.0418 100.778 44.0493 100.841 44.0563 100.904C44.0786 101.102 44.1027 101.35 44.1315 101.596C44.1659 101.892 44.2078 102.194 44.2507 102.421C44.2592 102.547 44.2719 102.672 44.2819 102.797C44.3349 102.955 44.3874 103.113 44.4421 103.27C44.6382 103.768 44.8374 104.236 45.028 104.669C45.2946 105.275 45.5446 105.812 45.738 106.257C46.2039 107.334 46.7077 108.565 47.1061 109.472C47.171 109.62 47.2331 109.761 47.2907 109.89C47.6478 110.59 48.0194 111.284 48.403 111.971C48.4191 112.022 48.4356 112.074 48.4518 112.126C48.6545 112.778 49.0496 113.508 49.7077 114.632C49.9943 115.121 50.3335 115.687 50.7331 116.349C50.9908 116.776 51.0864 117.02 51.1637 117.219C51.1865 117.278 51.2074 117.333 51.2311 117.387C51.3127 117.573 51.4572 117.733 51.6276 117.92C51.849 118.164 52.1147 118.454 52.3542 118.911C53.1217 120.371 53.6534 120.885 54.0466 121.273C54.1626 121.387 54.2672 121.49 54.3659 121.602C54.6857 121.965 55.0604 122.54 55.3268 122.99C55.5374 123.347 56.0787 123.97 56.5143 124.421C56.6788 124.592 56.8783 124.841 57.1149 125.133C57.2546 125.306 57.4087 125.492 57.5749 125.687C57.5068 125.048 57.4572 124.406 57.4284 123.765C57.4249 123.717 57.4207 123.668 57.4176 123.62C57.3948 123.262 57.3625 122.93 57.3346 122.598C57.3283 122.522 57.3227 122.444 57.3171 122.368C57.2698 121.78 57.3465 120.657 57.4137 120.039C57.4149 120.028 57.4155 120.016 57.4167 120.005C57.4317 119.859 57.4453 119.721 57.4616 119.56C57.5022 119.177 57.5523 118.646 57.7448 117.574C57.791 117.258 57.8414 116.944 57.8962 116.631C58.4919 113.247 59.5591 109.967 60.9919 106.857C61.009 106.818 61.0269 106.777 61.0446 106.737C61.3889 105.947 61.8523 104.986 62.1794 104.408C62.5995 103.659 62.8998 103.184 63.1618 102.775C64.5914 100.482 66.1655 98.1954 68.4089 96.5209C69.0457 96.1094 69.8275 95.5503 70.8337 95.8656C70.9411 95.9074 71.0436 95.9605 71.1374 96.0238C71.9957 96.6718 71.9886 97.6497 71.9997 98.4369C71.9995 98.9199 71.9634 99.3426 71.9118 99.7679C71.8448 100.32 71.7492 100.834 71.6579 101.241C71.4402 102.218 71.0806 103.321 70.8053 104.099C70.7597 104.229 70.7158 104.353 70.6745 104.468C70.4682 105.095 70.2433 105.74 70.0182 106.356C69.9984 106.396 69.9773 106.436 69.9567 106.477C69.6951 106.998 69.4467 107.641 69.029 108.655C68.8458 109.098 68.6312 109.608 68.3678 110.205C68.1968 110.593 68.0897 110.779 68.0016 110.932C67.9758 110.977 67.951 111.019 67.9274 111.062C67.8461 111.21 67.7881 111.379 67.7184 111.579C67.6272 111.841 67.5195 112.147 67.3161 112.529C66.6655 113.747 66.4528 114.315 66.2936 114.747C66.2469 114.874 66.2034 114.988 66.155 115.103C65.9975 115.476 65.7268 115.987 65.5094 116.366C65.3374 116.666 65.0487 117.295 64.8366 117.776C64.7565 117.958 64.6353 118.196 64.4919 118.478C64.3431 118.77 64.1699 119.107 63.9948 119.47C63.5482 120.394 63.31 120.873 63.112 121.27C63.0561 121.382 63.0037 121.486 62.9518 121.589C62.7878 121.916 62.5796 122.319 62.3649 122.73C62.1109 123.216 61.8479 123.713 61.652 124.091C61.1057 125.043 60.5382 126.003 59.9684 126.939C59.7978 127.219 59.6206 127.477 59.4489 127.705C59.5048 127.764 59.5577 127.82 59.6091 127.873C59.7117 127.98 59.8071 128.08 59.903 128.179C60.2067 128.492 60.5799 128.884 60.9596 129.277C61.4154 129.748 61.8801 130.219 62.2477 130.569C63.1193 131.543 64.0079 132.511 64.9108 133.459C65.3759 133.948 65.7609 134.476 65.9801 134.939C66.1978 135.401 66.2288 135.757 66.0592 135.937C65.8894 136.116 65.5294 136.105 65.0544 135.903C64.5783 135.699 64.0303 135.322 63.529 134.853C62.5222 133.91 61.5291 132.944 60.5632 131.957C59.3875 130.756 58.2473 129.517 57.1579 128.234C57.141 128.295 57.113 128.337 57.0739 128.354C57.0616 128.359 57.048 128.361 57.0339 128.362C57.0352 128.365 57.0374 128.368 57.0387 128.37C57.0363 128.37 57.0334 128.369 57.0309 128.369C57.0333 128.382 57.034 128.396 57.0319 128.41C57.0127 128.519 56.8373 128.6 56.5309 128.632C56.2182 128.663 55.8185 128.646 55.3981 128.58C54.5891 128.455 53.7776 128.321 52.9684 128.177C52.6641 128.104 52.2478 128.012 51.8542 127.922C51.5224 127.846 51.1861 127.768 50.9255 127.703C50.8423 127.683 50.7583 127.661 50.6686 127.639C50.3521 127.56 49.9603 127.461 49.2233 127.266C48.9312 127.188 48.6588 127.126 48.4216 127.071C48.1928 127.017 47.9969 126.972 47.8561 126.928C47.4829 126.812 46.9883 126.669 46.7331 126.628C46.411 126.577 45.9905 126.491 45.7028 126.396C45.6143 126.367 45.5289 126.332 45.4352 126.295C45.1163 126.168 44.6905 126.002 43.6852 125.805C43.3669 125.742 43.1407 125.646 42.9538 125.567C42.8103 125.506 42.6878 125.453 42.5622 125.43C42.5259 125.424 42.4893 125.418 42.4509 125.412C42.3194 125.392 42.1572 125.368 41.86 125.279C41.3933 125.138 41.0004 125.01 40.6637 124.897C39.8846 124.635 39.3934 124.455 38.9811 124.363C38.9484 124.355 38.9153 124.348 38.8835 124.34C38.4099 124.152 37.96 123.964 37.4997 123.757C37.4173 123.724 37.3284 123.687 37.236 123.649C36.64 123.4 35.8833 123.056 35.2272 122.643C34.9546 122.471 34.6524 122.259 34.3044 121.962C34.0772 121.766 33.8197 121.522 33.5895 121.23C33.1882 120.766 32.8483 120.025 33.07 119.319C33.1482 119.056 33.2559 118.859 33.4089 118.646C33.4826 118.547 33.5674 118.492 33.6481 118.448C33.7042 118.417 33.7643 118.391 33.8278 118.368C33.9725 118.315 34.0451 118.296 34.1706 118.265C34.3012 118.234 34.3794 118.219 34.4948 118.199C34.608 118.179 34.7182 118.162 34.819 118.148C36.8758 117.901 38.887 117.996 40.8981 118.202C41.2548 118.228 41.6802 118.263 42.3092 118.346C42.8039 118.41 43.583 118.569 44.2057 118.722C44.2375 118.73 44.2695 118.738 44.3005 118.745C46.7961 119.285 49.26 120.13 51.4899 121.465C51.6958 121.589 51.9004 121.717 52.1012 121.85C52.1028 121.851 52.1045 121.852 52.1061 121.853C52.0159 121.705 51.93 121.568 51.8346 121.436C51.7649 121.339 51.6681 121.209 51.5524 121.05C51.0792 120.405 50.289 119.292 49.6725 118.212C49.398 117.733 49.1029 117.162 48.8288 116.614C48.4361 115.83 48.0874 115.094 47.8669 114.746C47.4793 114.138 47.1061 113.396 46.7887 112.738C46.4851 112.109 46.2305 111.555 46.0387 111.262C45.8101 110.912 45.6733 110.587 45.4743 110.098C45.3366 109.759 45.1709 109.344 44.9313 108.784C44.6558 108.137 44.4943 107.666 44.3591 107.265C44.1701 106.701 44.0321 106.276 43.7409 105.674C43.6821 105.553 43.6256 105.429 43.569 105.305C43.5481 105.284 43.5269 105.262 43.5065 105.238C43.3403 105.04 43.2072 104.749 43.1384 104.434C43.1101 104.304 43.0835 104.174 43.0573 104.044C43.0163 103.926 42.9761 103.813 42.943 103.703C42.8624 103.437 42.7596 103.136 42.6569 102.822C42.5209 102.406 42.3833 101.963 42.2878 101.553C42.2092 101.216 42.1776 100.925 42.152 100.67C42.1441 100.591 42.1368 100.514 42.1286 100.441C42.0681 100.217 42.0098 99.9921 41.9518 99.767C41.9507 99.7655 41.9491 99.7644 41.9479 99.763C41.947 99.7838 41.9459 99.8032 41.9411 99.8197C41.9004 99.9553 41.7286 99.9343 41.4538 99.7504C41.1742 99.5609 40.828 99.2387 40.4762 98.8382C39.7971 98.065 39.1207 97.2829 38.445 96.4847C38.1965 96.1611 37.852 95.7249 37.529 95.3109C37.2569 94.9624 36.9811 94.6071 36.7673 94.3246C36.6992 94.2347 36.6306 94.1443 36.5573 94.0472C36.2996 93.7059 35.9784 93.2793 35.3796 92.4691C35.1411 92.1464 34.9162 91.8605 34.7214 91.6097C34.5336 91.368 34.3741 91.1601 34.2604 90.9955C33.9604 90.5612 33.5599 89.9995 33.3464 89.7552C33.0768 89.4474 32.7276 89.0192 32.4987 88.6791C32.4279 88.5739 32.3605 88.4641 32.2868 88.3441C32.0356 87.9336 31.702 87.3966 30.8659 86.3841C30.6044 86.0668 30.4258 85.7659 30.28 85.5199C30.1672 85.3298 30.0713 85.169 29.9684 85.0482C29.9387 85.0134 29.9072 84.9773 29.8747 84.9408C29.7637 84.816 29.6268 84.6628 29.3854 84.3207C29.0154 83.796 28.6907 83.3189 28.4245 82.9232C27.7994 81.9933 27.4148 81.3963 27.0671 80.9584C27.0396 80.9238 27.0126 80.8897 26.986 80.8558C26.6248 80.2736 26.2624 79.675 25.904 79.0609C25.8377 78.9534 25.7663 78.8371 25.6921 78.7152C25.2379 77.9715 24.625 76.9191 24.1413 75.9134C23.9415 75.4993 23.701 74.9591 23.4665 74.3617C23.2871 73.9045 23.1219 73.4503 22.9528 72.8929C22.6721 71.9959 22.4105 70.9064 22.5583 69.8978C22.6512 69.2899 22.8881 68.8759 23.1784 68.6039C23.5439 68.3482 23.8096 68.5195 24.0885 68.6117C26.0256 69.5835 27.7168 71.5857 29.3493 73.6507C29.644 74.0128 29.9853 74.4396 30.487 75.1253C30.8779 75.6573 31.478 76.5817 31.9421 77.3382C31.9659 77.3769 31.9891 77.4156 32.0124 77.4535C33.9155 80.4224 35.6584 83.6509 37.2653 87.0648C37.4107 87.374 37.556 87.6899 37.7018 88.0091C38.2362 89.0993 38.4559 89.5939 38.6354 89.9945C38.7089 90.1592 38.7726 90.3015 38.8405 90.4505C38.8457 90.462 38.8509 90.4742 38.8561 90.4857C39.1359 91.0963 39.6416 92.234 39.8551 92.8714C39.8825 92.9531 39.9091 93.0357 39.9362 93.1175C40.0546 93.4749 40.1745 93.8357 40.3151 94.2171C40.334 94.2683 40.353 94.3209 40.3717 94.3724C40.6224 95.0178 40.8601 95.65 41.0993 96.2904C41.0691 96.0834 41.0366 95.8679 40.9958 95.64C40.9344 95.2977 40.8554 94.9092 40.7819 94.5238C40.6722 93.9503 40.5752 93.3813 40.5495 92.9818C40.5398 92.832 40.5562 92.7003 40.5729 92.5707L40.5739 92.5687C40.575 92.5601 40.5757 92.551 40.5768 92.5423C40.4551 91.5772 40.3564 90.6082 40.2809 89.6371C40.269 89.5534 40.2571 89.468 40.2458 89.3841C40.1901 88.974 40.1415 88.5733 40.0837 88.3129C40.0206 88.0304 39.9718 87.3168 39.9391 86.5638C39.9172 86.0713 39.9015 85.5597 39.8805 85.1429C39.8683 84.8993 39.9061 84.6693 39.946 84.433C39.9832 84.2125 40.0218 83.9859 40.0251 83.7377C40.0267 83.6135 40.02 83.4788 40.0134 83.3353C40.0075 83.2087 40.0018 83.0739 40.0016 82.9339C40.0016 82.8038 40.0347 82.5148 40.0807 82.1468C40.1091 81.9199 40.1431 81.6608 40.1764 81.39C40.2128 80.6699 40.2607 79.9477 40.32 79.2298C40.3089 79.0774 40.2881 78.9422 40.2546 78.8343C40.2305 78.7571 40.1987 78.6894 40.1667 78.6205C40.1231 78.5266 40.0779 78.4286 40.0485 78.2982C40.0257 78.1963 40.0268 78.0791 40.0505 78.0033C40.0615 77.9681 40.077 77.941 40.0915 77.9173C40.108 77.8903 40.123 77.8655 40.1266 77.8343C40.1291 77.8119 40.1224 77.7873 40.1149 77.7572C40.1029 77.7086 40.0875 77.6447 40.0983 77.5531C40.1389 77.2108 40.1985 76.8231 40.2594 76.4457C40.3274 76.0245 40.3979 75.6135 40.4421 75.2855C40.4914 74.9183 40.6101 74.3991 40.7341 73.8851C40.8205 73.5259 40.91 73.165 40.9772 72.8558C41.043 72.553 41.0848 72.2305 41.1266 71.9193C41.1768 71.5456 41.2268 71.1891 41.319 70.8929C41.3377 70.8333 41.3901 70.7649 41.4557 70.68C41.5023 70.6198 41.5563 70.5503 41.6091 70.4701C41.6898 70.0888 41.7738 69.7082 41.862 69.3275C41.8601 69.3132 41.8581 69.2983 41.8561 69.2836V69.2826C41.8099 68.944 41.7482 68.4796 41.986 67.9007C42.0464 67.7542 42.1137 67.6685 42.1745 67.5921C42.2342 67.5171 42.2876 67.4495 42.3219 67.3412C42.3609 67.2179 42.3743 67.062 42.3884 66.8939C42.4081 66.6576 42.4311 66.3939 42.5339 66.1507C42.5408 66.1342 42.5485 66.1155 42.5563 66.097C42.6305 65.9205 42.7415 65.6561 42.8932 65.4076C43.1255 64.6137 43.3709 63.8211 43.6266 63.0296C43.8902 62.2143 44.1649 61.4049 44.4469 60.598C40.4665 59.0296 38.205 55.3783 44.1432 58.5345C44.4575 57.2844 45.1564 56.712 46.2135 55.4818ZM61.4176 71.7826C61.4201 71.7852 61.4233 71.7876 61.4255 71.7904C61.4278 71.7884 61.4308 71.7864 61.4333 71.7845C61.4311 71.783 61.4286 71.7812 61.4264 71.7796C61.4237 71.7808 61.4204 71.7814 61.4176 71.7826ZM49.738 22.0003C51.1243 21.9759 51.7756 23.2405 52.1198 24.1332C52.5011 25.1669 52.6868 26.2246 52.8044 27.2826C52.9174 27.0008 53.0331 26.7393 53.1501 26.4994C53.4869 25.8171 53.9075 25.1015 54.526 24.5072C55.1087 23.9054 56.1398 23.5093 56.9411 23.7757C57.0657 23.8099 57.1806 23.8509 57.2917 23.8978C57.5416 24.0034 57.7595 24.141 57.9391 24.3002C58.9715 25.2475 58.8946 26.5868 58.7721 27.6507C58.7571 27.7234 58.7398 27.7957 58.7223 27.8695C58.6077 28.3376 58.4779 28.8492 58.278 29.4564C58.7714 29.0799 59.3525 28.6937 60.1042 28.3793C60.7938 28.1081 61.2451 28.1175 61.5856 28.1849C61.6866 28.2059 61.7822 28.2351 61.8747 28.2709C62.1933 28.3914 62.507 28.6075 62.7419 28.931C62.7672 28.9655 62.7915 29.003 62.8161 29.0414C63.1641 29.5394 62.9762 30.2886 62.6032 30.8246C62.2919 31.2854 61.9993 31.6416 61.7458 31.9505C61.6465 32.0715 61.5528 32.1852 61.4665 32.2953C60.8363 33.0769 60.5142 33.5729 60.2663 33.9857C60.1948 34.1046 60.1293 34.2166 60.0651 34.3265C60.0315 34.384 59.9983 34.4411 59.9645 34.4984C59.6405 35.0388 59.2013 35.8131 58.9342 36.4281C58.7074 36.9102 58.4305 37.9423 58.3893 38.7396C58.3684 39.0398 58.3418 39.4468 58.3571 39.9261C58.363 40.113 58.3754 40.3088 58.3962 40.5169C58.4314 40.8725 58.463 41.2762 58.4889 41.6761C58.5852 43.2909 58.5312 44.1688 58.488 44.8685L58.485 44.9164C58.4707 45.1195 58.4544 45.3055 58.4362 45.4935C58.3793 46.0862 58.2761 46.8223 58.1159 47.5599C57.9276 48.4433 57.6467 49.3279 57.3776 49.9857C56.6532 51.6658 55.4451 53.2629 53.7419 54.183C52.8756 54.6618 51.9335 54.8749 51.2536 54.9086C50.7436 54.9341 50.4045 54.8822 50.2585 54.808C50.2705 54.9668 50.1858 55.2878 49.9362 55.722C49.7314 56.0812 49.3654 56.5147 48.862 56.8441L48.7516 56.8695C48.5281 56.9208 48.3263 56.9644 48.1452 57.0003C48.0627 56.5822 48.0291 56.1353 47.9948 55.6742C47.9892 55.5994 47.984 55.5241 47.9782 55.4486C47.964 55.2645 47.9446 55.0485 47.9098 54.848C47.882 54.6876 47.8149 54.3408 47.6022 54.0179C47.4813 53.8346 47.275 53.5993 46.946 53.4408C46.6003 53.2745 46.2443 53.2515 45.944 53.3041C45.4419 53.3922 45.0883 53.6887 44.9303 53.8285L44.863 53.888L44.8034 53.9554C44.6491 54.1307 44.4898 54.3025 44.3298 54.475C44.0612 54.7645 43.7902 55.0564 43.5368 55.3714C43.5191 55.3337 43.503 55.2954 43.487 55.2572C43.4505 55.1763 43.4167 55.0934 43.3864 55.0111C43.2397 54.6091 43.1545 54.219 43.1061 53.8373C43.086 53.8278 43.0658 53.8183 43.0456 53.8089C43.0002 53.7879 42.9545 53.7667 42.9098 53.7445C41.9912 53.3408 40.5078 52.0266 39.9391 51.1312C39.9321 51.1212 39.9247 51.1101 39.9176 51.1C39.9137 51.0942 39.9099 51.088 39.9059 51.0824C39.7634 50.8776 39.6319 50.6797 39.4909 50.4427C39.4733 50.4113 39.4558 50.3789 39.4372 50.3461C39.1197 49.7844 38.6689 48.9876 38.3112 47.3099C38.1959 46.7978 38.115 46.2777 38.0641 45.7591C37.7496 42.2032 38.6127 38.6784 40.2438 35.5511C41.1454 33.8887 41.5311 32.0064 41.445 30.1029C41.4415 30.0377 41.4378 29.9704 41.4333 29.9037C41.3813 29.0961 41.2344 28.1687 41.0915 27.3187C41.0056 26.7997 40.9281 26.309 40.8923 25.888C40.8483 25.3519 40.839 24.8418 40.985 24.3461C41.1209 23.8472 41.5051 23.4171 41.8844 23.225C42.1089 23.1034 42.3347 23.0206 42.5671 22.9759C44.219 22.7313 45.0398 24.09 45.5973 25.013C45.6067 25.0286 45.6164 25.0437 45.6257 25.0589C45.8997 25.5557 46.1318 26.0617 46.3337 26.5765C46.624 25.056 47.1225 23.56 48.4801 22.4164C48.8364 22.1696 49.287 22.01 49.738 22.0003ZM50.1745 54.683C50.1721 54.6875 50.169 54.6922 50.1667 54.6966C50.1725 54.6957 50.178 54.6955 50.1833 54.6957L50.1921 54.683L50.193 54.681C50.1869 54.6815 50.1807 54.6825 50.1745 54.683Z" fill="#838D4C"/>
</svg>
