<svg width="100" height="150" viewBox="0 0 100 150" fill="none" xmlns="http://www.w3.org/2000/svg">
<path d="M46.256 56.4132C47.2152 56.9635 49.7812 51.1029 49.5588 55.7032C49.1058 56.7902 48.3382 57.6079 47.4347 58.212C47.7636 58.6331 48.0914 59.058 48.4152 59.4864C48.4526 59.531 48.4907 59.5764 48.5275 59.6212C48.8028 59.956 49.0767 60.2334 49.3644 60.5342C49.4295 60.6019 49.4952 60.6694 49.5597 60.7374C50.0492 61.2489 50.7586 62.4141 51.1339 63.0606C51.141 63.0725 51.1484 63.0849 51.1554 63.0967C51.2456 63.251 51.3337 63.3945 51.4357 63.5616C51.6748 63.9563 52.0149 64.5059 52.6144 65.6876C52.8115 66.0235 52.999 66.351 53.1877 66.6915C55.2171 70.341 56.7847 74.3009 57.6798 78.4024C57.6933 78.4536 57.7073 78.506 57.7209 78.5587C57.9871 79.5768 58.2587 80.8506 58.3546 81.6651C58.4782 82.6962 58.5224 83.3997 58.5539 83.9786C58.6518 84.9663 58.7212 85.9532 58.7736 86.9385C58.8523 86.7518 58.9473 86.5322 59.0646 86.2686C59.1635 86.0165 59.2641 85.7673 59.3654 85.5225C60.486 82.8184 61.8376 80.2257 63.4757 77.794C63.4953 77.7631 63.5153 77.7318 63.5353 77.7003C63.9254 77.0839 64.4458 76.3255 64.8048 75.8819C65.2649 75.3102 65.5902 74.9502 65.8722 74.6436C67.4168 72.9035 69.055 71.1992 71.3156 70.1954C71.6552 70.0851 71.9541 69.9193 72.508 70.045C72.9677 70.1943 73.3984 70.4544 73.6964 70.876C74.1822 71.5765 74.1549 72.3998 74.0461 73.088C73.9855 73.5149 73.9002 73.8671 73.797 74.2237C73.6623 74.6894 73.5017 75.1137 73.3595 75.4425C73.0158 76.2407 72.5168 77.0937 72.1359 77.6993C72.0738 77.7984 72.014 77.893 71.9582 77.9805C71.6656 78.478 71.3633 78.9655 71.0578 79.4405C71.0327 79.469 71.0066 79.4973 70.9806 79.5264C70.651 79.8958 70.3198 80.3852 69.7687 81.1514C69.5338 81.4776 69.2451 81.8706 68.9113 82.3057C68.6936 82.5894 68.5589 82.7211 68.4494 82.8282C68.4173 82.8595 68.3865 82.8904 68.3576 82.92C68.2575 83.0229 68.179 83.1535 68.0861 83.3077C67.9658 83.5074 67.8172 83.7522 67.5656 84.0216C66.7616 84.8802 66.4805 85.3181 66.2697 85.6524C66.2076 85.7503 66.1506 85.8401 66.088 85.9268C65.8862 86.2071 65.5528 86.5696 65.2882 86.8331C65.0788 87.0422 64.7145 87.5082 64.4464 87.8673C64.3449 88.0034 64.1952 88.1778 64.0187 88.3809C63.8356 88.5917 63.6239 88.8324 63.4045 89.1016C62.8529 89.778 62.5541 90.1352 62.3146 90.421C62.2465 90.5021 62.1825 90.5772 62.1193 90.6524C61.9204 90.889 61.6617 91.1883 61.4054 91.4815C61.1014 91.8297 60.7765 92.1973 60.5441 92.4688C60.0002 93.0326 59.4506 93.5868 58.8986 94.1378C58.8978 94.2581 58.8976 94.3789 58.8966 94.5001C58.89 95.3021 58.8638 96.105 58.8195 96.9053C58.7669 97.8566 58.6873 98.8064 58.5832 99.752C58.5435 100.306 58.5024 100.831 58.4572 101.319C58.3937 102.005 58.3233 102.614 58.2414 103.114C58.0467 104.317 57.6961 105.659 57.4084 106.642C57.3617 106.802 57.3172 106.954 57.2755 107.094C57.0818 107.884 56.8718 108.671 56.6466 109.452C56.6213 109.501 56.595 109.551 56.5685 109.601C56.2364 110.224 55.9773 111.033 55.5197 112.291C55.3197 112.839 55.0808 113.471 54.7746 114.204C54.5768 114.677 54.4273 114.9 54.3058 115.082C54.2701 115.135 54.2361 115.185 54.2043 115.236C54.0948 115.413 54.0411 115.625 53.9757 115.876C53.8909 116.201 53.7863 116.592 53.5148 117.047C52.6469 118.492 52.4155 119.196 52.2453 119.738L52.2443 119.739C52.3262 119.673 52.4019 119.61 52.4709 119.558C52.4786 119.552 52.4866 119.544 52.4943 119.538C52.5969 119.458 52.6941 119.382 52.8078 119.294C53.0806 119.086 53.4478 118.796 54.2736 118.299C54.5075 118.144 54.7457 117.994 54.9855 117.85C57.5828 116.294 60.4528 115.31 63.3595 114.682C63.3956 114.673 63.4329 114.664 63.4699 114.655C64.1954 114.477 65.1036 114.292 65.6798 114.217C66.4123 114.12 66.907 114.079 67.3224 114.048C69.665 113.809 72.0077 113.699 74.4035 113.986C74.521 114.003 74.6486 114.023 74.7804 114.046C74.9154 114.07 75.0068 114.087 75.1593 114.123C75.3056 114.159 75.3901 114.18 75.5588 114.241C75.6328 114.269 75.7013 114.301 75.7668 114.336C75.861 114.388 75.9589 114.451 76.0451 114.566C76.2234 114.815 76.3494 115.044 76.4406 115.35C76.6991 116.173 76.3027 117.036 75.8351 117.576C75.5672 117.916 75.2675 118.2 75.0031 118.429C74.5977 118.774 74.2454 119.021 73.9279 119.222C73.1637 119.703 72.2821 120.103 71.588 120.393C71.4805 120.437 71.3773 120.481 71.2814 120.52C70.7453 120.76 70.2207 120.979 69.6691 121.198C69.632 121.207 69.594 121.216 69.5558 121.225C69.0755 121.332 68.5036 121.543 67.5959 121.848C67.2038 121.979 66.7459 122.128 66.2023 122.292C65.8564 122.396 65.6679 122.424 65.5148 122.447C65.47 122.454 65.4272 122.461 65.3849 122.469C65.2386 122.495 65.0951 122.556 64.9279 122.627C64.7102 122.72 64.4471 122.832 64.0763 122.905C62.9053 123.135 62.4097 123.328 62.0382 123.477C61.9291 123.52 61.8289 123.56 61.7257 123.594C61.3906 123.705 60.9014 123.805 60.5265 123.864C60.2292 123.912 59.6527 124.078 59.2179 124.213C59.054 124.264 58.8261 124.318 58.5597 124.38C58.2833 124.444 57.9655 124.517 57.6252 124.607C56.7666 124.835 56.3103 124.949 55.9416 125.041C55.8371 125.067 55.7396 125.092 55.6427 125.116C55.339 125.192 54.9473 125.283 54.5607 125.371C54.102 125.476 53.6173 125.583 53.2629 125.668C52.3203 125.836 51.3752 125.991 50.4328 126.138C49.9432 126.214 49.4786 126.234 49.1144 126.197C48.9578 126.181 48.8311 126.151 48.7355 126.115C48.376 126.737 48.1344 127.135 47.9279 127.473C47.848 127.603 47.7722 127.723 47.6974 127.844C47.4619 128.223 47.155 128.691 46.84 129.157C46.4641 129.714 46.0688 130.279 45.7765 130.709C44.9311 131.765 44.0484 132.791 43.1388 133.786C42.6673 134.302 42.1441 134.72 41.6769 134.959C41.2121 135.196 40.8531 135.228 40.673 135.06C40.493 134.89 40.5034 134.533 40.6916 134.057C40.8826 133.578 41.2266 133.029 41.6545 132.503C42.5093 131.454 43.3325 130.375 44.1291 129.276C45.0982 127.94 46.0266 126.578 46.9289 125.197C46.9589 125.151 46.9878 125.105 47.0177 125.059C47.0124 125.053 47.0065 125.048 47.0011 125.042C46.6721 124.684 46.3069 124.188 45.9591 123.616C45.2979 122.53 44.64 121.416 44.006 120.312C43.7787 119.872 43.4736 119.297 43.1789 118.732C42.9299 118.256 42.6884 117.789 42.4982 117.41C42.438 117.29 42.3775 117.169 42.3127 117.039C42.0829 116.579 41.8064 116.024 41.2882 114.951C41.085 114.53 40.8837 114.139 40.7111 113.8C40.5447 113.473 40.4047 113.196 40.3117 112.985C40.0655 112.428 39.73 111.697 39.5304 111.349C39.2783 110.91 38.9641 110.317 38.7814 109.884C38.7251 109.75 38.6755 109.617 38.6213 109.471C38.4366 108.969 38.1894 108.31 37.4347 106.898C37.1986 106.454 37.0738 106.098 36.9679 105.795C36.8871 105.563 36.8191 105.367 36.7248 105.195C36.6973 105.145 36.6698 105.096 36.6398 105.044C36.5376 104.867 36.4125 104.651 36.214 104.201C35.9085 103.509 35.659 102.917 35.4464 102.402C34.9618 101.227 34.6738 100.48 34.3703 99.8751C34.3464 99.8276 34.3219 99.7808 34.299 99.7344C34.0379 99.0194 33.7766 98.2723 33.5373 97.545C33.4894 97.4117 33.4388 97.2677 33.3859 97.1173C33.0665 96.2147 32.6493 94.9336 32.3966 93.7999C32.2907 93.3282 32.1795 92.7317 32.1017 92.0909C32.0418 91.5973 32.0003 91.1065 32.0002 90.546C32.013 89.6326 32.0052 88.4989 33.0011 87.7471C33.11 87.6737 33.228 87.6121 33.3527 87.5635C34.5205 87.1974 35.4281 87.8467 36.1671 88.3243C38.7699 90.2671 40.5963 92.9191 42.255 95.5792C42.5591 96.0536 42.9061 96.6064 43.3937 97.4747C43.7732 98.1464 44.3116 99.2603 44.7111 100.177C44.7315 100.223 44.7518 100.27 44.7716 100.315C46.4341 103.924 47.6731 107.729 48.3644 111.656C48.428 112.019 48.4866 112.385 48.5402 112.751C48.7635 113.995 48.8213 114.61 48.8683 115.055C48.8872 115.242 48.9027 115.402 48.9201 115.571C48.9214 115.584 48.9227 115.598 48.924 115.611C49.0019 116.329 49.0902 117.631 49.0353 118.313C49.0287 118.401 49.0222 118.491 49.0148 118.579C48.9825 118.965 48.9446 119.35 48.9181 119.766C48.9146 119.821 48.9105 119.878 48.9064 119.934C48.8705 120.734 48.8085 121.537 48.7199 122.335C48.7346 122.311 48.7502 122.286 48.7648 122.262C48.8256 122.16 48.887 122.057 48.9474 121.955C49.3812 121.085 49.7949 120.21 50.0949 119.6C50.3425 119.096 50.5579 118.745 50.7404 118.445C50.866 118.239 50.9765 118.055 51.0695 117.859C51.1195 117.755 51.1866 117.61 51.2658 117.436C51.5903 116.725 52.1188 115.51 52.6418 114.419C52.8749 113.935 53.1585 113.376 53.4211 112.839C53.7971 112.071 54.1295 111.344 54.2433 110.958C54.4444 110.281 54.7271 109.523 54.964 108.848C55.1903 108.205 55.3766 107.636 55.4279 107.299C55.4889 106.896 55.5984 106.568 55.7541 106.078C55.8616 105.739 55.9913 105.319 56.133 104.742C56.2957 104.077 56.4263 103.606 56.5343 103.207C56.6851 102.646 56.7944 102.217 56.842 101.565C56.8947 100.84 56.9552 100.089 57.0431 99.5001C57.0834 99.2322 57.1143 98.924 57.1427 98.6036C57.1806 98.1784 57.213 97.7315 57.2629 97.3253C57.3041 96.9899 57.367 96.7137 57.4211 96.4688C57.4379 96.3925 57.4539 96.3192 57.4679 96.2481C57.4785 95.9791 57.4867 95.7091 57.4914 95.4395C57.4856 95.4021 57.4786 95.3629 57.4718 95.3223C57.1995 95.4665 57.0068 95.4993 56.9211 95.4151C56.9101 95.4041 56.9019 95.3906 56.8947 95.376C56.8927 95.3781 56.8908 95.3808 56.8888 95.3829C56.8896 95.3798 56.89 95.3762 56.8908 95.3731C56.8839 95.3738 56.8769 95.3722 56.8703 95.3721C56.8654 95.3791 56.8616 95.3867 56.8556 95.3926C56.7631 95.484 56.5756 95.4725 56.3312 95.3653C56.087 95.2582 55.8021 95.0607 55.5421 94.8262C55.0322 94.3655 54.5133 93.9146 53.9914 93.4669C53.8046 93.2783 53.5506 93.0361 53.3 92.8008C53.0904 92.604 52.8819 92.4105 52.716 92.252C52.6636 92.202 52.6113 92.1513 52.5548 92.0977C52.356 91.9091 52.1089 91.6757 51.6408 91.2354C51.4555 91.0613 51.2745 90.9083 51.1164 90.7755C50.9648 90.6482 50.8358 90.5408 50.7482 90.4522C50.5178 90.2188 50.1965 89.9192 50.0138 89.8008C49.784 89.6521 49.4863 89.4376 49.3048 89.2579C49.2491 89.2026 49.1985 89.1436 49.1427 89.0792C48.9541 88.8602 48.6968 88.5654 47.9679 88.088C47.7385 87.9373 47.6033 87.7817 47.4894 87.6514C47.3999 87.5496 47.3241 87.4636 47.2316 87.4083C47.2047 87.3922 47.1767 87.3772 47.1476 87.3614C47.0481 87.3069 46.928 87.2421 46.7238 87.0753C46.3991 86.8095 46.1442 86.5929 45.9084 86.3907C45.3849 85.9416 45.0475 85.6418 44.7414 85.4591C44.7158 85.4435 44.6899 85.4285 44.6652 85.4132C44.3526 85.1204 44.0503 84.8298 43.7502 84.5303C43.6938 84.4794 43.6377 84.428 43.5705 84.3663C43.1699 83.9993 42.6506 83.4996 42.2482 82.9835C42.0747 82.7605 41.8926 82.4982 41.7023 82.1583C41.5736 81.9235 41.4432 81.662 41.34 81.3321C41.1382 80.823 41.1539 80.0229 41.6252 79.5489C42.021 79.1283 42.4721 78.9422 42.9445 78.7794C43.0669 78.7391 43.1951 78.7206 43.3068 78.7139C45.3502 78.8437 46.7064 80.0222 48.0724 81.0987C48.3074 81.2785 48.6014 81.5126 49.007 81.879C49.3232 82.1628 49.782 82.6624 50.1398 83.0841C50.1575 83.1048 50.1753 83.1253 50.1925 83.1456C51.6673 84.7554 52.9396 86.5069 54.0656 88.3653C54.167 88.5329 54.2677 88.7044 54.3683 88.878C54.7581 89.4649 54.9097 89.7329 55.0343 89.9503C55.0851 90.0393 55.1289 90.1161 55.1769 90.1964C55.1806 90.2025 55.185 90.2097 55.1886 90.2159C55.3868 90.5448 55.743 91.1582 55.8576 91.5128C55.8722 91.5583 55.8862 91.6049 55.9005 91.6505C55.963 91.8492 56.0258 92.0497 56.1115 92.2589C56.123 92.2869 56.1344 92.3165 56.1457 92.3448C56.3592 92.8098 56.5581 93.2623 56.7589 93.7296C56.7742 93.657 56.7898 93.5837 56.8078 93.5108C56.9862 92.7933 57.1656 92.1069 57.3634 91.4005C57.3491 91.0563 57.3189 90.6754 57.2853 90.2891C57.2355 89.7127 57.1808 89.1618 57.1769 88.7637C57.1756 88.6163 57.1984 88.4885 57.2209 88.3624V88.3604C57.2224 88.352 57.2243 88.3435 57.2257 88.335C57.1454 87.3855 57.0438 86.4324 56.9191 85.4942C56.9028 85.4127 56.8866 85.3304 56.8703 85.2491C56.7902 84.8506 56.708 84.4715 56.6252 84.2237C56.5356 83.9547 56.4136 83.276 56.2629 82.5616C56.1653 82.0973 56.0552 81.6149 55.9494 81.2286C55.8877 81.003 55.8741 80.7782 55.8586 80.5479C55.844 80.3331 55.8277 80.1117 55.7677 79.88C55.7376 79.7637 55.6956 79.6393 55.6505 79.5079C55.611 79.3923 55.5681 79.2703 55.5285 79.1417C55.4916 79.0218 55.4417 78.747 55.3713 78.3966C55.3277 78.18 55.276 77.9338 55.216 77.6768C55.0077 77.0132 54.7833 76.3538 54.5431 75.6993C54.4705 75.5698 54.3958 75.4634 54.3205 75.3848C54.2664 75.3285 54.2096 75.2836 54.1515 75.2383C54.0725 75.1768 53.9901 75.1135 53.9074 75.0157C53.8426 74.939 53.7909 74.8389 53.7785 74.7637C53.7728 74.729 53.7762 74.6996 53.7785 74.6729C53.7811 74.6423 53.7826 74.6143 53.7716 74.586C53.7637 74.5657 53.7469 74.5482 53.7267 74.5264C53.6943 74.4914 53.6523 74.4449 53.6203 74.3633C53.5016 74.0606 53.3706 73.7072 53.2394 73.3682C53.0943 72.9925 52.9435 72.6199 52.8097 72.3331C52.6621 72.0158 52.4813 71.5329 52.2961 71.0626C52.1671 70.7345 52.031 70.4014 51.9025 70.1221C51.7791 69.8534 51.6209 69.585 51.464 69.3243C51.2735 69.0069 51.0947 68.7183 50.9787 68.4415C50.9554 68.3858 50.9526 68.3024 50.9484 68.1973C50.9454 68.1228 50.9409 68.0365 50.9289 67.9425C50.7439 67.6086 50.5626 67.2848 50.3732 66.9512C50.3621 66.9422 50.3495 66.9323 50.338 66.9229C50.0741 66.7055 49.7263 66.4339 49.4972 65.8673C49.439 65.7233 49.4278 65.616 49.4172 65.5196C49.4065 65.4248 49.3993 65.3432 49.3478 65.2452C49.2895 65.1343 49.1901 65.021 49.0812 64.8975C48.9281 64.724 48.7553 64.5296 48.6486 64.2891C48.6413 64.2728 48.6329 64.2549 48.6252 64.2374C48.5505 64.0684 48.4384 63.8172 48.3586 63.5421C47.9263 62.8379 47.5026 62.1606 47.0578 61.4649C46.5637 60.6911 46.0482 59.9092 45.5324 59.1368C41.5093 60.5113 37.141 58.9984 43.6437 57.919C43.1639 56.8051 43.3587 55.978 43.4455 54.4542C43.6673 53.2436 44.5663 55.4434 46.256 56.4132ZM33.8107 27.0049C35.0491 27.1163 35.7384 28.1063 36.2443 28.9258C36.2742 28.9854 36.3043 29.0458 36.3332 29.1075C36.5138 29.5009 36.7075 29.9337 36.9064 30.4717C37.0382 29.938 37.2251 29.3505 37.5695 28.7208C37.8953 28.1549 38.2119 27.9162 38.4845 27.7794C38.5658 27.7395 38.648 27.7085 38.7316 27.6837C39.0185 27.5964 39.3548 27.58 39.6964 27.6817C39.7331 27.6924 39.7714 27.705 39.8097 27.7188C40.3265 27.8828 40.6127 28.516 40.6525 29.0977C40.7092 29.7867 40.6785 30.3115 40.6838 30.755C40.6823 31.6497 40.7353 32.175 40.7931 32.6016C40.8185 32.789 40.8445 32.9572 40.8693 33.129C40.9455 33.6871 41.0719 34.4728 41.2287 35.0528C41.3395 35.517 41.7209 36.3976 42.1349 36.9844C42.287 37.2082 42.4942 37.5108 42.7707 37.8419C42.8785 37.971 42.9962 38.1041 43.1261 38.2403C43.3478 38.4729 43.5934 38.7418 43.8332 39.0108C44.818 40.1272 45.2664 40.7829 45.6291 41.3077C45.7319 41.4593 45.8244 41.5993 45.9162 41.7423C46.2058 42.1928 46.5423 42.7699 46.841 43.379C47.2011 44.1063 47.4977 44.8847 47.6769 45.4962C48.109 47.0783 48.1618 48.8632 47.4963 50.4376C47.1639 51.246 46.6326 51.9075 46.1818 52.2999C45.8435 52.5946 45.5797 52.7421 45.4377 52.7686C45.5341 52.8746 45.6542 53.148 45.7228 53.5909C45.7727 53.9057 45.7702 54.3244 45.6632 54.7579C45.4276 54.5194 45.1991 54.2553 44.9611 53.9883C44.8505 53.8643 44.718 53.7206 44.5841 53.5958C44.4771 53.496 44.2418 53.2834 43.9172 53.1661C43.7327 53.0995 43.4598 53.0422 43.1437 53.1046C42.8119 53.1702 42.5519 53.3442 42.3713 53.5421C42.0693 53.873 41.9841 54.273 41.9504 54.4571L41.9357 54.5352L41.9318 54.6143C41.8887 55.3711 41.7746 56.1296 41.8439 56.9337C41.75 56.9555 41.6587 56.9778 41.5705 57.0001C41.3742 56.9372 41.1856 56.8554 41.0109 56.7559C40.9408 56.7184 40.8715 56.6777 40.8048 56.6358C40.4804 56.4307 40.2054 56.2002 39.9601 55.9561C39.8975 55.9699 39.8352 55.9858 39.7726 55.9981C38.9141 56.21 37.1602 56.0828 36.2707 55.7569C36.2544 55.7518 36.2371 55.7464 36.2209 55.7413C36.0087 55.6735 35.8082 55.6032 35.5793 55.5118C35.044 55.2825 34.2726 54.9859 33.0255 53.9337C32.6615 53.6334 32.3164 53.3086 31.9933 52.9688C29.8027 50.6214 28.4432 47.6578 27.8341 44.5596C27.5342 42.8942 26.7565 41.3528 25.6408 40.0518C25.6021 40.0075 25.5609 39.9619 25.5207 39.9171C25.0367 39.3735 24.4211 38.7969 23.8507 38.2725C23.5033 37.9515 23.1775 37.645 22.9191 37.3663C22.5912 37.0105 22.3013 36.6548 22.1271 36.2247C21.9441 35.7979 21.9718 35.285 22.1271 34.9434C22.2146 34.7358 22.3235 34.554 22.4591 34.3966C23.481 33.3103 24.83 33.8637 25.7277 34.2149C26.1925 34.4181 26.6338 34.6503 27.0588 34.9053C26.4153 33.6713 25.9287 32.3415 26.2316 30.796C26.3407 30.4284 26.5643 30.0715 26.8703 29.8204C27.8142 29.052 28.9663 29.5945 29.6994 30.0401C30.5365 30.5655 31.2517 31.214 31.9201 31.8995C31.8417 31.6386 31.7762 31.3907 31.7238 31.1573C31.5777 30.4916 31.4712 29.7562 31.5685 29.0001C31.6371 28.2584 32.1291 27.4194 32.8302 27.1739C32.9352 27.1306 33.0372 27.0973 33.1398 27.0704C33.371 27.0097 33.5983 26.9896 33.8107 27.0049ZM45.3107 52.7257C45.3115 52.7297 45.3119 52.7343 45.3127 52.7383C45.3159 52.7349 45.3199 52.7321 45.3234 52.7296C45.3222 52.7249 45.3238 52.7192 45.3234 52.7139C45.3192 52.7178 45.3149 52.7218 45.3107 52.7257Z" fill="#838D4C"/>
</svg>
