<svg width="100" height="150" viewBox="0 0 100 150" fill="none" xmlns="http://www.w3.org/2000/svg">
<path d="M52.6612 47.9373C51.4938 53.3077 50.3265 52.4129 48.8673 54.7996C48.396 55.5705 47.7506 56.7242 47.0841 57.95C47.1047 58.454 47.0189 59.0787 46.8448 59.7117C46.5584 60.7516 46.2831 61.795 46.0186 62.8387C46.0076 62.8944 45.9959 62.951 45.9845 63.0067C45.9002 63.4173 45.8594 63.8102 45.8194 64.2049C45.8101 64.2959 45.8014 64.3852 45.7921 64.4754C45.7196 65.1614 45.3342 66.4193 45.1339 67.1121C45.1303 67.1247 45.1267 67.1376 45.1231 67.1502C45.0752 67.3146 45.0339 67.4718 44.9864 67.6561C44.8743 68.0957 44.7201 68.6886 44.3682 69.9158C44.2896 70.2798 44.2117 70.6428 44.1348 71.0057C43.4922 74.0416 42.9403 77.0934 42.5616 80.1658C42.9482 79.7564 43.3461 79.3569 43.754 78.9686C44.0829 78.6555 44.4191 78.3494 44.7618 78.0516C44.8456 77.9117 44.9489 77.793 45.0186 77.7137C45.0258 77.7055 45.0327 77.6976 45.0391 77.6902C45.1355 77.5802 45.2664 77.5133 45.3829 77.4549C45.4656 77.4134 45.5418 77.3755 45.5948 77.3279C45.6413 77.286 45.662 77.2405 45.6837 77.1902C45.7058 77.139 45.7307 77.082 45.7891 77.0174C45.9629 76.8259 46.1512 76.7472 46.3145 76.7039L46.4679 76.6697C46.4762 76.668 46.4852 76.6655 46.4932 76.6639C46.6655 76.5373 46.8379 76.4141 47.0138 76.2918C47.0407 76.2446 47.0619 76.1985 47.0802 76.159C47.1058 76.1033 47.1278 76.0594 47.1534 76.0369C47.2813 75.9249 47.4538 75.825 47.6329 75.7244C47.7839 75.6394 47.9389 75.5537 48.0782 75.4568C48.2225 75.3566 48.3838 75.2367 48.5489 75.116C48.7847 74.9434 49.0234 74.7737 49.2022 74.6756C49.3606 74.5886 49.5595 74.469 49.7608 74.3514C49.9455 74.2435 50.1298 74.1384 50.3018 74.0506C50.3474 74.0274 50.3848 74.0254 50.4132 74.0242C50.4305 74.0235 50.445 74.0227 50.4562 74.0174C50.4716 74.0097 50.4812 73.9962 50.4913 73.9813C50.5001 73.9682 50.51 73.9532 50.5255 73.9402C50.5593 73.9122 50.6233 73.8895 50.6827 73.8856C50.7588 73.8805 50.8214 73.8924 50.881 73.9031C50.9247 73.911 50.9679 73.918 51.0138 73.9197C51.0777 73.922 51.1549 73.9116 51.2374 73.8924C51.6002 73.7327 51.9757 73.5805 52.3536 73.4441C52.4934 73.3798 52.6226 73.3197 52.7433 73.2664C52.933 73.1821 53.0875 73.1186 53.1593 73.1004C53.2367 73.0808 53.309 73.0685 53.3829 73.0545C53.465 73.0392 53.5412 73.0249 53.6095 73.0086C53.6779 72.9922 53.7443 72.9713 53.8077 72.9481L53.9923 72.8758C53.9842 72.8575 54.0473 72.8124 54.13 72.7781C54.2798 72.7176 54.4815 72.5922 54.6817 72.452C54.9864 72.2393 55.2798 72.0032 55.4122 71.9334C55.5363 71.867 55.707 71.7445 55.8839 71.6121C55.9194 71.5857 55.9555 71.5587 55.9913 71.532C56.3779 71.1918 56.7614 70.8408 57.1466 70.4891C57.1489 70.485 57.1511 70.4805 57.1534 70.4764V70.4754C57.1876 70.4146 57.2251 70.3506 57.2794 70.2918C57.4231 70.1364 57.664 69.9308 57.9054 69.7313C58.072 69.5931 58.2421 69.4556 58.3849 69.3348C58.6029 69.1504 58.7834 68.9788 58.9845 68.8172C59.1299 68.7105 59.2287 68.6073 59.5245 68.5145C59.6237 68.4929 59.7137 68.4662 59.9044 68.5135C60.1026 68.5632 60.2688 68.7457 60.3195 68.8895C60.4084 69.147 60.3663 69.2674 60.3507 69.3807C60.3194 69.5323 60.2854 69.6012 60.2423 69.7039L60.2521 69.6629C60.2205 69.747 60.1888 69.8213 60.1603 69.8865C60.1493 69.9116 60.1379 69.9361 60.128 69.9588C60.097 70.1065 60.0654 70.2515 60.0323 70.3963C60.0306 70.4377 60.0297 70.4808 60.0284 70.5252C60.0243 70.6679 60.0181 70.8282 59.9835 71.0125C59.9412 71.238 59.8696 71.4878 59.7999 71.7127C59.7465 71.886 59.6915 72.0566 59.6495 72.202C59.5573 72.5231 59.3857 72.9163 59.1866 73.282C59.0115 73.6009 58.9241 73.8408 58.8038 74.1443C58.7144 74.3657 58.609 74.618 58.4152 74.9617C58.2489 75.255 58.1225 75.4764 58.0187 75.6522C57.8657 75.9087 57.758 76.0746 57.587 76.24C57.4458 76.3757 57.2399 76.6518 56.9835 76.951C56.7177 77.2635 56.389 77.6049 56.0636 77.8484C55.8777 77.9892 55.5488 78.3119 55.1671 78.6297C54.9025 78.8516 54.6118 79.0717 54.3507 79.242C53.7626 79.6293 53.0586 79.9332 52.6446 80.0955C52.5437 80.1355 52.4588 80.1679 52.3976 80.1922C52.2832 80.2375 52.1758 80.2941 52.0528 80.3563C51.8747 80.4462 51.6649 80.5498 51.3644 80.6473C50.9993 80.7661 50.4751 80.9054 49.9542 81.033C49.8924 81.0541 49.8302 81.0747 49.7686 81.0955C49.7537 81.1006 49.7387 81.1071 49.7237 81.1121L49.6515 81.1307C49.0042 81.2753 48.3502 81.35 47.7081 81.3826C46.7675 81.4322 45.8557 81.3803 45.0059 81.4119C44.3078 81.4375 43.6507 81.5302 43.0538 81.7791C42.8162 81.8766 42.5767 81.9593 42.3546 82.0135C42.3265 82.2964 42.3002 82.5798 42.2755 82.8631C42.2731 82.9133 42.2709 82.9648 42.2686 83.0164C42.2224 84.0184 42.2018 85.2595 42.1544 86.0398C42.0923 87.0304 42.0557 87.7067 42.0274 88.2615C42.0226 91.4377 42.2893 94.6229 42.918 97.7381C42.9549 97.9207 42.9929 98.1036 43.0323 98.2859C43.2028 99.0753 43.3977 99.8624 43.6163 100.642C43.8638 101.526 44.1401 102.402 44.4425 103.27C44.6385 103.769 44.8378 104.237 45.0284 104.67C45.295 105.275 45.545 105.813 45.7384 106.258C46.2042 107.334 46.7081 108.565 47.1065 109.472C47.1714 109.621 47.2335 109.762 47.2911 109.89C47.6482 110.59 48.0199 111.284 48.4034 111.971C48.4195 112.022 48.436 112.074 48.4522 112.127C48.655 112.779 49.05 113.508 49.7081 114.633C49.9947 115.121 50.334 115.687 50.7335 116.349C50.9912 116.776 51.0868 117.02 51.1642 117.219C51.1869 117.278 51.2078 117.333 51.2315 117.387C51.3132 117.574 51.4576 117.733 51.628 117.921C51.8494 118.164 52.1152 118.454 52.3546 118.912C52.7899 119.739 53.1509 120.262 53.4523 120.631C53.6274 119.203 54.0526 117.877 54.7638 116.672C55.3597 115.69 56.0864 114.775 57.254 114.038L57.2989 113.997C57.8857 113.706 58.5156 113.526 59.1466 113.455C59.2224 113.446 59.2987 113.438 59.3751 113.432C59.5937 113.415 59.8172 113.416 60.0314 113.436C59.8906 113.602 59.7657 113.767 59.6476 113.934C59.6061 113.993 59.5639 114.051 59.5226 114.11C59.1802 114.598 58.8858 115.066 58.6271 115.514L58.672 115.473C58.3042 116.317 57.884 117.303 57.3458 118.201C56.6099 119.448 55.6503 120.611 54.4278 121.676C54.733 122.039 55.078 122.569 55.3273 122.99C55.5379 123.347 56.0792 123.97 56.5148 124.422C56.6792 124.592 56.8789 124.842 57.1153 125.134C57.3603 125.436 57.6457 125.785 57.9728 126.138C58.8012 127.032 59.2499 127.498 59.6095 127.874C59.7121 127.981 59.8075 128.081 59.9034 128.179C60.2071 128.492 60.5804 128.885 60.9601 129.277C61.4158 129.749 61.8806 130.22 62.2482 130.569C63.1197 131.544 64.0084 132.511 64.9113 133.46C65.3763 133.949 65.7614 134.476 65.9806 134.939C66.1982 135.401 66.2292 135.758 66.0597 135.937C65.89 136.116 65.53 136.105 65.0548 135.903C64.5788 135.7 64.0308 135.323 63.5294 134.853C62.5227 133.91 61.5294 132.945 60.5636 131.958C59.3859 130.754 58.2436 129.513 57.1525 128.227C56.3893 127.328 55.6455 126.412 54.923 125.48C54.8486 125.384 54.7742 125.287 54.7003 125.191C54.041 124.449 53.3992 123.691 52.9688 123.14C52.942 123.106 52.917 123.071 52.8917 123.038C51.0786 123.475 49.3692 123.55 47.7472 123.306C46.7062 123.156 45.6816 122.851 44.754 122.544L44.7979 122.542C44.2818 122.415 43.7377 122.286 43.1553 122.16C43.0905 122.146 43.0261 122.132 42.961 122.118C42.7612 122.074 42.5595 122.034 42.3468 122.001C42.4927 121.846 42.6552 121.699 42.8233 121.565C42.8781 121.522 42.9337 121.479 42.9893 121.437C43.4883 121.062 44.0435 120.757 44.6339 120.54L44.6768 120.537C45.9315 120.179 47.0731 120.182 48.1886 120.34C49.5548 120.545 50.8459 121.039 52.0685 121.792C51.9916 121.667 51.917 121.55 51.8351 121.436C51.7654 121.34 51.6685 121.209 51.5528 121.051C51.0796 120.405 50.2894 119.293 49.6729 118.213C49.3985 117.734 49.1033 117.162 48.8292 116.614C48.4366 115.831 48.0878 115.094 47.8673 114.747C47.4797 114.139 47.1065 113.397 46.7891 112.738C46.4855 112.109 46.2309 111.556 46.0391 111.262C45.8105 110.913 45.6737 110.587 45.4747 110.098C45.337 109.759 45.1713 109.345 44.9317 108.784C44.6562 108.138 44.4947 107.667 44.3595 107.265C44.1705 106.701 44.0325 106.276 43.7413 105.675C43.713 105.616 43.6862 105.556 43.6583 105.497L43.6573 105.496C43.2075 105.121 42.6357 104.592 42.0509 104.017C40.8725 102.86 39.6049 101.773 38.3145 100.713C36.742 99.4244 35.1261 98.1791 33.4971 96.9529C32.3574 96.0956 31.2056 95.251 30.0459 94.4236C29.9254 94.3376 29.8054 94.252 29.6866 94.1678C29.0947 93.7819 28.5017 93.4018 27.9727 93.0652C27.5873 92.8195 27.2329 92.5678 26.9463 92.3523C26.3638 91.913 25.9795 91.5482 25.6592 91.2351C25.436 91.0162 25.246 90.8221 25.0459 90.6316C24.9394 90.5301 24.7876 90.3852 24.6172 90.2176C23.9002 89.5214 22.7558 88.2744 21.8584 87.0252C21.4567 86.472 21.0236 85.8128 20.627 85.1697C20.0618 84.2563 19.5748 83.3756 19.3067 82.951C18.8293 82.1983 18.3554 81.3043 17.958 80.4959C17.5801 79.7295 17.2701 79.0447 17.0654 78.6697C16.8214 78.2217 16.6555 77.8209 16.4199 77.2205C16.2575 76.8044 16.0603 76.2903 15.7979 75.5926C15.4958 74.7867 15.3153 74.2025 15.167 73.7078C14.9592 73.0084 14.8132 72.4819 14.5459 71.7098C14.2496 70.8519 13.9848 69.939 13.8281 69.2088C13.7563 68.8759 13.6701 68.4957 13.5859 68.0994C13.4742 67.5743 13.3669 67.0195 13.2949 66.5086C13.2357 66.0882 13.2131 65.7365 13.1963 65.4256C13.1911 65.3287 13.1857 65.2352 13.1807 65.1453C13.1525 64.9452 13.1299 64.7443 13.1045 64.5438C13.06 64.434 13.0175 64.329 12.9766 64.2322L13.0605 64.2078C13.0579 64.1857 13.0544 64.1635 13.0518 64.1414C13.0453 64.1109 13.0381 64.079 13.0313 64.0467L13.8145 63.8162C13.8292 63.8406 13.8443 63.8659 13.8594 63.8934C13.8714 63.9156 13.8815 63.9401 13.8936 63.9627L13.9609 63.9422C13.9681 64.0076 13.9769 64.0731 13.9844 64.1385C14.1006 64.3652 14.2238 64.6133 14.3623 64.9041C14.6658 65.5452 14.9131 66.0941 15.208 66.6795C15.4355 67.1293 15.6883 67.5936 16.0195 68.1024C16.2443 68.4477 16.523 68.8355 16.8008 69.201C17.2175 69.7517 17.6611 70.2869 17.9492 70.657C18.0575 70.7965 18.1457 70.9341 18.2246 71.0584L18.2266 71.0604C18.232 71.0689 18.2377 71.0782 18.2432 71.0867C19.0039 71.9614 19.8173 72.7964 20.666 73.5916C20.7424 73.6582 20.8198 73.7267 20.8975 73.7938C21.2638 74.1088 21.6453 74.4227 21.8955 74.6004C22.1726 74.7997 22.8312 75.3492 23.5362 75.8904C24.0076 76.2542 24.4911 76.6096 24.8985 76.8914C25.1295 77.0513 25.3354 77.2279 25.5508 77.4109C25.5553 77.4148 25.56 77.4188 25.5645 77.4227C25.7748 77.6009 25.9867 77.7833 26.2295 77.9578C26.3501 78.0445 26.4866 78.1366 26.6338 78.2361C26.7628 78.3233 26.8985 78.4149 27.0362 78.5135C27.1616 78.6033 27.4405 78.8307 27.7871 79.1219C27.998 79.2992 28.2453 79.5091 28.4991 79.7264C29.1915 80.2734 29.8766 80.8421 30.5401 81.4344C30.6893 81.5465 30.8227 81.6383 30.9356 81.7029C31.0158 81.7486 31.0916 81.7868 31.168 81.823C31.2725 81.8728 31.3809 81.925 31.5137 82.0125C31.6175 82.081 31.727 82.1737 31.7891 82.2488C31.8181 82.2839 31.8366 82.3149 31.8536 82.3426C31.873 82.3744 31.89 82.4037 31.918 82.4314C31.9382 82.4514 31.9644 82.4667 31.9952 82.4871C32.0445 82.5199 32.1081 82.5638 32.1885 82.6453C32.487 82.9478 32.8199 83.3083 33.1338 83.6658C33.4839 84.0637 33.8141 84.4614 34.0792 84.7781C34.376 85.1316 34.7646 85.6623 35.1358 86.2078C35.3921 86.5836 35.6467 86.9743 35.8594 87.2986C36.0714 87.6212 36.301 87.9465 36.5206 88.2664C36.787 88.6547 37.0283 89.0178 37.21 89.3582C37.2453 89.4248 37.2731 89.5182 37.3067 89.6355C37.3306 89.7188 37.3576 89.8155 37.3936 89.9226C37.6426 90.3458 37.8713 90.7477 38.1075 91.1746C38.1185 91.1874 38.1302 91.2014 38.1417 91.2146V91.2156C38.3986 91.5135 38.7595 91.9423 39.0538 92.6355C39.1292 92.8129 39.1613 92.9404 39.1856 93.0457C39.2104 93.151 39.2336 93.2457 39.293 93.3709C39.3607 93.5132 39.4608 93.6728 39.5714 93.8484C39.7283 94.0982 39.8926 94.3563 40.0157 94.658C40.024 94.6783 40.0327 94.7006 40.0421 94.7234C40.1325 94.9439 40.2601 95.26 40.3614 95.5887C40.6771 96.247 40.9791 96.8952 41.2803 97.5457C41.2512 97.3678 41.2252 97.1898 41.2003 97.0086C41.142 96.5836 41.0861 96.1422 40.9962 95.6404C40.9348 95.2981 40.8558 94.9096 40.7823 94.5242C40.6726 93.9507 40.5756 93.3817 40.5499 92.9822C40.5402 92.8324 40.5566 92.7007 40.5733 92.5711L40.5743 92.5691C40.5754 92.5605 40.5761 92.5514 40.5772 92.5428C40.4555 91.5776 40.3568 90.6086 40.2813 89.6375C40.2694 89.5538 40.2575 89.4684 40.2462 89.3846C40.1905 88.9744 40.1418 88.5738 40.0841 88.3133C40.021 88.0308 39.9722 87.3172 39.9395 86.5643C39.9176 86.0717 39.9019 85.5601 39.8809 85.1434C39.8686 84.8997 39.9065 84.6698 39.9464 84.4334C39.9836 84.2129 40.0222 83.9863 40.0255 83.7381C40.0271 83.6139 40.0204 83.4792 40.0137 83.3357C40.0079 83.2091 40.0021 83.0743 40.002 82.9344C40.002 82.8042 40.035 82.5153 40.0811 82.1473C40.1095 81.9203 40.1435 81.6612 40.1768 81.3904C40.2132 80.6703 40.2611 79.9482 40.3204 79.2303C40.3093 79.0779 40.2884 78.9427 40.255 78.8348C40.2309 78.7576 40.199 78.6898 40.1671 78.6209C40.1235 78.527 40.0783 78.429 40.0489 78.2986C40.026 78.1967 40.0271 78.0795 40.0508 78.0037C40.0619 77.9685 40.0774 77.9415 40.0919 77.9178C40.1084 77.8907 40.1234 77.866 40.127 77.8348C40.1294 77.8123 40.1227 77.7877 40.1153 77.7576C40.1033 77.709 40.0879 77.6452 40.0987 77.5535C40.1393 77.2112 40.1988 76.8236 40.2598 76.4461C40.3278 76.0249 40.3982 75.6139 40.4425 75.2859C40.4918 74.9187 40.6104 74.3996 40.7344 73.8856C40.8209 73.5263 40.9104 73.1654 40.9776 72.8563C41.0434 72.5534 41.0852 72.231 41.127 71.9197C41.1772 71.546 41.2272 71.1895 41.3194 70.8934C41.3381 70.8337 41.3905 70.7654 41.4561 70.6805C41.5027 70.6202 41.5566 70.5509 41.6094 70.4705C41.6902 70.0893 41.7742 69.7086 41.8624 69.3279C41.8605 69.3137 41.8585 69.2987 41.8565 69.284V69.283C41.8103 68.9444 41.7485 68.4801 41.9864 67.9012C42.0468 67.7545 42.1141 67.669 42.1749 67.5926C42.2346 67.5176 42.288 67.45 42.3223 67.3416C42.3613 67.2183 42.3747 67.0625 42.3887 66.8944C42.4085 66.658 42.4315 66.3944 42.5343 66.1512C42.5413 66.1346 42.5489 66.116 42.5567 66.0975C42.6309 65.9209 42.7418 65.6566 42.8936 65.408C43.1259 64.6141 43.3713 63.8216 43.627 63.0301C43.8809 62.2448 44.1441 61.4647 44.4151 60.6873C43.9904 57.6922 42.2903 56.0028 41.5714 53.3084C40.8709 50.683 41.6679 49.0313 42.1544 48.534C43.9055 49.4291 44.7812 49.4291 46.5323 48.534C48.2834 47.6389 51.4938 49.1308 52.6612 47.9373ZM59.3644 40.1991C62.1715 39.6209 61.6111 42.5113 61.8917 43.6678C62.1725 44.8242 64.6988 44.2465 63.8566 47.1375C63.0144 50.0282 60.2074 49.739 58.2423 48.2938C57.6809 49.4501 55.1544 49.4499 54.0314 47.1375C52.9085 44.8249 51.7853 43.6679 49.8204 42.5116C53.4696 43.6676 56.5573 40.7774 59.3644 40.1991ZM37.0821 44.6092C37.654 41.4584 41.9428 40.5993 43.9444 40.8856C47.9474 41.7449 51.9511 44.8956 51.9513 46.328C51.9513 47.7603 49.0915 47.4738 47.0899 47.1873C45.9464 46.9011 45.9458 48.9064 43.9444 48.62C41.9433 48.3334 42.2291 46.9008 41.6573 46.328C41.0851 45.7553 36.5102 47.7601 37.0821 44.6092ZM46.5411 25.3983C48.5699 24.5404 47.9906 26.8274 49.1495 26.828C50.3088 26.828 51.7584 25.1122 52.628 25.9696C53.4976 26.8276 53.2081 27.6855 54.6573 27.9715C56.1066 28.2575 60.1642 28.5439 60.4542 32.2616C60.7441 35.9796 58.1353 42.8444 47.7003 40.2704C43.6423 35.6944 42.7731 28.5444 46.5411 25.3983ZM34.9024 28.1444C39.7326 26.9764 43.4263 36.6167 46.2677 40.1229C45.3201 39.7333 42.7441 39.0132 40.0167 39.2469C36.6069 39.539 30.6399 38.0781 30.6397 36.0331C30.6397 33.988 33.7653 33.9878 33.7657 32.5272C33.7657 31.0664 30.0718 29.313 34.9024 28.1444ZM64.2462 31.9608C65.3704 30.8146 68.4607 32.5338 67.3371 35.1131C66.213 37.6926 61.7171 38.8397 58.3448 39.4129C60.8739 38.5526 63.1222 33.1072 64.2462 31.9608ZM37.7852 23.1874C38.3281 22.6411 39.6857 24.2795 40.5001 23.7333C43.2143 22.0951 42.672 27.2842 42.6719 33.0194C42.129 32.2 37.2425 23.7338 37.7852 23.1874Z" fill="#838D4C"/>
</svg>
