<svg width="100" height="150" viewBox="0 0 100 150" fill="none" xmlns="http://www.w3.org/2000/svg">
<path d="M51.8617 44.3682C53.9211 49.8053 52.3697 49.6843 52.4506 52.6426C52.4886 54.0304 52.6677 56.3463 52.8529 58.4756C53.3774 59.1361 53.9017 59.8057 54.4154 60.4854C54.4528 60.53 54.4909 60.5754 54.5277 60.6201C54.8031 60.955 55.0769 61.2324 55.3646 61.5332C55.4297 61.6009 55.4955 61.6683 55.56 61.7364C56.0495 62.2478 56.7588 63.4131 57.1342 64.0596C57.1412 64.0715 57.1487 64.0839 57.1557 64.0957C57.2459 64.25 57.3339 64.3935 57.4359 64.5606C57.675 64.9553 58.0151 65.5049 58.6146 66.6866C58.8118 67.0225 58.9993 67.35 59.1879 67.6905C59.6885 68.5908 60.1597 69.5107 60.601 70.4463C60.8127 69.8291 61.0834 69.2362 61.4174 68.6699C62.0133 67.6881 62.74 66.7736 63.9076 66.0362L63.9535 65.9951C64.5402 65.7042 65.1694 65.5239 65.8002 65.4532C65.876 65.4445 65.9523 65.4364 66.0287 65.4307C66.2473 65.4133 66.4708 65.4146 66.685 65.4346C66.5442 65.6007 66.4193 65.7653 66.3012 65.9326C66.2597 65.9911 66.2175 66.0496 66.1762 66.1084C65.8337 66.5967 65.5395 67.0651 65.2807 67.5137L65.3256 67.4717C64.9578 68.3156 64.5375 69.3012 63.9994 70.1992C63.4005 71.214 62.6529 72.1733 61.7367 73.0694C62.5495 75.1247 63.209 77.243 63.6801 79.4014C63.6935 79.4526 63.7075 79.505 63.7211 79.5576C63.9873 80.5758 64.2589 81.8496 64.3549 82.6641C64.4785 83.6952 64.5227 84.3986 64.5541 84.9776C64.8638 88.1016 64.9134 91.2148 64.9027 94.3106C65.0106 93.82 65.1249 93.3299 65.2494 92.8438C65.2544 92.6206 65.2877 92.4036 65.3109 92.2579C65.3133 92.2429 65.3157 92.2283 65.3178 92.2149C65.3497 92.013 65.4352 91.8262 65.5121 91.6612C65.5669 91.5435 65.6174 91.4365 65.642 91.3389C65.6635 91.2532 65.659 91.1877 65.6537 91.1153C65.6483 91.0417 65.6431 90.9597 65.6645 90.8399C65.7493 90.3664 65.9617 90.0801 66.1176 89.8721C66.1244 89.863 66.1315 89.8526 66.1381 89.8438C66.235 89.5577 66.3349 89.2756 66.4389 88.9912C66.4407 88.9185 66.4365 88.8529 66.434 88.7959C66.4305 88.7155 66.4281 88.6507 66.4408 88.6045C66.5049 88.3752 66.6186 88.1171 66.7377 87.8545C66.8382 87.6323 66.9433 87.4055 67.0277 87.1827C67.1155 86.9512 67.2104 86.6835 67.309 86.4141C67.4501 86.028 67.597 85.645 67.7221 85.3868C67.8325 85.1584 67.9676 84.8601 68.1068 84.5635C68.2348 84.291 68.3654 84.0233 68.4926 83.7832C68.5263 83.7196 68.5618 83.6847 68.5893 83.6582C68.6063 83.6418 68.62 83.6278 68.6283 83.6123C68.6398 83.5909 68.6422 83.5697 68.6449 83.5459C68.6473 83.5252 68.6505 83.5023 68.6596 83.4756C68.6794 83.4179 68.7314 83.3399 68.7885 83.2832C68.8616 83.2106 68.929 83.1665 68.9936 83.1241C69.0409 83.0929 69.0876 83.0625 69.1342 83.0235C69.1995 82.9684 69.2713 82.8884 69.3451 82.7959C69.6323 82.3174 69.9389 81.8392 70.2631 81.377C70.3756 81.1937 70.4821 81.0226 70.5814 80.8682C70.7372 80.6251 70.8708 80.4312 70.9369 80.3535C71.0082 80.2698 71.0798 80.1923 71.1508 80.1172C71.2306 80.0329 71.3064 79.9566 71.3715 79.8838C71.4907 79.7502 71.5896 79.615 71.683 79.4883C71.6839 79.4843 71.6859 79.4794 71.6879 79.4737C71.7135 79.4113 71.7631 79.2827 71.8314 79.1612C71.9577 78.9375 72.0887 78.6034 72.2006 78.2696C72.3724 77.7586 72.5112 77.2363 72.5922 77.044C72.6684 76.8592 72.7546 76.5733 72.8412 76.2725C72.8587 76.212 72.8764 76.1499 72.8939 76.0889C73.0566 75.3736 73.2081 74.6505 73.3607 73.9268V73.7539C73.3624 73.7022 73.366 73.6488 73.3744 73.5928C73.4191 73.2955 73.5224 72.8604 73.6312 72.4317C73.7061 72.1354 73.7842 71.839 73.85 71.5811C73.9485 71.1972 74.0243 70.8515 74.1312 70.5117C74.2149 70.2884 74.2413 70.0826 74.5316 69.7647C74.6223 69.6829 74.748 69.5723 74.9994 69.5537C75.2476 69.5452 75.4117 69.6569 75.5141 69.7491C75.5938 69.8223 75.6556 69.9081 75.7025 69.9864C75.7387 70.0476 75.7702 70.1129 75.8002 70.1836C75.8673 70.3457 75.8929 70.4527 75.9262 70.5909L75.9115 70.5537C75.9499 70.6806 75.9796 70.7941 76.0053 70.8946C76.0148 70.9317 76.024 70.9674 76.0326 71.001C76.1146 71.1973 76.1939 71.3916 76.2709 71.585C76.2992 71.6357 76.329 71.6882 76.3598 71.7422C76.4583 71.9154 76.5676 72.1108 76.6703 72.3535C76.7948 72.6471 76.9151 72.9973 77.016 73.3125C77.0922 73.5498 77.1676 73.7956 77.2338 73.9971C77.3792 74.4369 77.5116 75.0314 77.5951 75.6035C77.6686 76.1129 77.754 76.457 77.8529 76.9034C77.923 77.2289 77.9993 77.601 78.057 78.1543C78.105 78.6226 78.1358 78.9802 78.1566 79.2617C78.1857 79.6752 78.1951 79.9532 78.1508 80.2793C78.1134 80.5526 78.1023 81.0323 78.0531 81.5762C78.0022 82.155 77.9056 82.7994 77.7465 83.3506C77.6589 83.6595 77.5343 84.2952 77.3461 84.959C77.2151 85.4262 77.055 85.9075 76.891 86.3116C76.5248 87.2262 75.9734 88.1501 75.6332 88.6748C75.5503 88.8039 75.4808 88.9102 75.4301 88.9883C75.3358 89.1335 75.252 89.2829 75.1566 89.4502C75.0172 89.6944 74.8517 89.9772 74.5854 90.336C74.2631 90.7711 73.7804 91.3648 73.2885 91.9434C73.2329 92.0178 73.177 92.0921 73.1215 92.1661C73.0759 92.2268 73.0293 92.2883 72.9838 92.3487L72.933 92.4073C72.3363 93.0391 71.6802 93.6027 71.0023 94.1133C69.9447 94.9137 68.8281 95.5711 67.8383 96.2969C67.0253 96.8924 66.3068 97.5529 65.8031 98.3633C65.5682 98.7361 65.3419 99.1014 65.1312 99.3877C65.1302 99.3898 65.1303 99.3925 65.1293 99.3946C64.9767 99.6972 64.8163 99.8727 64.6693 99.8916C64.6424 100.178 64.6149 100.465 64.5834 100.751C64.5437 101.305 64.5027 101.83 64.4574 102.318C64.3939 103.004 64.3235 103.613 64.2416 104.113C64.0469 105.316 63.6963 106.658 63.4086 107.641C63.3619 107.801 63.3174 107.953 63.2758 108.093C63.082 108.883 62.8721 109.67 62.6469 110.451C62.6215 110.5 62.5952 110.55 62.5687 110.6C62.2366 111.223 61.9775 112.032 61.5199 113.29C61.32 113.838 61.081 114.47 60.7748 115.203C60.5771 115.676 60.4276 115.899 60.3061 116.081C60.2704 116.134 60.2363 116.184 60.2045 116.235C60.0951 116.412 60.0414 116.624 59.976 116.875C59.8911 117.2 59.7865 117.591 59.515 118.046C58.6471 119.491 58.4157 120.195 58.2455 120.737C58.1949 120.896 58.1485 121.04 58.0902 121.182C57.9019 121.64 57.5295 122.241 57.2191 122.677C56.9748 123.022 56.6008 123.78 56.3285 124.36C56.2256 124.581 56.0579 124.864 55.8588 125.193C55.6531 125.534 55.4104 125.928 55.1684 126.358C54.5548 127.447 54.2081 128.014 53.9281 128.472C53.8482 128.602 53.7724 128.722 53.6977 128.843C53.4621 129.222 53.1552 129.69 52.8402 130.156C52.4643 130.713 52.069 131.278 51.7768 131.708C50.9314 132.764 50.0486 133.79 49.1391 134.785C48.6676 135.301 48.1444 135.719 47.6771 135.958C47.2123 136.195 46.8533 136.227 46.6732 136.059C46.4932 135.889 46.5036 135.532 46.6918 135.056C46.8828 134.577 47.2268 134.028 47.6547 133.502C48.5095 132.453 49.3328 131.374 50.1293 130.275C51.0984 128.939 52.0269 127.577 52.9291 126.196C53.5605 125.23 54.1726 124.252 54.765 123.261C54.8258 123.159 54.8872 123.056 54.9477 122.954C55.0726 122.704 55.1926 122.451 55.3119 122.206C54.9748 121.689 54.5533 120.984 54.1303 120.231C53.2688 118.7 52.2978 117.206 51.308 115.737C50.0966 113.944 48.8372 112.177 47.5648 110.421C46.6752 109.194 45.77 107.968 44.8607 106.761C44.7655 106.634 44.6703 106.509 44.5766 106.385C43.907 105.564 43.2346 104.751 42.7006 104.105C42.5927 103.974 42.4891 103.847 42.392 103.727C41.9204 103.142 41.6083 102.694 41.3412 102.307C41.1542 102.036 41.0012 101.809 40.8266 101.573C40.732 101.445 40.6079 101.279 40.4564 101.073C39.8364 100.235 38.8112 98.786 37.9896 97.3887C37.6264 96.7743 37.225 96.0382 36.8598 95.3311C36.3339 94.3174 35.8841 93.3599 35.6303 92.8858C35.1843 92.0583 34.7416 91.0682 34.3832 90.1846C34.0391 89.3406 33.7687 88.5914 33.5863 88.1758C33.3684 87.6781 33.2266 87.2366 33.0346 86.5752C32.9028 86.1171 32.7458 85.5519 32.5492 84.7813C32.3236 83.8902 32.2112 83.2478 32.1244 82.7022C32.0054 81.9329 31.9328 81.3537 31.7924 80.4922C31.6371 79.5337 31.552 78.5171 31.559 77.7149C31.5613 77.3495 31.5639 76.9325 31.5795 76.4971C31.5995 75.9234 31.644 75.3143 31.7211 74.7686C31.7846 74.3173 31.8712 73.9472 31.9525 73.625C31.978 73.5245 32.0036 73.4274 32.0277 73.334C32.03 73.3213 32.0332 73.3087 32.0355 73.2959C32.0217 73.2325 32.0048 73.169 31.9916 73.1055H32.0717C32.0831 73.0443 32.0929 72.9821 32.1049 72.9209L32.8949 72.916C32.9082 72.9785 32.9233 73.0399 32.9369 73.1006L33.0092 73.0996C32.9978 73.1572 32.9879 73.215 32.9769 73.2725C32.9979 73.3616 33.017 73.4506 33.0394 73.5391C33.0584 73.5934 33.0786 73.65 33.1 73.708C33.2068 73.9959 33.3451 74.3456 33.5199 74.7764C33.7961 75.4514 34.0552 76.0287 34.39 76.6114C34.6518 77.0647 34.9611 77.5191 35.3754 78.001C35.6565 78.3286 36.005 78.6865 36.3607 79.0332C36.8902 79.5492 37.4347 80.0479 37.7924 80.4141C37.9298 80.5543 38.0314 80.6813 38.1352 80.8106L38.1361 80.8125C38.1431 80.8212 38.1506 80.8302 38.1576 80.8389C39.0707 81.7086 39.9692 82.5918 40.8393 83.5137C40.9156 83.5891 40.9933 83.6664 41.0707 83.7442C41.4575 84.1336 41.8104 84.5015 42.06 84.7393C42.3242 84.9884 42.952 85.6927 43.5717 86.4366C43.9858 86.9324 44.4059 87.4525 44.7387 87.8623C44.8861 88.0441 45.0141 88.2341 45.141 88.4307C45.183 88.4959 45.2253 88.5612 45.267 88.627C45.4204 88.8691 45.5755 89.115 45.767 89.3662C45.8649 89.4947 45.9756 89.6298 46.0922 89.7725C46.195 89.8983 46.3039 90.032 46.4135 90.1719C46.5174 90.305 46.732 90.614 46.9994 91.003C47.1674 91.2472 47.3577 91.5262 47.5561 91.8135C48.1164 92.5638 48.6656 93.311 49.2074 94.0811C49.3322 94.2311 49.4467 94.3581 49.5473 94.4532C49.6194 94.5213 49.6872 94.5753 49.7562 94.6309C49.8501 94.7064 49.9469 94.785 50.0619 94.9053C50.1514 94.9988 50.2429 95.1223 50.2904 95.2129C50.3125 95.255 50.3258 95.2905 50.3373 95.3223C50.3505 95.3589 50.3626 95.3922 50.3852 95.4268C50.4014 95.4517 50.4237 95.475 50.4506 95.503C50.4935 95.5477 50.5498 95.606 50.6146 95.7071C50.8577 96.0859 51.1226 96.5238 51.3744 96.959C51.6545 97.4422 51.9173 97.9207 52.1293 98.3028C52.3666 98.7289 52.6678 99.3577 52.9477 100C53.1415 100.444 53.3294 100.903 53.4857 101.286C53.6409 101.665 53.8144 102.057 53.974 102.438C54.1683 102.901 54.3395 103.338 54.4525 103.733C54.4754 103.814 54.4848 103.919 54.4945 104.048C54.5015 104.14 54.5092 104.246 54.5228 104.365C54.681 104.859 54.8236 105.344 54.9594 105.846C54.9673 105.862 54.9755 105.879 54.9838 105.897L54.9848 105.898C55.1702 106.276 55.4279 106.828 55.5404 107.621C55.5696 107.826 55.5679 107.962 55.5658 108.083C55.5639 108.203 55.5608 108.308 55.5854 108.452C55.6135 108.618 55.6687 108.812 55.7279 109.024C55.8116 109.326 55.9004 109.656 55.932 109.998C55.9342 110.021 55.9365 110.046 55.9389 110.072C55.9618 110.319 55.9961 110.702 55.9936 111.063C56.1401 112.143 56.2504 113.229 56.3324 114.298C56.4706 116.097 56.5338 117.896 56.5502 119.7C56.5504 119.722 56.5491 119.743 56.5492 119.765C56.617 119.65 56.68 119.544 56.7406 119.444C56.8662 119.238 56.9767 119.054 57.0697 118.858C57.1197 118.754 57.1868 118.609 57.266 118.435C57.5906 117.724 58.119 116.509 58.642 115.418C58.8751 114.934 59.1588 114.375 59.4213 113.838C59.7974 113.07 60.1297 112.343 60.2436 111.957C60.4447 111.28 60.7274 110.522 60.9643 109.847C61.1905 109.204 61.3768 108.635 61.4281 108.298C61.4892 107.895 61.5986 107.567 61.7543 107.077C61.8618 106.738 61.9915 106.318 62.1332 105.741C62.296 105.076 62.4265 104.605 62.5346 104.206C62.6853 103.645 62.7946 103.216 62.8422 102.564C62.8949 101.839 62.9554 101.088 63.0434 100.499C63.0836 100.231 63.1146 99.923 63.143 99.6026C63.1808 99.1774 63.2132 98.7305 63.2631 98.3243C63.3043 97.9889 63.3673 97.7127 63.4213 97.4678C63.4381 97.3915 63.4541 97.3182 63.4682 97.2471C63.4788 96.9781 63.4869 96.708 63.4916 96.4385C63.4849 96.3948 63.477 96.3487 63.4691 96.3008C63.4331 96.0819 63.3885 95.8181 63.3598 95.4991C63.3569 95.4662 63.3535 95.4325 63.351 95.3985C63.3077 94.8053 63.3314 94.3098 63.3529 93.7608C63.3695 93.3349 63.3856 92.9112 63.3646 92.4014C63.3504 92.0567 63.3191 91.6751 63.2855 91.2881C63.2358 90.7117 63.1811 90.1608 63.1771 89.7627C63.1758 89.6153 63.1986 89.4875 63.2211 89.3614V89.3594C63.2226 89.351 63.2245 89.3425 63.226 89.334C63.1457 88.3845 63.044 87.4314 62.9193 86.4932C62.9031 86.4117 62.8869 86.3294 62.8705 86.2481C62.7904 85.8495 62.7082 85.4705 62.6254 85.2227C62.5359 84.9537 62.4139 84.275 62.2631 83.5606C62.1655 83.0962 62.0554 82.6139 61.9496 82.2276C61.8879 82.002 61.8743 81.7772 61.8588 81.5469C61.8443 81.332 61.8279 81.1107 61.768 80.8789C61.7378 80.7626 61.6958 80.6383 61.6508 80.5069C61.6112 80.3913 61.5683 80.2693 61.5287 80.1407C61.4919 80.0208 61.4419 79.746 61.3715 79.3955C61.328 79.179 61.2763 78.9328 61.2162 78.6758C61.0079 78.0122 60.7836 77.3528 60.5434 76.6983C60.4708 76.5688 60.3961 76.4624 60.3207 76.3838C60.2666 76.3275 60.2099 76.2825 60.1518 76.2373C60.0727 76.1758 59.9904 76.1125 59.9076 76.0147C59.8428 75.938 59.7911 75.8379 59.7787 75.7627C59.773 75.728 59.7764 75.6986 59.7787 75.6719C59.7813 75.6413 59.7828 75.6133 59.7719 75.585C59.764 75.5647 59.7471 75.5472 59.727 75.5254C59.6945 75.4904 59.6525 75.4438 59.6205 75.3623C59.5813 75.2623 59.5409 75.1566 59.4994 75.0479C57.7034 75.4755 56.0091 75.547 54.4008 75.3057C53.3599 75.1552 52.3352 74.8502 51.4076 74.543L51.4516 74.541C50.9354 74.4145 50.3913 74.2854 49.809 74.1592C49.7442 74.1453 49.6797 74.1311 49.6146 74.1172C49.4149 74.0736 49.2131 74.0332 49.0004 74C49.1464 73.8448 49.3088 73.6982 49.4769 73.5645C49.5318 73.5208 49.5872 73.4783 49.643 73.4366C50.142 73.0607 50.697 72.7561 51.2875 72.5391L51.3305 72.5362C52.5852 72.1786 53.7266 72.181 54.8422 72.3389C56.3528 72.5658 57.7721 73.1445 59.1078 74.0371C59.0047 73.7791 58.9041 73.534 58.81 73.3321C58.6623 73.0148 58.4816 72.5319 58.2963 72.0616C58.1673 71.7335 58.0312 71.4003 57.9027 71.1211C57.7793 70.8524 57.6211 70.584 57.4643 70.3233C57.2737 70.0059 57.0949 69.7173 56.9789 69.4405C56.9556 69.3848 56.9528 69.3014 56.9486 69.1963C56.9457 69.1218 56.9411 69.0354 56.9291 68.9414C56.7441 68.6075 56.5629 68.2838 56.3734 67.9502C56.3624 67.9412 56.3498 67.9312 56.3383 67.9219C56.0743 67.7044 55.7266 67.4329 55.4975 66.8662C55.4392 66.7222 55.4281 66.6149 55.4174 66.5186C55.4067 66.4238 55.3995 66.3422 55.348 66.2442C55.2897 66.1333 55.1904 66.0199 55.0814 65.8965C54.9284 65.723 54.7556 65.5286 54.6488 65.2881C54.6416 65.2718 54.6331 65.2539 54.6254 65.2364C54.5507 65.0673 54.4386 64.8162 54.3588 64.541C53.9265 63.8369 53.5029 63.1596 53.058 62.4639C52.4994 61.589 51.9134 60.7037 51.3295 59.834C49.3555 57.9158 47.1149 57.3263 45.1176 55.5244C42.9831 53.5989 42.7393 51.6748 42.8842 50.9531C44.9535 50.738 45.7303 50.233 46.768 48.4297C47.8057 46.6264 51.5137 46.0997 51.8617 44.3682ZM40.0639 43.1348C44.1107 41.5902 49.4786 42.0789 50.3041 43.3496C51.1294 44.6203 48.4275 46.0147 46.4867 46.9141C45.307 47.3191 46.4623 49.0976 44.5219 49.9971C42.581 50.8965 42.0088 49.461 41.1713 49.2822C40.3337 49.1035 37.4302 53.5194 36.1215 50.3946C34.8128 47.2693 38.1231 44.0342 40.0639 43.1348ZM24.6977 37.043C28.3099 33.2222 37.1443 39.6473 41.6859 41.1201C40.6211 41.3204 37.9196 42.1658 35.6342 43.9453C32.7773 46.1698 26.641 48.3125 25.4623 46.4981C24.2845 44.6839 27.0564 42.8828 26.2152 41.5869C25.3733 40.2909 21.0855 40.8639 24.6977 37.043ZM53.349 33.6387C55.5062 31.5083 56.6747 34.3966 57.5902 35.2608C58.5059 36.1243 60.4135 34.1561 61.3324 37.2061C62.2514 40.2563 59.5945 41.6176 57.018 41.4678C57.1863 42.8173 54.9447 44.2736 52.6156 42.8692C50.2864 41.4644 48.6232 41.0858 46.2133 41.1924C50.1176 40.115 51.1916 35.7696 53.349 33.6387ZM42.1254 25.5039C43.5762 24.9222 47.3408 22.8381 49.7406 25.9688C52.1406 29.1003 53.7825 36.6943 43.0414 40.4248C36.8037 38.7038 31.9109 32.8614 33.4408 27.8985C34.7465 25.9678 35.5508 28.3313 36.5795 27.6631C37.6081 26.9948 37.9053 24.6374 39.1713 24.8975C40.4372 25.1576 40.6748 26.0855 42.1254 25.5039ZM27.1225 29.9033C28.5864 26.8852 31.0952 31.8022 34.4008 36.8906C33.4469 36.4766 24.2326 31.7812 24.3988 30.9834C24.5657 30.1859 26.7148 30.8573 27.1225 29.9033ZM52.9311 23.5166C53.2677 21.8517 57.0011 21.596 57.4906 24.5322C57.98 27.4686 54.6521 31.0771 51.9906 33.5293C53.7386 31.3085 52.5945 25.1816 52.9311 23.5166Z" fill="#838D4C"/>
</svg>
