<svg width="100" height="150" viewBox="0 0 100 150" fill="none" xmlns="http://www.w3.org/2000/svg">
<path d="M54.753 59.1544C56.1579 59.9603 59.9157 51.3763 59.5899 58.1144C58.8316 59.9339 57.4733 61.2406 55.9014 62.1505C56.3392 62.7299 56.8397 63.554 57.1338 64.0606C57.1408 64.0725 57.1483 64.0849 57.1553 64.0968C57.2455 64.251 57.3335 64.3945 57.4356 64.5616C57.6747 64.9564 58.0147 65.5058 58.6143 66.6876C58.8114 67.0236 58.9989 67.351 59.1875 67.6915C61.217 71.3411 62.7845 75.3009 63.6797 79.4024C63.6931 79.4537 63.7071 79.506 63.7207 79.5587C63.9869 80.5769 64.2586 81.8506 64.3545 82.6651C64.4781 83.6962 64.5223 84.3997 64.5537 84.9786C64.88 88.2693 64.9189 91.5478 64.9014 94.8067C64.9001 95.0364 64.8984 95.2675 64.8965 95.5001C64.8899 96.3021 64.8636 97.105 64.8194 97.9054C64.7774 98.665 64.7168 99.4235 64.6416 100.18C64.7558 99.9284 64.8693 99.6761 64.9844 99.4249C65.3182 98.697 65.6496 97.9837 66 97.253C66.08 96.9936 66.1816 96.7445 66.253 96.5704C66.2603 96.5524 66.2669 96.5347 66.2735 96.5187C66.3706 96.2804 66.5002 96.0762 66.624 95.879C66.7114 95.7403 66.7904 95.6144 66.8438 95.5021C66.8907 95.4032 66.9091 95.3284 66.9287 95.2452C66.9479 95.1621 66.9738 95.0619 67.0332 94.922C67.2655 94.3746 67.5501 94.0361 67.753 93.8009V93.7999C67.7619 93.7895 67.7707 93.7787 67.7793 93.7687C67.9658 93.4315 68.1472 93.1145 68.3438 92.7804C68.3722 92.6958 68.3933 92.6196 68.4121 92.5538C68.4387 92.461 68.4604 92.3867 68.4883 92.3341C68.6317 92.0654 68.822 91.7792 69.0322 91.4728C69.2056 91.2202 69.3864 90.9627 69.5537 90.7081C69.7216 90.4522 69.9228 90.1444 70.125 89.8478C70.4181 89.417 70.7255 88.998 70.96 88.7188C71.1693 88.4688 71.4296 88.1542 71.7061 87.8399C71.9538 87.5578 72.2166 87.274 72.4522 87.0353C72.5156 86.9709 72.5665 86.9361 72.6055 86.9103C72.6297 86.8942 72.6502 86.882 72.666 86.8663C72.6881 86.8444 72.7015 86.8211 72.7168 86.796C72.7301 86.7743 72.7449 86.7503 72.7676 86.7228C72.8165 86.6635 72.9025 86.5893 72.9844 86.5353C73.0892 86.4661 73.1753 86.4251 73.2578 86.3858C73.3182 86.3572 73.378 86.3272 73.4414 86.2911C73.5306 86.2401 73.6361 86.1677 73.7539 86.0792C74.2776 85.6117 74.8177 85.1623 75.3643 84.7306C75.5647 84.559 75.7603 84.393 75.9268 84.253C76.2002 84.0233 76.4205 83.8445 76.5196 83.7735C76.6282 83.6957 76.7351 83.6227 76.8369 83.5538C76.9531 83.4752 77.0611 83.4034 77.1563 83.3351C77.3481 83.1972 77.5155 83.053 77.6817 82.9122C77.6851 82.9093 77.6889 82.9064 77.6924 82.9034C77.8625 82.7589 78.0246 82.6185 78.2071 82.4923C78.5287 82.2697 78.9109 81.9895 79.2832 81.7022C79.8398 81.275 80.3595 80.841 80.5781 80.6837C80.7757 80.5433 81.0763 80.2955 81.3653 80.047C81.4266 79.994 81.4886 79.9404 81.5489 79.8878C82.2188 79.2601 82.8605 78.6007 83.461 77.9103C83.4653 77.9035 83.4703 77.8965 83.4746 77.8897L83.4756 77.8878C83.5379 77.7897 83.6079 77.6815 83.6934 77.5714C83.9209 77.2792 84.2707 76.8567 84.5996 76.422C84.819 76.1333 85.0393 75.8265 85.2168 75.5538C85.4782 75.1522 85.6779 74.7858 85.8574 74.4308C86.0902 73.9688 86.2859 73.5363 86.5254 73.0304C86.6348 72.8007 86.7315 72.604 86.8233 72.4249C86.8292 72.3734 86.8362 72.3221 86.8418 72.2706L86.8955 72.2862C86.9049 72.2686 86.9125 72.2499 86.9219 72.2325C86.9338 72.2108 86.9454 72.1902 86.9571 72.171L87.5752 72.3526C87.5698 72.3781 87.5647 72.4037 87.5596 72.4278C87.5575 72.4451 87.5539 72.4623 87.5518 72.4796L87.6182 72.4991C87.5859 72.5755 87.5527 72.6586 87.5176 72.7452C87.4975 72.9035 87.4792 73.0619 87.4571 73.2198C87.4531 73.2908 87.4495 73.365 87.4453 73.4415C87.432 73.6869 87.414 73.965 87.3672 74.297C87.3104 74.7 87.2259 75.1375 87.1377 75.5519C87.0713 75.8647 87.003 76.165 86.9463 76.4278C86.8227 77.0043 86.6138 77.7251 86.3799 78.4024C86.1689 79.0119 86.0537 79.4274 85.8897 79.9796C85.7726 80.37 85.63 80.8309 85.3916 81.4669C85.1844 82.0177 85.0286 82.4245 84.9004 82.753C84.7145 83.2268 84.5833 83.5429 84.3906 83.8966C84.2291 84.1925 83.9849 84.733 83.6865 85.338C83.3727 85.9763 82.9981 86.6822 82.6211 87.2765C82.4094 87.6117 82.0253 88.3074 81.5791 89.0284C81.2661 89.5359 80.9244 90.0557 80.6074 90.4923C79.8991 91.4785 78.9957 92.4632 78.4297 93.0128C78.295 93.1452 78.175 93.2598 78.0908 93.3399C77.9329 93.4904 77.7827 93.6436 77.6065 93.8165C77.3536 94.0636 77.0506 94.3516 76.5908 94.6983C76.3646 94.8684 76.0845 95.0669 75.7803 95.2608C75.3626 95.5266 74.894 95.8263 74.4268 96.131C74.3331 96.1974 74.2387 96.2653 74.1436 96.3331C73.2282 96.9862 72.3187 97.6525 71.419 98.3292C70.1332 99.2971 68.8584 100.28 67.6172 101.297C66.5985 102.134 65.5973 102.993 64.667 103.906C64.5097 104.061 64.3508 104.209 64.1992 104.352C63.9991 105.491 63.6772 106.723 63.4082 107.642C63.3615 107.802 63.3171 107.954 63.2754 108.094C63.0816 108.884 62.8717 109.671 62.6465 110.452C62.6212 110.501 62.5949 110.551 62.5684 110.601C62.2363 111.224 61.9772 112.033 61.5196 113.291C61.3196 113.839 61.0806 114.471 60.7744 115.204C60.5767 115.677 60.4272 115.9 60.3057 116.082C60.27 116.135 60.236 116.185 60.2041 116.236C60.0947 116.413 60.041 116.625 59.9756 116.876C59.8907 117.201 59.7862 117.592 59.5147 118.047C58.6468 119.492 58.4153 120.196 58.2451 120.738C58.1945 120.897 58.1481 121.041 58.0899 121.183C57.9015 121.641 57.5292 122.242 57.2188 122.678C56.9744 123.023 56.6005 123.781 56.3281 124.361C56.2252 124.582 56.0576 124.865 55.8584 125.194C55.6527 125.535 55.4101 125.929 55.168 126.359C54.5544 127.448 54.2077 128.015 53.9278 128.473C53.8479 128.603 53.7721 128.723 53.6973 128.844C53.4617 129.223 53.1549 129.691 52.8399 130.157C52.464 130.714 52.0687 131.279 51.7764 131.709C50.9382 132.756 50.0625 133.773 49.1612 134.76C49.1339 134.837 49.1087 134.915 49.0791 134.992L49.043 134.979C49.0397 134.986 49.0365 134.993 49.0332 135L48.961 134.972C48.7454 135.191 48.5221 135.388 48.3008 135.557C48.2742 135.623 48.2486 135.689 48.2217 135.756C48.2437 135.694 48.2627 135.631 48.2832 135.569C48.0762 135.726 47.8722 135.859 47.6768 135.959C47.2118 136.196 46.8529 136.228 46.6729 136.06C46.4929 135.89 46.5032 135.533 46.6914 135.057C46.8824 134.578 47.2264 134.029 47.6543 133.503C47.9923 133.088 48.323 132.667 48.6514 132.243C48.6787 131.89 48.6798 131.558 48.6621 131.255C48.6539 131.114 48.641 130.979 48.628 130.853C47.9725 127.121 45.3593 123.869 43.8076 120.732C43.7771 120.684 43.7462 120.637 43.7129 120.586C43.5707 120.365 43.3921 120.097 43.1309 119.528C42.7275 118.642 42.4896 117.829 42.3946 117.103C42.3901 117.069 42.3857 117.036 42.3819 117.003C42.2069 115.475 42.1442 114.491 42.0254 113.692C42.0159 113.627 42.007 113.563 41.9981 113.499C41.9489 112.539 41.9153 111.579 41.8858 110.621C41.8767 110.449 41.8667 110.262 41.8565 110.066C41.8314 109.585 41.8045 109.038 41.7764 108.464C41.7405 107.699 41.4429 106.86 41.0908 106.112C40.8495 105.596 40.5125 104.968 40.0928 104.292C39.7938 103.809 39.4496 103.295 39.0713 102.762C38.4064 101.858 37.7047 100.972 37 100.084C36.2344 99.1194 35.4637 98.1561 34.7276 97.1534C33.3263 95.0726 31.2703 92.694 32.2608 89.7198C32.3606 89.4715 32.577 89.2332 32.8428 89.1192C32.9045 89.0921 32.9656 89.0715 33.0254 89.0548C33.6033 88.1811 35.6655 89.3482 37.8555 91.0196C38.1863 91.2369 38.5546 91.4861 38.9707 91.7823C39.7779 92.3537 40.9987 93.3375 41.9473 94.1632C41.9947 94.2043 42.0457 94.2492 42.0938 94.2911C43.0229 95.1104 43.8298 95.6768 44.8106 96.8771C46.6126 99.9583 49.6251 102.413 52.0078 105.459C52.2976 105.834 52.5771 106.221 52.836 106.632C52.9412 106.789 53.0411 106.949 53.127 107.095C53.7715 108.199 54.0187 108.83 54.2071 109.311C54.2931 109.536 54.3647 109.738 54.4346 109.945C54.4399 109.961 54.445 109.977 54.4502 109.993C54.7756 110.873 55.0644 112.575 54.9873 113.452C54.9812 113.567 54.9732 113.681 54.9639 113.795C54.9233 114.291 54.8568 114.78 54.7852 115.299C54.7755 115.369 54.7655 115.439 54.7549 115.509C54.58 116.84 54.2889 118.126 54.0078 119.4C53.8336 120.183 53.6234 120.922 53.4239 121.458C53.2395 121.953 53.0759 122.237 52.9531 122.265C53.0732 122.311 53.1605 122.678 53.126 123.227C53.0933 123.824 52.9393 124.614 52.71 125.403C52.5023 126.117 52.278 126.824 52.0449 127.527C52.3421 127.086 52.6375 126.643 52.9287 126.197C53.5602 125.231 54.1722 124.253 54.7647 123.262C54.8255 123.16 54.8868 123.057 54.9473 122.955C55.3811 122.085 55.7947 121.21 56.0947 120.6C56.3424 120.096 56.5578 119.745 56.7403 119.445C56.8659 119.239 56.9763 119.055 57.0694 118.859C57.1193 118.755 57.1864 118.61 57.2656 118.436C57.5902 117.725 58.1187 116.51 58.6416 115.419C58.8748 114.935 59.1584 114.376 59.4209 113.839C59.797 113.071 60.1293 112.344 60.2432 111.958C60.4443 111.281 60.727 110.523 60.9639 109.848C61.1902 109.205 61.3765 108.636 61.4278 108.299C61.4888 107.896 61.5983 107.568 61.7539 107.078C61.8614 106.739 61.9912 106.319 62.1328 105.742C62.2956 105.077 62.4262 104.606 62.5342 104.207C62.685 103.646 62.7943 103.217 62.8418 102.566C62.8946 101.84 62.955 101.089 63.043 100.5C63.0832 100.232 63.1142 99.924 63.1426 99.6036C63.1804 99.1785 63.2128 98.7315 63.2627 98.3253C63.3039 97.9899 63.3669 97.7137 63.4209 97.4688C63.4377 97.3926 63.4537 97.3192 63.4678 97.2481C63.4784 96.9792 63.4865 96.7091 63.4912 96.4396C63.4845 96.3958 63.4767 96.3498 63.4688 96.3019C63.4328 96.0829 63.3882 95.8192 63.3594 95.5001C63.3565 95.4672 63.3531 95.4335 63.3506 95.3995C63.3073 94.8064 63.3311 94.3108 63.3526 93.7618C63.3692 93.336 63.3852 92.9123 63.3643 92.4024C63.35 92.0578 63.3188 91.6762 63.2852 91.2892C63.2354 90.7127 63.1807 90.1619 63.1768 89.7638C63.1755 89.6164 63.1983 89.4885 63.2207 89.3624V89.3604C63.2222 89.352 63.2241 89.3435 63.2256 89.3351C63.1453 88.3855 63.0436 87.4324 62.919 86.4942C62.9027 86.4127 62.8865 86.3304 62.8701 86.2491C62.8115 85.9573 62.7508 85.6763 62.6905 85.4493C62.6791 85.4618 62.6675 85.4743 62.6543 85.4845C62.5264 85.5829 62.3167 85.566 62.0655 85.4454C62.0471 85.4366 62.0303 85.424 62.0117 85.4142C61.7894 85.3417 61.5509 85.2364 61.3155 85.1163C60.741 84.8191 60.0931 84.6729 59.3994 84.5899C58.5552 84.4886 57.6423 84.4657 56.709 84.339C56.0717 84.2536 55.4263 84.1243 54.793 83.9269L54.7227 83.9024C54.7081 83.8962 54.6933 83.8892 54.6787 83.8829C54.6191 83.8571 54.5589 83.8319 54.499 83.8058C53.9905 83.6357 53.4801 83.4533 53.126 83.3048C52.8346 83.183 52.634 83.0623 52.4639 82.9581C52.3464 82.8861 52.2431 82.8213 52.1328 82.7667C52.0738 82.7375 51.992 82.6977 51.8946 82.6495C51.4954 82.4537 50.819 82.0936 50.2647 81.6593C50.0183 81.468 49.7467 81.2237 49.501 80.9806C49.1469 80.6327 48.8466 80.2846 48.6729 80.129C48.3684 79.8595 48.0675 79.4927 47.8281 79.1593C47.5972 78.84 47.4157 78.5472 47.2862 78.4005C47.1293 78.2215 47.0357 78.0476 46.9043 77.7794C46.8153 77.5957 46.7069 77.3654 46.5655 77.0597C46.4004 76.701 46.3171 76.4401 46.2461 76.212C46.1513 75.8997 46.0829 75.6544 45.9346 75.3224C45.7662 74.9414 45.628 74.5349 45.5625 74.2071C45.5327 74.0588 45.4912 73.8843 45.4522 73.7071C45.4013 73.4773 45.3508 73.2224 45.3272 72.9942C45.3079 72.8078 45.3147 72.6475 45.3223 72.505C45.3247 72.4605 45.3275 72.4166 45.3291 72.3751C45.3081 72.2281 45.2884 72.0814 45.2696 71.9317C45.2616 71.9082 45.2521 71.8834 45.2432 71.8575C45.2201 71.7901 45.1945 71.7135 45.1699 71.627L45.1768 71.669C45.1422 71.563 45.1145 71.4909 45.0957 71.337C45.0894 71.2229 45.0573 71.0999 45.167 70.8507C45.2294 70.7115 45.4097 70.5431 45.6114 70.5099C45.8053 70.4784 45.8923 70.5124 45.9893 70.5421C46.2769 70.6591 46.3677 70.7704 46.5039 70.8888C46.691 71.0662 46.8566 71.2517 47.0586 71.4532C47.1909 71.5854 47.3483 71.7364 47.503 71.8878C47.7272 72.1065 47.9496 72.3314 48.0801 72.4981C48.1295 72.5613 48.1613 72.628 48.1905 72.6915L48.1914 72.6925C48.1934 72.6967 48.1953 72.701 48.1973 72.7052C48.5523 73.0874 48.9063 73.469 49.2637 73.8399C49.2971 73.8694 49.3311 73.8996 49.3643 73.9288C49.5296 74.0752 49.6895 74.2119 49.8076 74.2882C49.9339 74.3688 50.2064 74.6276 50.4922 74.8644C50.6805 75.0208 50.8722 75.1628 51.0166 75.2354C51.096 75.2763 51.1551 75.3263 51.1455 75.3438L51.3223 75.4308C51.3837 75.4592 51.4487 75.4849 51.5156 75.5069C51.5825 75.5289 51.6576 75.5494 51.7383 75.5714C51.8108 75.5914 51.8816 75.6099 51.9571 75.6358C52.0271 75.6599 52.1754 75.7364 52.3574 75.836C52.4733 75.8991 52.5974 75.9693 52.7315 76.045C53.097 76.212 53.4591 76.394 53.8076 76.5831C53.8884 76.609 53.9644 76.626 54.0283 76.629C54.0741 76.631 54.1179 76.6274 54.1621 76.6231C54.2222 76.6174 54.2851 76.6109 54.3604 76.6222C54.4192 76.631 54.4814 76.6588 54.5127 76.6895C54.527 76.7037 54.5353 76.7198 54.543 76.7335C54.5518 76.7491 54.5606 76.7626 54.5752 76.7716C54.5859 76.7779 54.6007 76.7801 54.6182 76.7823C54.6463 76.7858 54.6832 76.7907 54.7266 76.8175C54.8909 76.9192 55.066 77.0395 55.2412 77.1622C55.4323 77.296 55.6209 77.4316 55.7715 77.5313C55.9416 77.6438 56.1651 77.8322 56.3858 78.0235C56.5404 78.1574 56.6916 78.2906 56.8272 78.4024C56.958 78.5104 57.1056 78.6081 57.249 78.7052C57.4192 78.8201 57.583 78.9336 57.7012 79.0558C57.7248 79.0803 57.7427 79.1262 57.7637 79.1837C57.7786 79.2245 57.7955 79.2722 57.8184 79.3214C57.9837 79.4578 58.1463 79.5951 58.3076 79.7354C58.3154 79.7377 58.324 79.7399 58.3321 79.7423L58.4824 79.7901C58.6416 79.8467 58.8233 79.9398 58.9805 80.1446C59.0335 80.2139 59.0535 80.2734 59.0713 80.3263C59.0888 80.3781 59.1047 80.4252 59.1475 80.4708C59.1963 80.5227 59.2696 80.5661 59.3487 80.6144C59.4599 80.6822 59.5849 80.7595 59.6719 80.877C59.6777 80.8849 59.6839 80.8937 59.6905 80.9024C59.7534 80.9872 59.846 81.1137 59.918 81.2599C60.2353 81.585 60.5454 81.9187 60.8477 82.2579C61.3514 82.8234 61.8348 83.4075 62.2969 84.0069C62.3247 84.043 62.3502 84.0804 62.376 84.1173C62.34 83.9393 62.3028 83.7517 62.2627 83.5616C62.1651 83.0972 62.0551 82.6149 61.9492 82.2286C61.8875 82.003 61.8739 81.7782 61.8584 81.5479C61.8439 81.3331 61.8276 81.1118 61.7676 80.88C61.7375 80.7637 61.6955 80.6393 61.6504 80.5079C61.6108 80.3923 61.5679 80.2704 61.5283 80.1417C61.4915 80.0218 61.4416 79.7471 61.3711 79.3966C61.3276 79.18 61.2759 78.9339 61.2158 78.6769C61.0076 78.0132 60.7832 77.3539 60.543 76.6993C60.4703 76.5698 60.3957 76.4634 60.3203 76.3849C60.2662 76.3285 60.2096 76.2836 60.1514 76.2384C60.0723 76.1768 59.99 76.1136 59.9072 76.0157C59.8424 75.939 59.7907 75.8389 59.7783 75.7638C59.7727 75.729 59.7761 75.6996 59.7783 75.6729C59.781 75.6423 59.7825 75.6144 59.7715 75.586C59.7636 75.5657 59.7468 75.5483 59.7266 75.5265C59.6941 75.4914 59.6521 75.445 59.6201 75.3634C59.5014 75.0606 59.3705 74.7072 59.2393 74.3683C59.0941 73.9924 58.9434 73.6199 58.8096 73.3331C58.6619 73.0158 58.4812 72.533 58.2959 72.0626C58.167 71.7344 58.0309 71.4014 57.9024 71.1222C57.7789 70.8534 57.6208 70.585 57.4639 70.3243C57.2733 70.0069 57.0945 69.7183 56.9785 69.4415C56.9553 69.3858 56.9524 69.3024 56.9483 69.1974C56.9453 69.1228 56.9407 69.0365 56.9287 68.9425C56.7437 68.6085 56.5625 68.2848 56.3731 67.9513C56.362 67.9422 56.3494 67.9323 56.3379 67.9229C56.0739 67.7055 55.7262 67.434 55.4971 66.8673C55.4388 66.7233 55.4277 66.616 55.417 66.5196C55.4064 66.4248 55.3992 66.3433 55.3477 66.2452C55.2893 66.1343 55.1901 66.021 55.0811 65.8976C54.928 65.724 54.7552 65.5297 54.6485 65.2892C54.6412 65.2728 54.6328 65.255 54.625 65.2374C54.5503 65.0684 54.4383 64.8173 54.3584 64.5421C54.0794 64.0875 53.8033 63.6446 53.5235 63.2003C47.6791 65.1146 41.4924 62.9263 50.9258 61.3604C50.4996 60.3711 50.4376 59.5359 50.4824 58.5343C50.2636 58.1507 50.0962 57.7767 49.9981 57.4395C49.8571 56.9528 49.8769 56.5947 50.0694 56.4474C50.1943 56.3515 50.3865 56.3496 50.625 56.4337C50.628 56.3844 50.6329 56.3346 50.6358 56.2843C50.9607 54.511 52.2777 57.7342 54.753 59.1544ZM52.8291 120.291C52.6835 121.062 52.5323 121.877 52.3858 122.748C52.3858 122.89 52.3537 123.135 52.2891 123.477C52.3415 123.337 52.393 123.206 52.4414 123.086C52.6513 122.575 52.7869 122.285 52.9082 122.262C52.793 122.217 52.7322 121.89 52.7451 121.336C52.7518 121.033 52.7811 120.676 52.8291 120.291ZM36.4258 98.1788C36.4578 98.2275 36.4891 98.2741 36.5186 98.3185C36.5603 98.3722 36.6026 98.4258 36.6446 98.4796C36.5611 98.3654 36.4801 98.2498 36.3975 98.1358C36.407 98.1503 36.4165 98.1647 36.4258 98.1788ZM33.0274 92.3683C33.0875 92.6059 33.1648 92.8561 33.2598 93.1065C33.4173 93.5293 33.612 93.9417 33.8028 94.296C34.0854 94.8193 34.3727 95.2514 34.6641 95.669C34.7789 95.8328 34.8958 95.9936 35.0127 96.1554C34.1431 94.8389 33.422 93.5617 33.0274 92.3683ZM39.1123 27.6915C44.2292 25.781 47.1631 42.9327 47.1631 42.9327C47.1631 42.9327 45.666 28.4341 50.7881 28.6007C55.8971 28.7677 50.8337 43.8038 50.8067 43.8839C50.8486 43.807 58.5375 29.7094 63.2969 33.0577C67.4449 35.9816 53.394 46.2988 53.3526 46.3292C53.3867 46.3125 69.6967 38.3495 71.0137 42.4249C72.1846 46.0583 63.4117 48.3693 58.0283 49.4278C59.721 50.3768 61.4835 51.7746 60.2403 53.0528C59.0031 54.3283 56.6772 53.6526 54.9502 52.8575C55.1869 53.6846 55.4059 54.5994 55.5215 55.462C55.2641 55.6617 55.0348 55.9031 54.8574 56.1017C54.6619 56.3206 54.4605 56.5675 54.2813 56.7862L54.2266 56.8526C54.0845 57.0259 53.9545 57.1795 53.836 57.3155C53.5182 57.0325 53.2216 56.6982 52.9151 56.3526C52.865 56.2961 52.8145 56.2387 52.7637 56.1817C52.6407 56.0439 52.4945 55.8838 52.3457 55.7452C52.2267 55.6343 51.9646 55.398 51.6035 55.2677C51.3985 55.1937 51.0956 55.1301 50.7442 55.1993C50.375 55.2722 50.0857 55.4656 49.8848 55.6856C49.5488 56.0536 49.4535 56.4987 49.416 56.7032L49.4004 56.7901L49.3955 56.878C49.3825 57.1077 49.3637 57.3376 49.3448 57.5685C49.2942 58.1829 49.2428 58.8057 49.2989 59.4552C48.7583 59.5808 48.3025 59.7133 47.9287 59.8536C47.6533 59.957 47.3819 60.0784 47.1397 60.2276C45.9967 59.1893 44.4104 56.9427 43.2891 55.2667C41.9527 57.3351 40.1387 59.571 38.7881 59.0392C37.4352 58.5006 38.4812 56.1709 39.6573 54.2335C35.1861 56.2062 25.5777 60.0048 23.877 57.1183C21.6536 53.337 41.0778 49.6879 41.1573 49.6729C41.0795 49.6865 22.6554 52.8854 23.7871 47.9522C24.9191 43.0202 41.4724 47.1125 41.5469 47.131C41.4666 47.1053 20.186 40.2954 25.4727 35.3468C30.7675 30.4004 43.9156 43.7016 43.9395 43.7257C43.9287 43.7103 33.9983 29.601 39.1123 27.6915Z" fill="#838D4C"/>
</svg>
