<svg width="100" height="150" viewBox="0 0 100 150" fill="none" xmlns="http://www.w3.org/2000/svg">
<path d="M70.8174 25.5106C71.0175 25.5513 71.1908 25.7257 71.2481 25.867C71.3487 26.1206 71.3123 26.2425 71.3018 26.3563C71.2773 26.5093 71.2475 26.5799 71.209 26.6844L71.2168 26.6434C71.1891 26.7289 71.1604 26.8045 71.1348 26.871C71.125 26.8964 71.1153 26.9211 71.1065 26.9442C71.0821 27.0932 71.0568 27.2394 71.0303 27.3856C71.0304 27.427 71.0315 27.4701 71.0322 27.5145C71.0345 27.6573 71.0351 27.818 71.0088 28.0038C70.9767 28.231 70.9169 28.484 70.8574 28.7118C70.8118 28.8873 70.7639 29.0598 70.7285 29.2069C70.6509 29.532 70.4979 29.933 70.3154 30.3075C70.1549 30.6338 70.0781 30.8768 69.9717 31.1854C69.8923 31.4106 69.7983 31.6673 69.6201 32.0194C69.4672 32.3201 69.3508 32.547 69.2549 32.7274C69.149 32.9248 69.0664 33.0698 68.9629 33.203L68.7383 33.4647C68.6158 33.6193 68.4623 33.8383 68.2803 34.0712C68.0287 34.3954 67.7147 34.7516 67.4004 35.0096C67.221 35.1587 66.9078 35.4955 66.541 35.8299C66.2865 36.0638 66.0053 36.2973 65.752 36.4794C65.182 36.8926 64.493 37.2273 64.0869 37.4081C63.9879 37.4526 63.9048 37.4894 63.8447 37.5165C63.7325 37.5669 63.627 37.6276 63.5069 37.6952C63.3329 37.793 63.1279 37.9056 62.8321 38.0165C62.4727 38.1516 61.956 38.3147 61.4414 38.4657C61.3806 38.4896 61.3194 38.5134 61.2588 38.537C61.244 38.5427 61.2286 38.5498 61.2139 38.5555L61.1426 38.577C60.5025 38.7507 59.8528 38.8553 59.2129 38.9169C58.2756 39.0088 57.3631 38.9974 56.5156 39.0672C55.8192 39.1243 55.1664 39.2467 54.5811 39.5223C54.3412 39.6336 54.099 39.7297 53.874 39.7938C53.8552 39.8029 53.8379 39.815 53.8194 39.8231C53.8042 39.8297 53.7883 39.8348 53.7735 39.8407C53.7668 39.8615 53.7596 39.8824 53.7529 39.9032C53.7169 40.0161 53.6817 40.1298 53.6455 40.243C53.3675 41.102 52.6171 42.6663 52.2236 43.535C52.2165 43.5508 52.2093 43.5671 52.2022 43.5829C52.1081 43.789 52.0231 43.9862 51.9248 44.2176C51.6926 44.7688 51.3741 45.5114 50.6983 47.0624C50.525 47.5222 50.3527 47.9842 50.1826 48.4462C50.1434 48.5527 50.1054 48.6598 50.0664 48.7665C50.0973 49.0454 50.0885 49.3216 50.044 49.5575C50.0431 49.5934 50.0416 49.6283 50.0381 49.662C50.0066 49.9736 49.88 50.1571 49.7207 50.1942C49.7029 50.1981 49.6844 50.1986 49.666 50.1991H49.6631C49.6634 50.2014 49.6638 50.2036 49.6641 50.2059C49.6635 50.2036 49.6627 50.2014 49.6621 50.1991C49.6437 50.2052 49.6245 50.2106 49.6055 50.2128C49.5854 50.215 49.5652 50.2149 49.5449 50.2128C48.159 54.122 46.9261 58.0916 45.8633 62.1132C46.2791 61.6239 46.7096 61.1468 47.1543 60.6835C47.4689 60.3558 47.7911 60.0336 48.1201 59.7206C48.1975 59.5772 48.2953 59.4543 48.3613 59.3719C48.3682 59.3635 48.3748 59.3552 48.3809 59.3475C48.4722 59.2332 48.6001 59.1602 48.7139 59.0966C48.7946 59.0514 48.8692 59.0107 48.9199 58.9608C48.9644 58.9168 48.9826 58.8704 49.002 58.8192C49.0217 58.7671 49.0433 58.7086 49.0986 58.6415C49.2636 58.4423 49.4491 58.3552 49.6104 58.3046L49.7627 58.2635C49.7709 58.2615 49.7792 58.2587 49.7871 58.2567C49.9535 58.1225 50.1208 57.9923 50.291 57.8622C50.3158 57.8139 50.3342 57.7667 50.3506 57.7264C50.3737 57.6696 50.3934 57.6241 50.418 57.6005C50.5406 57.4829 50.7086 57.3759 50.8828 57.2675C51.0299 57.1757 51.1816 57.0824 51.3164 56.9794C51.4559 56.8728 51.6113 56.7458 51.7705 56.618C51.9983 56.435 52.2291 56.2543 52.4033 56.1483C52.5575 56.0543 52.7505 55.9262 52.9463 55.7997C53.1259 55.6836 53.3057 55.57 53.4736 55.4745C53.5181 55.4492 53.5557 55.4457 53.584 55.4432C53.6014 55.4417 53.6161 55.4404 53.627 55.4344C53.6419 55.4261 53.6508 55.4126 53.6602 55.3973C53.6684 55.3839 53.6775 55.368 53.6924 55.3544C53.725 55.3247 53.7884 55.2994 53.8477 55.2928C53.9233 55.2844 53.986 55.2926 54.0459 55.3007C54.0898 55.3065 54.133 55.3127 54.1787 55.3124C54.2428 55.3118 54.3197 55.2972 54.4014 55.2743C54.7566 55.0984 55.1247 54.9294 55.4961 54.7762C55.633 54.7056 55.7597 54.6397 55.8779 54.5809C56.0633 54.4883 56.2142 54.4179 56.2852 54.3964C56.3617 54.3733 56.4336 54.358 56.5069 54.3407C56.5882 54.3217 56.6639 54.3044 56.7315 54.285C56.7991 54.2655 56.8645 54.2417 56.9268 54.2157L57.1074 54.1346C57.0986 54.1167 57.1593 54.069 57.2402 54.0311C57.3873 53.9639 57.5844 53.8298 57.7783 53.6805C58.0728 53.4546 58.3542 53.2056 58.4834 53.1298C58.6044 53.0579 58.7696 52.9272 58.9404 52.787C58.9747 52.759 59.0094 52.7303 59.044 52.702C59.4148 52.3447 59.7824 51.977 60.1514 51.6083C60.1535 51.6041 60.1561 51.5998 60.1582 51.5956V51.5946C60.1896 51.5323 60.2238 51.4663 60.2754 51.4051C60.412 51.2434 60.6438 51.0275 60.876 50.8173C61.0363 50.6716 61.1997 50.5265 61.3369 50.3993C61.5464 50.2053 61.7185 50.0258 61.9121 49.8553C62.0525 49.7423 62.1463 49.6342 62.4375 49.5282C62.5357 49.5022 62.6247 49.472 62.8174 49.5106C63.0175 49.5513 63.1908 49.7257 63.2481 49.8671C63.3487 50.1206 63.3123 50.2425 63.3018 50.3563C63.2773 50.5093 63.2475 50.5799 63.209 50.6844L63.2168 50.6434C63.1891 50.7289 63.1604 50.8045 63.1348 50.871C63.125 50.8964 63.1153 50.9211 63.1065 50.9442C63.0821 51.0932 63.0568 51.2394 63.0303 51.3856C63.0304 51.427 63.0315 51.4701 63.0322 51.5145C63.0345 51.6573 63.0351 51.818 63.0088 52.0038C62.9767 52.231 62.9169 52.484 62.8574 52.7118C62.8118 52.8873 62.7639 53.0598 62.7285 53.2069C62.6509 53.532 62.4979 53.933 62.3154 54.3075C62.1549 54.6338 62.0781 54.8768 61.9717 55.1854C61.8923 55.4106 61.7983 55.6673 61.6201 56.0194C61.4672 56.3201 61.3508 56.5471 61.2549 56.7274C61.1489 56.9248 61.0664 57.0698 60.9629 57.203L60.7383 57.4647C60.6157 57.6193 60.4623 57.8383 60.2803 58.0712C60.0287 58.3955 59.7147 58.7517 59.4004 59.0096C59.221 59.1587 58.9078 59.4955 58.541 59.83C58.2865 60.0638 58.0053 60.2974 57.752 60.4794C57.182 60.8926 56.493 61.2273 56.0869 61.4081C55.9879 61.4526 55.9048 61.4895 55.8447 61.5165C55.7325 61.5669 55.627 61.6276 55.5069 61.6952C55.3329 61.793 55.1279 61.9056 54.832 62.0165C54.4727 62.1516 53.956 62.3147 53.4414 62.4657C53.3806 62.4896 53.3194 62.5134 53.2588 62.537C53.244 62.5427 53.2286 62.5498 53.2139 62.5555L53.1426 62.577C52.5025 62.7507 51.8528 62.8553 51.2129 62.9169C50.2756 63.0088 49.3631 62.9974 48.5156 63.0673C47.8192 63.1243 47.1664 63.2467 46.5811 63.5223C46.3412 63.6336 46.099 63.7297 45.874 63.7938C45.8552 63.8029 45.8379 63.815 45.8193 63.8231C45.6607 63.8921 45.5193 63.9221 45.4053 63.91C45.1209 65.2078 44.7996 66.8267 44.5615 67.8358C44.2552 69.1284 44.0511 70.0016 43.8828 70.7264C43.079 74.8814 42.4832 79.0951 42.2129 83.3231C42.1289 84.6461 42.078 85.9724 42.0664 87.3007C42.0559 88.5181 42.0777 89.7391 42.1387 90.9569C42.1957 91.6697 42.2664 92.324 42.3447 92.953C42.4522 93.8079 42.5748 94.5995 42.667 95.2157C42.8148 96.2184 42.9868 97.3038 43.1817 98.2518C43.2881 98.7715 43.3965 99.2665 43.499 99.7059C43.5473 99.9128 43.5949 100.108 43.6397 100.289C43.9276 101.284 44.2483 102.268 44.5986 103.244C44.6118 103.313 44.6245 103.382 44.6377 103.452C44.8058 104.328 45.1754 105.359 45.8408 106.941C46.132 107.63 46.4825 108.425 46.9102 109.352C47.1871 109.951 47.2912 110.275 47.377 110.542C47.4022 110.62 47.4258 110.694 47.4522 110.767C47.543 111.019 47.7002 111.253 47.8877 111.527C48.1314 111.883 48.4258 112.308 48.7012 112.93C49.5875 114.911 50.209 115.661 50.6621 116.225C50.7964 116.391 50.9192 116.54 51.0352 116.699C51.2216 116.955 51.4274 117.278 51.6279 117.611C51.6069 117.54 51.5862 117.47 51.5664 117.402C51.0535 115.391 50.6881 113.33 50.541 111.244C50.4642 110.174 50.5218 109.131 50.6641 108.382C50.7962 107.693 50.9605 107.304 51.1094 107.248C50.9537 107.21 50.7471 106.844 50.5225 106.206C50.2784 105.512 50.0337 104.554 49.8535 103.534C49.5626 101.875 49.3018 100.189 49.2168 98.4599C49.2105 98.3694 49.2052 98.2785 49.2002 98.1884C49.163 97.5128 49.1315 96.88 49.1309 96.2421C49.1308 96.0958 49.1321 95.9489 49.1358 95.8016C49.1315 94.6737 49.6328 92.5355 50.0635 91.4393C50.0709 91.4189 50.0785 91.3983 50.0859 91.3778C50.1835 91.1116 50.2743 90.8689 50.3897 90.578C50.6537 89.9289 51.0009 89.0649 51.9141 87.4579C51.9674 87.3644 52.0232 87.2695 52.082 87.1737C52.4001 86.6246 52.7671 86.1084 53.1631 85.6278C55.8732 82.4445 59.4412 80.6696 61.0899 77.412C62.4965 75.2317 63.8966 73.437 65.3877 71.5194C65.4358 71.4561 65.4853 71.3913 65.5352 71.3261C66.4947 70.0636 67.7268 68.5326 68.5674 67.6141C69.6337 66.443 70.4095 65.6909 71.086 65.0956C71.5807 64.6479 72.0748 64.2237 72.6856 63.8436C73.0162 63.6489 73.3197 63.4697 73.8125 63.3846C74.0353 63.3491 74.3801 63.3559 74.6719 63.5223C74.9821 63.6993 75.1408 63.9471 75.2461 64.1991C76.5552 68.54 73.4907 71.8232 71.5059 74.8036C70.5734 76.0716 69.6104 77.3034 68.6621 78.5409C67.7893 79.6801 66.9262 80.8226 66.1182 81.993C65.6623 82.6785 65.2438 83.3544 64.8936 83.9755C64.3927 84.8602 64.0092 85.6719 63.7451 86.3407C63.4263 87.142 63.168 88.0254 63.1309 88.8563C63.0878 89.8033 63.0431 90.7164 63.0029 91.494C62.9899 91.7465 62.9774 91.9852 62.9658 92.2059C62.9276 93.4365 62.8828 94.6701 62.8174 95.9042C62.8059 95.986 62.7936 96.0685 62.7813 96.1522C62.6367 97.1217 62.5531 98.3027 62.3545 100.087C62.3376 100.236 62.316 100.389 62.2901 100.546C62.1388 101.469 61.8182 102.506 61.3037 103.633C60.9698 104.358 60.744 104.699 60.5654 104.979C60.5128 105.061 60.4626 105.138 60.4131 105.216C60.2423 105.485 60.1014 105.784 59.9268 106.139C59.7023 106.596 59.4238 107.142 58.9717 107.806C57.5251 109.91 57.0351 110.91 56.6865 111.675C56.5844 111.898 56.4936 112.103 56.3965 112.308C56.0783 112.972 55.6061 113.9 55.2861 114.617C55.0221 115.183 54.6607 116.377 54.5381 117.299C54.4876 117.647 54.4132 118.114 54.374 118.668C54.3331 119.241 54.3326 119.91 54.4268 120.611C54.5037 121.163 54.6029 121.625 54.71 122.022C54.9321 122.318 55.1748 122.635 55.4404 122.956C56.4673 124.194 57.0324 124.836 57.4844 125.353C57.6134 125.5 57.7336 125.637 57.8545 125.773C58.2366 126.203 58.7101 126.739 59.1944 127.275C59.7739 127.917 60.3718 128.56 60.8399 129.036C61.9752 130.342 63.1388 131.626 64.333 132.882C64.9447 133.526 65.4781 134.202 65.8067 134.771C66.1346 135.341 66.2288 135.756 66.0596 135.936C65.8898 136.115 65.4661 136.046 64.8789 135.734C64.2917 135.422 63.5915 134.892 62.9404 134.265C61.6264 132.998 60.342 131.697 59.0977 130.358C57.5821 128.727 56.1243 127.038 54.7471 125.284C53.7838 124.057 52.8549 122.802 51.9629 121.52C51.8711 121.389 51.7795 121.256 51.6885 121.124C50.8871 120.084 50.1173 119.018 49.6045 118.249C49.1804 117.613 48.9171 117.122 48.6934 116.7C48.5395 116.409 48.4045 116.152 48.2529 115.9C48.1716 115.765 48.0591 115.581 47.9248 115.358C47.3752 114.451 46.4728 112.884 45.7949 111.382C45.4928 110.716 45.1729 109.927 44.8848 109.17C44.47 108.085 44.121 107.063 43.9014 106.565C43.7202 106.157 43.5489 105.713 43.3867 105.262C42.9887 104.914 42.5234 104.481 42.0508 104.016C40.8724 102.859 39.6048 101.772 38.3145 100.712C36.742 99.4235 35.1261 98.1783 33.4971 96.952C32.3573 96.0947 31.2055 95.2501 30.0459 94.4227C29.9253 94.3367 29.8053 94.2511 29.6865 94.1669C29.0947 93.781 28.5017 93.4009 27.9727 93.0643C27.5875 92.8188 27.2328 92.5678 26.9463 92.3524C26.3637 91.9131 25.9795 91.5473 25.6592 91.2343C25.436 91.0154 25.2459 90.8212 25.0459 90.6307C24.9393 90.5292 24.7876 90.3843 24.6172 90.2167C23.9002 89.5205 22.7558 88.2736 21.8584 87.0243C21.4568 86.4712 21.0235 85.8128 20.627 85.1698C20.0618 84.2565 19.5748 83.3758 19.3066 82.9511C18.8292 82.1983 18.3555 81.3035 17.958 80.495C17.5801 79.7287 17.27 79.0448 17.0654 78.6698C16.8212 78.2215 16.6556 77.8203 16.4199 77.2196C16.2575 76.8035 16.0603 76.2894 15.7979 75.5917C15.4958 74.7858 15.3153 74.2016 15.167 73.7069C14.9592 73.0077 14.8131 72.4817 14.5459 71.7098C14.2495 70.8518 13.9848 69.9382 13.8281 69.2079C13.7563 68.8749 13.6701 68.4948 13.5859 68.0985C13.4742 67.5734 13.3669 67.0185 13.2949 66.5077C13.2357 66.0872 13.2131 65.7355 13.1963 65.4247C13.1911 65.3278 13.1857 65.2343 13.1807 65.1444C13.1526 64.9443 13.1299 64.7434 13.1045 64.5428C13.06 64.4331 13.0175 64.328 12.9766 64.2313L13.0605 64.2069C13.0579 64.1848 13.0544 64.1626 13.0518 64.1405C13.0453 64.11 13.0381 64.078 13.0313 64.0458L13.8145 63.8153C13.8293 63.8397 13.8443 63.8659 13.8594 63.8934C13.8713 63.9155 13.8816 63.9394 13.8936 63.9618L13.9609 63.9413C13.9681 64.0067 13.9769 64.0722 13.9844 64.1376C14.1006 64.3644 14.2238 64.6132 14.3623 64.9042C14.6657 65.5451 14.9131 66.0933 15.208 66.6786C15.4355 67.1284 15.6882 67.5926 16.0195 68.1014C16.2443 68.4469 16.5229 68.8354 16.8008 69.201C17.2174 69.7517 17.6611 70.286 17.9492 70.6561C18.0575 70.7956 18.1457 70.9331 18.2246 71.0575L18.2266 71.0595C18.232 71.068 18.2377 71.0773 18.2432 71.0858C19.0039 71.9605 19.8173 72.7954 20.666 73.5907C20.7423 73.6573 20.8198 73.7259 20.8975 73.7929C21.2638 74.1079 21.6453 74.4218 21.8955 74.5995C22.1725 74.7988 22.8311 75.3483 23.5361 75.8895C24.0076 76.2533 24.4911 76.6087 24.8984 76.8905C25.1295 77.0504 25.3354 77.227 25.5508 77.41C25.5553 77.4138 25.56 77.4189 25.5645 77.4227C25.7746 77.6008 25.9868 77.7825 26.2295 77.9569C26.3501 78.0435 26.4866 78.1357 26.6338 78.2352C26.7628 78.3224 26.8985 78.414 27.0361 78.5126C27.1616 78.6024 27.4405 78.8298 27.7871 79.121C27.998 79.2983 28.2453 79.5083 28.499 79.7255C29.1915 80.2725 29.8765 80.8422 30.54 81.4345C30.6892 81.5465 30.8227 81.6384 30.9356 81.703C31.0158 81.7486 31.0916 81.786 31.168 81.8222C31.2725 81.8719 31.3809 81.9241 31.5137 82.0116C31.6175 82.0801 31.727 82.1738 31.7891 82.2489C31.8178 82.2838 31.8367 82.3141 31.8535 82.3417C31.873 82.3734 31.8901 82.4028 31.918 82.4305C31.9381 82.4505 31.9643 82.4667 31.9951 82.4872C32.0444 82.5199 32.1083 82.5631 32.1885 82.6444C32.487 82.947 32.8198 83.3074 33.1338 83.6649C33.4839 84.0628 33.814 84.4605 34.0791 84.7772C34.3761 85.1308 34.7644 85.6622 35.1357 86.2079C35.392 86.5837 35.6467 86.9735 35.8594 87.2977C36.0713 87.6203 36.3009 87.9456 36.5205 88.2655C36.787 88.6538 37.0282 89.0169 37.21 89.3573C37.2453 89.424 37.273 89.5181 37.3067 89.6356C37.3305 89.7189 37.3576 89.8157 37.3936 89.9227C37.6425 90.3459 37.8713 90.7478 38.1074 91.1747C38.1184 91.1875 38.1302 91.2005 38.1416 91.2138V91.2147C38.3986 91.5126 38.7595 91.9422 39.0537 92.6356C39.1291 92.8131 39.1612 92.9404 39.1856 93.0458C39.2103 93.1509 39.2336 93.245 39.293 93.37C39.3606 93.5123 39.4607 93.6719 39.5713 93.8475C39.7282 94.0973 39.8925 94.3555 40.0156 94.6571C40.024 94.6776 40.0326 94.7006 40.042 94.7235C40.1324 94.944 40.26 95.2602 40.3613 95.5888C40.6831 96.2597 40.9909 96.9197 41.2979 97.5829C41.1895 96.9292 41.1393 96.4306 41.0967 95.9784C41.0255 95.1832 40.9881 94.6022 40.8477 93.7245C40.6939 92.7632 40.5902 91.7383 40.5762 90.9296C40.5691 90.5525 40.5529 90.1451 40.54 89.7098C40.5228 89.1349 40.5124 88.5138 40.5352 87.9706C40.5539 87.5167 40.6059 87.1363 40.6533 86.7987C40.6681 86.6921 40.6825 86.5961 40.6953 86.5009C40.7013 86.1431 40.7098 85.7818 40.7197 85.4179C40.7139 85.3588 40.7068 85.2964 40.7002 85.2313C40.667 84.9023 40.6282 84.5032 40.624 84.0145C40.6178 83.2382 40.6859 82.5422 40.7637 81.8348C40.8245 81.282 40.8944 80.6812 40.9434 80.0272C40.9772 79.5755 41.0068 79.0561 41.04 78.537C41.0882 77.7749 41.1445 77.0251 41.2256 76.5009C41.2558 76.3054 41.3065 76.1378 41.3565 75.9784L41.3574 75.9764C41.3608 75.9657 41.3648 75.9549 41.3682 75.9442C41.4034 75.6131 41.4426 75.2814 41.4805 74.9491C41.1605 74.5072 40.7496 74.1223 40.2861 73.7596C39.6167 73.2353 38.8486 72.7425 38.1162 72.1503C37.6155 71.7469 37.1297 71.3027 36.6904 70.8055L36.6426 70.7479C36.6336 70.7352 36.6252 70.7216 36.6162 70.7089C36.5786 70.6558 36.5406 70.6021 36.5029 70.5487C36.1562 70.1397 35.8138 69.7196 35.5879 69.4091C35.4017 69.1536 35.2926 68.9458 35.2012 68.7684C35.1382 68.6462 35.0834 68.5381 35.0176 68.4344C34.9822 68.3788 34.9333 68.3016 34.875 68.2098C34.6351 67.8354 34.243 67.1771 33.9941 66.5184C33.8827 66.2271 33.7764 65.8781 33.6924 65.5428C33.5699 65.0616 33.4937 64.6077 33.4258 64.3846C33.3052 63.9965 33.2389 63.5271 33.207 63.118C33.1751 62.7252 33.1705 62.38 33.1357 62.1874C33.0945 61.9533 33.1051 61.7561 33.1318 61.4589C33.1509 61.2556 33.1783 61.0019 33.2158 60.6669C33.2606 60.2748 33.3243 60.0089 33.3818 59.7772C33.4626 59.4609 33.5318 59.2153 33.5772 58.8544C33.6307 58.4416 33.7222 58.0229 33.8359 57.7089C33.8873 57.5665 33.9425 57.3953 34.001 57.2235C34.0765 57.0007 34.1657 56.757 34.2637 56.5497C34.3439 56.3801 34.4332 56.2458 34.5137 56.1278C34.5387 56.0912 34.5631 56.0558 34.5859 56.0214C34.6441 55.8847 34.7041 55.749 34.7656 55.6112C34.771 55.5869 34.7764 55.5599 34.7822 55.5331C34.7974 55.4636 34.8151 55.3851 34.8389 55.2987L34.8223 55.3378C34.8476 55.2293 34.8612 55.1537 34.9248 55.0126C34.9786 54.9117 35.0157 54.7892 35.2393 54.6327C35.3648 54.5462 35.6055 54.4961 35.7949 54.5721C35.9772 54.6459 36.0349 54.7201 36.1025 54.7958C36.2875 55.0446 36.3062 55.1865 36.3613 55.3583C36.4293 55.6071 36.4747 55.8516 36.543 56.1288C36.5876 56.3105 36.6445 56.5215 36.6982 56.7313C36.7766 57.0347 36.8508 57.3424 36.876 57.5526C36.8855 57.6322 36.8782 57.7059 36.8701 57.7753V57.7762C36.8696 57.7808 36.8687 57.7853 36.8682 57.7899C36.9736 58.3008 37.0781 58.8109 37.1914 59.3134C37.2047 59.3557 37.2183 59.3983 37.2315 59.4403C37.297 59.6514 37.3633 59.8518 37.4248 59.9784C37.491 60.1129 37.5893 60.4755 37.7109 60.826C37.7908 61.0574 37.8809 61.278 37.9668 61.4149C38.0136 61.4911 38.0387 61.5639 38.0215 61.5741L38.1279 61.7411C38.1656 61.7971 38.2071 61.8526 38.2529 61.9061C38.2987 61.9595 38.3526 62.0154 38.4102 62.076C38.4618 62.1307 38.5124 62.1837 38.5635 62.245C38.6109 62.3019 38.6987 62.4443 38.8027 62.6239C38.8691 62.7379 38.9393 62.8618 39.0147 62.996C39.2407 63.3282 39.4553 63.6722 39.6553 64.0145C39.7109 64.0786 39.7672 64.1321 39.8203 64.1678C39.8585 64.1934 39.8975 64.213 39.9375 64.2323C39.992 64.2586 40.0488 64.2861 40.1074 64.3348C40.1531 64.3728 40.1922 64.428 40.2031 64.4706C40.208 64.4902 40.2066 64.5085 40.2061 64.5243C40.2055 64.5422 40.2059 64.5588 40.2139 64.5741C40.2197 64.5849 40.2315 64.5936 40.2451 64.6044C40.2674 64.622 40.2961 64.6459 40.3193 64.6913C40.4072 64.8634 40.4948 65.057 40.5811 65.2528C40.675 65.4661 40.7657 65.6793 40.8428 65.8427C40.93 66.027 41.0237 66.3048 41.1133 66.5829C41.1762 66.7775 41.236 66.9697 41.294 67.1356C41.3499 67.2958 41.4257 67.4557 41.4981 67.6132C41.584 67.7997 41.6653 67.9816 41.7031 68.1473C41.7106 68.1805 41.7023 68.229 41.6904 68.2889C41.682 68.3316 41.6719 68.3815 41.666 68.4354C41.7367 68.6378 41.8039 68.8392 41.8692 69.0428C41.8746 69.0487 41.8801 69.0553 41.8858 69.0614L41.9902 69.1796C42.0217 69.218 42.0516 69.2615 42.0811 69.3085C42.1303 68.9454 42.191 68.5335 42.2559 68.1141C42.3543 67.4754 42.4624 66.8101 42.541 66.2733C42.5872 65.9579 42.6796 65.6674 42.7754 65.369C42.8647 65.0909 42.9574 64.8029 43.0195 64.4833C43.0505 64.3239 43.0762 64.1497 43.1035 63.9637C43.1277 63.7998 43.1536 63.6257 43.1865 63.4452C43.2172 63.2774 43.3175 62.9106 43.4502 62.4403C43.5325 62.1482 43.626 61.8229 43.7227 61.4774C43.9273 60.5534 44.1437 59.6265 44.3701 58.7079C44.3946 58.51 44.4047 58.3344 44.3965 58.1913C44.3906 58.0887 44.3753 57.9979 44.3594 57.9051C44.3378 57.7788 44.3153 57.6474 44.3164 57.4755C44.3174 57.3408 44.3453 57.1896 44.3867 57.0946C44.4059 57.0507 44.4283 57.0189 44.4483 56.9901C44.4712 56.957 44.491 56.9266 44.502 56.8866C44.5098 56.8577 44.5093 56.8249 44.5088 56.785C44.5081 56.7212 44.5079 56.6381 44.5401 56.5214C44.6602 56.0861 44.81 55.5942 44.96 55.1132C45.1265 54.5787 45.293 54.0581 45.4151 53.6395C45.5515 53.1708 45.7937 52.5164 46.042 51.8651C46.2151 51.4105 46.3913 50.9556 46.5342 50.5633C46.6741 50.1791 46.7947 49.7695 46.9131 49.3739C47.0552 48.899 47.195 48.4423 47.3613 48.0721C47.3837 48.0224 47.4227 47.9694 47.4717 47.909C47.4108 47.8589 47.3491 47.8089 47.2861 47.7596C46.6167 47.2353 45.8486 46.7425 45.1162 46.1503C44.6155 45.7469 44.1297 45.3027 43.6904 44.8055L43.6426 44.7479C43.6336 44.7352 43.6252 44.7216 43.6162 44.7089C43.5786 44.6558 43.5407 44.6021 43.5029 44.5487C43.1562 44.1397 42.8138 43.7196 42.5879 43.409C42.4017 43.1536 42.2926 42.9458 42.2012 42.7684C42.1382 42.6462 42.0834 42.538 42.0176 42.4344C41.9822 42.3788 41.9333 42.3016 41.875 42.2098C41.6351 41.8354 41.243 41.1771 40.9942 40.5184C40.8827 40.2271 40.7764 39.8781 40.6924 39.5428C40.5699 39.0616 40.4937 38.6077 40.4258 38.3846C40.3052 37.9965 40.2389 37.5271 40.207 37.118C40.1751 36.7252 40.1705 36.38 40.1358 36.1874C40.0945 35.9532 40.1051 35.7561 40.1318 35.4588C40.1509 35.2555 40.1783 35.0019 40.2158 34.6669C40.2606 34.2748 40.3243 34.0089 40.3818 33.7772C40.4626 33.4609 40.5318 33.2153 40.5772 32.8544C40.6307 32.4416 40.7222 32.0229 40.8359 31.7088C40.8873 31.5665 40.9425 31.3953 41.001 31.2235C41.0765 31.0007 41.1657 30.757 41.2637 30.5497C41.3439 30.3801 41.4332 30.2458 41.5137 30.1278C41.5387 30.0912 41.5631 30.0558 41.5859 30.0213C41.6441 29.8847 41.7041 29.749 41.7656 29.6112C41.771 29.5869 41.7764 29.5599 41.7822 29.5331C41.7974 29.4636 41.8151 29.3851 41.8389 29.2987L41.8223 29.3378C41.8476 29.2293 41.8612 29.1537 41.9248 29.0126C41.9786 28.9116 42.0157 28.7892 42.2393 28.6327C42.3648 28.5462 42.6055 28.4961 42.7949 28.5721C42.9772 28.6458 43.0349 28.72 43.1026 28.7958C43.2876 29.0446 43.3062 29.1865 43.3613 29.3583C43.4293 29.6071 43.4747 29.8515 43.543 30.1288C43.5876 30.3105 43.6445 30.5215 43.6983 30.7313C43.7766 31.0347 43.8508 31.3424 43.876 31.5526C43.8855 31.6322 43.8782 31.7059 43.8701 31.7753V31.7762C43.8696 31.7808 43.8687 31.7853 43.8682 31.7899C43.9736 32.3008 44.0781 32.8109 44.1914 33.3133C44.2047 33.3557 44.2183 33.3983 44.2315 33.4403C44.297 33.6514 44.3633 33.8518 44.4248 33.9784C44.491 34.1128 44.5893 34.4755 44.7109 34.826C44.7908 35.0574 44.881 35.2779 44.9668 35.4149C45.0136 35.4911 45.0387 35.5639 45.0215 35.5741L45.1279 35.7411C45.1656 35.7971 45.2071 35.8526 45.2529 35.9061C45.2987 35.9595 45.3526 36.0154 45.4102 36.076C45.4618 36.1307 45.5124 36.1837 45.5635 36.245C45.6109 36.3018 45.6987 36.4443 45.8027 36.6239C45.8691 36.7378 45.9393 36.8618 46.0147 36.996C46.2407 37.3282 46.4553 37.6722 46.6553 38.0145C46.7109 38.0786 46.7672 38.1321 46.8203 38.1678C46.8585 38.1933 46.8975 38.213 46.9375 38.2323C46.992 38.2586 47.0488 38.2861 47.1074 38.3348C47.1531 38.3728 47.1922 38.428 47.2031 38.4706C47.2081 38.4902 47.2066 38.5085 47.2061 38.5243C47.2055 38.5422 47.2059 38.5588 47.2139 38.5741C47.2198 38.5849 47.2315 38.5936 47.2451 38.6044C47.2674 38.6219 47.2961 38.6458 47.3193 38.6913C47.4072 38.8634 47.4948 39.057 47.5811 39.2528C47.675 39.4661 47.7657 39.6793 47.8428 39.8426C47.93 40.027 48.0237 40.3047 48.1133 40.5829C48.1762 40.7775 48.236 40.9697 48.294 41.1356C48.3499 41.2958 48.4257 41.4557 48.4981 41.6131C48.584 41.7997 48.6653 41.9816 48.7031 42.1473C48.7106 42.1805 48.7023 42.229 48.6904 42.2889C48.682 42.3316 48.6719 42.3814 48.666 42.4354C48.7367 42.6377 48.8039 42.8392 48.8692 43.0428C48.8746 43.0487 48.8802 43.0553 48.8858 43.0614L48.9902 43.1796C49.0945 43.3073 49.1983 43.4766 49.2295 43.7235C49.2529 43.6878 49.2763 43.649 49.2979 43.6034C49.3708 43.4488 49.425 43.2523 49.4854 43.038C49.5699 42.7375 49.666 42.4017 49.8389 42.0985C49.8506 42.0779 49.8638 42.0552 49.877 42.0321C50.002 41.8122 50.1887 41.4873 50.4141 41.1835C50.8797 40.1838 51.3597 39.2031 51.8643 38.2215C52.7016 36.5935 53.5893 34.9965 54.5352 33.4208C54.9916 32.6607 55.526 31.9759 56.0049 31.5331C56.4842 31.0899 56.8674 30.9187 57.0733 31.0458C57.2794 31.1738 57.295 31.5902 57.1338 32.2118C56.9723 32.8331 56.6466 33.6134 56.2471 34.3807C55.8261 35.1875 55.421 35.9991 55.0274 36.8163C55.0695 36.7718 55.1119 36.7276 55.1543 36.6835C55.4689 36.3558 55.7911 36.0336 56.1201 35.7206C56.1975 35.5772 56.2953 35.4543 56.3613 35.3719C56.3682 35.3634 56.3748 35.3551 56.3809 35.3475C56.4722 35.2332 56.6001 35.1602 56.7139 35.0965C56.7946 35.0514 56.8692 35.0107 56.9199 34.9608C56.9644 34.9168 56.9826 34.8704 57.002 34.8192C57.0217 34.7671 57.0433 34.7086 57.0986 34.6415C57.2636 34.4423 57.4491 34.3551 57.6104 34.3045L57.7627 34.2635C57.7709 34.2615 57.7793 34.2587 57.7871 34.2567C57.9535 34.1225 58.1208 33.9923 58.291 33.8622C58.3158 33.8139 58.3342 33.7667 58.3506 33.7264C58.3737 33.6696 58.3934 33.6241 58.418 33.6004C58.5406 33.4828 58.7086 33.3759 58.8828 33.2674C59.0299 33.1757 59.1816 33.0824 59.3164 32.9794C59.4559 32.8728 59.6113 32.7458 59.7705 32.618C59.9983 32.435 60.2291 32.2543 60.4033 32.1483C60.5575 32.0543 60.7505 31.9262 60.9463 31.7997C61.1259 31.6836 61.3057 31.5699 61.4737 31.4745C61.5181 31.4492 61.5557 31.4457 61.584 31.4432C61.6014 31.4417 61.6161 31.4404 61.627 31.4344C61.6419 31.4261 61.6508 31.4126 61.6602 31.3973C61.6684 31.3839 61.6775 31.368 61.6924 31.3544C61.725 31.3247 61.7884 31.2994 61.8477 31.2928C61.9233 31.2844 61.986 31.2926 62.0459 31.3006C62.0898 31.3065 62.133 31.3127 62.1787 31.3124C62.2428 31.3118 62.3197 31.2972 62.4014 31.2743C62.7566 31.0984 63.1247 30.9294 63.4961 30.7762C63.633 30.7055 63.7597 30.6397 63.8779 30.5809C64.0633 30.4883 64.2142 30.4179 64.2852 30.3963C64.3617 30.3733 64.4336 30.358 64.5069 30.3407C64.5882 30.3217 64.6639 30.3044 64.7315 30.285C64.7991 30.2655 64.8645 30.2417 64.9268 30.2157L65.1074 30.1346C65.0986 30.1167 65.1593 30.069 65.2403 30.0311C65.3873 29.9639 65.5844 29.8298 65.7783 29.6805C66.0728 29.4546 66.3542 29.2056 66.4834 29.1297C66.6044 29.0579 66.7696 28.9272 66.9404 28.787C66.9747 28.759 67.0094 28.7303 67.044 28.702C67.4148 28.3447 67.7824 27.977 68.1514 27.6083C68.1535 27.6041 68.1561 27.5997 68.1582 27.5956V27.5946C68.1896 27.5323 68.2238 27.4663 68.2754 27.4051C68.412 27.2434 68.6438 27.0275 68.876 26.8172C69.0363 26.6716 69.1997 26.5265 69.3369 26.3993C69.5464 26.2053 69.7185 26.0258 69.9121 25.8553C70.0525 25.7422 70.1463 25.6342 70.4375 25.5282C70.5357 25.5021 70.6247 25.472 70.8174 25.5106ZM51.1719 107.242C51.1839 107.244 51.1954 107.249 51.207 107.256C51.2071 107.251 51.208 107.245 51.208 107.24C51.2066 107.232 51.2045 107.225 51.2031 107.217C51.1923 107.226 51.1836 107.237 51.1719 107.242Z" fill="#838D4C"/>
</svg>
