<svg width="100" height="150" viewBox="0 0 100 150" fill="none" xmlns="http://www.w3.org/2000/svg">
<path d="M34.4443 40.3553C35.3466 40.3378 36.2642 40.3992 37.1748 40.6063C37.2226 40.6157 37.2703 40.6253 37.3174 40.6356C37.6732 40.7135 38.0077 40.7906 38.3398 40.8895C38.4154 40.9119 38.4928 40.9364 38.5684 40.9617C39.1581 41.1357 40.1558 41.8082 40.6084 42.2664C40.6168 42.2743 40.6254 42.2829 40.6338 42.2908C40.7444 42.3961 40.8487 42.4974 40.9658 42.618C41.001 42.6543 41.0381 42.6924 41.0762 42.7332L41.2803 42.9403L41.2715 43.2625C41.2636 43.4066 41.2553 43.5732 41.2471 43.7772C41.236 44.0682 41.2221 44.4423 41.2266 44.951C41.2414 45.2402 41.2635 45.5285 41.293 45.8153C41.4215 47.0634 41.6996 48.2911 42.1982 49.409C42.9244 51.0653 44.2058 52.4438 45.8623 53.1795C45.871 53.1832 45.8799 53.1866 45.8887 53.1903L46.1816 53.3074L46.2344 53.6434C46.2388 53.6737 46.2436 53.7048 46.248 53.7362C46.366 54.5598 46.4743 55.5776 46.502 56.2244C46.5148 56.5185 46.5206 56.7792 46.5244 57.0145C46.5835 57.0066 46.6394 57.0107 46.6914 57.0281C46.867 57.0876 46.988 57.2901 47.0469 57.6072C47.4119 56.9298 47.5805 56.5744 47.6992 56.2713C47.7445 56.1615 47.7859 56.0617 47.833 55.9627C47.9862 55.641 48.2489 55.212 48.4531 54.8914C48.5376 54.759 48.6489 54.5471 48.7549 54.3162L48.8643 54.0809L49.1416 54.1033C49.3719 54.1199 49.6179 54.1254 49.8301 54.1209C49.9985 54.1174 50.2258 54.1236 50.4922 54.1199C50.7671 54.1162 51.0855 54.101 51.4199 54.0516C52.2649 53.921 52.6877 53.7663 53.0244 53.6463C53.0778 53.6265 53.1298 53.6076 53.1797 53.5877C53.219 53.572 53.2578 53.5559 53.2959 53.5399C53.5713 53.4244 53.9053 53.2637 54.2227 53.0701C54.6036 52.8404 54.9585 52.5608 55.2061 52.324C55.8688 51.7662 56.4238 51.0678 56.8691 50.2938C56.8801 50.2747 56.8915 50.2553 56.9023 50.2362C57.1348 49.8274 57.3674 49.4322 57.5771 49.1483C57.7866 48.8648 57.9604 48.718 58.0762 48.7586C58.0894 48.7633 58.1018 48.7705 58.1133 48.7801C58.1141 48.7778 58.1154 48.7756 58.1162 48.7733C58.1188 48.773 58.1214 48.7725 58.124 48.7723C58.1173 48.7587 58.1137 48.7446 58.1123 48.7303C58.1012 48.612 58.2863 48.4728 58.6455 48.3738C59.0035 48.2752 59.5091 48.2364 60.0283 48.3055C60.8744 48.4154 61.7052 48.6735 62.4707 49.0516C62.5113 49.07 62.5532 49.0888 62.5938 49.1082C62.8944 49.2522 63.1729 49.3868 63.4473 49.534C63.4763 49.5496 63.5061 49.5648 63.5352 49.5809L63.5537 49.5955C63.5854 49.6142 63.6178 49.6333 63.6494 49.6522C64.0937 49.9133 64.8587 50.5511 65.2646 50.9178C65.2722 50.9245 65.2806 50.9316 65.2881 50.9383C65.3852 51.0251 65.4773 51.1055 65.584 51.2C65.8429 51.4332 66.1933 51.7343 66.8574 52.452C67.061 52.6561 67.2544 52.8584 67.4482 53.0721C69.546 55.2806 70.9986 58.557 70.4365 61.7069C70.4317 61.7462 70.4263 61.7865 70.4209 61.827C70.3261 62.5836 70.095 63.4873 69.8818 64.0565L69.3994 65.5692L68.8057 64.0809C68.8003 64.0652 68.7945 64.0492 68.7891 64.034C68.5735 63.4512 68.2846 63.0723 68.0508 62.7703C66.5816 61.1111 64.4472 59.967 62.3193 59.0701C61.6449 58.7919 60.9569 58.5428 60.2607 58.327C59.6194 58.1286 58.969 57.9562 58.3174 57.827C57.9329 57.7617 57.5736 57.7189 57.2383 57.6971C56.775 57.6666 56.3552 57.6839 56.1064 57.7488C56.0936 57.7522 56.0807 57.7552 56.0693 57.7586C55.1876 57.9991 54.2427 58.1101 53.5303 58.2176C53.4121 58.2345 53.2987 58.2506 53.1963 58.2654C52.6227 58.3687 52.0526 58.4738 51.4854 58.5877C51.4466 58.5901 51.4068 58.5933 51.3672 58.5955C50.8714 58.6257 50.2722 58.7367 49.3525 58.9647C48.9533 59.0656 48.4902 59.1888 47.9658 59.3631C47.6261 59.4774 47.4534 59.5238 47.3057 59.5633C47.2632 59.5748 47.2235 59.5852 47.1846 59.5975C47.1012 59.624 47.0188 59.665 46.9385 59.7137L46.8281 59.7713C46.5476 60.7914 46.2779 61.8149 46.0186 62.8387C46.0075 62.8944 45.9958 62.951 45.9844 63.0067C45.9001 63.4173 45.8593 63.8102 45.8193 64.2049C45.81 64.2959 45.8013 64.3852 45.792 64.4754C45.7195 65.1614 45.3342 66.4193 45.1338 67.1121C45.1302 67.1247 45.1267 67.1376 45.123 67.1502C45.0751 67.3146 45.0338 67.4718 44.9863 67.6561C44.8742 68.0958 44.7201 68.6886 44.3682 69.9158C44.2895 70.2799 44.2116 70.6428 44.1348 71.0057C43.3045 74.9282 42.6241 78.8771 42.2754 82.8631C42.2731 82.9134 42.2708 82.9648 42.2686 83.0164C42.2224 84.0185 42.2017 85.2595 42.1543 86.0399C42.0922 87.0305 42.0556 87.7068 42.0273 88.2616C42.0225 91.4378 42.2893 94.6229 42.918 97.7381C42.9548 97.9208 42.9928 98.1036 43.0322 98.286C43.2027 99.0754 43.3976 99.8624 43.6162 100.642C43.8637 101.526 44.1401 102.402 44.4424 103.27C44.6385 103.769 44.8377 104.237 45.0283 104.67C45.1621 104.974 45.2908 105.261 45.4111 105.527C45.4087 105.48 45.4055 105.434 45.4033 105.388C45.401 105.338 45.3985 105.288 45.3965 105.238C45.3324 104.831 45.281 104.417 45.2607 104.132C45.244 103.897 45.2632 103.718 45.2803 103.569C45.2921 103.466 45.3026 103.375 45.3008 103.283C45.2998 103.234 45.2975 103.166 45.2949 103.086C45.2836 102.76 45.2731 102.186 45.3369 101.68C45.3648 101.455 45.4147 101.188 45.4648 100.939C45.5362 100.584 45.6095 100.255 45.6123 100.084C45.6165 99.7838 45.6731 99.45 45.7275 99.1512C45.7792 98.8671 45.8274 98.6212 45.8203 98.4764C45.8118 98.3038 45.8463 98.1614 45.8994 97.95C45.9363 97.8036 45.982 97.624 46.0312 97.3797C46.088 97.0989 46.1494 96.8993 46.2012 96.7332C46.2744 96.499 46.3305 96.3243 46.3496 96.0496C46.3711 95.7433 46.4144 95.427 46.4844 95.1873C46.5161 95.0785 46.5455 94.9511 46.5762 94.8192C46.6167 94.6443 46.6602 94.4603 46.7178 94.2977C46.7652 94.1639 46.8259 94.0596 46.8799 93.9666C46.8966 93.9378 46.9129 93.9096 46.9277 93.8827C46.9566 93.7737 46.9865 93.6643 47.0156 93.5555C47.0155 93.5367 47.015 93.5166 47.0146 93.4959C47.0131 93.3913 47.0113 93.2622 47.0361 93.1102C47.0755 92.8696 47.1536 92.6697 47.2363 92.4608C47.3008 92.2981 47.368 92.1293 47.4248 91.9295C47.4636 91.7931 47.5003 91.6346 47.5371 91.4784C47.5916 91.2466 47.647 91.0177 47.71 90.867C47.7336 90.8105 47.7702 90.7663 47.8057 90.7235L47.8135 90.7147C47.9256 90.334 48.0392 89.9532 48.1553 89.5741C48.1619 89.54 48.1689 89.5055 48.1758 89.4715C48.2093 89.305 48.2433 89.1429 48.248 89.0311C48.2532 88.9098 48.3322 88.6303 48.418 88.3358C48.4741 88.1429 48.5326 87.9428 48.5732 87.7782C48.597 87.6818 48.6499 87.6017 48.7041 87.5194C48.7547 87.4426 48.8064 87.3633 48.8379 87.2674C48.8536 87.2193 48.8655 87.1649 48.8779 87.1073C48.8888 87.0566 48.9005 87.0028 48.916 86.9481C48.9304 86.8973 48.983 86.7918 49.0508 86.6571C49.0927 86.5737 49.1405 86.4789 49.1885 86.3787C49.2832 86.101 49.3789 85.8244 49.4756 85.5487C49.4811 85.4854 49.4794 85.4269 49.4668 85.3768C49.4577 85.3409 49.4426 85.3074 49.4277 85.2733C49.4074 85.2268 49.3867 85.1783 49.3779 85.12C49.3711 85.0744 49.3799 85.0277 49.4004 85.0018C49.41 84.9898 49.4218 84.9821 49.4326 84.9754C49.4449 84.9678 49.4563 84.9608 49.4609 84.9491C49.4642 84.9404 49.4616 84.9286 49.459 84.9149C49.4548 84.8929 49.4499 84.8645 49.4629 84.8299C49.5121 84.7005 49.575 84.5556 49.6367 84.4139C49.7053 84.2565 49.773 84.1026 49.8184 83.9764C49.8692 83.8347 49.9689 83.6458 50.0693 83.4559C50.1392 83.3237 50.2093 83.1906 50.2627 83.0741C50.3151 82.9596 50.351 82.8341 50.3857 82.7127C50.4275 82.5668 50.468 82.4259 50.5322 82.3182C50.5452 82.2965 50.5797 82.2766 50.623 82.2518C50.6538 82.2342 50.6896 82.2135 50.7246 82.1883C50.7825 82.0414 50.8415 81.895 50.9004 81.7498C50.8993 81.7435 50.8977 81.7368 50.8965 81.7303C50.8694 81.5811 50.8328 81.3771 50.9834 81.1688C51.0216 81.1159 51.064 81.0898 51.1025 81.0662C51.1404 81.0431 51.1739 81.0215 51.1953 80.9803C51.2197 80.9332 51.2271 80.8705 51.2344 80.8016C51.2446 80.7048 51.2561 80.5968 51.3184 80.5076C51.3225 80.5017 51.3264 80.4948 51.3311 80.4881C51.3759 80.4233 51.4429 80.327 51.5352 80.241C51.6689 79.9311 51.8021 79.6262 51.9365 79.3182C51.961 79.262 51.9844 79.2053 52.0088 79.1492C51.7868 79.0205 51.5773 78.7742 51.4619 78.5028C51.242 77.9907 51.1639 77.4846 51.124 76.991C51.1206 76.9658 51.1172 76.9403 51.1143 76.9149C51.0921 76.722 51.0585 76.5444 51.0303 76.366C51.0239 76.3254 51.0184 76.2833 51.0127 76.243C50.9655 75.9276 51.0589 75.3369 51.1289 75.0213C51.13 75.0159 51.1307 75.0101 51.1318 75.0047C51.1478 74.9296 51.1613 74.8574 51.1777 74.7742C51.2186 74.5759 51.2688 74.305 51.4531 73.7645C51.495 73.6045 51.5406 73.4447 51.5908 73.285C51.6975 72.9461 51.8212 72.6099 51.9697 72.2772C52.5651 70.9945 53.2526 69.8241 53.959 68.6512C53.9692 68.6324 53.9807 68.6129 53.9912 68.5936C54.1948 68.2169 54.4518 67.7532 54.6396 67.4764C54.8777 67.1253 55.0483 66.8913 55.1904 66.7C55.9551 65.5676 56.6467 64.442 57.6855 63.3914C57.7715 63.3131 57.8738 63.2242 58 63.1453C58.1303 63.0828 58.2926 62.9221 58.6787 63.0457C58.9987 63.2087 59.0268 63.4095 59.082 63.5291C59.1313 63.6718 59.153 63.7894 59.1719 63.9031C59.2374 64.3356 59.2384 64.736 59.2354 65.1365C59.2434 65.3749 59.2486 65.5914 59.251 65.7957C59.2541 66.0826 59.2516 66.335 59.2383 66.5457C59.2068 67.0506 59.1164 67.6128 59.042 68.0291C59.0299 68.097 59.0176 68.1619 59.0068 68.2215C58.968 68.5536 58.9255 68.8882 58.8789 69.2205C58.8703 69.2415 58.8606 69.2626 58.8516 69.284C58.7368 69.5542 58.678 69.9023 58.5703 70.4442C58.5227 70.6822 58.4656 70.9572 58.3877 71.2742C58.3361 71.4837 58.2843 71.583 58.2422 71.6629C58.2297 71.6868 58.2178 71.7101 58.207 71.7332C58.1699 71.8131 58.1643 71.9051 58.1582 72.0115C58.149 72.1539 58.1384 72.3209 58.0469 72.5272C57.755 73.1747 57.6916 73.486 57.6309 73.7371C57.6109 73.8135 57.5973 73.8703 57.5654 73.9451C57.5419 74.0007 57.5116 74.0589 57.4766 74.1151C57.399 74.2396 57.2953 74.3962 57.21 74.5242C57.1186 74.6579 57.0162 74.975 56.958 75.2264C56.9357 75.3208 56.8911 75.4449 56.8389 75.5926C56.7849 75.7448 56.7225 75.9231 56.666 76.1199C56.5235 76.6176 56.4313 76.8889 56.3535 77.1043C56.3311 77.166 56.31 77.2239 56.2881 77.2811C56.2183 77.4629 56.1198 77.6866 56.002 77.9119C55.8621 78.1816 55.6898 78.4508 55.5371 78.6532C55.1133 79.1433 54.4737 79.5483 53.793 79.6483C53.6679 79.6686 53.5458 79.6724 53.4307 79.6649C53.4044 79.8077 53.3896 79.9478 53.3779 80.0877C53.3747 80.126 53.3717 80.1646 53.3682 80.203C53.3418 80.4954 53.1154 81.0028 52.9912 81.2772C52.989 81.2821 52.9865 81.2869 52.9844 81.2918C52.955 81.357 52.9299 81.4198 52.9004 81.493C52.8299 81.6678 52.733 81.9086 52.4932 82.3856C52.4385 82.5299 52.3832 82.6755 52.3262 82.8201C51.7121 84.3782 51.0253 85.8977 50.3545 87.4168C50.3474 87.4363 50.3403 87.4564 50.333 87.4764C50.1898 87.8684 50.0159 88.3528 49.876 88.6463C49.6981 89.0189 49.5712 89.2689 49.4658 89.4744C48.9586 90.6884 48.486 91.9161 48.0967 93.1678C47.9747 93.56 47.8613 93.9552 47.7568 94.3524C47.6611 94.7167 47.5715 95.0852 47.4902 95.453C47.4567 95.6703 47.4302 95.8789 47.4072 96.0721C47.3748 96.3443 47.3495 96.584 47.3184 96.7811C47.2427 97.2567 47.122 97.7853 47.0391 98.1834C47.0255 98.2483 47.0124 98.3102 47.001 98.367C46.964 98.685 46.9325 99.0044 46.9053 99.326C46.8964 99.3465 46.8873 99.3676 46.8779 99.3885C46.7608 99.6506 46.7233 99.9839 46.6797 100.517C46.6612 100.746 46.642 101.013 46.6172 101.329C46.6013 101.533 46.562 101.638 46.5303 101.721C46.521 101.745 46.5121 101.769 46.5049 101.792C46.4804 101.872 46.5002 101.959 46.5234 102.061C46.5536 102.195 46.5903 102.354 46.5479 102.564C46.4142 103.23 46.5029 103.526 46.5674 103.749C46.5865 103.814 46.6039 103.875 46.6143 103.933C46.6476 104.126 46.6271 104.404 46.5957 104.618C46.5704 104.787 46.6185 105.126 46.6748 105.373C46.696 105.467 46.7051 105.596 46.7168 105.749C46.7289 105.907 46.7437 106.092 46.7783 106.287C46.8655 106.77 46.918 107.031 46.959 107.24C46.9707 107.3 46.9818 107.355 46.9932 107.411C47.0289 107.586 47.068 107.798 47.1104 108.016C47.1608 108.277 47.216 108.546 47.2676 108.747C47.3245 109.228 47.3911 109.734 47.4629 110.22C47.7675 110.808 48.0802 111.393 48.4033 111.972C48.4194 112.022 48.4359 112.074 48.4521 112.127C48.6549 112.779 49.0499 113.508 49.708 114.633C49.8863 114.937 50.0868 115.269 50.3076 115.638C50.1328 114.281 50.0439 112.911 50.0791 111.536C50.1013 110.656 50.1776 109.754 50.3125 108.881C50.3178 108.572 50.3537 108.269 50.3809 108.067C50.3837 108.046 50.3871 108.025 50.3896 108.007C50.4272 107.728 50.5165 107.45 50.5996 107.213C50.659 107.043 50.7161 106.89 50.751 106.752C50.7812 106.632 50.7866 106.545 50.793 106.448C50.7995 106.35 50.8073 106.24 50.8467 106.076C50.9667 105.584 51.1438 105.23 51.3076 104.96L51.4648 104.715C51.4734 104.702 51.4829 104.688 51.4912 104.676C51.6541 104.289 51.8333 103.904 52.0244 103.53C52.0511 103.436 52.071 103.352 52.0898 103.277C52.1162 103.172 52.1386 103.088 52.168 103.027C52.3132 102.727 52.5202 102.394 52.7471 102.056C52.9352 101.776 53.1381 101.49 53.3262 101.214C53.5174 100.932 53.7445 100.603 53.9795 100.284C54.3162 99.8249 54.6739 99.3829 54.9434 99.0907C55.1837 98.8291 55.4832 98.5014 55.7998 98.1756C56.0832 97.8834 56.3821 97.5908 56.6494 97.3436C56.7212 97.2772 56.7773 97.242 56.8203 97.2157C56.8469 97.1994 56.8689 97.1858 56.8867 97.1698C56.9115 97.1473 56.9285 97.1235 56.9463 97.0975C56.9618 97.075 56.9792 97.0496 57.0049 97.0213C57.0611 96.9596 57.1576 96.8821 57.248 96.827C57.3637 96.7565 57.4572 96.7159 57.5469 96.6766C57.6127 96.6478 57.6773 96.6197 57.748 96.5819C57.8471 96.5289 57.9645 96.4533 58.0947 96.3621C58.6804 95.8767 59.2768 95.4094 59.8799 94.9539C60.1019 94.7728 60.3116 94.601 60.498 94.45C60.8 94.2057 61.0361 94.0195 61.1475 93.9412C61.2666 93.8576 61.3828 93.7797 61.4922 93.7069C61.6163 93.6242 61.7335 93.5466 61.8389 93.4715C62.0493 93.3215 62.2307 93.1672 62.4062 93.0184C62.5945 92.8589 62.7781 92.7029 62.9873 92.5623C63.1916 92.4251 63.4221 92.2681 63.6592 92.1043C63.8382 91.9806 64.0191 91.8532 64.1934 91.7284C64.8197 91.2808 65.3987 90.8329 65.6387 90.6727C65.8626 90.5237 66.1904 90.2722 66.5225 90.0067C66.5905 89.9523 66.6588 89.8975 66.7256 89.8436C67.4802 89.1892 68.2077 88.5007 68.8926 87.7782C68.8975 87.7713 68.9023 87.7636 68.9072 87.7567L68.9082 87.7557C68.9833 87.6501 69.0638 87.5372 69.1621 87.4217C69.4243 87.1145 69.8252 86.6734 70.2041 86.2176C70.4602 85.9104 70.7075 85.5961 70.9189 85.3035C71.2238 84.8818 71.4602 84.4975 71.6787 84.118C71.9572 83.632 72.1993 83.1706 72.4873 82.6375C72.6676 82.3026 72.816 82.0375 72.9375 81.8123C72.9595 81.7725 72.986 81.7237 73.0068 81.6844C73.0617 81.5553 73.1084 81.4332 73.1592 81.3055C73.1705 81.2115 73.1829 81.1173 73.1934 81.0233L73.2695 81.0457C73.2864 81.0068 73.3013 80.9651 73.3203 80.9237L73.9473 81.1082C73.9451 81.1271 73.9436 81.147 73.9414 81.1658C73.9405 81.1908 73.9383 81.2166 73.9375 81.242L74 81.2606C73.978 81.3153 73.9536 81.3709 73.9307 81.4276C73.9216 81.6892 73.9103 81.9853 73.8682 82.3377C73.8158 82.7767 73.7331 83.2541 73.6465 83.7059C73.5812 84.0469 73.5134 84.3756 73.457 84.6619C73.3338 85.2913 73.1209 86.0797 72.8799 86.8192C72.6622 87.4855 72.5425 87.9396 72.3721 88.5399C72.2494 88.9673 72.1 89.4684 71.8486 90.1629C71.6302 90.7641 71.4671 91.2039 71.3301 91.5643C71.1328 92.0805 70.9914 92.428 70.7871 92.8133C70.6154 93.1368 70.3561 93.7241 70.0352 94.3856C69.6996 95.0796 69.295 95.8528 68.8906 96.4989C68.6628 96.8648 68.2472 97.6208 67.7637 98.4041C67.4233 98.9573 67.0515 99.522 66.707 99.9959C65.937 101.067 64.9542 102.133 64.3359 102.727C64.1848 102.875 64.057 102.995 63.9648 103.082C63.7948 103.242 63.624 103.413 63.4336 103.596C63.1559 103.861 62.8218 104.172 62.3184 104.541C62.1314 104.677 61.9062 104.834 61.6689 104.986C61.1398 105.327 60.5104 105.688 59.8828 106.033C59.7739 106.099 59.6652 106.165 59.5566 106.229C58.499 106.86 57.4546 107.473 56.5078 108.184C55.1493 109.192 54.0143 110.442 53.2578 111.932C52.6285 113.156 52.2334 114.5 51.9902 115.889C51.87 116.571 51.7449 117.235 51.6094 117.731C51.5974 117.774 51.5835 117.815 51.5713 117.855C51.5902 117.876 51.6082 117.899 51.6279 117.921C51.8493 118.164 52.115 118.454 52.3545 118.912C53.122 120.371 53.6537 120.885 54.0469 121.273C54.1628 121.387 54.2675 121.491 54.3662 121.602C54.686 121.965 55.0607 122.541 55.3271 122.99C55.5377 123.347 56.079 123.97 56.5146 124.422C56.6791 124.593 56.8787 124.842 57.1152 125.134C57.3602 125.436 57.6455 125.785 57.9727 126.139C58.8011 127.032 59.2498 127.498 59.6094 127.874C59.712 127.981 59.8074 128.081 59.9033 128.18C60.207 128.493 60.5803 128.885 60.96 129.277C61.4157 129.749 61.8804 130.22 62.248 130.569C63.1196 131.544 64.0083 132.511 64.9111 133.46C65.3761 133.949 65.7613 134.476 65.9805 134.939C66.1981 135.401 66.2291 135.758 66.0596 135.937C65.8899 136.117 65.5299 136.106 65.0547 135.903C64.5787 135.7 64.0306 135.323 63.5293 134.853C62.5226 133.911 61.5293 132.945 60.5635 131.958C59.3858 130.754 58.2435 129.513 57.1523 128.227C56.3891 127.328 55.6454 126.413 54.9229 125.48C54.8485 125.384 54.7741 125.288 54.7002 125.191C54.0409 124.449 53.3991 123.691 52.9688 123.14C52.6135 122.687 52.3938 122.326 52.207 122.017C52.0785 121.805 51.9648 121.616 51.835 121.436C51.7653 121.34 51.6684 121.209 51.5527 121.051C51.0795 120.405 50.2893 119.293 49.6729 118.213C49.3984 117.734 49.1033 117.162 48.8291 116.614C48.4365 115.831 48.0877 115.094 47.8672 114.747C47.6002 114.328 47.3413 113.845 47.1016 113.37C46.7989 113.397 46.4469 113.402 46.0879 113.392C45.1701 113.367 44.24 113.466 43.3174 113.634C42.9556 113.671 42.4824 113.747 42.0176 113.84C41.6273 113.917 41.2463 114.004 40.9326 114.076C40.8322 114.099 40.7361 114.122 40.6318 114.147C40.2641 114.237 39.8014 114.351 38.9424 114.602C38.5994 114.704 38.2888 114.816 38.0195 114.917C37.7568 115.015 37.5388 115.099 37.3721 115.148C36.9239 115.28 36.3538 115.482 36.0801 115.633C35.7442 115.818 35.2849 116.05 34.9492 116.168C34.846 116.204 34.7417 116.233 34.626 116.265C34.2284 116.379 33.7019 116.525 32.6611 117.164C32.3294 117.368 32.056 117.457 31.8242 117.533C31.646 117.592 31.4938 117.642 31.3682 117.729C31.3319 117.755 31.2948 117.782 31.2588 117.809C31.1338 117.904 30.9808 118.02 30.6504 118.194C30.1308 118.469 29.71 118.688 29.3271 118.89C28.4742 119.342 27.9257 119.641 27.5273 119.958C27.4954 119.983 27.464 120.008 27.4326 120.033C26.9079 120.309 26.3915 120.584 25.8711 120.865C25.7812 120.919 25.6835 120.977 25.5801 121.04C24.9409 121.426 24.0878 121.949 23.3203 122.375C23.0035 122.551 22.5985 122.761 22.1641 122.987C21.8863 123.132 21.5866 123.288 21.2715 123.457L20.5527 122.715C20.5787 122.678 20.6049 122.641 20.6309 122.603C21.0043 122.026 21.3715 121.442 21.7314 120.856C22.1251 120.216 22.5097 119.573 22.8936 118.929C24.1221 116.877 25.3295 114.75 26.9736 112.876C27.2473 112.539 27.5896 112.131 28.1494 111.582C28.5876 111.148 29.365 110.543 30.0225 110.111C30.0565 110.089 30.0906 110.066 30.124 110.044C31.3177 109.199 32.5909 108.496 33.9033 107.881L34.0264 107.837C35.6241 107.366 37.3094 107.035 39.0566 107.089C39.3573 107.098 39.6618 107.121 39.9639 107.156C41.0096 107.23 41.504 107.384 41.8633 107.482C42.0143 107.526 42.1429 107.566 42.2783 107.608C42.2886 107.611 42.2993 107.615 42.3096 107.618C42.884 107.785 43.8853 108.225 44.3174 108.582C44.3745 108.627 44.4312 108.673 44.4873 108.72C44.7016 108.897 44.9086 109.077 45.1279 109.26C45.0673 109.114 45.0047 108.955 44.9316 108.784C44.6561 108.138 44.4946 107.667 44.3594 107.265C44.1705 106.701 44.0324 106.276 43.7412 105.675C43.4183 105.007 43.1196 104.289 42.9434 103.704C42.8628 103.437 42.7599 103.136 42.6572 102.822C42.5212 102.406 42.3837 101.963 42.2881 101.554C42.2095 101.217 42.1779 100.926 42.1523 100.671C42.1444 100.591 42.1371 100.515 42.1289 100.441C42.0572 100.175 41.9872 99.9092 41.9189 99.6414C41.9007 99.6001 41.8816 99.556 41.8613 99.5106C41.7596 99.2823 41.6353 99 41.5264 98.6405C41.525 98.636 41.5238 98.6312 41.5225 98.6268C41.3529 98.0612 41.2747 97.5491 41.2002 97.0086C41.1419 96.5836 41.0861 96.1423 40.9961 95.6405C40.9347 95.2981 40.8557 94.9097 40.7822 94.5243C40.6725 93.9507 40.5755 93.3818 40.5498 92.9823C40.5401 92.8325 40.5565 92.7008 40.5732 92.5711L40.5742 92.5692C40.5753 92.5605 40.576 92.5515 40.5771 92.5428C40.5608 92.4131 40.5458 92.283 40.5303 92.1532C40.2831 91.9278 40.0149 91.675 39.7441 91.409C38.7943 90.4762 37.7725 89.5994 36.7324 88.745C35.4648 87.7064 34.1618 86.7022 32.8486 85.7137C31.9299 85.0226 31.0011 84.3416 30.0664 83.6746C29.9694 83.6054 29.873 83.5364 29.7773 83.4686C29.3002 83.1575 28.822 82.8513 28.3955 82.5799C28.0849 82.3819 27.7984 82.1794 27.5674 82.0057C27.0978 81.6516 26.7885 81.3567 26.5303 81.1043C26.3504 80.9279 26.1973 80.7715 26.0361 80.618C25.9502 80.5361 25.827 80.4193 25.6895 80.284C25.1114 79.7228 24.1892 78.7177 23.4658 77.7108C23.142 77.2649 22.7923 76.734 22.4727 76.2157C22.0171 75.4795 21.6254 74.7691 21.4092 74.4266C21.0243 73.8198 20.6417 73.0988 20.3213 72.4471C20.0168 71.8296 19.7675 71.2778 19.6025 70.9754C19.4057 70.6141 19.271 70.2906 19.0811 69.8065C18.9501 69.471 18.7916 69.0563 18.5801 68.494C18.3366 67.8444 18.1908 67.3732 18.0713 66.9744C17.9038 66.4107 17.7857 65.9864 17.5703 65.3641C17.3314 64.6725 17.1185 63.9361 16.9922 63.3475C16.9343 63.0791 16.8647 62.7723 16.7969 62.453C16.7068 62.0298 16.6205 61.5824 16.5625 61.1707C16.5147 60.8319 16.496 60.5482 16.4824 60.2977C16.4782 60.2197 16.4748 60.1444 16.4707 60.0721C16.448 59.9108 16.4287 59.7484 16.4082 59.5867C16.3724 59.4984 16.3386 59.4136 16.3057 59.3358L16.374 59.3162C16.3719 59.2985 16.3683 59.2803 16.3662 59.2625C16.361 59.2381 16.3561 59.2122 16.3506 59.1863L16.9814 59.0008C16.9932 59.0201 17.0047 59.0406 17.0166 59.0623C17.0263 59.0802 17.0352 59.0998 17.0449 59.118L17.0996 59.1024C17.1054 59.1548 17.1121 59.2072 17.1182 59.2596C17.2119 59.4424 17.3112 59.6432 17.4229 59.8778C17.6675 60.3944 17.8668 60.8366 18.1045 61.3084C18.2878 61.671 18.4918 62.0448 18.7588 62.4549C18.94 62.7334 19.1647 63.0469 19.3887 63.3416C19.7245 63.7855 20.0822 64.2161 20.3145 64.5145C20.4018 64.627 20.4734 64.7384 20.5371 64.8387L20.5381 64.8397C20.5425 64.8466 20.5473 64.8542 20.5518 64.8612C21.165 65.5663 21.8207 66.2396 22.5049 66.8807C22.5664 66.9344 22.6288 66.9898 22.6914 67.0438C22.9867 67.2977 23.2944 67.5509 23.4961 67.6942C23.7196 67.855 24.2502 68.298 24.8184 68.7342C25.1984 69.0274 25.5886 69.3137 25.917 69.5408C26.1031 69.6697 26.2688 69.8123 26.4424 69.9598C26.4459 69.9628 26.4496 69.9666 26.4531 69.9696C26.6228 70.1133 26.7943 70.2604 26.9902 70.4012C27.0874 70.471 27.1978 70.5446 27.3164 70.6248C27.4204 70.6951 27.5298 70.769 27.6406 70.8485C27.7419 70.921 27.9668 71.104 28.2461 71.3387C28.416 71.4815 28.6149 71.651 28.8193 71.826C29.3775 72.267 29.93 72.7265 30.4648 73.2039C30.5851 73.2943 30.6932 73.3686 30.7842 73.4207C30.8487 73.4574 30.9102 73.4873 30.9717 73.5164C31.0558 73.5565 31.1432 73.5984 31.25 73.6688C31.3336 73.724 31.4217 73.7996 31.4717 73.8602C31.4949 73.8883 31.5099 73.9132 31.5234 73.9354C31.5391 73.9609 31.5537 73.9844 31.5762 74.0067C31.5924 74.0227 31.6129 74.0361 31.6377 74.0526C31.6775 74.079 31.7292 74.1139 31.7939 74.1795C32.0345 74.4234 32.3026 74.7136 32.5557 75.0018C32.838 75.3227 33.1046 75.6438 33.3184 75.8992C33.5578 76.1843 33.8706 76.6127 34.1699 77.0526C34.3764 77.3554 34.5825 77.6692 34.7539 77.9305C34.9248 78.1906 35.1091 78.4538 35.2861 78.7117C35.5009 79.0247 35.6953 79.3173 35.8418 79.5916C35.8702 79.6453 35.8928 79.7207 35.9199 79.8153C35.9392 79.8824 35.9612 79.9603 35.9902 80.0467C36.191 80.3879 36.375 80.7123 36.5654 81.0565C36.5742 81.0667 36.5837 81.0772 36.5928 81.0877L36.5938 81.0887C36.8009 81.3289 37.0909 81.6753 37.3281 82.2342C37.3888 82.377 37.415 82.4794 37.4346 82.5643C37.4546 82.6491 37.4735 82.726 37.5215 82.827C37.576 82.9416 37.657 83.0703 37.7461 83.2117C37.8725 83.4129 38.0044 83.6211 38.1035 83.8641C38.1102 83.8805 38.1175 83.8985 38.125 83.9168C38.1979 84.0945 38.3011 84.3493 38.3828 84.6141C38.7407 85.3604 39.0799 86.0893 39.4209 86.8328C39.6427 87.3168 39.8605 87.8019 40.0791 88.2869C40.0187 87.9885 39.9712 87.2952 39.9395 86.5643C39.9175 86.0717 39.9018 85.5602 39.8809 85.1434C39.8686 84.8997 39.9064 84.6698 39.9463 84.4334C39.9835 84.2129 40.0221 83.9864 40.0254 83.7381C40.027 83.6139 40.0203 83.4793 40.0137 83.3358C40.0078 83.2091 40.0021 83.0744 40.002 82.9344C40.0019 82.8042 40.035 82.5154 40.0811 82.1473C40.1095 81.9204 40.1434 81.6613 40.1768 81.3905C40.2131 80.6703 40.261 79.9482 40.3203 79.2303C40.3092 79.0779 40.2884 78.9427 40.2549 78.8348C40.2309 78.7576 40.199 78.6899 40.167 78.6209C40.1234 78.527 40.0782 78.4291 40.0488 78.2987C40.026 78.1967 40.0271 78.0795 40.0508 78.0037C40.0619 77.9685 40.0773 77.9415 40.0918 77.9178C40.1083 77.8907 40.1233 77.8661 40.127 77.8348C40.1294 77.8123 40.1227 77.7878 40.1152 77.7576C40.1032 77.709 40.0878 77.6452 40.0986 77.5535C40.1393 77.2112 40.1988 76.8236 40.2598 76.4461C40.3277 76.0249 40.3982 75.6139 40.4424 75.286C40.4917 74.9187 40.6104 74.3996 40.7344 73.8856C40.8208 73.5263 40.9103 73.1655 40.9775 72.8563C41.0433 72.5534 41.0851 72.231 41.127 71.9198C41.1771 71.546 41.2271 71.1896 41.3193 70.8934C41.338 70.8337 41.3904 70.7655 41.4561 70.6805C41.5026 70.6202 41.5565 70.5509 41.6094 70.4705C41.6901 70.0892 41.7741 69.7087 41.8623 69.328C41.8604 69.3137 41.8585 69.2987 41.8564 69.284V69.283C41.8102 68.9444 41.7484 68.4802 41.9863 67.9012C42.0468 67.7545 42.114 67.669 42.1748 67.5926C42.2345 67.5176 42.2879 67.45 42.3223 67.3416C42.3612 67.2183 42.3746 67.0625 42.3887 66.8944C42.4084 66.658 42.4314 66.3944 42.5342 66.1512C42.5412 66.1346 42.5488 66.116 42.5566 66.0975C42.6309 65.9209 42.7417 65.6567 42.8936 65.408C43.1258 64.6141 43.3712 63.8217 43.627 63.0301C44.0522 61.7145 44.5037 60.414 44.9746 59.1151C45.0313 58.9587 45.0921 58.8059 45.1572 58.659C44.3363 56.8308 42.4083 56.0175 40.3438 55.6131C39.5528 55.4218 38.7302 55.2179 37.9502 54.8367C37.233 54.4908 36.5743 53.968 36.0908 53.3182C35.9051 53.0828 35.7461 52.842 35.6045 52.5946C35.5376 52.4792 35.4676 52.3727 35.3965 52.2742C35.1124 51.8798 34.7893 51.5945 34.5049 51.3865C33.8234 50.8723 32.8552 50.5538 32.1035 50.4363C31.9815 50.416 31.8655 50.3996 31.7568 50.3865C31.1527 50.334 30.5374 50.3468 29.9258 50.4071C29.8846 50.4058 29.8428 50.4042 29.8008 50.4031C29.2718 50.3924 28.6187 50.4756 27.623 50.7322C27.1893 50.846 26.6905 50.9942 26.1172 51.2049C25.751 51.3406 25.554 51.4012 25.3955 51.4481C25.3482 51.4624 25.3036 51.4751 25.2598 51.4901C25.1107 51.5408 24.9647 51.6292 24.8008 51.7352C24.5862 51.8747 24.3335 52.045 23.9873 52.2362C23.8262 52.3253 23.6757 52.4206 23.5537 52.5067L23.2588 52.7469L23.0498 52.4119C22.583 51.5016 22.4714 50.9982 22.3506 50.6151C22.3131 50.4793 22.2839 50.3592 22.2627 50.2313C22.19 49.8193 22.2094 49.2194 22.2891 48.7821C22.3426 48.4353 22.4481 47.7402 22.5928 47.2244C22.6448 47.0293 22.7367 46.7714 22.8672 46.4764C23.001 46.1735 23.1761 45.8318 23.3828 45.4744C23.9109 44.5808 24.3026 44.173 24.6006 43.8475C24.6894 43.7537 24.7703 43.6713 24.8545 43.5887C25.1212 43.3262 25.4751 43.0216 25.8477 42.7479C26.2995 42.4137 26.7793 42.1234 27.1602 41.9119C28.1581 41.4151 29.2143 41.0692 30.2852 40.8348C30.8436 40.7122 31.3802 40.6745 31.7793 40.7078C32.1781 40.7415 32.4155 40.8369 32.4287 40.9578C32.4303 40.9723 32.4284 40.9868 32.4238 41.0018C32.427 41.0014 32.4304 41.0012 32.4336 41.0008C32.4365 41.0005 32.4395 41.0001 32.4424 40.9998C32.4347 40.9864 32.4305 40.9721 32.4287 40.9578C32.4168 40.8391 32.6138 40.6972 32.9912 40.575C33.3665 40.4534 33.891 40.3662 34.4443 40.3553ZM52.3584 25.2391C52.7124 25.0015 53.3175 24.5718 54.1436 24.742C54.7788 24.906 55.14 25.3821 55.3682 25.8084C55.3718 25.8068 55.3753 25.8051 55.3789 25.8035C55.6448 25.6888 55.9214 25.6356 56.2363 25.6522C56.9664 25.6767 58.0526 26.2463 58.7041 27.9529C58.9015 28.446 59.0371 28.9401 59.1426 29.4529C59.7746 32.9073 59.2914 36.3455 58.7041 39.7108C58.3525 41.68 58.1124 43.7126 57.5859 45.6932C57.5687 45.7602 57.5516 45.8286 57.5332 45.8973C57.1949 47.2316 56.5303 48.846 55.8721 49.7352C55.0618 50.8777 54.237 51.4431 53.543 51.7947C52.3613 52.4017 51.0182 52.5565 49.7246 52.4529L49.4238 52.4324L49.5254 52.1463C49.9587 50.97 50.4867 49.8256 51.1572 48.7576C51.8342 47.7045 52.645 46.6599 53.8301 46.0692L54.0332 45.9695L54.1074 46.1863C54.1156 46.2111 54.126 46.2416 54.1357 46.2752C54.1566 46.3476 54.1736 46.4173 54.1904 46.4822C54.2095 46.5564 54.2299 46.6272 54.2539 46.6824C54.2669 46.7121 54.2809 46.737 54.2959 46.7596C54.3287 46.8088 54.3724 46.8515 54.4219 46.8817C54.5189 46.9407 54.6426 46.955 54.75 46.9168C54.8003 46.8993 54.8466 46.8717 54.8867 46.8348C54.9048 46.818 54.9215 46.7991 54.9365 46.7791C54.9703 46.7342 54.9983 46.6776 55.0176 46.6151C55.0301 46.5749 55.0405 46.5283 55.0508 46.4793C55.1171 46.1646 55.1434 45.8456 55.0479 45.5789C54.9819 45.3933 54.8625 45.2447 54.6885 45.1082C54.6695 45.0927 54.6515 45.0763 54.6318 45.0594C54.622 45.0509 54.612 45.0426 54.6006 45.032C54.5846 45.0088 54.592 45.0507 54.5303 44.9344C54.4634 44.6987 54.5039 44.6074 54.5146 44.4637C54.5464 44.2649 54.3891 44.06 54.1885 44.0379C54.1026 44.0262 54.0143 44.0446 53.9404 44.0897C53.8435 44.1483 53.7763 44.25 53.7617 44.3621C53.7278 44.614 53.7239 44.866 53.7842 45.0906L53.8281 45.2498L53.6738 45.3172C52.9668 45.6221 52.3453 46.1179 51.8086 46.6873C51.328 47.2059 50.9358 47.76 50.6045 48.2928C50.5868 48.3212 50.569 48.3504 50.5518 48.3787C50.1137 49.0978 49.7838 49.7767 49.5264 50.3475C49.2685 50.9202 49.021 51.5369 48.8057 52.1531L48.7402 52.3446L48.5391 52.3094C48.3544 52.2757 48.1722 52.2375 47.9932 52.1971L47.7539 52.1453L47.8164 51.9071C48.0194 51.147 48.1713 50.4056 48.2666 49.7684C48.2987 49.5552 48.3241 49.3527 48.3447 49.1658C48.3549 49.0645 48.365 48.9626 48.373 48.8612C48.4463 47.9219 48.4297 46.9716 48.2334 46.0653C48.2214 45.998 48.2087 45.9296 48.1943 45.8612C48.1165 45.4944 47.9957 45.0963 47.7764 44.6717C47.7367 44.601 47.6925 44.523 47.6475 44.4432L47.5957 44.368C47.5478 44.3086 47.488 44.2578 47.416 44.2195L47.1494 44.0809L47.3857 43.8914C47.7745 43.5822 48.2124 43.2169 48.5312 42.6756C48.5396 42.6613 48.5475 42.6463 48.5557 42.6317C48.6518 42.4712 48.598 42.2209 48.4092 42.1199C48.2475 42.0234 47.9977 42.0782 47.8975 42.2654C47.7529 42.5258 47.5473 42.7543 47.3223 42.9588C46.9755 43.2682 46.7256 43.4384 46.5361 43.5789C46.4409 43.648 46.3591 43.7075 46.2842 43.7625C46.2184 43.8109 46.1564 43.8566 46.0957 43.9041C45.888 44.0676 45.6861 44.26 45.4834 44.5096C45.3263 44.7049 45.1674 44.9356 45.0342 45.2264C45.0017 45.2971 44.9788 45.3668 44.9707 45.4344C44.9622 45.5069 44.9704 45.5826 44.999 45.6531C45.0115 45.684 45.0283 45.7139 45.0488 45.742C45.0989 45.8106 45.1701 45.8615 45.2471 45.8875C45.3165 45.9111 45.3911 45.9151 45.4639 45.9022C45.5016 45.8955 45.5403 45.8849 45.5752 45.8709C45.6235 45.8514 45.6731 45.8251 45.7217 45.7957C45.9436 45.656 46.1505 45.4935 46.3438 45.3572C46.5329 45.2237 46.7077 45.1062 46.8906 45.0115L47.0352 44.9383L47.1104 45.0828C47.4228 45.7028 47.5167 46.1676 47.5957 46.5565C47.6365 46.7742 47.6645 46.9746 47.6826 47.1785C47.7254 47.642 47.7156 48.2443 47.6602 48.8016C47.6371 49.0404 47.6074 49.2719 47.5752 49.4813C47.5034 49.9775 47.3405 50.912 47.1465 51.6893L47.0859 51.9256L46.8613 51.825C46.7711 51.7857 46.6839 51.7459 46.6016 51.7049C46.3085 51.5592 45.9212 51.3235 45.5264 50.9725C45.1185 50.6125 44.707 50.1241 44.3652 49.5496C43.5322 48.0735 43.4285 47.1479 43.2852 46.4588C43.2502 46.2565 43.2234 46.0725 43.1992 45.8836C43.1225 45.292 43.0755 44.5493 43.082 43.8035C43.0871 42.9091 43.1667 42.0049 43.252 41.3211C43.4989 39.553 43.9361 37.8109 44.5723 36.1414C44.8992 35.2843 45.302 34.4958 45.666 33.952C46.0303 33.4051 46.3046 33.1531 46.3496 33.1912C46.3559 33.1955 46.3584 33.2034 46.3584 33.2156C46.3613 33.2117 46.3643 33.2079 46.3672 33.2039C46.3702 33.1998 46.373 33.1953 46.376 33.1912C46.3642 33.1951 46.3554 33.1956 46.3496 33.1912C46.3004 33.1568 46.4625 32.8394 46.7881 32.3016C47.1139 31.7644 47.5752 31.0494 48.083 30.3182C48.9135 29.128 49.753 27.938 50.7207 26.8279C50.7717 26.7687 50.824 26.7106 50.875 26.6531C51.258 26.2234 51.6289 25.8309 52.0537 25.4754C52.1495 25.3956 52.2523 25.3152 52.3584 25.2391ZM49.916 52.2879C49.9222 52.2704 49.9283 52.2527 49.9346 52.2352C49.9164 52.2342 49.8982 52.2333 49.8799 52.2322L49.916 52.2879ZM49.79 52.0926C49.7964 52.0755 49.8022 52.0581 49.8086 52.0408C49.7907 52.0398 49.7727 52.0401 49.7549 52.0389L49.79 52.0926ZM48.2295 52.0154C48.2304 52.0121 48.2305 52.0081 48.2314 52.0047C48.2282 52.004 48.2249 52.0034 48.2217 52.0028L48.2295 52.0154ZM48.0879 51.783C48.0882 51.7817 48.0885 51.7804 48.0889 51.7791C48.0877 51.7789 48.0861 51.7784 48.085 51.7781L48.0879 51.783ZM46.6943 51.5721L46.7539 51.5428C46.7383 51.5349 46.7225 51.5274 46.707 51.5194C46.7025 51.5368 46.6989 51.5546 46.6943 51.5721ZM46.9971 51.4266L47.0537 51.4002C47.0388 51.3934 47.0237 51.3866 47.0088 51.3797C47.0049 51.3954 47.001 51.411 46.9971 51.4266ZM65.4062 39.8729C65.4559 39.882 65.5029 39.8917 65.5459 39.8973C65.6317 39.9084 65.7106 39.904 65.7891 39.9012C65.873 39.8981 65.9589 39.8979 66.0391 39.9246C66.1779 39.9706 66.3462 40.0304 66.502 40.0985C66.7395 40.2008 66.9494 40.3243 67.0195 40.3924C67.0853 40.4554 67.1938 40.5376 67.2969 40.6248C67.3183 40.6428 67.3402 40.662 67.3613 40.6805C67.4884 40.7721 67.6027 40.8621 67.7207 40.9637L67.7012 40.95C67.833 41.0498 67.9564 41.1489 68.0791 41.2596C68.0818 41.2606 68.0842 41.2625 68.0869 41.2635H68.0879C68.1298 41.2795 68.1707 41.296 68.209 41.326C68.3168 41.4113 68.4473 41.5557 68.5635 41.7322C68.6406 41.8491 68.7112 41.9849 68.7617 42.1092C68.8378 42.2932 68.8838 42.476 68.8955 42.6492C68.9108 42.872 68.874 43.0729 68.8018 43.2449C68.7558 43.3536 68.7059 43.4241 68.6699 43.4803C68.6628 43.4913 68.6555 43.5026 68.6494 43.5125C68.6341 43.5789 68.6262 43.6392 68.626 43.6932C68.6315 43.7076 68.6378 43.7226 68.6455 43.7362C68.6705 43.7803 68.7035 43.8172 68.7354 43.866C68.7373 43.869 68.7392 43.8727 68.7412 43.8758C68.7778 43.9318 68.8315 44.0083 68.8994 44.0828C68.9525 44.1416 69.0143 44.2006 69.0732 44.2459C69.2032 44.3467 69.369 44.4967 69.5303 44.659C69.6753 44.8062 69.7949 44.8785 69.958 45.0037C70.069 45.1018 70.2299 45.1894 70.3662 45.5272C70.4807 45.8444 70.365 46.14 70.2822 46.2781C70.1529 46.4917 70.048 46.5807 69.9121 46.657C69.9086 46.659 69.905 46.6619 69.9014 46.6639C69.7801 46.7341 69.5916 46.8542 69.377 46.949C69.1447 47.0536 68.8862 47.1347 68.6543 47.1639C68.5187 47.1818 68.2744 47.2585 68.001 47.325C67.8144 47.3714 67.6156 47.4142 67.4424 47.4383C67.0549 47.4934 66.63 47.4835 66.3828 47.4725C66.3224 47.4699 66.2715 47.4669 66.2344 47.4656C66.1661 47.4634 66.0993 47.4708 66.0225 47.4783C65.9095 47.4892 65.7804 47.5014 65.6016 47.4852C65.387 47.4657 65.0839 47.4205 64.7822 47.3651C64.7453 47.3626 64.708 47.359 64.6709 47.3563C64.3088 47.3298 63.9479 47.2932 63.5889 47.2459C63.0754 47.1782 62.5658 47.0822 62.0615 46.9656C61.6476 46.8699 61.2362 46.7601 60.8291 46.6395C60.6267 46.5794 60.4445 46.4747 60.3252 46.3485C60.2202 46.237 60.1734 46.1177 60.1865 46.0106C60.185 46.0101 60.1831 46.01 60.1816 46.0096C60.1821 46.0078 60.1821 46.0056 60.1826 46.0037C60.0865 45.9607 60.0094 45.8615 59.9678 45.7166C59.9201 45.5525 59.9242 45.3413 59.9766 45.1385C60.0854 44.7189 60.2136 44.3072 60.373 43.8973C60.4683 43.6525 60.574 43.4107 60.6914 43.1727C60.6975 43.0754 60.7242 42.9859 60.7432 42.9256C60.7451 42.9193 60.7473 42.9127 60.749 42.907C60.7748 42.8241 60.8367 42.7632 60.8916 42.7098C60.9307 42.6716 60.9675 42.6348 60.9863 42.5975C61.003 42.5644 61.0023 42.5334 61.001 42.4988C60.9996 42.4638 60.9977 42.4246 61.0156 42.3758C61.0876 42.1822 61.2406 42.1102 61.3486 42.0643C61.3533 42.0623 61.3586 42.0605 61.3633 42.0584C61.4392 41.9551 61.5171 41.8546 61.5977 41.7576C61.6032 41.7239 61.6053 41.6917 61.6074 41.6639C61.6104 41.6249 61.6131 41.5936 61.624 41.576C61.6794 41.4892 61.7669 41.4077 61.8623 41.324C61.9415 41.2546 62.0224 41.1875 62.0957 41.1111C62.1701 41.0336 62.2514 40.9439 62.3408 40.8524C62.4661 40.7233 62.5994 40.5992 62.7061 40.5281C62.7994 40.4657 62.9199 40.3809 63.0439 40.3016C63.1558 40.2297 63.2774 40.1584 63.3857 40.1063C63.4148 40.0924 63.4394 40.0937 63.458 40.0945C63.4697 40.0951 63.48 40.0948 63.4873 40.0916C63.4973 40.0869 63.5032 40.0773 63.5098 40.0672C63.5154 40.0584 63.5221 40.0491 63.5322 40.0408C63.5546 40.0228 63.5959 40.0124 63.6348 40.0145C63.6845 40.0171 63.7245 40.0297 63.7637 40.0428C63.7922 40.0525 63.8198 40.0633 63.8496 40.0692C63.8913 40.0772 63.9409 40.0772 63.9941 40.0731C64.2317 40.0001 64.4786 39.9488 64.7275 39.9236C64.8206 39.9044 64.9107 39.8887 64.9902 39.8768C65.1186 39.8575 65.221 39.8494 65.2666 39.8533C65.3158 39.8577 65.3626 39.8648 65.4062 39.8729ZM53.9688 46.4266C53.9779 46.4221 53.9869 46.4172 53.9961 46.4129L53.9609 46.3983C53.9635 46.4077 53.9663 46.4171 53.9688 46.4266ZM53.7529 46.3338C53.7612 46.3293 53.77 46.3256 53.7783 46.3211L53.7451 46.3074C53.7481 46.3166 53.7502 46.3256 53.7529 46.3338ZM47.0791 45.407C47.082 45.4056 47.0851 45.4045 47.0879 45.4031L47.0762 45.3992C47.0773 45.4018 47.078 45.4045 47.0791 45.407ZM46.7256 45.2947C46.7294 45.2923 46.7335 45.2903 46.7373 45.2879L46.7207 45.283C46.7226 45.2867 46.7237 45.2911 46.7256 45.2947ZM54.5303 44.9344C54.5311 44.9373 54.5323 44.9412 54.5332 44.9442L54.5264 44.9276C54.5275 44.9298 54.5291 44.9323 54.5303 44.9344ZM47.6426 44.2156C47.6583 44.2031 47.6729 44.1892 47.6885 44.1766C47.6709 44.1595 47.6524 44.1437 47.6338 44.1287L47.6426 44.2156ZM47.6172 43.9539C47.639 43.9362 47.6608 43.9183 47.6826 43.9002C47.658 43.8844 47.6341 43.8677 47.6084 43.8543L47.6172 43.9539ZM37.5996 31.8455C37.6817 31.8507 37.7538 31.8801 37.8291 31.9129C37.8989 31.9435 37.9693 31.9767 38.0498 31.9949C38.0897 32.004 38.1356 32.0108 38.1836 32.0184C38.2261 32.0251 38.2715 32.0333 38.3174 32.0447C38.3598 32.0554 38.4507 32.0943 38.5625 32.1512C38.6316 32.1863 38.7084 32.2282 38.7891 32.2733C39.0124 32.3686 39.229 32.4838 39.4346 32.616C39.484 32.634 39.5305 32.6453 39.5723 32.6483C39.6022 32.6503 39.6314 32.6474 39.6611 32.6453C39.7015 32.6425 39.7438 32.6409 39.792 32.6512C39.8295 32.6592 39.8652 32.68 39.8818 32.7029C39.8895 32.7137 39.8934 32.7251 39.8965 32.7352C39.9 32.7466 39.9038 32.7565 39.9121 32.7635C39.9182 32.7684 39.9273 32.7709 39.9385 32.7733C39.9565 32.7771 39.9806 32.7826 40.0049 32.8035C40.0959 32.8823 40.1929 32.9804 40.2822 33.0789C40.3823 33.189 40.4736 33.3007 40.5488 33.3875C40.634 33.4854 40.7306 33.6405 40.8174 33.8006C40.8774 33.9111 40.9343 34.0258 40.9834 34.1199C41.0318 34.2124 41.0935 34.305 41.1494 34.3943C41.2164 34.5011 41.2783 34.6092 41.3057 34.7088C41.3112 34.729 41.3047 34.7602 41.2959 34.7986C41.2896 34.8261 41.2822 34.8584 41.2773 34.8924C41.3265 35.0127 41.371 35.1313 41.4111 35.2537C41.4149 35.2572 41.4189 35.2609 41.4229 35.2645L41.4932 35.3338C41.5657 35.4106 41.6358 35.5155 41.6406 35.6746C41.6412 35.7007 41.6377 35.7232 41.6328 35.743L41.5996 35.8445C41.5958 35.8604 41.5934 35.8769 41.5957 35.8953C41.6012 35.9375 41.6251 35.9845 41.6494 36.035C41.6834 36.105 41.7208 36.1852 41.7168 36.2733C41.7165 36.2792 41.7152 36.2861 41.7148 36.2928C41.7121 36.3571 41.7068 36.4498 41.6787 36.5447C41.7057 36.8133 41.716 37.0801 41.7129 37.3445C41.7077 37.7869 41.6646 38.2259 41.5918 38.6561C41.5566 38.8628 41.471 39.0591 41.3584 39.1873C41.2588 39.3018 41.1458 39.3584 41.04 39.3553C41.0397 39.3569 41.0403 39.3586 41.04 39.3602C41.0383 39.3598 41.0368 39.3586 41.0352 39.3582C40.9967 39.4593 40.9001 39.5428 40.7559 39.5926C40.5925 39.6487 40.3852 39.6579 40.1797 39.618C39.7667 39.5375 39.354 39.4484 38.9453 39.3475C38.4475 39.2245 37.9538 39.0836 37.4678 38.9197C37.1267 38.8047 36.7918 38.682 36.4561 38.5506C36.4218 38.5372 36.3866 38.5241 36.3525 38.5106C36.0586 38.4315 35.7689 38.3452 35.5684 38.2733C35.4013 38.2133 35.2916 38.1491 35.1943 38.0926C35.1284 38.0541 35.0707 38.0196 35.0088 37.994C34.976 37.9804 34.9278 37.9626 34.8721 37.9402C34.6464 37.8502 34.2578 37.6875 33.9307 37.4891C33.7865 37.4019 33.6223 37.2868 33.4697 37.1756C33.2492 37.0157 33.0521 36.8613 32.9346 36.8006C32.7371 36.7004 32.5225 36.5419 32.3447 36.3943C32.1736 36.2534 32.0283 36.1157 31.9277 36.0506C31.8116 35.9758 31.7268 35.8817 31.6182 35.7235C31.5854 35.675 31.5471 35.6148 31.5117 35.5496C31.4657 35.4636 31.4173 35.3719 31.3682 35.2332C31.3199 35.0944 31.2939 34.9247 31.3359 34.7576C31.3766 34.5896 31.4829 34.4642 31.5732 34.3953C31.8334 34.2152 31.9903 34.2151 32.2061 34.1346C32.4433 34.056 32.6793 34.0143 32.8604 34.0037C32.9428 33.9992 33.0357 33.9875 33.1289 33.9744C33.2523 33.9572 33.3762 33.9362 33.4844 33.9236C33.5742 33.9132 33.6452 33.9177 33.708 33.9168C33.7271 33.9167 33.7454 33.9154 33.7627 33.9139C33.7944 33.8998 33.8235 33.8842 33.8467 33.869C33.8652 33.8568 33.8803 33.8456 33.8945 33.8328C33.8974 33.8252 33.8995 33.8164 33.9014 33.8084C33.912 33.7659 33.909 33.7275 33.917 33.6688C33.9309 33.5744 33.9554 33.4316 34.0029 33.2459C34.0415 33.1023 34.0967 32.922 34.2197 32.7332C34.3024 32.6047 34.4248 32.4779 34.5527 32.3856C34.742 32.2478 34.9347 32.1699 35.0713 32.1395C35.1203 32.129 35.1682 32.1324 35.2148 32.1365C35.2179 32.1368 35.2216 32.1372 35.2246 32.1375C35.4932 32.065 35.7581 32.0235 36.0225 31.993L36.001 31.9959C36.0431 31.9887 36.0851 31.9817 36.127 31.9754C36.1534 31.9687 36.1805 31.9611 36.207 31.9549C36.3353 31.9245 36.4657 31.9005 36.5498 31.8729C36.6396 31.8425 36.8756 31.8225 37.124 31.825C37.2893 31.8262 37.458 31.8365 37.5996 31.8455ZM55.3184 25.8318C55.2301 25.8744 55.1401 25.9293 55.0508 25.994C55.0641 26.0184 55.0767 26.0437 55.0898 26.0692L55.4707 26.1629C55.4892 26.1537 55.5074 26.144 55.5264 26.1356C55.4813 26.035 55.4297 25.9234 55.3682 25.8084C55.3516 25.8158 55.3348 25.8239 55.3184 25.8318Z" fill="#838D4C"/>
</svg>
