<svg width="100" height="150" viewBox="0 0 100 150" fill="none" xmlns="http://www.w3.org/2000/svg">
<path d="M60.0888 39.0421C60.6341 38.9796 61.6941 39.033 62.2744 39.0851C62.285 39.0859 62.296 39.0862 62.3066 39.087C62.4449 39.0987 62.5751 39.1081 62.7265 39.1202C63.0961 39.1528 63.587 39.184 64.6113 39.3692C64.9154 39.4126 65.2098 39.4619 65.5117 39.5196C68.711 40.0553 72.045 41.9132 73.5839 44.9532C73.605 44.9896 73.6271 45.0267 73.6484 45.0646C74.0522 45.7689 74.433 46.686 74.6162 47.3067L75.1757 48.9034L73.7168 48.0167C73.7021 48.0068 73.6871 47.9969 73.6728 47.9874C73.1159 47.6296 72.6267 47.492 72.2343 47.3849C69.9217 46.9144 67.3729 47.3085 64.9882 47.9083C64.2366 48.1035 63.4919 48.3317 62.7617 48.5938C62.089 48.8358 61.4252 49.1068 60.788 49.4142C60.4191 49.605 60.0854 49.798 59.7861 49.9942C59.3723 50.2651 59.0264 50.5492 58.8564 50.7638C58.8477 50.7748 58.8385 50.7858 58.831 50.796C58.2348 51.5653 57.5021 52.2649 56.9648 52.8126C56.875 52.9028 56.7886 52.9892 56.7109 53.0675C56.289 53.5227 55.8706 53.9773 55.4609 54.4376C55.4297 54.4642 55.3981 54.4916 55.3662 54.5187C54.9637 54.8618 54.5251 55.3402 53.8886 56.1231C53.6136 56.4647 53.2994 56.8665 52.9648 57.3507C52.7491 57.6654 52.6306 57.8143 52.5302 57.9425C52.513 57.9647 52.4963 57.9864 52.4804 58.0079C53.1305 58.8184 53.7795 59.6457 54.415 60.4864C54.4524 60.531 54.4905 60.5764 54.5273 60.6212C54.8027 60.9561 55.0765 61.2334 55.3642 61.5343C55.4293 61.602 55.495 61.6693 55.5595 61.7374C56.0491 62.2488 56.7584 63.4141 57.1338 64.0606C57.1408 64.0726 57.1482 64.0849 57.1552 64.0968C57.2455 64.2511 57.3334 64.3945 57.4355 64.5616C57.6746 64.9564 58.0146 65.5058 58.6142 66.6876C58.8114 67.0236 58.9988 67.351 59.1875 67.6915C60.4644 69.9878 61.5572 72.4074 62.416 74.9073C62.5234 74.5547 62.6692 74.0595 63.1435 73.1798C63.2755 72.9059 63.4194 72.6361 63.5722 72.377C64.4623 70.8727 65.6443 69.6265 66.8974 68.5294L67.0009 68.4493C68.2231 67.6703 69.4989 66.9708 70.8515 66.4151C70.8878 66.3987 70.9257 66.3819 70.9629 66.3653C71.6797 66.0415 72.6068 65.7089 73.208 65.5714C73.971 65.3926 74.4987 65.3223 74.9296 65.2716C77.3929 64.8866 79.8361 65.0056 82.2265 65.0665C82.9766 65.0877 83.7254 65.1071 84.4765 65.1173C85.1636 65.1267 85.8546 65.1296 86.542 65.1231C86.5872 65.1211 86.6327 65.1194 86.6777 65.1173L86.9199 66.1212C86.6083 66.2967 86.3158 66.4669 86.0449 66.6241C85.6215 66.8701 85.2262 67.0991 84.9082 67.2726C84.1373 67.6924 83.2394 68.1329 82.5712 68.4659C82.463 68.5198 82.3612 68.5713 82.2675 68.6183C81.7514 68.9071 81.2422 69.1957 80.7285 69.4913C80.6909 69.5047 80.6527 69.5179 80.6142 69.5313C80.1338 69.6984 79.5865 70.0009 78.749 70.4796C78.3733 70.6946 77.963 70.933 77.4531 71.2247C77.1288 71.4104 76.9485 71.4773 76.8017 71.5323C76.7594 71.5481 76.7163 71.565 76.6757 71.5821C76.5351 71.6417 76.4105 71.7425 76.2656 71.8614C76.0769 72.0163 75.8555 72.2001 75.5058 72.3712C74.4092 72.9076 74.0037 73.2738 73.6953 73.5489C73.606 73.6292 73.5251 73.7019 73.4394 73.7696C73.16 73.99 72.7182 74.2542 72.3818 74.4386C72.1076 74.5889 71.6324 74.9627 71.2812 75.2706C71.1505 75.3851 70.9627 75.5242 70.7392 75.6935C70.5102 75.8669 70.2484 76.0685 69.9795 76.3038C69.3071 76.8945 68.9634 77.2251 68.6904 77.4874C68.6133 77.5619 68.542 77.6308 68.4687 77.7032C68.2398 77.9295 67.9626 78.205 67.6884 78.4933C67.3615 78.8362 67.044 79.1953 66.8183 79.4806C66.1824 80.1696 65.6008 80.902 65.1308 81.6905C64.8909 82.091 64.6387 82.4705 64.4062 82.7374C64.3935 82.7521 64.3787 82.7645 64.3662 82.7784C64.4796 83.7483 64.5234 84.4211 64.5537 84.9786C64.8799 88.2692 64.9189 91.5478 64.9013 94.8067C64.9 95.0363 64.8984 95.2675 64.8964 95.5001C64.8898 96.3021 64.8636 97.105 64.8193 97.9054C64.783 98.5617 64.732 99.2172 64.6709 99.8712C64.7505 99.8196 64.8316 99.7698 64.9101 99.7179C65.1003 99.5921 65.2841 99.4669 65.455 99.3487C65.9154 99.03 66.2851 98.7647 66.4795 98.6417C66.7211 98.4899 67.0784 98.2331 67.4365 97.964C67.5096 97.9091 67.5818 97.8554 67.6572 97.7979C68.481 97.1278 69.2773 96.42 70.0332 95.6739C70.0388 95.6666 70.0451 95.6597 70.0507 95.6524L70.0517 95.6495C70.138 95.5385 70.2224 95.4293 70.332 95.3097C70.6312 94.9836 71.0586 94.5434 71.4843 94.0655C71.768 93.748 72.048 93.4164 72.2773 93.1222C72.6199 92.6824 72.8867 92.2841 73.1328 91.8927C73.4492 91.3874 73.7265 90.9041 74.0537 90.3487C74.2568 90.0032 74.429 89.7196 74.5634 89.4893C74.5904 89.4431 74.6155 89.399 74.6386 89.3585C74.764 89.0852 74.8803 88.8097 74.9912 88.5323C75.0113 88.4691 75.029 88.4125 75.0488 88.3477C75.0528 88.3144 75.0576 88.2806 75.0615 88.2472C75.0664 88.205 75.0714 88.1624 75.0761 88.1202L75.1171 88.1319C75.1312 88.0908 75.1468 88.0466 75.166 88.0001L75.8808 88.21C75.8791 88.2569 75.8754 88.3055 75.873 88.3546L75.8896 88.3604C75.8833 88.3764 75.8764 88.3923 75.8701 88.4083C75.8617 88.566 75.8505 88.7359 75.831 88.92C75.7817 89.3873 75.7022 89.8965 75.6162 90.378C75.5513 90.7418 75.4837 91.0902 75.4267 91.3956C75.3026 92.0655 75.0857 92.9045 74.8369 93.6934C74.6124 94.4035 74.4859 94.8861 74.3066 95.5255C74.1781 95.9789 74.0223 96.5119 73.7568 97.2511C73.5265 97.8895 73.3525 98.358 73.207 98.7403C72.997 99.2889 72.8459 99.6578 72.6298 100.067C72.4482 100.412 72.1703 101.035 71.8271 101.735C71.467 102.473 71.035 103.289 70.6005 103.975C70.3556 104.364 69.908 105.161 69.3818 105.989C69.0172 106.566 68.6081 107.169 68.2363 107.663C67.4005 108.789 66.3276 109.905 65.6523 110.517C65.4898 110.666 65.3468 110.792 65.2461 110.881C65.0592 111.046 64.8717 111.219 64.6611 111.406C64.3549 111.677 63.9837 111.995 63.4336 112.358C63.432 112.359 63.4302 112.359 63.4287 112.36C62.9345 112.693 62.253 113.013 61.5214 113.285C61.5207 113.287 61.5202 113.289 61.5195 113.291C61.3195 113.839 61.0806 114.471 60.7744 115.204C60.5766 115.677 60.4271 115.9 60.3056 116.082C60.27 116.135 60.2359 116.185 60.2041 116.236C60.0946 116.413 60.0409 116.625 59.9755 116.876C59.8907 117.201 59.7861 117.592 59.5146 118.047C58.6467 119.492 58.4153 120.196 58.2451 120.738C58.1945 120.897 58.148 121.041 58.0898 121.183C57.9014 121.641 57.5291 122.242 57.2187 122.678C56.9743 123.023 56.6004 123.781 56.3281 124.361C56.2251 124.582 56.0575 124.865 55.8584 125.194C55.6527 125.535 55.41 125.929 55.1679 126.359C54.5544 127.448 54.2076 128.015 53.9277 128.473C53.8478 128.603 53.772 128.723 53.6972 128.844C53.4617 129.223 53.1548 129.691 52.8398 130.157C52.4639 130.714 52.0686 131.279 51.7763 131.709C50.9309 132.765 50.0482 133.791 49.1386 134.786C48.6671 135.302 48.144 135.72 47.6767 135.959C47.2118 136.196 46.8528 136.228 46.6728 136.06C46.4928 135.89 46.5032 135.533 46.6914 135.057C46.8824 134.578 47.2264 134.029 47.6543 133.503C48.5091 132.454 49.3323 131.375 50.1289 130.276C51.098 128.94 52.0264 127.578 52.9287 126.197C53.5601 125.231 54.1722 124.253 54.7646 123.262C54.8254 123.16 54.8868 123.057 54.9472 122.955C55.381 122.085 55.7947 121.21 56.0947 120.6C56.3423 120.096 56.5577 119.745 56.7402 119.445C56.8658 119.239 56.9763 119.055 57.0693 118.859C57.1193 118.755 57.1864 118.61 57.2656 118.436C57.5901 117.725 58.1186 116.51 58.6416 115.419C58.8498 114.987 59.0972 114.495 59.3349 114.012C58.3698 114.321 57.4286 114.625 56.5654 115.04C54.959 115.776 53.7648 117.057 53.2988 118.753C52.9002 120.113 52.8629 121.63 52.9697 123.114C53.0251 123.872 53.0687 124.589 53.0546 125.117C53.0482 125.385 53.0282 125.604 52.9931 125.759C52.9991 125.877 52.98 125.954 52.9306 125.983C52.9178 125.99 52.9023 125.992 52.8857 125.993C52.8866 125.998 52.8877 126.002 52.8886 126.007C52.8864 126.003 52.8841 125.999 52.8818 125.995C52.8687 126.005 52.8555 126.013 52.8408 126.016C52.7833 126.027 52.7162 125.979 52.6416 125.881C52.5176 125.786 52.3654 125.633 52.1963 125.429C51.8543 125.018 51.457 124.399 51.1211 123.72C50.4278 122.314 49.8486 120.875 49.4687 119.319C49.241 118.378 49.0981 117.436 49.0683 116.466C49.0159 116.135 49.0035 115.814 49.0009 115.587C49.0007 115.563 49.0001 115.539 49 115.518C48.9976 115.203 49.0541 114.897 49.1132 114.632C49.1558 114.439 49.2003 114.261 49.2246 114.11C49.246 113.978 49.2455 113.883 49.2461 113.778C49.2469 113.672 49.2481 113.554 49.2832 113.367C49.4225 112.639 49.7082 112.181 49.9179 111.863V111.862C49.9272 111.848 49.9372 111.834 49.9463 111.82C50.1304 111.4 50.3429 110.991 50.5771 110.6C50.6143 110.5 50.6446 110.409 50.6718 110.331C50.7102 110.221 50.7428 110.134 50.7802 110.071C50.966 109.76 51.2239 109.423 51.5097 109.088C51.745 108.811 52.0005 108.533 52.2412 108.267C52.4843 107.997 52.7806 107.681 53.0781 107.385C53.5092 106.954 53.9578 106.552 54.292 106.289C54.5868 106.056 54.9594 105.763 55.3447 105.477C55.6903 105.219 56.0508 104.962 56.3701 104.748C56.4562 104.69 56.5212 104.664 56.5703 104.643C56.6009 104.63 56.6261 104.619 56.6474 104.605C56.6768 104.585 56.6977 104.563 56.7207 104.539C56.7407 104.518 56.7632 104.495 56.7949 104.47C56.864 104.415 56.9771 104.35 57.08 104.306C57.097 104.299 57.1138 104.293 57.1298 104.286C57.1167 104.256 57.1041 104.226 57.0918 104.197C56.9039 103.762 56.7752 103.48 56.5937 103.294C56.5792 103.279 56.5647 103.265 56.5507 103.25C56.4401 102.987 56.322 102.717 56.2031 102.454C56.1776 102.409 56.1505 102.361 56.1211 102.31C55.9408 101.997 55.6863 101.572 55.497 101.186C55.4176 101.023 55.3327 100.82 55.2363 100.596C55.1686 100.438 55.0917 100.262 55.0078 100.083C54.8423 99.788 54.6704 99.4934 54.4941 99.2032C54.3037 98.8897 54.1036 98.5746 53.9004 98.2677C53.2493 97.2839 52.5412 96.3347 51.8203 95.3897C51.6801 95.2356 51.5111 95.0465 51.2705 94.7589C51.0827 94.5349 50.8259 94.1427 50.6211 93.8282C50.6105 93.812 50.5991 93.7961 50.5888 93.7804C49.68 92.5849 48.7856 91.358 47.9873 90.0684C47.9142 89.9505 47.8411 89.8316 47.7695 89.711C47.4746 89.3226 47.3539 89.1243 47.2646 88.9796C47.2272 88.9187 47.1946 88.8664 47.1582 88.8126C47.1554 88.8085 47.1521 88.804 47.1494 88.7999C46.9939 88.5711 46.7196 88.1578 46.6601 87.8956C46.6523 87.8613 46.6442 87.8265 46.6367 87.7921C46.6039 87.6416 46.5697 87.4882 46.5127 87.339C46.5052 87.3194 46.4983 87.2992 46.4912 87.2794C46.3215 86.9189 46.1475 86.5382 45.9863 86.172C45.9042 85.9851 45.863 85.7833 45.8662 85.5987C45.7055 85.716 45.4545 85.8061 45.1699 85.8018C44.6126 85.8022 44.0519 85.5527 43.6543 85.2101C43.5081 85.066 43.3382 84.8705 43.1943 84.671C43.0733 84.5045 42.9679 84.3367 42.8906 84.1993C42.8663 84.1561 42.8416 84.1122 42.8164 84.0655C42.7286 83.9021 42.623 83.6954 42.4502 83.3136C42.3817 83.1625 42.3102 83.0268 42.249 82.9112C42.1897 82.799 42.1393 82.704 42.1103 82.631C42.034 82.4364 41.9141 82.195 41.8252 82.0987C41.7416 82.0062 41.6404 81.8925 41.5634 81.8018C41.5288 81.761 41.4981 81.7176 41.4726 81.6759C41.4383 81.6198 41.4204 81.5763 41.3955 81.5177C41.3171 81.3236 41.2293 81.0814 40.9189 80.5968C40.8213 80.4424 40.7937 80.3093 40.7695 80.1964C40.752 80.1119 40.7363 80.0392 40.6972 79.9796C40.6859 79.9623 40.6739 79.9446 40.6611 79.9268C40.618 79.8678 40.5651 79.7946 40.499 79.6329C40.3991 79.388 40.3201 79.1745 40.2539 78.9893C40.1036 78.5679 40.0153 78.2959 39.8916 78.0929C39.8818 78.0768 39.8716 78.0608 39.8623 78.045C39.7857 77.7843 39.7119 77.5214 39.6416 77.2599C39.6259 77.2134 39.6085 77.1625 39.5908 77.1095C39.482 76.7847 39.3426 76.3444 39.2578 75.9435C39.2223 75.7762 39.1905 75.574 39.1591 75.3438C39.1369 75.1799 39.1164 75.0063 39.0947 74.8145C39.0449 74.4939 38.9986 74.1727 39 73.8185C39.0017 73.7251 39.0047 73.6279 39.0273 73.5079C39.0575 73.4055 39.0567 73.2418 39.2939 73.0733C39.589 72.9286 39.7377 73.0377 39.8496 73.0724C39.9598 73.1206 40.0518 73.18 40.1298 73.2325C41.0864 73.9518 41.774 74.7726 42.5205 75.5899C42.6569 75.7264 42.8216 75.8935 43.0537 76.1466C43.237 76.3463 43.4974 76.6881 43.705 76.9659C43.7157 76.9801 43.727 76.9941 43.7373 77.0079C44.4418 77.8644 45.1312 78.7212 45.7597 79.6788C45.9179 79.9278 46.0571 80.1826 46.1826 80.4415C46.2416 80.5635 46.2971 80.6864 46.3496 80.8097C46.561 81.221 46.6332 81.4319 46.6894 81.586C46.7125 81.6508 46.7322 81.7073 46.7539 81.7657C46.7553 81.7698 46.7563 81.7744 46.7578 81.7784C46.8511 82.0232 46.9957 82.486 46.9951 82.7442C46.9953 82.7771 46.9964 82.8116 46.9961 82.8448C46.9945 82.9909 46.9881 83.1371 46.9931 83.294C46.9938 83.3149 46.9939 83.3368 46.9941 83.3575C47.0204 83.7576 47.018 84.1724 46.9023 84.6085C46.856 84.7851 46.7627 84.9553 46.6494 85.0841C46.6507 85.0847 46.652 85.0854 46.6533 85.086C46.8407 85.1852 47.0166 85.3568 47.1445 85.5606C47.4092 85.9842 47.6784 86.4056 47.9502 86.8253C48.1147 87.0797 48.2772 87.3273 48.4394 87.5772C48.5386 87.6375 48.6142 87.7121 48.665 87.7618C48.6701 87.7668 48.675 87.772 48.6796 87.7765C48.75 87.8446 48.773 87.9396 48.7939 88.0245C48.8088 88.085 48.824 88.1401 48.8525 88.1768C48.8651 88.193 48.8797 88.2045 48.8964 88.213L49.0136 88.2569C49.0349 88.267 49.0568 88.2805 49.0781 88.2999C49.2485 88.4578 49.2373 88.6493 49.2295 88.7891C49.2291 88.7952 49.2288 88.8018 49.2285 88.8077C49.3031 88.9261 49.3763 89.0445 49.4492 89.1622C49.4859 89.1771 49.5235 89.1876 49.5556 89.1973C49.6004 89.2106 49.636 89.2216 49.6513 89.2384C49.7271 89.3219 49.7837 89.4399 49.8427 89.5616C49.8919 89.6629 49.9433 89.767 50.0078 89.8565C50.0732 89.9472 50.1597 90.0522 50.2451 90.1554C50.3674 90.3032 50.4899 90.4492 50.5576 90.5626C50.6178 90.6634 50.704 90.7859 50.7929 90.9112C50.8726 91.0235 50.9544 91.137 51.0205 91.2403C51.0383 91.2681 51.0369 91.296 51.0361 91.3165C51.0356 91.3289 51.0359 91.339 51.04 91.3458C51.046 91.3551 51.0575 91.3587 51.0703 91.3624C51.0814 91.3656 51.0937 91.37 51.1045 91.378C51.1279 91.3958 51.1443 91.4357 51.1445 91.4776C51.1445 91.5311 51.1323 91.5806 51.1201 91.627C51.1112 91.6611 51.1017 91.6944 51.0986 91.7286C51.0944 91.7765 51.1019 91.8296 51.1171 91.8848C51.2534 92.1086 51.3864 92.3279 51.5234 92.5528C51.5857 92.63 51.6473 92.7024 51.7011 92.7657C51.7879 92.8679 51.8552 92.9478 51.8779 92.9893C51.9018 93.0337 51.9225 93.0784 51.9414 93.1202C51.9628 93.1678 51.9834 93.2144 52.0068 93.253C52.0535 93.3303 52.117 93.3866 52.1787 93.4415C52.2448 93.5004 52.3097 93.5576 52.3496 93.6368C52.4176 93.772 52.5084 93.9328 52.5976 94.089C52.7336 94.3271 52.8619 94.5528 52.8896 94.6583C52.9156 94.7561 52.9786 94.8906 53.0429 95.0284C53.0561 95.0566 53.069 95.0852 53.082 95.1134C53.2663 95.4158 53.4519 95.7194 53.6367 96.0225C53.6396 96.0244 53.6426 96.0265 53.6455 96.0284H53.6464C53.6888 96.0558 53.7315 96.0842 53.7656 96.127C53.8565 96.2415 53.9577 96.4265 54.0586 96.6143C54.1266 96.7409 54.1956 96.8695 54.2617 96.9776C54.3586 97.1363 54.4587 97.2653 54.5556 97.3888C54.68 97.5473 54.7984 97.6984 54.8896 97.8966C54.9471 98.0219 54.9745 98.1356 54.997 98.2276C55.0015 98.2459 55.0065 98.2638 55.0107 98.2804C55.0631 98.3666 55.117 98.4536 55.1689 98.5391L55.3466 98.7032C55.3856 98.7421 55.4248 98.786 55.4629 98.837C55.5551 98.9608 55.6407 99.109 55.7197 99.2472C55.7796 99.3519 55.8381 99.453 55.8945 99.5382C56.0183 99.725 56.1372 99.989 56.2314 100.245C56.3168 100.477 56.4146 100.612 56.5429 100.792C56.6328 100.918 56.7379 101.068 56.8642 101.294C56.9737 101.49 57.0638 101.631 57.1357 101.743C57.2398 101.906 57.3105 102.018 57.3486 102.17C57.3806 102.298 57.4926 102.495 57.6162 102.718C57.7458 102.952 57.8953 103.231 57.9795 103.479C58.0099 103.568 58.0841 103.7 58.1767 103.857C58.8154 103.469 59.4583 103.094 60.1015 102.723C60.3572 102.562 60.6004 102.409 60.8144 102.274C61.1599 102.055 61.4257 101.884 61.5517 101.814C61.6862 101.738 61.8165 101.669 61.9384 101.604C62.0772 101.529 62.2055 101.46 62.3242 101.391C62.5605 101.252 62.7641 101.107 62.9599 100.967C62.9678 100.961 62.9754 100.955 62.9834 100.949C63.0016 100.792 63.0218 100.641 63.0429 100.5C63.0832 100.232 63.1141 99.924 63.1425 99.6036C63.1804 99.1785 63.2128 98.7315 63.2627 98.3253C63.3039 97.99 63.3668 97.7137 63.4209 97.4688C63.4377 97.3926 63.4537 97.3192 63.4677 97.2481C63.4784 96.9792 63.4865 96.709 63.4912 96.4395C63.4845 96.3958 63.4766 96.3497 63.4687 96.3018C63.4327 96.0829 63.3881 95.8192 63.3593 95.5001C63.3564 95.4672 63.353 95.4335 63.3505 95.3995C63.3073 94.8064 63.331 94.3108 63.3525 93.7618C63.3691 93.336 63.3852 92.9122 63.3642 92.4024C63.3499 92.0578 63.3187 91.6761 63.2851 91.2891C63.2353 90.7128 63.1806 90.1618 63.1767 89.7638C63.1754 89.6164 63.1982 89.4885 63.2207 89.3624V89.3604C63.2222 89.352 63.2241 89.3435 63.2255 89.335C63.1453 88.3855 63.0436 87.4324 62.9189 86.4942C62.9026 86.4127 62.8865 86.3304 62.8701 86.2491C62.79 85.8505 62.7078 85.4715 62.625 85.2237C62.5354 84.9547 62.4135 84.2761 62.2627 83.5616C62.1651 83.0972 62.055 82.6149 61.9492 82.2286C61.8875 82.003 61.8739 81.7782 61.8584 81.5479C61.8438 81.3331 61.8275 81.1118 61.7675 80.88C61.7374 80.7637 61.6954 80.6393 61.6504 80.5079C61.6107 80.3923 61.5679 80.2704 61.5283 80.1417C61.4914 80.0218 61.4415 79.7471 61.3711 79.3966C61.3275 79.18 61.2759 78.9339 61.2158 78.6768C61.0075 78.0132 60.7832 77.3539 60.5429 76.6993C60.4703 76.5698 60.3957 76.4634 60.3203 76.3849C60.2662 76.3285 60.2095 76.2836 60.1513 76.2384C60.0722 76.1768 59.99 76.1136 59.9072 76.0157C59.8424 75.939 59.7907 75.8389 59.7783 75.7638C59.7726 75.729 59.776 75.6996 59.7783 75.6729C59.7809 75.6423 59.7824 75.6144 59.7714 75.586C59.7635 75.5657 59.7468 75.5483 59.7265 75.5265C59.6941 75.4914 59.6521 75.445 59.6201 75.3634C59.5014 75.0606 59.3704 74.7072 59.2392 74.3683C59.0941 73.9924 58.9433 73.6199 58.8095 73.3331C58.6619 73.0158 58.4812 72.533 58.2959 72.0626C58.1669 71.7344 58.0308 71.4014 57.9023 71.1222C57.7788 70.8534 57.6207 70.585 57.4638 70.3243C57.2732 70.0069 57.0945 69.7183 56.9785 69.4415C56.9552 69.3858 56.9524 69.3024 56.9482 69.1974C56.9453 69.1228 56.9407 69.0365 56.9287 68.9425C56.7437 68.6085 56.5625 68.2848 56.373 67.9513C56.3619 67.9422 56.3494 67.9323 56.3379 67.9229C56.0738 67.7055 55.7261 67.434 55.497 66.8673C55.4388 66.7233 55.4276 66.616 55.417 66.5196C55.4063 66.4248 55.3992 66.3433 55.3476 66.2452C55.2893 66.1343 55.19 66.021 55.081 65.8976C54.9279 65.724 54.7551 65.5297 54.6484 65.2892C54.6411 65.2728 54.6327 65.255 54.625 65.2374C54.5502 65.0684 54.4382 64.8173 54.3584 64.5421C53.9261 63.8379 53.5025 63.1607 53.0576 62.4649C52.3305 61.3262 51.5634 60.1662 50.8046 59.0519C50.7492 58.9706 50.6957 58.8891 50.6445 58.8077C50.6054 58.7968 50.5795 58.79 50.5488 58.7784C50.4546 58.7401 50.4146 58.718 50.3457 58.6808C48.4266 57.4776 46.1713 58.0238 44.0752 59.0411C43.2799 59.3848 42.4505 59.7381 41.5429 59.9132C40.7109 60.0781 39.8149 60.055 38.9873 59.8116C38.6788 59.7302 38.389 59.6276 38.1103 59.5079C37.9793 59.4525 37.8512 59.4065 37.7275 59.3683C37.2333 59.2147 36.7765 59.1794 36.4013 59.1847C35.492 59.1836 34.4638 59.5325 33.749 59.9142C33.6322 59.9749 33.5236 60.0354 33.4228 60.0938C32.875 60.4362 32.3597 60.8412 31.8779 61.2843C31.8419 61.3097 31.8052 61.3363 31.7685 61.3624C31.3117 61.6921 30.8085 62.1803 30.1259 63.0362C29.8299 63.4107 29.5019 63.8563 29.1494 64.4024C28.9247 64.7526 28.7943 64.9299 28.6894 65.0714C28.6583 65.114 28.6293 65.1546 28.6015 65.1954C28.5073 65.3341 28.4397 65.5031 28.3681 65.6983C28.2749 65.9545 28.1692 66.2611 27.997 66.6456C27.9173 66.8241 27.8503 67.0005 27.8017 67.1515L27.7041 67.546L27.3115 67.3937C26.3308 66.9178 25.9137 66.5612 25.5654 66.3126C25.4466 66.2211 25.345 66.1382 25.2451 66.0431C24.9193 65.739 24.5511 65.2154 24.3388 64.7921C24.1623 64.4627 23.8077 63.8048 23.6006 63.2735C23.5198 63.0743 23.4333 62.7965 23.3554 62.462C23.2752 62.1184 23.2043 61.7143 23.1513 61.2774C23.0284 60.179 23.1014 59.5812 23.1464 59.1134C23.162 58.9767 23.1775 58.8547 23.1963 58.7306C23.2551 58.3366 23.3613 57.8513 23.5029 57.38C23.6733 56.8062 23.8953 56.2511 24.0839 55.8272C24.6148 54.7654 25.2918 53.7945 26.0527 52.9093C26.4493 52.4472 26.8822 52.0711 27.2431 51.8438C27.6037 51.6173 27.8663 51.5466 27.955 51.6407C27.9656 51.6519 27.9737 51.6653 27.9795 51.6808C27.9819 51.6784 27.9848 51.6762 27.9873 51.6739C27.9896 51.6717 27.9918 51.6693 27.9941 51.6671C27.979 51.6605 27.9657 51.6518 27.955 51.6407C27.8691 51.5472 27.9467 51.3007 28.1894 50.9552C28.4309 50.6112 28.8211 50.2007 29.2851 49.837C30.0415 49.2443 30.8612 48.7098 31.7685 48.3028C31.8154 48.2801 31.8632 48.2579 31.9101 48.2364C32.2625 48.0751 32.5957 47.9265 32.9414 47.798C33.02 47.7687 33.1021 47.7399 33.1826 47.713C33.7958 47.4834 35.0754 47.4167 35.7539 47.5167C35.7662 47.518 35.7796 47.5192 35.792 47.5206C35.9534 47.5393 36.1063 47.5585 36.2832 47.586C36.3364 47.5944 36.3925 47.604 36.4511 47.6144L36.7578 47.6593L36.957 47.9396C37.0421 48.0665 37.1409 48.2128 37.2646 48.3917C37.4416 48.6465 37.6691 48.9742 37.999 49.4044C38.1968 49.6409 38.4006 49.8717 38.6093 50.0968C39.518 51.0761 40.5406 51.9426 41.6806 52.5743C43.3597 53.5188 45.3338 53.8718 47.2148 53.4366C47.2244 53.4342 47.2344 53.4313 47.2441 53.4288L47.5673 53.3409L47.8271 53.5929C47.8505 53.6161 47.8752 53.6401 47.8994 53.6642C48.5271 54.2893 49.2702 55.0857 49.708 55.6183C49.9408 55.9011 50.1379 56.1503 50.3105 56.3741C50.5039 56.3718 50.7572 56.4628 51.0468 56.6427C51.0613 56.6517 51.0753 56.6616 51.0898 56.671C50.9482 55.7084 50.8591 55.2543 50.7578 54.8907C50.726 54.7682 50.698 54.6565 50.6748 54.5421C50.5992 54.1702 50.547 53.637 50.5156 53.2335C50.5027 53.0667 50.462 52.8152 50.4043 52.5509L50.3466 52.2804L50.5966 52.1222C50.8032 51.9887 51.0157 51.8352 51.1933 51.6954C51.3344 51.5846 51.5316 51.4453 51.7558 51.2716C51.9875 51.0922 52.2489 50.8749 52.5019 50.6183C53.1366 49.966 53.3969 49.5639 53.6064 49.2462C53.639 49.1954 53.6706 49.1454 53.7002 49.0968C53.7237 49.0581 53.7473 49.0188 53.7695 48.9806C53.9298 48.706 54.1107 48.3553 54.2568 47.9874C54.4339 47.5477 54.5571 47.0819 54.6162 46.7218C54.8228 45.8231 54.8481 44.8749 54.7314 43.9317C54.7285 43.9082 54.7257 43.884 54.7226 43.8605C54.6586 43.3638 54.603 42.879 54.5996 42.503C54.5961 42.1278 54.65 41.8915 54.7744 41.8517C54.7888 41.8471 54.8043 41.8449 54.8203 41.8458C54.8195 41.8433 54.8191 41.8405 54.8183 41.838C54.8203 41.8362 54.8222 41.834 54.8242 41.8321C54.8098 41.8248 54.7974 41.8152 54.7871 41.8038C54.7022 41.7101 54.7706 41.4733 55.0127 41.1593C55.2541 40.846 55.6603 40.4897 56.1464 40.2159C56.9367 39.7677 57.8086 39.4548 58.7021 39.2862C58.7483 39.2759 58.796 39.2664 58.8427 39.2569C59.1908 39.1869 59.5139 39.1209 59.8418 39.0704C59.876 39.0652 59.9107 39.0597 59.9453 39.0548H59.9707C60.0099 39.0504 60.0496 39.0463 60.0888 39.0421ZM38.4101 23.3683C39.0473 22.9219 40.3373 22.7114 41.9843 23.7462C42.4681 24.0393 42.8991 24.3734 43.3173 24.7423C46.0674 27.2766 47.8581 30.5108 49.5136 33.7501C50.4758 35.651 51.5738 37.5342 52.3945 39.5567C52.4228 39.6248 52.4511 39.6946 52.4795 39.7647C53.0463 41.1169 53.516 42.9166 53.5254 44.0948C53.5677 45.5861 53.2267 46.5953 52.8613 47.339C52.2446 48.6119 51.2009 49.6026 50.0341 50.3429L49.7656 50.5187L49.6689 50.211C49.2842 48.9327 49.0002 47.6204 48.8867 46.2823C48.7881 44.9527 48.8095 43.544 49.4394 42.2823L49.5488 42.0675L49.75 42.2042C49.7728 42.22 49.8012 42.2394 49.831 42.2618C49.8951 42.31 49.9539 42.359 50.0097 42.4034C50.0735 42.4544 50.1374 42.5007 50.1933 42.5323C50.2231 42.5491 50.2501 42.5618 50.2773 42.5714C50.3363 42.5921 50.4006 42.5998 50.4619 42.5938C50.5822 42.582 50.6976 42.5165 50.7646 42.4151C50.7964 42.3678 50.8177 42.3135 50.8281 42.256C50.8327 42.2304 50.8349 42.2042 50.8349 42.1778C50.8349 42.1179 50.8224 42.0519 50.7988 41.9864C50.7837 41.9442 50.7638 41.8971 50.7412 41.8487C50.5961 41.5385 50.4132 41.2507 50.1611 41.0851C49.9861 40.9694 49.7891 40.9198 49.5537 40.9151C49.5277 40.9141 49.502 40.9121 49.4746 40.9103C49.4607 40.9093 49.4462 40.908 49.4296 40.9063C49.4027 40.8978 49.4317 40.9267 49.3095 40.8702C49.1008 40.7122 49.0761 40.6081 48.9931 40.4786C48.8931 40.289 48.6283 40.2149 48.4433 40.3243C48.3628 40.3694 48.2996 40.4417 48.2656 40.5274C48.2206 40.6395 48.2276 40.7694 48.2871 40.8741C48.4195 41.1102 48.5772 41.327 48.7724 41.4796L48.9121 41.586L48.8242 41.7423C48.4178 42.4546 48.2062 43.2751 48.1142 44.1036C48.0375 44.8527 48.0587 45.5758 48.1181 46.2413C48.1213 46.2764 48.1255 46.312 48.1289 46.3468C48.2166 47.2395 48.371 48.0291 48.5175 48.6798C48.6649 49.332 48.8491 50.0149 49.0605 50.6769L49.1269 50.881L48.9336 50.9806C48.7549 51.0701 48.5756 51.1543 48.3974 51.2345L48.1611 51.3438L48.0605 51.1017C47.7464 50.3248 47.4013 49.5966 47.0742 48.9933C46.9649 48.7913 46.858 48.602 46.7558 48.4298C46.6996 48.3369 46.6412 48.2449 46.583 48.1534C46.0435 47.307 45.4216 46.508 44.6738 45.8624C44.6206 45.8129 44.5658 45.763 44.5097 45.714C44.2088 45.452 43.8516 45.1914 43.3935 44.9708C43.313 44.9354 43.224 44.8964 43.1328 44.8565C43.1019 44.8464 43.0705 44.8365 43.039 44.8263C42.9622 44.8077 42.8802 44.8034 42.7968 44.8165L42.4814 44.8692L42.5615 44.5567C42.6942 44.0446 42.8314 43.4531 42.7558 42.7882C42.7538 42.7709 42.7524 42.7528 42.75 42.7355C42.7288 42.5375 42.522 42.3587 42.2968 42.3937C42.0977 42.4153 41.9206 42.6226 41.955 42.8458C41.9989 43.1601 41.9697 43.4865 41.9091 43.8048C41.8123 44.2898 41.7088 44.5942 41.6377 44.8351C41.6008 44.955 41.5695 45.0575 41.541 45.1524C41.5159 45.2358 41.4929 45.3143 41.4716 45.3937C41.3995 45.666 41.3504 45.9594 41.3379 46.3019C41.3292 46.5686 41.3431 46.8666 41.416 47.1993C41.4335 47.2801 41.4578 47.3536 41.4941 47.4161C41.5332 47.4832 41.5886 47.5433 41.6582 47.5851C41.6886 47.6033 41.7222 47.6183 41.7578 47.629C41.8441 47.6551 41.9375 47.6521 42.0195 47.6251C42.0936 47.6008 42.1602 47.5567 42.2138 47.4991C42.2416 47.4693 42.2673 47.4347 42.288 47.4005C42.3166 47.3531 42.3418 47.2992 42.3642 47.2433C42.4636 46.9823 42.5361 46.7115 42.6132 46.4718C42.6887 46.2369 42.7624 46.025 42.8574 45.8272L42.9326 45.672L43.0898 45.7472C43.7534 46.0749 44.1317 46.41 44.4482 46.6905C44.6222 46.8496 44.773 47.0024 44.9189 47.1642C45.2521 47.5312 45.6306 48.05 45.9404 48.5597C46.0738 48.7778 46.1968 48.9936 46.3037 49.1925C46.5604 49.6605 47.0198 50.5592 47.3525 51.3448L47.4531 51.5851L47.1963 51.6437C47.0941 51.668 46.9939 51.6893 46.8974 51.7071C46.5548 51.7708 46.0752 51.8173 45.5146 51.7716C44.9371 51.7266 44.2739 51.5756 43.6152 51.3058C41.9607 50.5833 41.2792 49.8618 40.7158 49.3673C40.5566 49.2176 40.4159 49.0789 40.2744 48.9337C39.8302 48.4795 39.3158 47.877 38.8437 47.2384C38.275 46.4738 37.7619 45.6532 37.3964 45.0167C36.4743 43.3543 35.732 41.5924 35.2041 39.7647C34.9332 38.826 34.77 37.8972 34.7314 37.2013C34.6911 36.5024 34.7634 36.1125 34.8261 36.1163C34.8338 36.1159 34.8411 36.1205 34.8486 36.13C34.8485 36.1252 34.8487 36.1201 34.8486 36.1153C34.8485 36.1102 34.8477 36.1049 34.8476 36.0997C34.8403 36.1102 34.8337 36.1164 34.8261 36.1163C34.7621 36.1187 34.6964 35.7441 34.6289 35.0772C34.5621 34.4116 34.4971 33.5088 34.4609 32.5616C34.4053 31.0169 34.3582 29.4668 34.4707 27.9024C34.4761 27.8193 34.4816 27.736 34.4882 27.6544C34.5389 27.0435 34.6035 26.473 34.7373 25.8985C34.7677 25.7692 34.8042 25.6349 34.8457 25.5021C34.9947 25.0733 35.2343 24.3199 36.0459 23.9356C36.6914 23.6683 37.3042 23.8421 37.7714 24.0587C37.7736 24.0548 37.7761 24.0508 37.7783 24.047C37.9311 23.7792 38.1316 23.5558 38.4101 23.3683ZM46.8711 51.4815C46.8784 51.4992 46.8863 51.5166 46.8935 51.5343L46.9257 51.4718C46.9075 51.4751 46.8893 51.4785 46.8711 51.4815ZM47.0371 51.169C47.0439 51.185 47.0508 51.201 47.0576 51.2169L47.0888 51.1583C47.0716 51.1621 47.0543 51.1655 47.0371 51.169ZM48.4668 50.922L48.4824 50.9288C48.4808 50.925 48.4791 50.9209 48.4775 50.9171C48.474 50.9187 48.4703 50.9203 48.4668 50.922ZM48.208 50.8194L48.2129 50.8214C48.2124 50.8202 48.2124 50.8187 48.2119 50.8175C48.2106 50.8181 48.2093 50.8188 48.208 50.8194ZM50.0254 50.0558L50.0918 50.0802C50.0858 50.0612 50.08 50.0416 50.0742 50.0226C50.0579 50.0335 50.0418 50.0449 50.0254 50.0558ZM49.7949 49.9718L49.8593 49.9952C49.8537 49.9765 49.8484 49.9575 49.8427 49.9386C49.8267 49.9492 49.811 49.9613 49.7949 49.9718ZM29.0107 39.8438C29.0241 39.8481 29.0348 39.8549 29.0439 39.8614C29.054 39.8687 29.063 39.8753 29.0742 39.8761C29.0825 39.8764 29.0924 39.8724 29.1035 39.8673C29.1214 39.859 29.1454 39.8484 29.1797 39.8507C29.3077 39.8595 29.4535 39.8807 29.5927 39.9073C29.7482 39.9369 29.8971 39.9724 30.0166 39.9981C30.1516 40.0269 30.3325 40.0982 30.5088 40.1788C30.6307 40.2344 30.7533 40.2942 30.8554 40.3429C30.9558 40.3906 31.067 40.4306 31.1718 40.4708C31.2973 40.5188 31.4197 40.5714 31.5068 40.6388C31.5243 40.6526 31.5385 40.6835 31.5556 40.7218C31.5678 40.749 31.582 40.7807 31.5996 40.8126C31.7186 40.8836 31.8326 40.9567 31.9453 41.0353C31.9506 41.0357 31.9563 41.0357 31.9619 41.0362L32.0664 41.0499C32.1773 41.0688 32.3041 41.1129 32.4101 41.2452C32.4273 41.2669 32.4387 41.2878 32.4472 41.3077L32.4834 41.4161C32.4903 41.4321 32.4998 41.4478 32.5136 41.462C32.5453 41.4943 32.5955 41.5197 32.6484 41.547C32.7222 41.5848 32.8054 41.6287 32.8584 41.7062C32.862 41.7114 32.866 41.7178 32.8701 41.7237C32.9089 41.7802 32.9631 41.8632 33 41.962C33.1949 42.1732 33.3743 42.3933 33.541 42.6202C33.8199 42.9999 34.0647 43.401 34.2783 43.8136C34.3807 44.0119 34.4326 44.234 34.4189 44.4151C34.4074 44.5755 34.3481 44.6946 34.2568 44.7599C34.2578 44.7618 34.2588 44.7638 34.2597 44.7657C34.258 44.7665 34.2557 44.7669 34.2539 44.7677C34.2858 44.8782 34.2576 45.011 34.167 45.1456C34.0639 45.298 33.8928 45.4386 33.6923 45.5362C33.2894 45.7323 32.8811 45.9209 32.4687 46.0968C31.9665 46.311 31.4559 46.507 30.9375 46.6788C30.5737 46.7993 30.2105 46.9105 29.8408 47.0138C29.8031 47.0243 29.7651 47.0347 29.7275 47.045C29.4266 47.1661 29.124 47.2786 28.9072 47.3458C28.7269 47.4017 28.5925 47.4176 28.4736 47.4317C28.3929 47.4412 28.3219 47.4491 28.2529 47.4669C28.2164 47.4763 28.1642 47.4913 28.1025 47.5079C27.8529 47.5758 27.4183 47.6869 27.0127 47.7276C26.8341 47.7458 26.6202 47.7529 26.4189 47.756C26.1291 47.7611 25.8635 47.7558 25.7246 47.7794C25.4924 47.8207 25.2078 47.8233 24.9619 47.8116C24.7263 47.8013 24.515 47.7773 24.3877 47.7862C24.2408 47.7971 24.108 47.7713 23.914 47.7062C23.855 47.6859 23.7839 47.6589 23.7119 47.6261C23.6178 47.5824 23.5181 47.5356 23.3877 47.4493C23.2577 47.3621 23.1259 47.2345 23.0547 47.0655C22.9816 46.8963 22.9925 46.7211 23.0254 46.6046C23.1313 46.2847 23.2644 46.1844 23.3964 45.9776C23.5478 45.7591 23.7209 45.5723 23.8681 45.4474C23.9355 45.3907 24.0071 45.321 24.0781 45.2501C24.172 45.1564 24.2646 45.0595 24.3486 44.9796C24.4184 44.9131 24.4823 44.8712 24.5351 44.8302C24.5511 44.8179 24.5655 44.8053 24.5791 44.7931C24.5972 44.7606 24.6121 44.7282 24.622 44.7003C24.6299 44.6782 24.6357 44.6596 24.6396 44.6397C24.6372 44.6314 24.6334 44.6224 24.6298 44.6144C24.6117 44.5714 24.5845 44.5405 24.5537 44.4855C24.505 44.3961 24.4339 44.259 24.3554 44.0704C24.2963 43.9235 24.2281 43.7346 24.2119 43.4952C24.2 43.3332 24.2229 43.1477 24.2724 42.9874C24.3452 42.7489 24.4598 42.5589 24.5566 42.4454C24.5915 42.4052 24.6344 42.3771 24.6767 42.3507C24.6795 42.349 24.6828 42.3475 24.6855 42.3458C24.8678 42.1118 25.0669 41.9065 25.2724 41.711L25.2548 41.7276C25.2862 41.6944 25.3179 41.6613 25.3496 41.629C25.3678 41.6063 25.3867 41.5829 25.4052 41.5606C25.4947 41.4528 25.5896 41.3489 25.6435 41.2716C25.7006 41.1881 25.8885 41.0194 26.1015 40.8624C26.2429 40.7576 26.3923 40.6583 26.5185 40.5753C26.5919 40.5269 26.6734 40.5068 26.7588 40.4864C26.8376 40.4678 26.918 40.4502 26.998 40.4142C27.0377 40.3963 27.0813 40.3729 27.1269 40.3487C27.1674 40.3273 27.2115 40.3049 27.2578 40.2853C27.3009 40.2672 27.4029 40.243 27.5341 40.2198C27.6155 40.2054 27.7081 40.1912 27.8056 40.1778C28.0566 40.116 28.3147 40.0749 28.5742 40.0558C28.6277 40.0394 28.6745 40.0194 28.7119 39.9952C28.7385 39.9779 28.7613 39.9573 28.7851 39.9366C28.8178 39.9083 28.8526 39.8787 28.9004 39.8565C28.9376 39.8392 28.9819 39.8348 29.0107 39.8438ZM42.8867 46.1671C42.8909 46.1692 42.8951 46.1718 42.8994 46.1739C42.9011 46.1694 42.9026 46.1647 42.9043 46.1603L42.8867 46.1671ZM43.2636 46.0382C43.2659 46.0395 43.2682 46.0408 43.2705 46.0421C43.2719 46.0394 43.274 46.037 43.2754 46.0343L43.2636 46.0382ZM42.9873 44.669C42.9926 44.6484 42.9968 44.6272 43.0019 44.6065C42.9756 44.6032 42.9496 44.6005 42.9238 44.5997L42.9873 44.669ZM42.7265 44.3819L42.7988 44.461C42.8059 44.4323 42.8124 44.4032 42.8193 44.3741C42.7882 44.3764 42.757 44.3769 42.7265 44.3819ZM49.5185 42.5392C49.5273 42.5453 49.5361 42.5512 49.5439 42.5567C49.548 42.5476 49.5524 42.5385 49.5566 42.5294L49.5185 42.5392ZM49.7607 42.4786C49.7691 42.4852 49.7777 42.4915 49.7861 42.4981C49.791 42.4885 49.7957 42.4784 49.8007 42.4688L49.7607 42.4786ZM49.3095 40.8702C49.3114 40.8716 49.3135 40.8727 49.3154 40.8741L49.3027 40.8673C49.3048 40.8683 49.3075 40.8693 49.3095 40.8702ZM57.0263 29.005C57.1227 29.0164 57.2676 29.0173 57.4111 29.0255C57.4407 29.0271 57.4713 29.0282 57.5009 29.0304C57.6676 29.0269 57.8228 29.0313 57.9882 29.0421L57.9619 29.0431C58.1381 29.0436 58.3069 29.049 58.4824 29.0646C58.4852 29.0637 58.4883 29.0634 58.4912 29.0626L58.4921 29.0616C58.538 29.0484 58.5839 29.0362 58.6357 29.0372C58.7821 29.0408 58.9854 29.0806 59.1972 29.1564C59.3377 29.2064 59.4848 29.2763 59.6074 29.3497C59.7899 29.4575 59.9465 29.5839 60.0673 29.7237C60.223 29.9034 60.3194 30.0985 60.3681 30.2911C60.3987 30.4133 60.4018 30.5054 60.4072 30.5763C60.4082 30.5899 60.4089 30.6032 60.4101 30.6153C60.4397 30.6818 60.4723 30.7382 60.5068 30.7843C60.5206 30.793 60.5346 30.8021 60.5498 30.8087C60.5994 30.8304 60.6515 30.8402 60.7099 30.8614C60.7134 30.8627 60.717 30.865 60.7207 30.8663C60.7876 30.8906 60.8827 30.9205 60.9882 30.9405C61.071 30.9565 61.161 30.9671 61.2402 30.9679C61.4154 30.9704 61.6531 30.9916 61.8945 31.0265C62.1121 31.0588 62.2603 31.0439 62.4795 31.046C62.6366 31.0583 62.829 31.0306 63.1611 31.2306C63.4617 31.4271 63.5531 31.7523 63.5713 31.923C63.5913 32.1213 63.5789 32.2516 63.5429 32.3683L63.4941 32.4952C63.4358 32.6326 63.3522 32.8552 63.2304 33.0733C63.0998 33.311 62.9325 33.5465 62.7539 33.7198C62.65 33.8219 62.4908 34.0438 62.3007 34.2755C62.1716 34.4345 62.0294 34.5981 61.8974 34.7296C61.603 35.0246 61.2358 35.2877 61.0185 35.4366C60.9654 35.4732 60.9201 35.5037 60.8877 35.5265C60.8281 35.5683 60.7754 35.6173 60.7148 35.673C60.6257 35.7545 60.5237 35.8477 60.3613 35.9483C60.1663 36.0692 59.8789 36.2242 59.5869 36.3702C59.5539 36.3917 59.5205 36.4132 59.4873 36.4347C59.1623 36.644 58.8317 36.8437 58.4961 37.0333C58.0157 37.3046 57.5204 37.5497 57.0166 37.7735C56.6029 37.9573 56.1825 38.1271 55.7588 38.2853C55.5482 38.3638 55.3268 38.3914 55.1445 38.3605C54.9835 38.3328 54.867 38.261 54.8095 38.1612C54.8082 38.1617 54.8069 38.1627 54.8056 38.1632C54.805 38.1616 54.8043 38.1599 54.8037 38.1583C54.6939 38.1839 54.5644 38.148 54.4355 38.0509C54.2898 37.9418 54.1575 37.76 54.0722 37.5538C53.8961 37.127 53.742 36.6943 53.6152 36.2433C53.5395 35.974 53.4744 35.7007 53.4218 35.423C53.3647 35.3363 53.3301 35.2432 53.3076 35.1798C53.3053 35.1733 53.3028 35.167 53.3007 35.1612C53.2694 35.0741 53.2824 34.9822 53.2949 34.9015C53.3038 34.8439 53.3116 34.789 53.3037 34.7452C53.2966 34.7065 53.2762 34.6809 53.2529 34.6524C53.2293 34.6235 53.2034 34.591 53.1875 34.5382C53.1246 34.3272 53.2089 34.1679 53.2714 34.0597C53.2741 34.055 53.2767 34.0497 53.2793 34.045C53.2777 33.9086 53.2806 33.7728 53.2871 33.6388C53.2702 33.6066 53.2513 33.5778 53.2353 33.5528C53.2127 33.5175 53.1941 33.4889 53.1923 33.4669C53.184 33.3577 53.2068 33.2328 53.2343 33.1007C53.2572 32.991 53.2833 32.8824 53.2968 32.7706C53.3105 32.6571 53.3214 32.5288 53.3388 32.3937C53.3628 32.2034 53.3971 32.0118 53.4423 31.8829C53.4817 31.7699 53.5302 31.6207 53.5849 31.4737C53.6341 31.341 53.6912 31.2027 53.75 31.089C53.7658 31.0583 53.7882 31.0435 53.8046 31.0323C53.8147 31.0254 53.823 31.0192 53.8271 31.0118C53.8328 31.0014 53.8319 30.9896 53.831 30.9767C53.8302 30.9656 53.8297 30.9531 53.833 30.9396C53.8404 30.9099 53.8689 30.8738 53.9033 30.8507C53.9472 30.8212 53.9896 30.807 54.0312 30.7931C54.0617 30.783 54.092 30.774 54.1211 30.7599C54.1617 30.74 54.2034 30.7086 54.2461 30.671C54.4015 30.4567 54.5787 30.2552 54.7744 30.0743C54.8412 29.9984 54.9077 29.9273 54.9677 29.8663C55.0648 29.7676 55.147 29.6949 55.1884 29.669C55.2331 29.6412 55.278 29.6179 55.3203 29.5968C55.3683 29.5728 55.4139 29.5502 55.4541 29.5274C55.5344 29.4818 55.5989 29.4269 55.664 29.3741C55.7335 29.3178 55.8063 29.263 55.8916 29.2345C56.0391 29.1847 56.2203 29.1279 56.3964 29.086C56.6646 29.0208 56.9233 28.9918 57.0263 29.005ZM37.7441 24.1105C37.6963 24.2031 37.6548 24.3071 37.6201 24.419C37.647 24.4312 37.6737 24.4449 37.7011 24.4581L38.0859 24.294C38.0957 24.2745 38.1054 24.2547 38.1162 24.2355C38.0133 24.1787 37.8977 24.1172 37.7714 24.0587C37.7621 24.0755 37.753 24.0932 37.7441 24.1105Z" fill="#838D4C"/>
</svg>
