<svg width="100" height="150" viewBox="0 0 100 150" fill="none" xmlns="http://www.w3.org/2000/svg">
<path d="M33.7637 20.2941C34.2253 18.5029 36.0515 17.4246 37.8428 17.8859C39.6343 18.3475 40.7126 20.1745 40.251 21.966C39.8392 23.5637 38.3479 24.5836 36.7578 24.4631C36.9421 30.2004 39.1519 34.9312 41.7139 38.5343C42.3856 37.8914 43.7358 36.2978 44.6123 33.4572C43.1278 32.8062 42.2787 31.173 42.6953 29.5558C43.1569 27.7643 44.9839 26.686 46.7754 27.1476C48.5666 27.6094 49.6442 29.4364 49.1826 31.2277C48.7633 32.8543 47.2061 33.8887 45.5801 33.7072C44.6087 36.9158 43.0641 38.6658 42.3193 39.3517C44.5421 42.2655 46.9103 44.3391 48.3818 45.4953C48.4431 45.1483 48.5585 44.743 48.8057 44.2922C48.906 44.1094 48.9977 44.0053 49.0801 43.9123C49.1609 43.821 49.2336 43.7398 49.2979 43.6037C49.3708 43.449 49.425 43.2527 49.4854 43.0382C49.5699 42.7377 49.6659 42.4021 49.8389 42.0988C49.8507 42.0781 49.8638 42.0556 49.877 42.0324C50.002 41.8124 50.1886 41.4877 50.4141 41.1838C50.8797 40.184 51.3597 39.2035 51.8643 38.2218C52.7016 36.5937 53.5893 34.9969 54.5352 33.4211C54.9917 32.6609 55.5259 31.9762 56.0049 31.5334C56.4841 31.0903 56.8674 30.9191 57.0732 31.0461C57.2794 31.1741 57.295 31.5906 57.1338 32.2121C56.9723 32.8334 56.6466 33.6136 56.2471 34.381C55.8805 35.0836 55.5262 35.7899 55.1807 36.5002C57.5653 34.7967 60.6875 31.7487 63.2002 26.4845C61.9006 25.7573 61.1982 24.2336 61.585 22.7326C62.0467 20.9414 63.8737 19.8628 65.665 20.3244C67.4563 20.7861 68.5221 22.6616 68.0732 24.4045C67.6242 26.1474 65.8871 27.1976 64.1436 26.8312C63.1633 28.9124 62.0928 30.6608 61.0029 32.1252C63.2677 31.8722 68.6044 30.758 72.1074 25.9396C70.9075 25.1864 70.2605 23.729 70.6348 22.2765C71.0964 20.4851 72.9234 19.4068 74.7148 19.8683C76.5063 20.3299 77.5846 22.1569 77.123 23.9484C76.6615 25.7399 74.8345 26.8182 73.043 26.3566C68.6812 32.5439 61.5266 33.1374 60.168 33.2004C58.0317 35.7892 55.9135 37.3543 54.3447 38.2677C54.3254 38.3143 54.3065 38.3611 54.2871 38.4074C54.0733 38.9171 53.911 39.4093 53.7529 39.9035C53.7169 40.0164 53.6817 40.13 53.6455 40.2433C53.3676 41.1023 52.6171 42.6665 52.2236 43.5353C52.2164 43.5512 52.2093 43.5673 52.2021 43.5832C52.108 43.7894 52.0231 43.9864 51.9248 44.2179C51.6926 44.7691 51.3742 45.5114 50.6982 47.0627C50.525 47.5226 50.3528 47.9844 50.1826 48.4464C49.368 50.6608 48.6042 52.8959 47.8896 55.1486C49.7884 55.5389 54.1572 56.1406 57.6562 55.3341C57.8015 53.6883 58.5826 47.249 62.5273 43.4015C61.8155 42.5985 61.4988 41.464 61.7881 40.341C62.2497 38.5495 64.0767 37.4712 65.8682 37.9328C67.6593 38.3945 68.7376 40.2207 68.2764 42.0119C67.8148 43.8034 65.9878 44.8816 64.1963 44.4201C63.8768 44.3378 63.5912 44.2031 63.3232 44.0412C59.8385 47.3873 58.9167 53.0869 58.6963 55.0646C60.4679 54.5608 62.3414 53.7428 64.2324 52.4953C63.6124 51.6953 63.3364 50.6426 63.6084 49.5871C64.0701 47.7957 65.897 46.7173 67.6885 47.1789L67.6348 47.2267C69.4261 47.6883 70.5043 49.5154 70.043 51.3068C69.5814 53.0983 67.7544 54.1766 65.9629 53.715C65.5853 53.6177 65.2371 53.4458 64.9307 53.2326C58.405 57.6292 50.5732 56.7804 47.5732 56.1525C46.8019 58.6441 46.0933 61.1576 45.4541 63.6916C45.4397 63.7572 45.4249 63.8243 45.4102 63.8918C45.1248 65.1927 44.8007 66.822 44.5615 67.8361C44.2552 69.1288 44.0511 70.0019 43.8828 70.7267C43.079 74.8817 42.4832 79.0954 42.2129 83.3234C42.1951 83.6035 42.1788 83.8838 42.1641 84.1642C43.203 81.7423 44.8175 79.8277 46.6807 78.3771C49.4028 76.3145 52.8766 75.1381 56.9424 75.339C57.3749 75.3782 57.8594 75.4171 58.2852 75.5275C58.0688 75.908 57.8461 76.3062 57.6641 76.6769C55.9656 80.1031 54.0734 82.8158 51.54 84.7316C49.0277 86.6932 45.9444 87.6993 42.3457 88.6164C42.2549 88.6422 42.1628 88.6686 42.0703 88.6974C42.0797 89.4508 42.101 90.2046 42.1387 90.9572C42.1957 91.67 42.2664 92.3243 42.3447 92.9533C42.4522 93.8081 42.5748 94.5997 42.667 95.216C42.8147 96.2186 42.9868 97.304 43.1816 98.2521C43.2881 98.7717 43.3965 99.2668 43.499 99.7062C43.5473 99.913 43.5949 100.109 43.6396 100.289C43.9276 101.284 44.2483 102.269 44.5986 103.244C44.6118 103.313 44.6245 103.382 44.6377 103.452C44.8058 104.328 45.1755 105.36 45.8408 106.942C46.132 107.631 46.4825 108.425 46.9102 109.353C47.187 109.951 47.2912 110.275 47.377 110.542C47.4022 110.62 47.4258 110.694 47.4521 110.768C47.5429 111.019 47.7003 111.253 47.8877 111.527C48.1313 111.883 48.4258 112.308 48.7012 112.93C49.5874 114.911 50.209 115.661 50.6621 116.226C50.7963 116.391 50.9193 116.541 51.0352 116.699C51.3545 117.138 51.73 117.772 52.0391 118.322C52.0225 118.253 52.0037 118.183 51.9883 118.113C51.6188 116.438 51.3184 114.739 51.127 113.025C51.0118 111.992 50.937 110.958 50.9102 109.917C50.8503 109.563 50.8242 109.22 50.8096 108.976C50.808 108.95 50.8061 108.925 50.8047 108.902C50.7845 108.569 50.8242 108.243 50.8633 107.953C50.8913 107.742 50.9189 107.55 50.9238 107.388C50.9281 107.245 50.9112 107.146 50.8926 107.035C50.8737 106.924 50.853 106.796 50.8545 106.596C50.861 105.815 51.0471 105.274 51.1846 104.891V104.889C51.1906 104.872 51.1972 104.854 51.2031 104.838C51.2757 104.348 51.3596 103.872 51.459 103.386C51.4588 103.271 51.4537 103.168 51.4502 103.079C51.4452 102.954 51.442 102.854 51.4551 102.777C51.5211 102.393 51.6444 101.955 51.7842 101.501C51.9006 101.123 52.0276 100.738 52.1396 100.362C52.2532 99.9809 52.3857 99.5356 52.5283 99.0949C52.7322 98.4625 52.9581 97.8379 53.1426 97.4122C53.3071 97.0311 53.5092 96.5539 53.7266 96.0695C53.9207 95.6359 54.1281 95.1935 54.3184 94.8136C54.3695 94.7115 54.4175 94.651 54.4541 94.6046C54.4769 94.5757 54.4959 94.5517 54.5088 94.5265C54.5264 94.4916 54.5336 94.459 54.542 94.423C54.5494 94.3914 54.558 94.3565 54.5742 94.3146C54.6091 94.2244 54.6825 94.1008 54.7588 94.0031C54.8564 93.878 54.9419 93.7945 55.0244 93.714C55.085 93.655 55.1455 93.596 55.207 93.5255C55.2927 93.4272 55.3881 93.2957 55.4912 93.1408C55.9208 92.3595 56.3604 91.5933 56.8076 90.8263C56.9637 90.5328 57.1123 90.2496 57.2441 90.0001C57.4541 89.6024 57.6214 89.288 57.7051 89.1515C57.7949 89.0051 57.8822 88.8701 57.9658 88.7404C58.0604 88.5938 58.1495 88.4553 58.2275 88.3244C58.3843 88.0609 58.5017 87.815 58.6191 87.5695C58.6816 87.4389 58.7436 87.3093 58.8096 87.1808C58.8759 87.0516 58.945 86.9248 59.0215 86.8009C59.2863 86.3717 59.5918 85.846 59.8779 85.3263C60.3156 84.537 60.6891 83.7729 60.8564 83.4777C61.0128 83.2052 61.22 82.7723 61.416 82.3195C61.4561 82.227 61.4961 82.133 61.5352 82.0402C61.9481 80.9525 62.2736 79.8312 62.542 78.6847C62.5429 78.6745 62.544 78.6637 62.5449 78.6535V78.6515C62.558 78.4992 62.5708 78.3424 62.6035 78.1623C62.6894 77.6904 62.8387 77.0107 62.9756 76.3166C63.0684 75.848 63.156 75.3694 63.2227 74.9591C63.3226 74.342 63.3848 73.8119 63.4434 73.2892C63.5166 72.6305 63.5846 71.9899 63.707 71.2814C63.7785 70.8661 63.8545 70.5369 63.9189 70.256C63.9086 70.2238 63.8991 70.1906 63.8887 70.1584L63.9414 70.1544C63.9534 70.1022 63.9637 70.0506 63.9746 70.0021C63.977 69.9843 63.981 69.9663 63.9834 69.9484L64.7695 69.8771C64.7902 69.9422 64.8088 70.0082 64.8291 70.0734L64.9004 70.0675C64.8933 70.1237 64.885 70.1796 64.8779 70.2355C64.9362 70.4246 64.997 70.6132 65.0527 70.8029C65.0855 70.8877 65.1198 70.9761 65.1553 71.0675C65.2689 71.3603 65.3945 71.6928 65.5146 72.1037C65.6609 72.6034 65.7927 73.1572 65.9082 73.6867C65.9955 74.0862 66.0733 74.4715 66.1455 74.8078C66.3047 75.5449 66.4416 76.4937 66.5254 77.4064C66.6001 78.2273 66.6837 78.7721 66.7822 79.5021C66.8506 80.0189 66.9258 80.6308 66.9814 81.4972C67.0288 82.2483 67.0614 82.8026 67.084 83.2531C67.1155 83.9031 67.126 84.3413 67.0869 84.8546C67.0539 85.2843 67.0529 86.0409 67.0215 86.9025C66.9895 87.8109 66.9218 88.8319 66.793 89.7218C66.7213 90.2243 66.636 91.2349 66.4912 92.3097C66.3907 93.0646 66.2631 93.8494 66.1201 94.5255C65.8071 96.0456 65.264 97.6634 64.8877 98.5997C64.7973 98.829 64.719 99.0217 64.6621 99.1593C64.5566 99.4144 64.4573 99.6765 64.3418 99.9669C64.1749 100.384 63.9699 100.878 63.6094 101.524C63.4539 101.801 63.2563 102.135 63.0371 102.469C62.6573 103.049 62.2034 103.688 61.7402 104.315C61.6558 104.439 61.5695 104.565 61.4854 104.687C60.657 105.886 59.8055 107.056 58.9824 108.234C57.8059 109.916 56.6665 111.611 55.7305 113.397C54.9646 114.861 54.3371 116.393 54.0127 117.984C53.85 118.771 53.7219 119.53 53.6025 120.106C53.5766 120.23 53.548 120.344 53.5215 120.445C53.5613 120.494 53.5991 120.543 53.6377 120.59C53.8367 120.831 54.0825 121.174 54.376 121.574C54.6796 121.989 55.0349 122.466 55.4404 122.956C56.4671 124.194 57.0324 124.836 57.4844 125.354C57.6134 125.501 57.7337 125.638 57.8545 125.774C58.2365 126.203 58.7101 126.74 59.1943 127.276C59.7738 127.918 60.3718 128.56 60.8398 129.036C61.9751 130.342 63.1388 131.626 64.333 132.882C64.9446 133.526 65.4781 134.202 65.8066 134.772C66.1346 135.341 66.2288 135.757 66.0596 135.937C65.8898 136.116 65.4663 136.046 64.8789 135.734C64.2917 135.422 63.5914 134.892 62.9404 134.265C61.6264 132.998 60.3419 131.698 59.0977 130.359C57.5822 128.728 56.1242 127.038 54.7471 125.284C53.7839 124.057 52.8549 122.802 51.9629 121.521C51.8711 121.389 51.7794 121.256 51.6885 121.124C50.8872 120.084 50.1172 119.018 49.6045 118.249C49.1804 117.614 48.9171 117.122 48.6934 116.7C48.5395 116.41 48.4044 116.152 48.2529 115.901C48.1716 115.766 48.059 115.581 47.9248 115.359C47.3752 114.452 46.4728 112.885 45.7949 111.382C45.4928 110.717 45.1728 109.927 44.8848 109.17C44.4701 108.086 44.121 107.063 43.9014 106.566C43.7205 106.158 43.5487 105.715 43.3867 105.264C42.9886 104.916 42.5237 104.482 42.0508 104.018C40.8723 102.86 39.6049 101.772 38.3145 100.712C36.742 99.4238 35.126 98.1785 33.4971 96.9523C32.3574 96.095 31.2055 95.2504 30.0459 94.423C29.9254 94.337 29.8053 94.2513 29.6865 94.1671C29.0947 93.7813 28.5016 93.4012 27.9727 93.0646C27.5875 92.819 27.2328 92.568 26.9463 92.3527C26.3637 91.9133 25.9795 91.5485 25.6592 91.2355C25.4359 91.0165 25.246 90.8216 25.0459 90.631C24.9393 90.5295 24.7876 90.3845 24.6172 90.2169C23.9002 89.5207 22.7557 88.2738 21.8584 87.0246C21.4568 86.4715 21.0235 85.813 20.627 85.1701C20.0617 84.2566 19.5748 83.376 19.3066 82.9513C18.8291 82.1985 18.3555 81.3039 17.958 80.4953C17.5801 79.7289 17.27 79.045 17.0654 78.6701C16.8213 78.2219 16.6555 77.8212 16.4199 77.2209C16.2575 76.8047 16.0604 76.2897 15.7979 75.5919C15.4959 74.7863 15.3153 74.2027 15.167 73.7082C14.9591 73.0086 14.8132 72.4823 14.5459 71.7101C14.2495 70.852 13.9848 69.9385 13.8281 69.2082C13.7563 68.8753 13.6701 68.4958 13.5859 68.0998C13.4742 67.5747 13.3669 67.0198 13.2949 66.5089C13.2356 66.0883 13.2131 65.7359 13.1963 65.425C13.1911 65.3283 13.1857 65.2353 13.1807 65.1457C13.1526 64.9456 13.1299 64.7446 13.1045 64.5441C13.06 64.4344 13.0175 64.3293 12.9766 64.2326L13.0605 64.2072C13.0579 64.1853 13.0544 64.1636 13.0518 64.1418C13.0453 64.1113 13.0381 64.0792 13.0312 64.047L13.8145 63.8166C13.8292 63.8409 13.8444 63.8663 13.8594 63.8937C13.8714 63.9159 13.8815 63.9395 13.8936 63.9621L13.9609 63.9425C13.9681 64.0077 13.9769 64.0727 13.9844 64.1378C14.1006 64.3647 14.2238 64.6135 14.3623 64.9044C14.6657 65.5454 14.9131 66.0936 15.208 66.6789C15.4355 67.1287 15.6883 67.5929 16.0195 68.1017C16.2444 68.4472 16.5229 68.8356 16.8008 69.2013C17.2175 69.752 17.6611 70.2863 17.9492 70.6564C18.0577 70.7961 18.1456 70.9343 18.2246 71.0587L18.2266 71.0597C18.2321 71.0683 18.2376 71.0775 18.2432 71.0861C19.0039 71.9609 19.8172 72.7966 20.666 73.5919C20.7422 73.6584 20.8199 73.7262 20.8975 73.7931C21.2637 74.1081 21.6453 74.422 21.8955 74.5998C22.1725 74.799 22.8311 75.3486 23.5361 75.8898C24.0077 76.2536 24.491 76.6089 24.8984 76.8908C25.1296 77.0507 25.3353 77.2282 25.5508 77.4113C25.5552 77.415 25.56 77.4192 25.5645 77.423C25.7748 77.6012 25.9866 77.7836 26.2295 77.9582C26.35 78.0448 26.4866 78.136 26.6338 78.2355C26.7629 78.3227 26.8985 78.4152 27.0361 78.5138C27.1616 78.6037 27.4407 78.8302 27.7871 79.1212C27.9979 79.2985 28.2453 79.5086 28.499 79.7257C29.1915 80.2728 29.8765 80.8425 30.54 81.4347C30.6893 81.5468 30.8226 81.6387 30.9355 81.7033C31.0157 81.7489 31.0916 81.7862 31.168 81.8224C31.2724 81.8721 31.381 81.9244 31.5137 82.0119C31.6175 82.0804 31.727 82.174 31.7891 82.2492C31.8181 82.2843 31.8366 82.3152 31.8535 82.3429C31.8729 82.3746 31.8902 82.4032 31.918 82.4308C31.9381 82.4507 31.9643 82.467 31.9951 82.4874C32.0444 82.5202 32.1083 82.5634 32.1885 82.6447C32.487 82.9472 32.8198 83.3076 33.1338 83.6652C33.4841 84.0633 33.8139 84.4616 34.0791 84.7785C34.376 85.132 34.7645 85.6625 35.1357 86.2082C35.3919 86.5839 35.6467 86.9738 35.8594 87.298C36.0714 87.6207 36.3008 87.9468 36.5205 88.2667C36.7869 88.655 37.0283 89.0172 37.21 89.3576C37.2454 89.4242 37.273 89.5183 37.3066 89.6359C37.3305 89.7192 37.3576 89.8158 37.3936 89.923C37.6426 90.3462 37.8712 90.748 38.1074 91.1749C38.1184 91.1877 38.1302 91.2008 38.1416 91.214V91.216C38.3986 91.5139 38.7594 91.9425 39.0537 92.6359C39.1292 92.8134 39.1612 92.9406 39.1855 93.046C39.2104 93.1514 39.2334 93.2459 39.293 93.3712C39.3605 93.5134 39.4608 93.6723 39.5713 93.8478C39.7282 94.0976 39.8925 94.3565 40.0156 94.6583C40.0239 94.6787 40.0327 94.7009 40.042 94.7238C40.1324 94.9443 40.26 95.2603 40.3613 95.589C40.6831 96.26 40.9909 96.9199 41.2979 97.5831C41.1895 96.9296 41.1393 96.4308 41.0967 95.9787C41.0255 95.1835 40.9881 94.6025 40.8477 93.7247C40.6939 92.7635 40.5902 91.7385 40.5762 90.9298C40.5691 90.5527 40.5529 90.1453 40.54 89.7101C40.5228 89.1351 40.5123 88.514 40.5352 87.9708C40.5539 87.5169 40.6059 87.1366 40.6533 86.799C40.6681 86.6923 40.6825 86.5964 40.6953 86.5011C40.7013 86.1434 40.7097 85.7821 40.7197 85.4181C40.7139 85.359 40.7068 85.2966 40.7002 85.2316C40.667 84.9025 40.6282 84.5035 40.624 84.0148C40.6178 83.2385 40.6859 82.5425 40.7637 81.8351C40.8245 81.2822 40.8944 80.6815 40.9434 80.0275C40.9725 79.6392 40.9976 79.2011 41.0254 78.756C40.9128 78.6586 40.7998 78.565 40.6875 78.4757C37.7171 76.2465 35.2574 74.133 33.6914 71.3566C32.0885 68.6146 31.3828 65.3832 31.1309 61.5675C31.1052 61.1555 31.0535 60.7028 31 60.2687C31.4354 60.3304 31.8972 60.4796 32.3115 60.6095C36.1428 61.9859 38.8981 64.4074 40.6191 67.3576C41.17 68.3311 41.628 69.3796 41.9619 70.4933C41.9633 70.4595 41.9661 70.4268 41.9668 70.3957C41.9752 70.0192 42.1055 69.0868 42.2559 68.1144C42.3543 67.4756 42.4624 66.8104 42.541 66.2736C42.5872 65.9581 42.6796 65.6678 42.7754 65.3693C42.8647 65.0911 42.9574 64.8032 43.0195 64.4836C43.0505 64.3242 43.0761 64.15 43.1035 63.964C43.1277 63.8001 43.1536 63.626 43.1865 63.4455C43.2 63.3717 43.2275 63.2597 43.2646 63.1173C40.5398 62.2299 36.2801 59.9787 34.3984 54.422C34.0296 54.4509 33.6609 54.4387 33.293 54.3439C31.5015 53.8823 30.4232 52.0553 30.8848 50.2638C31.3464 48.4723 33.1734 47.394 34.9648 47.8556C36.7561 48.3174 37.8346 50.1443 37.373 51.9357C37.0986 53.0008 36.3211 53.8129 35.3652 54.1964C37.1276 59.35 41.0185 61.3791 43.5254 62.173C43.5875 61.9543 43.6545 61.7211 43.7227 61.4777C43.9274 60.5536 44.1437 59.6268 44.3701 58.7082C44.3946 58.5102 44.4047 58.3347 44.3965 58.1916C44.3905 58.089 44.3752 57.9982 44.3594 57.9054C44.3378 57.7791 44.3153 57.6476 44.3164 57.4757C44.3174 57.341 44.3453 57.1898 44.3867 57.0949C44.406 57.0509 44.4283 57.0193 44.4482 56.9904C44.4712 56.9572 44.4911 56.927 44.502 56.8869C44.5098 56.858 44.5093 56.8253 44.5088 56.7853C44.508 56.7215 44.5078 56.6384 44.54 56.5216C44.6602 56.0863 44.81 55.5946 44.96 55.1134C45.1265 54.5789 45.2929 54.0584 45.415 53.6398C45.5515 53.171 45.7936 52.5168 46.042 51.8654C46.2152 51.4107 46.3913 50.956 46.5342 50.5636C46.6741 50.1793 46.7947 49.7699 46.9131 49.3742C47.0552 48.8992 47.1949 48.4426 47.3613 48.0724C47.395 47.9977 47.465 47.9153 47.5527 47.8117C47.615 47.7381 47.6869 47.6528 47.7607 47.5539C47.8804 47.2288 48.0044 46.9055 48.1279 46.5822C44.8859 44.1174 35.989 36.2685 35.7383 24.2111C34.2148 23.5913 33.342 21.9306 33.7637 20.2941Z" fill="#838D4C"/>
</svg>
