<svg width="100" height="150" viewBox="0 0 100 150" fill="none" xmlns="http://www.w3.org/2000/svg">
<path d="M45.4043 23.3371C45.5431 23.3146 45.6767 23.3883 45.7979 23.4621C46.68 24.0141 47.4589 24.7251 48.0879 25.5568C48.0895 25.5616 48.0898 25.5669 48.0918 25.5715C48.2796 26.0083 48.4628 26.4456 48.6338 26.885C48.8711 27.4893 49.0656 28.0816 49.2207 28.7141C49.2869 28.9775 49.3297 29.2757 49.3682 29.5695C49.4447 30.2138 49.5309 30.8862 49.6377 31.5402C49.8292 32.7145 50.0425 33.8764 50.291 35.0441C50.4085 35.5848 50.5583 36.1834 50.7803 36.6945C51.0597 37.4137 51.5157 38.0187 51.8604 38.5393C52.0073 38.775 52.1764 39.0071 52.376 39.2219C52.6359 39.5136 53.0408 39.7947 53.3614 39.9318C53.7949 40.1199 53.9847 40.0735 54.25 40.1086C55.0691 40.1648 55.8682 40.1869 56.6641 40.218C57.1171 40.2339 57.387 40.3118 57.8037 40.5656C58.2669 40.8435 58.7723 41.2138 59.2735 41.5422C59.4879 41.6803 59.6699 41.8287 59.9385 41.9973C60.2392 42.2308 60.7086 42.7173 61.1153 43.0725C61.6265 43.521 62.0513 43.9731 62.6221 44.4719C62.8946 44.6712 63.1757 44.8505 63.4737 45.0119C63.4875 45.0194 63.5018 45.0271 63.5156 45.0344L63.6201 45.0666C63.716 45.0697 63.8125 45.0753 63.9092 45.0832C63.7239 45.2017 63.5332 45.3127 63.3379 45.4152C62.6018 45.801 61.9526 46.3215 61.3047 46.842C60.678 47.3455 60.0519 47.8491 59.3477 48.2287C59.3441 48.2306 59.3399 48.2327 59.336 48.2346C59.3322 48.2363 59.3281 48.2377 59.3242 48.2395C59.3162 48.243 59.3079 48.2473 59.3008 48.2512C59.6558 48.3844 59.9884 48.5795 60.3155 48.7775C61.4251 49.4476 62.593 50.1117 63.8848 50.2141C64.5676 50.2683 65.2525 50.1597 65.9258 50.0236C66.7273 49.8615 67.5252 49.6617 68.3096 49.425C68.8034 49.2747 69.2994 49.1041 69.7227 48.8059C68.4515 49.8474 66.9723 50.4586 65.4453 51.0305C64.3024 51.4589 63.1348 51.8634 61.9219 51.9729C60.1295 52.1331 58.2508 51.5824 56.9737 50.3107C56.7944 50.1323 56.6253 49.939 56.4561 49.7463C56.2236 49.4814 55.991 49.2163 55.7324 48.9885C55.1262 48.9577 54.5182 48.8775 53.917 48.7912L51.8135 48.4934C51.7454 48.6762 51.6708 48.8534 51.5977 49.0266C51.3823 49.531 51.1706 50.0372 50.9619 50.5441L50.6455 50.4475C50.4306 51.2433 50.2207 52.0404 50.0186 52.8381C50.0075 52.8938 49.9959 52.9504 49.9844 53.0061C49.9001 53.4167 49.8594 53.8096 49.8194 54.2043C49.81 54.2953 49.8013 54.3846 49.792 54.4748C49.7195 55.1608 49.3342 56.4187 49.1338 57.1115C49.1302 57.1241 49.1267 57.137 49.1231 57.1496C49.0752 57.314 49.0338 57.4712 48.9863 57.6555C48.8742 58.0951 48.7201 58.6879 48.3682 59.9152C48.2895 60.2793 48.2116 60.6421 48.1348 61.0051C47.3045 64.9276 46.6241 68.8765 46.2754 72.8625C46.2731 72.9128 46.2709 72.9641 46.2686 73.0158C46.2224 74.0179 46.2018 75.2589 46.1543 76.0393C46.0922 77.0299 46.0556 77.7061 46.0274 78.2609C46.0225 81.4372 46.2893 84.6223 46.918 87.7375C46.9548 87.9202 46.9928 88.1029 47.0322 88.2853C47.2027 89.0748 47.3976 89.8617 47.6162 90.6418C47.8638 91.5251 48.1401 92.4016 48.4424 93.2697C48.6385 93.7682 48.8377 94.236 49.0283 94.6691C49.2949 95.2744 49.5449 95.8122 49.7383 96.257C50.2042 97.3337 50.7081 98.5644 51.1065 99.4719C51.1714 99.6204 51.2334 99.7612 51.291 99.8898C51.4461 100.194 51.6043 100.496 51.7647 100.798C51.8363 100.303 51.9389 99.8116 52.0723 99.3273C50.9469 98.0744 50.2763 96.4606 49.6905 94.8674C49.1249 93.333 48.5974 91.687 48.9717 90.0881C48.9896 90.106 49.0106 90.1212 49.0322 90.1359L49.167 90.2199C49.1887 90.2346 49.2087 90.2509 49.2266 90.2687C49.1922 89.9525 49.293 89.6422 49.4024 89.3439C50.0341 87.5771 50.8633 85.881 51.8701 84.2932C51.8807 84.412 51.9271 84.5126 51.9746 84.6154C52.0068 84.685 52.0391 84.7559 52.0615 84.8342C52.1404 84.5941 52.2982 84.3987 52.4571 84.2014C52.5083 84.1377 52.5594 84.0736 52.6084 84.008C53.8674 82.3393 55.4252 80.8967 57.1836 79.7629C57.1437 79.9136 57.172 80.029 57.2051 80.1662C57.2137 80.2016 57.2223 80.2392 57.2305 80.2785C58.7574 79.1767 60.6637 78.8661 62.5225 78.5637C62.5918 78.5524 62.6613 78.5418 62.7305 78.5305C62.6973 78.6172 62.6657 78.7043 62.6338 78.7912C62.6019 78.8784 62.5694 78.9659 62.5362 79.0529C64.0359 78.707 65.7077 78.5984 67.2324 78.7697C67.1683 78.9282 67.0611 79.0676 66.9229 79.1701C68.5035 79.1844 70.08 79.4378 71.584 79.9201C71.7774 79.9799 71.8804 80.1943 71.8115 80.384C71.7816 80.4619 71.7464 80.5392 71.71 80.6174C71.6982 80.6427 71.6855 80.668 71.6739 80.6936C71.4551 81.1584 71.2357 81.6235 71.0156 82.0881C70.7956 82.5528 70.5752 83.0177 70.3565 83.4826C70.3402 83.5167 70.3232 83.5518 70.3067 83.5871C70.1638 83.8915 70.0057 84.2291 69.7481 84.4328C69.9609 84.4873 70.1813 84.5276 70.3965 84.4787C69.8275 86.4805 68.7346 88.423 67.2813 89.9172C67.3045 89.9179 67.3293 89.9192 67.3545 89.9201C67.5565 89.9274 67.8131 89.9363 67.9873 89.8644C66.915 91.6718 65.7443 93.5982 63.9658 94.7238C64.0575 94.7248 64.1536 94.7484 64.25 94.7717C64.3858 94.8045 64.5226 94.8373 64.6485 94.8088C63.4223 96.9612 61.6009 98.7697 59.4405 99.9894C59.532 100.009 59.6235 100.031 59.7149 100.052C59.8062 100.073 59.8977 100.094 59.9893 100.113C58.7323 100.51 57.4425 100.857 56.128 100.862C54.8829 100.867 53.5891 100.668 52.6475 99.8889C52.5793 100.728 52.5491 101.567 52.5508 102.408C52.7728 102.992 53.1431 103.667 53.708 104.632C53.9946 105.121 54.3339 105.687 54.7334 106.349C54.9912 106.776 55.0867 107.02 55.1641 107.219C55.1868 107.277 55.2077 107.333 55.2315 107.387C55.3131 107.573 55.4575 107.733 55.628 107.92C55.8493 108.163 56.115 108.454 56.3545 108.911C57.1221 110.371 57.6537 110.885 58.0469 111.273C58.1629 111.386 58.2675 111.49 58.3662 111.602C58.686 111.964 59.0607 112.54 59.3272 112.989C59.5377 113.347 60.079 113.97 60.5147 114.421C60.6791 114.592 60.8787 114.841 61.1153 115.133C61.3603 115.435 61.6455 115.784 61.9727 116.138C62.8012 117.032 63.2498 117.498 63.6094 117.873C63.712 117.98 63.8074 118.08 63.9033 118.179C64.207 118.492 64.5802 118.884 64.96 119.277C65.4158 119.748 65.8804 120.219 66.2481 120.569C67.1197 121.543 68.0083 122.511 68.9112 123.459C69.3762 123.948 69.7613 124.475 69.9805 124.939C70.1982 125.401 70.2291 125.757 70.0596 125.937C69.8898 126.116 69.53 126.105 69.0547 125.903C68.5787 125.699 68.0307 125.322 67.5293 124.853C66.5225 123.91 65.5294 122.944 64.5635 121.957C63.3857 120.754 62.2435 119.512 61.1524 118.227C60.3891 117.328 59.6454 116.412 58.9229 115.48C58.8485 115.384 58.7742 115.287 58.7002 115.191C58.0409 114.448 57.3991 113.69 56.9688 113.14C56.6135 112.686 56.3939 112.325 56.2071 112.017C56.0785 111.804 55.9649 111.616 55.835 111.436C55.7653 111.339 55.6684 111.208 55.5528 111.05C55.0795 110.404 54.2893 109.292 53.6729 108.212C53.3984 107.733 53.1033 107.162 52.8291 106.613C52.4364 105.83 52.0877 105.093 51.8672 104.746C51.4796 104.138 51.1064 103.396 50.7891 102.737C50.4854 102.108 50.2308 101.555 50.0391 101.262C49.8104 100.912 49.6737 100.587 49.4746 100.098C49.3369 99.7585 49.1713 99.3442 48.9317 98.7834C48.6561 98.137 48.4947 97.6662 48.3594 97.2648C48.1705 96.7007 48.0325 96.2755 47.7412 95.674C47.4183 95.0067 47.1196 94.288 46.9434 93.7033C46.8628 93.4368 46.7599 93.1356 46.6572 92.8215C46.5212 92.4056 46.3837 91.9627 46.2881 91.5529C46.2095 91.2159 46.1779 90.9252 46.1524 90.6701C46.1444 90.5906 46.1371 90.5142 46.1289 90.4406C46.0572 90.1747 45.9872 89.9086 45.919 89.6408C45.9007 89.5994 45.8816 89.5554 45.8613 89.51C45.7596 89.2816 45.6354 88.9995 45.5264 88.6398C45.525 88.6353 45.5238 88.6307 45.5225 88.6262C45.3529 88.0606 45.2747 87.5485 45.2002 87.008C45.1419 86.583 45.0861 86.1417 44.9961 85.6398C44.9347 85.2975 44.8557 84.9091 44.7822 84.5236C44.6726 83.95 44.5755 83.3811 44.5498 82.9816C44.5401 82.8318 44.5565 82.7002 44.5733 82.5705L44.5742 82.5686C44.5754 82.5599 44.5761 82.5509 44.5772 82.5422C44.4554 81.577 44.3568 80.6081 44.2813 79.6369C44.2693 79.5532 44.2575 79.4679 44.2461 79.384C44.2337 79.2922 44.2209 79.2009 44.209 79.1115C43.8447 77.991 43.4213 76.9038 42.9209 75.8459C42.3915 76.7733 41.396 77.3359 40.377 77.716C39.301 78.117 38.1399 78.2309 36.9903 78.2941C37.0589 78.2497 37.1272 78.2038 37.1953 78.1584C37.2634 78.113 37.3318 78.068 37.4004 78.0236C35.2585 77.6929 33.2118 76.7758 31.5459 75.3947C31.6574 75.3792 31.7587 75.31 31.8594 75.2414C31.931 75.1926 32.0026 75.1436 32.0772 75.1145C30.2765 74.7428 28.7257 73.5295 27.292 72.383C27.4566 72.388 27.6633 72.3009 27.8262 72.2326C27.8467 72.224 27.8669 72.216 27.8858 72.2082C26.2369 71.435 24.7446 70.1838 23.6621 68.7229C23.8529 68.6964 24.0208 68.5966 24.1778 68.4865C23.9042 68.3994 23.6707 68.1718 23.46 67.967C23.4356 67.9433 23.4115 67.9195 23.3877 67.8967L21.4502 66.0236C21.433 66.0065 21.4157 65.9897 21.3985 65.9729C21.3445 65.9201 21.2909 65.8673 21.2422 65.8127C21.1276 65.6789 21.1456 65.4719 21.2852 65.3635C22.3656 64.5055 23.5759 63.8128 24.8633 63.3137C24.7189 63.2724 24.5895 63.1909 24.4883 63.0812C25.6816 62.4712 27.0809 62.0451 28.4131 61.8654C28.3591 61.8045 28.306 61.7423 28.253 61.6809C28.2001 61.6196 28.1476 61.558 28.0938 61.4973C28.1536 61.4852 28.2135 61.4733 28.2735 61.4611C29.886 61.1351 31.5402 60.801 33.128 61.2307C33.1225 61.196 33.1182 61.1626 33.1143 61.1311C33.0991 61.0087 33.0868 60.9059 33.0078 60.7951C34.7946 61.1796 36.5122 61.8781 38.0557 62.8537C38.116 62.8923 38.1777 62.9288 38.2393 62.965C38.43 63.0773 38.6193 63.1887 38.7578 63.3605C38.752 63.2895 38.7569 63.2214 38.7617 63.1545C38.7689 63.0557 38.7762 62.9591 38.7481 62.8586C40.0606 63.8459 41.2611 64.9765 42.3223 66.2258C42.5037 66.4359 42.6816 66.6588 42.751 66.9279C42.7693 66.8877 42.7981 66.851 42.8272 66.8146C42.8562 66.7783 42.8851 66.7416 42.9033 66.7014C43.7024 67.8928 43.7791 69.4017 43.7901 70.8303C43.8025 72.3129 43.752 73.8383 43.2188 75.2092C43.4803 75.5681 43.7165 75.9437 43.9297 76.3312C43.9126 75.9131 43.8985 75.4943 43.8809 75.1428C43.8686 74.8991 43.9065 74.6692 43.9463 74.4328C43.9835 74.2123 44.0221 73.9858 44.0254 73.7375C44.027 73.6133 44.0203 73.4787 44.0137 73.3352C44.0079 73.2085 44.0021 73.0738 44.002 72.9338C44.0019 72.8036 44.035 72.5148 44.0811 72.1467C44.1095 71.9197 44.1434 71.6607 44.1768 71.3898C44.2131 70.6697 44.261 69.9476 44.3203 69.2297C44.3093 69.0772 44.2884 68.9421 44.2549 68.8342C44.2309 68.7569 44.199 68.6893 44.167 68.6203C44.1234 68.5264 44.0782 68.4285 44.0488 68.298C44.026 68.1961 44.0271 68.0789 44.0508 68.0031C44.0619 67.9679 44.0773 67.9409 44.0918 67.9172C44.1084 67.8901 44.1234 67.8655 44.127 67.8342C44.1294 67.8117 44.1227 67.7872 44.1153 67.757C44.1032 67.7084 44.0878 67.6447 44.0987 67.5529C44.1393 67.2106 44.1988 66.823 44.2598 66.4455C44.3277 66.0242 44.3982 65.6133 44.4424 65.2854C44.4917 64.9181 44.6104 64.399 44.7344 63.885C44.8209 63.5257 44.9104 63.1649 44.9776 62.8557C45.0433 62.5528 45.0852 62.2304 45.127 61.9191C45.1771 61.5454 45.2271 61.189 45.3194 60.8928C45.338 60.8331 45.3904 60.7649 45.4561 60.6799C45.5027 60.6196 45.5566 60.5503 45.6094 60.4699C45.6901 60.0886 45.7741 59.7081 45.8623 59.3273C45.8604 59.313 45.8585 59.2982 45.8565 59.2834V59.2824C45.8102 58.9438 45.7484 58.4796 45.9863 57.9006C46.0468 57.7539 46.114 57.6684 46.1748 57.592C46.2346 57.5169 46.2879 57.4494 46.3223 57.341C46.3612 57.2177 46.3746 57.0619 46.3887 56.8937C46.4085 56.6574 46.4314 56.3938 46.5342 56.1506C46.5412 56.134 46.5489 56.1154 46.5567 56.0969C46.6309 55.9203 46.7417 55.656 46.8936 55.4074C47.1259 54.6135 47.3712 53.8211 47.627 53.0295C48.0523 51.7138 48.5037 50.4134 48.9746 49.1145C49.0675 48.8584 49.1732 48.6128 49.2871 48.385C49.2741 48.0938 49.2784 47.8081 49.3155 47.5363C49.1482 47.3914 49.0005 47.2357 48.8887 47.0793C48.8042 46.9638 48.7164 46.856 48.6201 46.7531C48.2282 46.7863 47.8373 46.8875 47.4463 46.9895C47.203 47.0529 46.9593 47.1172 46.7149 47.1643C44.9439 47.5022 43.0792 46.9062 41.6846 45.7697C40.7451 45.0009 40.0049 44.0118 39.2949 43.0158C38.3511 41.6872 37.4697 40.3492 37 38.7785C37.1822 39.2664 37.4995 39.6811 37.8242 40.0822C38.3397 40.721 38.8884 41.3294 39.461 41.9123C39.9424 42.4022 40.4497 42.8765 41.0459 43.2141C41.5428 43.4966 42.0782 43.6681 42.6338 43.7854C42.2465 43.4058 41.8846 42.9938 41.5391 42.5822C41.4606 42.4894 41.3822 42.3955 41.3037 42.302C40.6103 41.4759 39.9056 40.6358 39.0371 40.0256C38.8138 39.8675 38.8108 39.5367 39.0156 39.3508C39.3558 39.0341 39.6405 38.632 39.9072 38.2551L39.9365 38.2141C41.4081 36.1414 42.4345 33.7733 43.2041 31.343C43.9531 28.9779 44.4616 26.5468 44.9688 24.1193L45.0108 23.9182C45.062 23.673 45.1641 23.3778 45.4043 23.3371ZM49.9942 29.1516C50.5499 29.8818 51.1746 30.6198 52.0615 31.1047C53.0944 31.6768 54.3599 32.4549 55.8096 32.2512C56.6702 32.1432 57.4105 31.8369 58.1045 31.7082C58.2249 31.6854 58.3446 31.6677 58.461 31.6564C60.0376 31.4295 61.5091 32.9833 63.6377 32.9807C64.7549 32.9524 65.8871 32.6826 66.8828 32.216C67.044 32.1427 67.2033 32.0648 67.3604 31.9855C67.7579 32.6428 68.4469 33.0669 69.2168 33.1467C69.2333 33.1481 69.25 33.1502 69.2666 33.1516C69.4188 33.1639 69.5763 33.1766 69.7022 33.259C69.8012 33.326 69.8724 33.4336 69.918 33.5451C70.0588 33.8939 69.9928 34.2939 69.9112 34.6643C69.3406 37.1882 68.0908 39.5417 66.3926 41.4797C66.3701 41.5054 66.3469 41.5311 66.3242 41.5568C66.0749 41.8397 65.8215 42.1269 65.668 42.4719C65.8393 43.2296 65.3272 43.9083 64.753 44.4377C64.6515 44.5314 64.5461 44.6207 64.4385 44.7062C64.2074 44.6602 63.9689 44.6148 63.7256 44.5842H63.7246C63.4655 44.4162 63.2125 44.2246 62.9766 44.0236C62.5606 43.5983 62.0817 43.0364 61.6026 42.5607C61.1898 42.1601 60.9266 41.797 60.3672 41.3225C60.1952 41.2037 59.9725 41.0122 59.752 40.8547C59.2671 40.5054 58.8213 40.1442 58.2715 39.7863C57.8895 39.51 57.2223 39.2714 56.7139 39.2658C55.9123 39.2141 55.1065 39.1783 54.3301 39.1164C54.2157 39.1066 54.1018 39.0947 53.999 39.0803C53.9479 39.0731 53.8981 39.065 53.8623 39.0568C53.8516 39.0544 53.8416 39.0507 53.836 39.049C53.8299 39.0458 53.8212 39.041 53.8106 39.0354C53.4962 38.8903 53.3218 38.7577 53.1123 38.5363C52.968 38.3812 52.8344 38.2001 52.7129 38.007C52.3 37.3949 51.9224 36.8931 51.6953 36.3371C51.4702 35.8385 51.3454 35.3652 51.2119 34.8312C50.9373 33.6958 50.6772 32.5396 50.4317 31.3928C50.2939 30.7496 50.1776 30.1182 50.0576 29.4592C50.0375 29.3565 50.016 29.2543 49.9942 29.1516ZM56.0684 23.0656C56.5522 22.9612 57.0535 22.9961 57.543 23.0686C58.4583 23.2062 59.3426 23.4796 60.2276 23.7531C60.8832 23.9558 61.5397 24.1591 62.209 24.3068C62.5688 24.3859 62.9328 24.4495 63.2969 24.5129C63.7892 24.5986 64.2823 24.6842 64.7656 24.8088C65.0698 24.8857 65.382 24.989 65.5791 25.2326C65.7351 25.4258 65.7899 25.6767 65.8447 25.9279C65.8683 26.0356 65.8922 26.1435 65.9239 26.2473C66.0951 26.8038 66.5042 27.2307 66.9121 27.6564C67.3386 28.1016 67.764 28.5467 67.916 29.1369C68.1245 29.9464 67.7499 30.7784 67.3408 31.5266C67.1282 31.6062 66.9157 31.6835 66.7022 31.7531C65.6987 32.0901 64.6767 32.2329 63.6377 32.1867C62.183 32.1645 60.865 30.7887 58.9854 30.6545C58.4114 30.2241 58.0469 29.793 57.8145 29.1975C57.5818 28.6901 57.5912 28.0734 56.9024 27.3781C56.7908 27.2887 56.6776 27.2441 56.5947 27.217C56.2963 27.133 56.1746 27.1241 56.0137 27.0656C55.8615 27.013 55.713 26.9401 55.5645 26.8479C55.0069 26.5051 54.6119 26.1827 54.3086 25.6311C54.0246 25.1347 53.7334 24.6433 53.4434 24.1516C53.4231 24.117 53.403 24.0825 53.3828 24.048C53.7693 23.9575 54.1493 23.8347 54.5166 23.6789C54.6599 23.6184 54.8018 23.5529 54.9434 23.4875C55.3101 23.3181 55.6768 23.1485 56.0684 23.0656ZM52.9912 24.3576C53.1783 24.9068 53.3832 25.4426 53.5996 25.9758C53.8409 26.6562 54.4575 27.2886 55.0244 27.6584C55.2191 27.7941 55.4366 27.9148 55.6719 28.0031C55.8958 28.0917 56.1872 28.1427 56.2842 28.173L56.2862 28.174C56.4899 28.3547 56.6992 29.01 56.9727 29.5793C57.1739 30.0221 57.5154 30.4146 57.8936 30.7248C57.0681 30.8888 56.3608 31.188 55.6807 31.2873C54.6086 31.4791 53.5521 30.9407 52.4102 30.4064C51.5672 30.0307 50.862 29.3048 50.1719 28.5637C50.004 28.384 49.8345 28.2027 49.6612 28.0236C49.4944 27.5686 49.2994 27.1153 49.0899 26.6867C48.9274 26.3508 48.7558 26.0216 48.5821 25.6936C48.8169 25.5235 48.9964 25.2746 49.1748 25.0256C49.4268 24.6738 49.679 24.3229 50.0869 24.1975C50.359 24.1173 50.6426 24.1484 50.9238 24.1799C50.9651 24.1845 51.0068 24.1893 51.0479 24.1936C51.6704 24.2608 52.3014 24.2415 52.9199 24.1398C52.9436 24.213 52.9668 24.2854 52.9912 24.3576Z" fill="#838D4C"/>
</svg>
