<svg width="100" height="150" viewBox="0 0 100 150" fill="none" xmlns="http://www.w3.org/2000/svg">
<path d="M28.2269 36.5682C29.1707 36.3847 30.1456 36.3734 31.095 36.5389C31.0988 36.5408 31.1019 36.544 31.1058 36.5457C31.508 36.7223 31.9076 36.9018 32.3001 37.0906C32.8414 37.3491 33.3463 37.6266 33.8499 37.9559C34.0608 38.0921 34.2781 38.267 34.4896 38.4412C34.9475 38.8279 35.429 39.2272 35.9134 39.6014C36.7834 40.2736 37.6604 40.9236 38.5648 41.5555C38.9853 41.8467 39.4643 42.1568 39.9368 42.3621C40.5791 42.6716 41.2685 42.7923 41.8294 42.9266C42.0773 42.9931 42.3376 43.0441 42.6078 43.0633C42.9672 43.0963 43.4174 43.0302 43.7201 42.9207C44.1315 42.7743 44.2304 42.6239 44.432 42.4803C45.0201 42.0019 45.5717 41.5127 46.1283 41.032C46.4441 40.7571 46.676 40.6399 47.1175 40.5486C47.6053 40.4444 48.1798 40.3762 48.7249 40.282C48.9567 40.2401 49.1728 40.2252 49.4603 40.1697C49.8105 40.1378 50.4346 40.1706 50.933 40.1541C51.5608 40.1347 52.1326 40.1722 52.8324 40.1492C53.1419 40.1121 53.4446 40.0562 53.7474 39.9773C53.7615 39.9736 53.7765 39.9694 53.7904 39.9656L53.8812 39.9217C53.9477 39.8635 54.0162 39.8072 54.0863 39.7517C54.036 39.9484 53.9766 40.1435 53.9095 40.3357C53.6563 41.0601 53.5476 41.8212 53.4388 42.5809C53.3336 43.3157 53.2281 44.0498 52.9925 44.7498C52.9913 44.7534 52.9901 44.7578 52.9886 44.7615C52.9872 44.765 52.9853 44.7687 52.9837 44.7723C52.9806 44.7798 52.9773 44.7885 52.975 44.7957C53.2984 44.6619 53.646 44.584 53.9916 44.5115C55.163 44.2645 56.3698 43.9764 57.306 43.2312C57.8011 42.8374 58.1953 42.3326 58.5638 41.8162C59.0023 41.2015 59.4135 40.5632 59.7933 39.909C60.0317 39.4961 60.2593 39.0687 60.3568 38.6004C60.1562 40.1049 59.5439 41.4501 58.8744 42.7986C58.3735 43.8084 57.8405 44.8176 57.0912 45.6561C55.9829 46.894 54.3683 47.7057 52.7044 47.6521C52.471 47.6446 52.235 47.621 51.9994 47.5975C51.6753 47.5651 51.3508 47.5326 51.0326 47.5418C50.604 47.9032 50.1431 48.2328 49.683 48.5535L48.0863 49.6697C48.5092 49.9417 48.9655 50.3661 49.3812 50.8836C50.0647 51.7336 50.7464 52.6034 51.4144 53.4871C51.4518 53.5317 51.4899 53.5771 51.5267 53.6219C51.8021 53.9567 52.0759 54.2341 52.3636 54.535C52.4287 54.6026 52.4944 54.67 52.5589 54.7381C53.0485 55.2495 53.7578 56.4148 54.1332 57.0613C54.1402 57.0732 54.1477 57.0856 54.1546 57.0975C54.2449 57.2517 54.3329 57.3953 54.4349 57.5623C54.674 57.9571 55.0141 58.5067 55.6136 59.6883C55.8107 60.0242 55.9983 60.3517 56.1869 60.6922C58.2163 64.3417 59.7839 68.3017 60.6791 72.4031C60.6925 72.4543 60.7065 72.5068 60.7201 72.5594C60.8225 72.9513 60.9232 73.3816 61.017 73.8084C61.0396 73.716 61.0621 73.6251 61.0853 73.5399C61.1521 73.2938 61.2136 73.0759 61.2142 72.9442C61.2149 72.7872 61.2564 72.6615 61.3187 72.4783C61.3618 72.3523 61.4154 72.194 61.475 71.9774C61.5437 71.7278 61.6111 71.5578 61.6683 71.4139C61.75 71.208 61.8125 71.0528 61.8402 70.8074C61.8706 70.5363 61.9238 70.2527 61.9994 70.0418C62.0338 69.9456 62.0658 69.8327 62.099 69.7166C62.1427 69.5638 62.1904 69.3998 62.2504 69.2576C62.3 69.14 62.3624 69.0491 62.4174 68.9695C62.4344 68.9448 62.4501 68.9204 62.4652 68.8973C62.4953 68.8017 62.5267 68.7046 62.557 68.6082C62.5572 68.5912 62.558 68.5732 62.558 68.5545C62.5579 68.4597 62.5573 68.3424 62.5834 68.2068C62.6247 67.9926 62.7035 67.8173 62.7865 67.6336C62.8511 67.4907 62.9178 67.3418 62.974 67.1649C63.0123 67.0441 63.0485 66.9035 63.0843 66.7645C63.1376 66.5578 63.1913 66.3535 63.2523 66.2205C63.2752 66.1708 63.3105 66.1332 63.3451 66.0965L63.3529 66.0887C63.46 65.7502 63.5673 65.4107 63.6742 65.0731C63.6801 65.0426 63.6867 65.0118 63.6927 64.9813C63.7224 64.8319 63.7514 64.686 63.7533 64.5848C63.7552 64.4756 63.8255 64.2263 63.9008 63.9627C63.9501 63.7897 64.0007 63.6122 64.0345 63.4647C64.0544 63.3783 64.1035 63.3072 64.1537 63.2342C64.2005 63.1662 64.2488 63.0958 64.2758 63.0096C64.2891 62.9666 64.2976 62.9171 64.307 62.866C64.3154 62.8208 64.3246 62.7723 64.3373 62.7234C64.3493 62.6778 64.3965 62.5847 64.4564 62.4647C64.4935 62.3904 64.5354 62.3054 64.5775 62.2156C64.657 61.9643 64.7338 61.7185 64.8129 61.4686C64.8145 61.4114 64.8088 61.3587 64.7933 61.3133C64.7822 61.2809 64.7661 61.2504 64.7494 61.2195C64.7265 61.1775 64.7026 61.1326 64.6898 61.0809C64.68 61.0401 64.6861 60.9974 64.7045 60.9744C64.7131 60.9639 64.7245 60.9568 64.7347 60.951C64.7463 60.9444 64.7565 60.938 64.7601 60.9275C64.7626 60.9199 64.7597 60.9094 64.7562 60.8973C64.7506 60.8776 64.7427 60.8512 64.7533 60.8201C64.7929 60.704 64.8452 60.5742 64.8959 60.4461C64.9524 60.3031 65.007 60.1639 65.0414 60.0516C65.0801 59.9253 65.1639 59.7546 65.2474 59.5818C65.3058 59.4613 65.3647 59.3389 65.4066 59.2352C65.448 59.1328 65.4729 59.0192 65.4965 58.909C65.5248 58.7767 65.5522 58.6488 65.6058 58.5496C65.6167 58.5296 65.6483 58.5097 65.6888 58.4861C65.7178 58.469 65.7515 58.4508 65.7836 58.4275C65.8263 58.2958 65.8692 58.1629 65.9135 58.0301C65.9117 58.0245 65.9094 58.0183 65.9076 58.0125C65.8666 57.8786 65.8111 57.6957 65.9388 57.5018C65.9708 57.4541 66.01 57.429 66.0453 57.407C66.0801 57.3854 66.1116 57.3653 66.1283 57.3279C66.1471 57.2855 66.1487 57.2289 66.1488 57.1668C66.1489 57.0794 66.1485 56.9813 66.2006 56.8982C66.204 56.8927 66.2075 56.8859 66.2113 56.8797C66.2488 56.8193 66.3052 56.7294 66.3871 56.6473C66.485 56.3659 66.5829 56.0868 66.682 55.8006C66.7947 55.4756 66.9027 55.149 67.0121 54.823C66.9292 54.7743 66.8513 54.7121 66.7845 54.6395C66.502 54.3343 66.3162 53.9944 66.1732 53.66C66.1641 53.643 66.1545 53.6254 66.1459 53.6082C66.0816 53.4805 66.0064 53.3663 65.9349 53.2518C65.9187 53.2257 65.9019 53.1994 65.8861 53.1727C65.7623 52.967 65.7205 52.5351 65.7133 52.3084C65.713 52.3044 65.7115 52.2997 65.7113 52.2957C65.7089 52.2412 65.705 52.1893 65.7006 52.1307C65.6906 51.989 65.6751 51.7927 65.7094 51.3982C65.705 51.2827 65.703 51.17 65.7035 51.0555C65.7144 49.8253 65.9321 48.6299 66.3138 47.4686C66.3175 47.4536 66.3217 47.4379 66.3256 47.4227C66.3621 47.2767 66.4077 47.111 66.4574 46.9588C66.5115 46.7929 66.5706 46.6407 66.6293 46.5281C66.7772 46.2435 66.9104 46.0511 67.0316 45.8982C67.1873 45.6687 67.3777 45.4258 67.6762 45.2322C67.9721 45.032 68.3951 44.9625 68.7074 45.0184C69.3347 45.1327 69.7084 45.4025 70.0853 45.5213C70.0866 45.5218 70.088 45.5228 70.0892 45.5232C70.3024 45.5953 70.581 45.6428 70.8607 45.6912C71.1217 45.7363 71.3942 45.781 71.6771 45.8514C71.8453 45.8803 72.0124 45.9151 72.1732 45.9656C72.3993 46.036 72.6202 46.1455 72.7865 46.2967C72.9887 46.4708 73.162 46.7797 73.1976 47.0652C73.2388 47.3508 73.1859 47.5946 73.1342 47.7693C73.1155 47.8322 73.0987 47.8784 73.0805 47.9275C73.0269 48.1159 72.962 48.2799 72.8851 48.4461C72.8617 48.499 72.8383 48.556 72.8158 48.615C72.8054 48.6245 72.7943 48.6338 72.7836 48.6434C72.6457 48.7688 72.5669 48.9742 72.4662 49.3152C72.4219 49.4654 72.375 49.642 72.3148 49.8494C72.2757 49.9845 72.2278 50.0459 72.1889 50.0975C72.1776 50.1123 72.166 50.1269 72.1566 50.1414C72.1242 50.1924 72.1298 50.2552 72.1361 50.3299C72.1443 50.4271 72.1536 50.5442 72.0844 50.6785C71.8628 51.1074 71.8779 51.3294 71.8881 51.4988C71.891 51.5481 71.8925 51.5935 71.8881 51.6375C71.8736 51.7814 71.7878 51.9687 71.7035 52.1033C71.6374 52.2099 71.5809 52.4506 71.5414 52.6414C71.527 52.7129 71.4898 52.804 71.4418 52.91C71.3925 53.0187 71.3312 53.1469 71.2728 53.2869C71.1216 53.6442 71.0061 53.8295 70.9115 53.9773C70.8843 54.0191 70.8573 54.0583 70.8305 54.0965C70.7448 54.2186 70.6247 54.3625 70.4867 54.4988C70.3227 54.6624 70.1322 54.8117 69.9808 54.9188C69.5569 55.1445 69.0846 55.2591 68.639 55.2859C68.5333 55.2927 68.4281 55.2809 68.3314 55.2566C68.291 55.4709 68.2494 55.6851 68.2074 55.8934C68.2052 55.9144 68.2031 55.9359 68.2006 55.9568C68.1808 56.1153 68.1848 56.2718 68.1889 56.4256C68.1898 56.461 68.1902 56.4976 68.1908 56.533C68.1954 56.8019 68.0274 57.268 67.931 57.5272C67.9293 57.5318 67.9269 57.5371 67.9252 57.5418C67.9026 57.6027 67.8836 57.6613 67.8617 57.7293C67.8095 57.8911 67.74 58.1121 67.5463 58.5594C67.5055 58.6936 67.4631 58.8269 67.4203 58.9588C66.9525 60.4017 66.3753 61.8066 65.7777 63.1844C65.7715 63.202 65.7655 63.22 65.7592 63.2381C65.6352 63.5924 65.4789 64.0354 65.35 64.2977C65.185 64.6342 65.0655 64.8578 64.9662 65.0408C64.4914 66.1305 64.0299 67.2212 63.6322 68.3318C63.508 68.6784 63.3888 69.0318 63.2787 69.3817C63.1768 69.7055 63.0799 70.0323 62.9896 70.3582C62.9507 70.5516 62.9181 70.7411 62.89 70.911C62.85 71.1519 62.8161 71.3693 62.7777 71.5457C62.6859 71.9659 62.5404 72.4405 62.4398 72.7869C62.4234 72.8434 62.4079 72.8974 62.3939 72.9471C62.3412 73.231 62.2912 73.5207 62.2465 73.8026C62.2364 73.82 62.2257 73.8374 62.2152 73.8553C62.0834 74.0795 62.0254 74.3843 61.9467 74.8514C61.9125 75.0547 61.8724 75.303 61.8246 75.576C61.7934 75.7547 61.7458 75.8435 61.7074 75.9158C61.6962 75.9371 61.6862 75.9579 61.6771 75.9783C61.6461 76.0486 61.658 76.1291 61.6722 76.2244C61.6905 76.3504 61.7133 76.4935 61.6527 76.6746C61.5351 77.0284 61.51 77.2712 61.5179 77.452C61.5189 77.4667 61.5199 77.4814 61.5209 77.4959C61.5281 77.5909 61.5437 77.6682 61.558 77.7362C61.5704 77.7957 61.5823 77.8503 61.5863 77.9051C61.5919 77.9827 61.5835 78.0745 61.5697 78.1688C61.7468 80.0175 61.8339 81.8623 61.8734 83.702C61.9536 83.5324 62.0668 83.3766 62.184 83.2274C63.1985 81.9127 64.3596 80.7117 65.641 79.6502C65.6174 79.7531 65.6291 79.8505 65.641 79.95C65.6491 80.0174 65.6572 80.086 65.6547 80.158C65.7867 79.9775 65.9729 79.8559 66.1605 79.7332C66.2211 79.6936 66.282 79.654 66.3412 79.6121C67.8569 78.5515 69.562 77.7629 71.3519 77.2889C71.2774 77.4047 71.2697 77.5092 71.2601 77.6336C71.2577 77.6658 71.2552 77.6998 71.2514 77.7352C72.8376 77.2251 74.527 77.4848 76.1742 77.7381C76.2357 77.7476 76.2974 77.757 76.3588 77.7664L76.0521 78.1531C77.409 78.2717 78.8457 78.6373 80.0824 79.1981C79.9851 79.3139 79.8577 79.4024 79.7133 79.451C81.0399 79.895 82.2978 80.5384 83.432 81.3553C83.5785 81.4584 83.6072 81.6675 83.4975 81.8084C83.4508 81.866 83.3992 81.9214 83.3471 81.9774C83.3302 81.9954 83.3131 82.0137 83.2963 82.0321C82.9852 82.3635 82.6729 82.6943 82.3607 83.0252C82.0485 83.3563 81.7364 83.6878 81.4252 84.0194C81.4022 84.0436 81.3785 84.0684 81.3549 84.0936C81.1513 84.3109 80.9256 84.5521 80.6527 84.6531C80.817 84.7572 80.9923 84.8513 81.1869 84.869C80.1608 86.3988 78.7095 87.7358 77.0775 88.5965C77.0968 88.6034 77.1172 88.6104 77.1381 88.618C77.3062 88.6793 77.5205 88.7578 77.6869 88.7449C76.2904 89.9734 74.7778 91.2746 72.973 91.7362C73.0499 91.7621 73.1248 91.8083 73.1996 91.8543C73.3049 91.9191 73.4111 91.9836 73.5248 91.994C71.9044 93.4709 69.8771 94.496 67.725 94.9325C67.7966 94.9741 67.8678 95.0167 67.9389 95.0594C68.01 95.1022 68.081 95.1456 68.1527 95.1873C66.9862 95.1779 65.8056 95.1173 64.6976 94.7625C63.6483 94.4262 62.6133 93.9044 62.0336 92.991C61.8591 93.4096 61.6967 93.8322 61.5443 94.2586C61.5161 94.6281 61.4876 94.9831 61.4564 95.3202C61.3929 96.006 61.3225 96.6148 61.2406 97.1151C61.0459 98.318 60.6953 99.66 60.4076 100.642C60.3609 100.803 60.3164 100.955 60.2748 101.095C60.081 101.884 59.871 102.672 59.6459 103.453C59.6206 103.502 59.5942 103.552 59.5677 103.601C59.2357 104.224 58.9764 105.034 58.5189 106.292C58.319 106.839 58.0799 107.472 57.7738 108.205C57.5761 108.677 57.4265 108.901 57.305 109.083C57.2694 109.136 57.2353 109.186 57.2035 109.237C57.0942 109.414 57.0403 109.626 56.975 109.877C56.8901 110.202 56.7854 110.593 56.514 111.048C55.6462 112.492 55.4147 113.197 55.2445 113.739C55.1939 113.898 55.1474 114.042 55.0892 114.183C54.9008 114.642 54.5284 115.243 54.2181 115.679C53.9737 116.024 53.5997 116.782 53.3275 117.362C53.2245 117.582 53.0568 117.866 52.8578 118.195C52.6521 118.536 52.4094 118.929 52.1673 119.36C51.5539 120.449 51.207 121.015 50.9271 121.473C50.8473 121.603 50.7714 121.724 50.6966 121.845C50.4611 122.224 50.1541 122.692 49.8392 123.158C49.4633 123.715 49.068 124.28 48.7757 124.71C47.9304 125.765 47.0476 126.792 46.138 127.787C45.6665 128.303 45.1433 128.72 44.6761 128.96C44.2113 129.196 43.8522 129.229 43.6722 129.06C43.4922 128.891 43.5027 128.533 43.6908 128.057C43.8817 127.579 44.2259 127.029 44.6537 126.504C45.5085 125.454 46.3318 124.375 47.1283 123.277C48.0973 121.941 49.0259 120.578 49.9281 119.198C50.5594 118.232 51.1716 117.254 51.764 116.263C51.8248 116.161 51.8862 116.058 51.9466 115.956C51.9696 115.91 51.9911 115.862 52.014 115.816C52.0228 114.731 51.978 113.654 51.8646 112.579C51.0151 113.317 49.8281 113.529 48.682 113.553C47.4718 113.577 46.2765 113.287 45.1107 112.949C45.1944 112.929 45.2782 112.907 45.3617 112.886C45.4453 112.864 45.5298 112.842 45.6136 112.822C43.5979 111.747 41.8808 110.123 40.7044 108.169C40.821 108.192 40.9463 108.159 41.0706 108.126C41.1589 108.102 41.247 108.078 41.3314 108.075C39.6694 107.078 38.5489 105.331 37.5218 103.691C37.6838 103.754 37.92 103.74 38.1058 103.728C38.1291 103.727 38.1517 103.726 38.1732 103.724C36.802 102.381 35.753 100.616 35.1849 98.786C35.384 98.8262 35.586 98.7852 35.7806 98.7303C35.5388 98.5484 35.3856 98.2408 35.2474 97.9637C35.2314 97.9316 35.2153 97.9 35.1995 97.869C34.9879 97.4459 34.7757 97.0224 34.5628 96.5994C34.35 96.1766 34.1368 95.7539 33.9251 95.3309C33.9138 95.3076 33.9023 95.2845 33.8909 95.2616C33.8557 95.1903 33.8207 95.1199 33.7913 95.0487C33.7237 94.8756 33.8138 94.6753 33.9906 94.616C35.3643 94.1388 36.8102 93.8712 38.265 93.8231C38.1355 93.7317 38.0336 93.6062 37.971 93.4617C39.3708 93.2703 40.912 93.3327 42.3001 93.618C42.2677 93.5387 42.2367 93.4592 42.2054 93.3797C42.1741 93.3002 42.1422 93.2207 42.1097 93.1414C42.1737 93.1503 42.238 93.1589 42.3021 93.1678C44.0198 93.4051 45.7814 93.6484 47.2113 94.6287C47.218 94.5923 47.2257 94.558 47.2328 94.5252C47.2603 94.3981 47.2836 94.2911 47.2435 94.1532C48.8872 95.1579 50.3524 96.4516 51.5482 97.9598C51.5948 98.0192 51.644 98.077 51.6927 98.1346C51.8432 98.3126 51.9928 98.4887 52.0707 98.7078C52.0896 98.6353 52.1178 98.5695 52.1459 98.5047C52.1874 98.409 52.2277 98.3155 52.2347 98.2059C53.1967 99.6452 53.9969 101.188 54.6175 102.801C54.7248 103.073 54.8247 103.356 54.8002 103.647C54.8161 103.631 54.8345 103.616 54.8539 103.602L54.9769 103.522C54.9964 103.508 55.0146 103.493 55.0306 103.476C55.4104 104.94 54.9615 106.467 54.475 107.891C53.9709 109.371 53.3894 110.871 52.3812 112.05C52.5934 112.753 52.7328 113.475 52.8011 114.203C52.907 113.984 53.0056 113.781 53.0941 113.6C53.3416 113.097 53.5572 112.746 53.7396 112.446C53.8651 112.24 53.9757 112.055 54.0687 111.86C54.1186 111.755 54.1858 111.611 54.265 111.436C54.5895 110.726 55.118 109.511 55.641 108.42C55.8741 107.936 56.1578 107.377 56.4203 106.84C56.7962 106.072 57.1286 105.345 57.2425 104.959C57.4436 104.282 57.7264 103.524 57.9632 102.848C58.1894 102.206 58.3757 101.637 58.4271 101.3C58.4881 100.897 58.5977 100.569 58.7533 100.079C58.8608 99.7394 58.9906 99.3199 59.1322 98.743C59.2949 98.0776 59.4256 97.607 59.5336 97.2078C59.6843 96.6466 59.7936 96.2175 59.8412 95.5662C59.8939 94.841 59.9544 94.0896 60.0424 93.5008C60.0826 93.2331 60.1136 92.9246 60.142 92.6043C60.1798 92.1793 60.2122 91.7321 60.2621 91.326C60.3033 90.9908 60.3663 90.7144 60.4203 90.4696C60.4371 90.3934 60.4531 90.3198 60.4672 90.2489C60.4778 89.98 60.4859 89.7096 60.4906 89.4403C60.4839 89.3967 60.476 89.3503 60.4681 89.3026C60.4321 89.0837 60.3875 88.8197 60.3588 88.5008C60.3559 88.4681 60.3525 88.4341 60.35 88.4002C60.3067 87.8072 60.3304 87.3114 60.3519 86.7625C60.3685 86.3368 60.3846 85.9128 60.3636 85.4031C60.3494 85.0586 60.3181 84.6767 60.2845 84.2899C60.2739 84.1667 60.2629 84.0443 60.2523 83.9246C60.2424 83.8711 60.2349 83.8165 60.2308 83.7615C60.1938 83.2699 60.1636 82.7339 60.1449 82.2362C60.1332 81.9142 60.1261 81.5967 60.1254 81.2781C60.0648 80.6809 59.9967 80.0849 59.9183 79.4949C59.9021 79.4135 59.8858 79.331 59.8695 79.2498C59.7894 78.8514 59.7072 78.4722 59.6244 78.2244C59.5349 77.9555 59.4128 77.2766 59.2621 76.5623C59.2199 76.3615 59.1748 76.1571 59.1293 75.9588C58.6286 75.2978 58.0992 74.6681 57.5267 74.074C57.37 74.8738 56.7863 75.5233 56.142 76.0467C55.4615 76.599 54.6495 76.9648 53.8334 77.2908C53.8722 77.242 53.9104 77.1928 53.9486 77.1434C53.9868 77.0939 54.0249 77.0438 54.0638 76.9949C52.434 77.2779 50.7305 77.1141 49.1888 76.5213C49.2657 76.4828 49.3221 76.408 49.3783 76.3338C49.4182 76.2811 49.4584 76.2285 49.5052 76.1893C48.1121 76.3595 46.6939 75.8595 45.3773 75.3797C45.4976 75.3432 45.6267 75.2305 45.7279 75.1414C45.7405 75.1303 45.7523 75.1193 45.764 75.1092C44.383 74.9519 42.9987 74.4107 41.8597 73.618C41.9913 73.5523 42.0884 73.439 42.1751 73.3211C41.9561 73.3248 41.7319 73.2167 41.5296 73.1199C41.5062 73.1087 41.4821 73.0975 41.4593 73.0867C41.1503 72.9393 40.8402 72.7931 40.5306 72.6463C40.2208 72.4995 39.9111 72.3524 39.6019 72.2049C39.585 72.1966 39.5679 72.1886 39.5511 72.1805C39.4993 72.1555 39.4481 72.1309 39.3997 72.1033C39.2841 72.0345 39.247 71.8799 39.3216 71.7674C39.894 70.8834 40.6 70.0868 41.4095 69.4119C41.295 69.4173 41.1813 69.3904 41.0814 69.3358C41.7959 68.6034 42.7044 67.9537 43.6244 67.4988C43.5706 67.468 43.5174 67.4365 43.4642 67.4051C43.4109 67.3736 43.357 67.3422 43.3031 67.3113C43.3436 67.2879 43.3846 67.2645 43.4251 67.241C44.512 66.6121 45.627 65.9667 46.8802 65.8904C46.8679 65.8667 46.8566 65.8439 46.846 65.8221C46.8052 65.7373 46.7708 65.6662 46.6869 65.6053C48.0729 65.4478 49.4859 65.5337 50.8402 65.8631C50.8932 65.8763 50.947 65.888 51.0003 65.8992C51.1655 65.9339 51.3291 65.9679 51.471 66.0584C51.4496 66.0085 51.436 65.9585 51.4232 65.909C51.4043 65.8358 51.386 65.7639 51.3412 65.6981C52.5312 66.0922 53.6753 66.6176 54.7474 67.2625C54.9299 67.3702 55.113 67.4881 55.2289 67.6658C55.2323 67.6323 55.2441 67.5986 55.2562 67.5652C55.2684 67.5319 55.2811 67.4983 55.2845 67.4647C56.1528 68.1316 56.5758 69.2037 56.932 70.2342C57.3025 71.3038 57.6379 72.42 57.5863 73.5418C58.054 73.8729 58.483 74.2535 58.8675 74.6746C58.8645 74.6328 58.8606 74.5908 58.8578 74.5486C58.8433 74.3339 58.8269 74.1124 58.767 73.8807C58.7368 73.7645 58.6948 73.6399 58.6498 73.5086C58.6102 73.3931 58.5673 73.271 58.5277 73.1424C58.4909 73.0226 58.4409 72.7476 58.3705 72.3973C58.327 72.1808 58.2752 71.9344 58.2152 71.6776C58.0069 71.014 57.7825 70.3545 57.5423 69.7C57.4697 69.5705 57.3951 69.4641 57.3197 69.3856C57.2656 69.3292 57.2089 69.2843 57.1507 69.2391C57.0717 69.1776 56.9894 69.1143 56.9066 69.0164C56.8419 68.9398 56.7902 68.8396 56.7777 68.7645C56.772 68.7299 56.7754 68.7002 56.7777 68.6736C56.7803 68.6431 56.7817 68.615 56.7709 68.5867C56.7629 68.5664 56.7461 68.549 56.7259 68.5272C56.6935 68.4921 56.6515 68.4455 56.6195 68.3641C56.5008 68.0614 56.3698 67.7078 56.2386 67.369C56.0935 66.9933 55.9427 66.6206 55.8089 66.3338C55.6613 66.0166 55.4805 65.5336 55.2953 65.0633C55.1663 64.7352 55.0302 64.4021 54.9017 64.1229C54.7783 63.8541 54.6201 63.5857 54.4632 63.325C54.2727 63.0077 54.0939 62.7189 53.9779 62.4422C53.9547 62.3866 53.9518 62.3029 53.9476 62.1981C53.9447 62.1236 53.94 62.0371 53.9281 61.9432C53.7431 61.6093 53.5618 61.2855 53.3724 60.952C53.3613 60.9429 53.3488 60.933 53.3373 60.9236C53.0733 60.7062 52.7255 60.4345 52.4964 59.868C52.4383 59.7242 52.427 59.6166 52.4164 59.5203C52.4057 59.4256 52.3985 59.3439 52.347 59.2459C52.2887 59.135 52.1894 59.0217 52.0804 58.8982C51.9274 58.7248 51.7545 58.5302 51.6478 58.2898C51.6406 58.2736 51.6321 58.2556 51.6244 58.2381C51.5497 58.0691 51.4376 57.8178 51.3578 57.5428C50.9255 56.8386 50.5018 56.1614 50.057 55.4656C49.3348 54.3345 48.5725 53.1825 47.8187 52.075L47.4769 52.243C47.3226 52.1009 47.1586 51.9591 46.9925 51.8162C46.5523 51.4374 46.0997 51.0475 45.7874 50.6062C45.5831 50.6138 45.3845 50.6024 45.2103 50.5672C45.0805 50.5424 44.9534 50.5242 44.8236 50.5154C44.58 50.7849 44.3805 51.0996 44.181 51.4148C44.0568 51.6111 43.9325 51.808 43.7972 51.9939C42.8156 53.3383 41.1825 54.1117 39.5247 54.2234C38.4059 54.2965 37.2824 54.095 36.1751 53.8699C34.7002 53.5677 33.2612 53.2194 31.9534 52.4549C32.3841 52.6695 32.8593 52.751 33.3314 52.8172C34.0823 52.9236 34.8369 52.9876 35.5911 53.0203C36.225 53.0477 36.8657 53.0481 37.4808 52.9002C37.9944 52.7778 38.4635 52.5561 38.9124 52.285C38.4118 52.2728 37.908 52.222 37.4154 52.1619C37.3038 52.1487 37.1915 52.1356 37.0794 52.1219C36.0906 52.0011 35.0854 51.8782 34.1146 52.0135C33.8641 52.0475 33.6531 51.8258 33.6741 51.5711C33.7039 51.1429 33.6431 50.6919 33.5853 50.2693L33.5784 50.2234C33.2638 47.8964 32.4624 45.6504 31.4486 43.5242C30.4619 41.4551 29.2705 39.4928 28.0814 37.534L27.9837 37.3719C27.8636 37.174 27.7467 36.9101 27.8831 36.7312C27.9625 36.6288 28.0987 36.5947 28.2269 36.5682ZM50.5365 28.115C50.6455 28.098 50.7607 28.1261 50.8617 28.1726C51.1768 28.3195 51.3843 28.6318 51.5628 28.9334C52.77 30.9971 53.4118 33.3729 53.4886 35.7517C53.4896 35.7834 53.4897 35.8157 53.4906 35.8475C53.5008 36.1957 53.5112 36.5499 53.6253 36.8797C54.2189 37.2833 54.3019 38.0646 54.2484 38.784C54.2391 38.9108 54.224 39.0367 54.2054 39.1619C54.0205 39.2765 53.8314 39.3964 53.6478 39.5291V39.5301C53.3668 39.58 53.0746 39.6108 52.7884 39.6238C52.2396 39.5988 51.5621 39.5209 50.9388 39.5017C50.4076 39.4914 50.0012 39.412 49.3246 39.4441C49.1335 39.4724 48.862 39.4837 48.6136 39.5164C48.0661 39.5862 47.5375 39.6224 46.9408 39.7273C46.5087 39.7816 45.9084 40.0415 45.5619 40.3582C44.9883 40.8285 44.4227 41.312 43.8597 41.7596C43.7763 41.825 43.6921 41.8881 43.6136 41.9432C43.5744 41.9707 43.5356 41.9973 43.5062 42.0144C43.4974 42.0196 43.4886 42.0237 43.4837 42.0262C43.4777 42.0278 43.469 42.0292 43.4583 42.032C43.1546 42.1323 42.9532 42.1529 42.6722 42.1355C42.477 42.1218 42.2724 42.0838 42.0687 42.0301C41.404 41.877 40.8324 41.776 40.3285 41.5437C39.8619 41.3489 39.4791 41.1073 39.0521 40.8309C38.1506 40.2373 37.2458 39.6203 36.3568 39.0008C35.8583 38.6534 35.3816 38.3007 34.8851 37.9314C34.8069 37.8749 34.7272 37.82 34.6478 37.7644C35.4832 37.9072 36.3697 38.0117 37.2738 37.7801C38.3316 37.5153 39.677 37.2437 40.5267 36.1922C41.0394 35.5767 41.3455 34.9032 41.7327 34.3787C41.7997 34.2874 41.8683 34.1999 41.9398 34.1189C42.8603 32.9716 44.8332 33.0934 46.2679 31.7498C47.0039 31.0265 47.5975 30.131 47.9749 29.1883C48.0375 29.037 48.0957 28.8839 48.1517 28.7312C48.8346 28.9247 49.5672 28.777 50.1371 28.3455C50.1491 28.3361 50.1621 28.3268 50.1742 28.3172C50.2847 28.2295 50.3994 28.1386 50.5365 28.115ZM33.6458 32.6375C34.1187 32.8905 34.5949 33.1228 35.0775 33.3465C35.6696 33.6539 36.4841 33.6925 37.0999 33.5848C37.3169 33.5537 37.5397 33.4987 37.7542 33.4099C37.9614 33.3285 38.1904 33.1789 38.2747 33.1385L38.2767 33.1375C38.5284 33.1313 39.0827 33.4422 39.6263 33.6541C40.0414 33.8263 40.5191 33.8764 40.9701 33.8474C40.5164 34.4787 40.2278 35.127 39.8314 35.6228C39.229 36.4281 38.1762 36.7296 37.0687 37.0887C36.2629 37.3662 35.3298 37.3211 34.3968 37.2557C34.1701 37.2402 33.9413 37.2244 33.7113 37.2127C33.3117 37.0105 32.8945 36.827 32.4827 36.6697C32.161 36.5452 31.8374 36.4302 31.513 36.3182C31.5639 36.0554 31.5282 35.7744 31.4915 35.4939C31.4396 35.0976 31.3883 34.7019 31.5843 34.3601C31.7173 34.1346 31.9284 33.9771 32.138 33.8211C32.1688 33.7982 32.2003 33.7758 32.2308 33.7527C32.6933 33.4058 33.1061 32.9945 33.4593 32.5359C33.5215 32.5705 33.5835 32.604 33.6458 32.6375ZM42.6908 25.2947C42.9179 25.3268 43.1125 25.4614 43.3079 25.5965C43.3918 25.6544 43.476 25.7123 43.5628 25.7625C44.0296 26.0304 44.5755 26.0602 45.1195 26.0906C45.688 26.1223 46.255 26.1551 46.7298 26.4578C47.3812 26.8728 47.653 27.6704 47.849 28.4334C47.7557 28.6213 47.6621 28.8082 47.5619 28.99C47.0974 29.8501 46.498 30.59 45.7679 31.2137C44.7724 32.1159 43.0145 32.0168 41.6615 33.1111C41.0029 33.1822 40.4858 33.1206 39.9535 32.865C39.4763 32.6691 39.0934 32.247 38.1898 32.2117C38.0579 32.2216 37.9533 32.2637 37.8802 32.2976C37.6261 32.429 37.5382 32.4994 37.3929 32.5613C37.257 32.6217 37.1109 32.6657 36.9525 32.6971C36.36 32.8171 35.8909 32.8481 35.3382 32.6668C34.8335 32.5106 34.3274 32.3629 33.8216 32.2137C33.7859 32.2031 33.7497 32.192 33.7142 32.1814C33.9176 31.8769 34.0969 31.555 34.2464 31.2185C34.3049 31.0874 34.3592 30.9535 34.4134 30.8201C34.5539 30.4746 34.6946 30.1288 34.9066 29.826C35.1671 29.4505 35.5277 29.1587 35.9036 28.8992C36.6081 28.4151 37.3771 28.0419 38.1468 27.6687C38.717 27.3923 39.2876 27.1158 39.8324 26.7937C40.1251 26.6202 40.4109 26.4336 40.6966 26.2469C41.0828 25.9944 41.4696 25.7418 41.8744 25.5213C42.1281 25.3814 42.404 25.2543 42.6908 25.2947Z" fill="#838D4C"/>
</svg>
