<svg width="100" height="150" viewBox="0 0 100 150" fill="none" xmlns="http://www.w3.org/2000/svg">
<path d="M66.7002 15.6244C67.1304 15.4847 67.5084 15.2748 68.21 15.434C68.7928 15.6231 69.3382 15.9531 69.7159 16.4877C70.3312 17.3749 70.2961 18.4169 70.1582 19.2885C70.0815 19.8293 69.9734 20.2753 69.8428 20.727C69.6721 21.3169 69.4692 21.8545 69.2891 22.2709C68.8537 23.2821 68.2217 24.3622 67.7393 25.1293C67.6606 25.255 67.5854 25.3748 67.5147 25.4858C67.144 26.1159 66.7601 26.7326 66.3731 27.3344C66.3414 27.3705 66.3093 27.4069 66.2764 27.4438C65.8589 27.9116 65.4383 28.5309 64.7403 29.5014C64.4428 29.9145 64.0781 30.4131 63.6553 30.9643C63.3794 31.3237 63.2082 31.4897 63.0694 31.6254C63.0285 31.6653 62.9899 31.7049 62.9532 31.7426C62.8264 31.8729 62.7271 32.0375 62.6094 32.2328C62.457 32.4858 62.269 32.7959 61.9502 33.1371C60.9319 34.2248 60.5757 34.7791 60.3086 35.2026C60.23 35.3266 60.1584 35.4403 60.0791 35.5502C59.8234 35.9054 59.4007 36.3648 59.0655 36.6987C58.8002 36.9635 58.3395 37.5525 58 38.0072C57.8713 38.1798 57.6809 38.4009 57.4571 38.6586C57.2251 38.9256 56.9578 39.2306 56.6797 39.5717C55.981 40.4286 55.6031 40.8806 55.2998 41.2426C55.2134 41.3455 55.1319 41.4402 55.0518 41.5356C54.7998 41.8354 54.4723 42.2148 54.1475 42.5864C53.7623 43.0274 53.351 43.4924 53.0567 43.8364C52.4885 44.4253 51.9147 45.0051 51.3399 45.5824C51.1692 45.9773 50.9611 46.4588 50.6983 47.0619C50.525 47.5218 50.3528 47.9837 50.1826 48.4457C48.3482 53.4322 46.7586 58.5196 45.4541 63.6908C45.4397 63.7565 45.4249 63.8237 45.4102 63.891C45.1248 65.1919 44.8008 66.8214 44.5616 67.8354C44.2552 69.128 44.0511 70.0012 43.8828 70.726C43.5431 72.4822 43.2429 74.2491 42.9864 76.0229C43.1765 75.6479 43.411 75.244 43.5684 74.9828C43.573 74.9751 43.5775 74.9671 43.5821 74.9594C43.6431 74.8574 43.6982 74.7591 43.7627 74.6459C43.9206 74.3706 44.1127 74.032 44.6065 73.2885C44.7339 73.0685 44.8618 72.8515 44.9903 72.6391C46.4165 70.2851 48.0285 68.0678 49.8965 66.0287C49.9185 66.0028 49.9404 65.976 49.9629 65.9496C50.4161 65.4156 50.9969 64.7828 51.3975 64.4233C51.9113 63.9591 52.2835 63.6627 52.5811 63.435C54.3113 62.0714 56.029 60.5798 58.6172 60.4155C58.7588 60.4239 58.9211 60.4474 59.0762 60.4985C59.6747 60.7048 60.2466 60.9399 60.7481 61.4731C61.3447 62.0736 61.364 63.0862 61.1084 63.7309C60.9776 64.149 60.8125 64.4802 60.6494 64.7778C60.4085 65.2082 60.1788 65.5403 59.959 65.8227C59.4493 66.4764 58.7916 67.1089 58.2842 67.5737C58.1988 67.6521 58.1272 67.717 58.0557 67.7817C57.6755 68.161 57.2924 68.5289 56.8965 68.8998C56.8653 68.9193 56.8332 68.9387 56.8008 68.9584C56.4129 69.1899 55.9856 69.569 55.3223 70.1381C55.0235 70.3943 54.7015 70.6686 54.2901 71.0053C54.0309 71.2172 53.8783 71.2985 53.752 71.3676C53.7152 71.3877 53.6806 71.4068 53.6465 71.4272C53.5294 71.4972 53.4337 71.6058 53.3203 71.7348C53.1759 71.9 53.004 72.0975 52.7129 72.2885C51.7898 72.8932 51.4645 73.2661 51.2256 73.5434C51.1549 73.6252 51.0904 73.6998 51.0196 73.7699C50.7899 73.9974 50.414 74.2691 50.1231 74.4574C49.8918 74.6073 49.4843 74.9859 49.1924 75.2817C49.0813 75.394 48.918 75.5312 48.7256 75.6928C48.5253 75.861 48.2962 76.0533 48.0616 76.2738C47.4683 76.8318 47.1563 77.1287 46.9043 77.3676C46.8328 77.4356 46.7657 77.4985 46.6992 77.5619C46.489 77.7627 46.2246 78.0078 45.959 78.2572C45.6415 78.5553 45.3205 78.8621 45.084 79.101C44.423 79.6681 43.7661 80.2391 43.1201 80.8227C42.8738 81.0448 42.6092 81.2399 42.3623 81.3813C42.3061 82.028 42.2543 82.6751 42.2129 83.3227C42.1289 84.6456 42.078 85.9719 42.0664 87.3002C42.056 88.5177 42.0777 89.7387 42.1387 90.9565C42.1957 91.6693 42.2664 92.3236 42.3448 92.9526C42.4522 93.8074 42.5749 94.599 42.667 95.2153C42.8148 96.2179 42.9868 97.3033 43.1817 98.2514C43.2881 98.771 43.3965 99.266 43.4991 99.7055C43.5473 99.9124 43.5949 100.108 43.6397 100.288C43.9276 101.284 44.2483 102.268 44.5987 103.244C44.6118 103.312 44.6245 103.382 44.6377 103.452C44.8059 104.327 45.1755 105.359 45.8409 106.941C46.132 107.63 46.4825 108.425 46.9102 109.352C47.1871 109.951 47.2912 110.274 47.377 110.541C47.4023 110.62 47.4258 110.694 47.4522 110.767C47.543 111.019 47.7002 111.253 47.8877 111.527C48.1314 111.883 48.4258 112.308 48.7012 112.929C49.5875 114.911 50.209 115.66 50.6621 116.225C50.7964 116.39 50.9193 116.54 51.0352 116.699C51.4104 117.214 51.8644 117.998 52.1953 118.601C52.3377 118.863 52.5985 119.241 52.8907 119.634C52.8219 119.323 52.7623 118.991 52.7168 118.65C52.5386 117.316 52.4197 115.967 52.3594 114.623C52.3543 114.553 52.3493 114.482 52.3448 114.412C52.3112 113.885 52.2636 113.397 52.2227 112.909C52.2133 112.796 52.2047 112.683 52.1963 112.571C52.1268 111.707 52.2392 110.057 52.3379 109.149C52.3396 109.132 52.3411 109.116 52.3428 109.099C52.3649 108.884 52.3843 108.681 52.4082 108.444C52.4679 107.881 52.5414 107.102 52.8242 105.526C52.8921 105.062 52.9663 104.599 53.0469 104.14C53.9225 99.1661 55.4911 94.3465 57.5967 89.7758C57.6219 89.7181 57.6479 89.6591 57.6739 89.6C58.1798 88.4392 58.8611 87.028 59.3418 86.1772C59.9595 85.0773 60.4001 84.3778 60.7852 83.7768C62.8862 80.4075 65.1992 77.0481 68.4961 74.5873C69.4322 73.9824 70.5813 73.1594 72.0606 73.6235C72.2186 73.685 72.3679 73.7628 72.5059 73.8559C73.7677 74.8082 73.7571 76.2448 73.7735 77.4018C73.7733 78.1118 73.7205 78.7327 73.6446 79.3578C73.546 80.1697 73.4057 80.9254 73.2715 81.5229C72.9515 82.9589 72.4231 84.5809 72.0186 85.724C71.9515 85.9148 71.8869 86.097 71.8262 86.266C71.5231 87.1873 71.1921 88.1338 70.8614 89.0395C70.8322 89.0983 70.8018 89.1579 70.7715 89.2182C70.3871 89.9841 70.0221 90.9293 69.4082 92.4184C69.139 93.0703 68.8236 93.8193 68.4366 94.6967C68.185 95.2664 68.027 95.5404 67.8975 95.7651C67.8595 95.831 67.8239 95.8932 67.7891 95.9565C67.6695 96.174 67.5838 96.4223 67.4815 96.7162C67.3474 97.1003 67.1897 97.5503 66.8907 98.1117C65.9345 99.9019 65.6216 100.736 65.3877 101.372C65.3189 101.557 65.256 101.726 65.1846 101.895C64.9531 102.444 64.5548 103.194 64.2354 103.75C63.9825 104.192 63.5579 105.116 63.2461 105.823C63.1283 106.09 62.9512 106.441 62.7403 106.855C62.5216 107.284 62.2672 107.779 62.0098 108.313C61.3534 109.672 61.0029 110.375 60.7119 110.957C60.6298 111.122 60.5529 111.275 60.4766 111.427C60.2356 111.908 59.9298 112.499 59.6143 113.103C59.241 113.818 58.8553 114.547 58.5674 115.103C57.7644 116.502 56.9303 117.913 56.0928 119.288C55.6524 120.012 55.1902 120.641 54.7735 121.094C54.6052 121.275 54.4543 121.412 54.3262 121.506C54.3425 121.529 54.3594 121.551 54.376 121.574C54.6796 121.988 55.0349 122.465 55.4405 122.955C56.4673 124.194 57.0324 124.836 57.4844 125.353C57.6135 125.5 57.7336 125.637 57.8545 125.773C58.2366 126.203 58.7101 126.739 59.1944 127.275C59.7739 127.917 60.3718 128.56 60.8399 129.036C61.9752 130.341 63.1388 131.626 64.333 132.881C64.9448 133.525 65.4781 134.201 65.8067 134.771C66.1346 135.34 66.2289 135.756 66.0596 135.936C65.8898 136.115 65.4662 136.046 64.8789 135.734C64.2917 135.422 63.5915 134.892 62.9405 134.264C61.6264 132.997 60.342 131.697 59.0977 130.358C57.5821 128.727 56.1243 127.038 54.7471 125.284C54.0157 124.352 53.304 123.404 52.6133 122.441C52.4891 122.494 52.3151 122.535 52.0957 122.558C51.6343 122.604 51.046 122.578 50.4258 122.482C49.232 122.296 48.0348 122.1 46.8409 121.887C46.3918 121.78 45.7783 121.643 45.1973 121.51C44.7077 121.398 44.2119 121.284 43.8272 121.188C43.7043 121.157 43.5808 121.126 43.4483 121.093C42.9811 120.976 42.4034 120.832 41.3155 120.543C40.8845 120.429 40.483 120.337 40.1328 120.255C39.795 120.177 39.5056 120.108 39.2979 120.043C38.7471 119.872 38.0171 119.663 37.6407 119.602C37.1655 119.526 36.5456 119.4 36.1211 119.259C35.9905 119.216 35.8648 119.166 35.7266 119.111C35.2561 118.923 34.6288 118.678 33.1455 118.387C32.6755 118.294 32.3423 118.153 32.0664 118.036C31.8546 117.945 31.6737 117.868 31.4883 117.834C31.4345 117.825 31.3804 117.816 31.3233 117.807C31.1292 117.778 30.8907 117.743 30.4522 117.611C29.7635 117.403 29.1842 117.214 28.6875 117.047C27.5374 116.661 26.8126 116.395 26.2041 116.258C26.1559 116.247 26.1084 116.237 26.0616 116.226C25.3626 115.949 24.6989 115.67 24.0196 115.366C23.8978 115.316 23.7665 115.262 23.6299 115.205C22.7506 114.838 21.6341 114.331 20.666 113.721C20.2639 113.467 19.8182 113.156 19.3047 112.718C18.9696 112.428 18.5906 112.068 18.251 111.637C17.6587 110.952 17.1558 109.86 17.4834 108.817C17.599 108.43 17.7585 108.139 17.9844 107.825C18.0935 107.679 18.2186 107.599 18.3379 107.533C18.4207 107.488 18.5079 107.45 18.6016 107.414C18.8154 107.337 18.922 107.309 19.1075 107.263C19.3007 107.218 19.416 107.196 19.5869 107.165C19.754 107.136 19.9156 107.111 20.0645 107.09C23.099 106.726 26.0661 106.865 29.0332 107.168C29.5596 107.208 30.1861 107.26 31.1143 107.382C31.8442 107.477 32.994 107.713 33.9131 107.938C33.9603 107.949 34.0077 107.961 34.0537 107.972C37.7357 108.769 41.3704 110.014 44.6602 111.985C44.9639 112.167 45.2643 112.357 45.5606 112.553C46.0932 112.874 46.4754 113.126 46.7676 113.331C46.4331 112.709 46.0919 112.04 45.795 111.381C45.4928 110.716 45.1729 109.926 44.8848 109.169C44.47 108.085 44.121 107.062 43.9014 106.565C43.5123 105.689 43.1596 104.647 42.875 103.72C42.6021 102.835 42.3891 102.055 42.2207 101.624C42.02 101.111 41.9119 100.649 41.7676 99.9672C41.6906 99.601 41.6032 99.1705 41.4942 98.6313C41.4624 98.4738 41.4289 98.3051 41.3936 98.1235C41.2139 97.1905 41.1504 96.5472 41.0967 95.978C41.0256 95.1828 40.9881 94.6018 40.8477 93.724C40.694 92.7628 40.5902 91.7378 40.5762 90.9291C40.5691 90.552 40.553 90.1446 40.5401 89.7094C40.5228 89.1344 40.5124 88.5133 40.5352 87.9701C40.5539 87.5162 40.606 87.1358 40.6534 86.7983C40.6681 86.6916 40.6825 86.5957 40.6953 86.5004C40.7013 86.1427 40.7098 85.7814 40.7198 85.4174C40.7139 85.3583 40.7069 85.2959 40.7002 85.2309C40.667 84.9018 40.6282 84.5028 40.6241 84.0141C40.6179 83.2378 40.6859 82.5418 40.7637 81.8344C40.7752 81.7295 40.7859 81.6225 40.7979 81.5141C40.7329 81.4842 40.6631 81.4495 40.5899 81.4076C40.1946 81.1793 39.7378 80.8169 39.2998 80.3822C38.4543 79.5432 37.6168 78.6973 36.7862 77.8363C36.4918 77.4924 36.0805 77.0275 35.6953 76.5863C35.3705 76.2147 35.0431 75.8355 34.791 75.5356C34.7109 75.4402 34.6294 75.3455 34.543 75.2426C34.2397 74.8806 33.8618 74.4285 33.1631 73.5717C32.885 73.2305 32.6167 72.9256 32.3848 72.6586C32.1611 72.4011 31.9714 72.1797 31.8428 72.0072C31.5034 71.5525 31.0427 70.9635 30.7774 70.6987C30.4421 70.3648 30.0194 69.9053 29.7637 69.5502C29.6845 69.4403 29.6128 69.3266 29.5342 69.2026C29.2672 68.7791 28.911 68.2248 27.8926 67.1371C27.5738 66.7959 27.3858 66.4858 27.2334 66.2328C27.1158 66.0375 27.0164 65.8729 26.8897 65.7426C26.8529 65.7049 26.8143 65.6653 26.7735 65.6254C26.6346 65.4897 26.4635 65.3238 26.1875 64.9643C25.7647 64.4131 25.4001 63.9145 25.1026 63.5014C24.4045 62.5308 23.9839 61.9116 23.5664 61.4438C23.5334 61.4068 23.5006 61.3706 23.4688 61.3344C23.0818 60.7327 22.6988 60.1159 22.3282 59.4858C22.2574 59.3748 22.1823 59.2549 22.1035 59.1293C21.6211 58.3622 20.9891 57.2821 20.5537 56.2709C20.3736 55.8545 20.1707 55.3169 20 54.727C19.8694 54.2753 19.7613 53.8293 19.6846 53.2885C19.5468 52.4169 19.5116 51.375 20.127 50.4877C20.5046 49.9531 21.05 49.6231 21.6328 49.434C22.3345 49.2749 22.7124 49.4857 23.1426 49.6254C26.006 50.897 28.0817 53.0551 30.0381 55.2592C30.3954 55.6475 30.807 56.1034 31.3897 56.8276C31.8445 57.3894 32.5031 58.3496 32.9971 59.1303C33.0226 59.1703 33.0475 59.2102 33.0723 59.2494C35.1473 62.3296 36.8599 65.6133 38.2793 69.0385C38.4077 69.3487 38.5339 69.6644 38.6592 69.9838C39.148 71.0823 39.3309 71.5758 39.4825 71.976C39.5442 72.1405 39.597 72.282 39.6553 72.4311C39.6597 72.4425 39.6645 72.4548 39.669 72.4662C39.9101 73.0772 40.3347 74.2122 40.4561 74.8344C40.4717 74.9143 40.4859 74.9947 40.501 75.0746C40.5669 75.4232 40.6318 75.7748 40.7256 76.1498C40.7382 76.2002 40.7514 76.2515 40.7637 76.3022C40.8845 76.7296 40.9985 77.1508 41.1104 77.5717C41.1435 77.168 41.1796 76.7978 41.2256 76.5004C41.2559 76.3049 41.3065 76.1373 41.3565 75.978L41.3575 75.976C41.3608 75.9653 41.3648 75.9545 41.3682 75.9438C41.5026 74.681 41.6563 73.4069 41.8282 72.1401C41.8377 72.0291 41.8483 71.9164 41.8584 71.8051C41.9077 71.2632 41.9585 70.7432 41.9668 70.3949C41.9752 70.0186 42.1055 69.0862 42.2559 68.1137C42.3543 67.475 42.4624 66.8097 42.541 66.2729C42.5873 65.9575 42.6797 65.667 42.7754 65.3686C42.8647 65.0904 42.9574 64.8024 43.0196 64.4828C43.0505 64.3235 43.0762 64.1493 43.1035 63.9633C43.1277 63.7994 43.1536 63.6253 43.1866 63.4447C43.2172 63.277 43.3176 62.9102 43.4502 62.4399C43.5325 62.1478 43.626 61.8224 43.7227 61.477C43.9274 60.5529 44.1437 59.626 44.3701 58.7074C44.3946 58.5095 44.4048 58.334 44.3965 58.1908C44.3906 58.0883 44.3753 57.9975 44.3594 57.9047C44.3378 57.7783 44.3153 57.6469 44.3164 57.475C44.3174 57.3403 44.3453 57.1891 44.3867 57.0942C44.406 57.0503 44.4283 57.0185 44.4483 56.9897C44.4712 56.9565 44.4911 56.9262 44.502 56.8862C44.5098 56.8573 44.5093 56.8245 44.5088 56.7846C44.5081 56.7208 44.5079 56.6377 44.5401 56.5209C44.6602 56.0856 44.81 55.5938 44.96 55.1127C45.1265 54.5782 45.293 54.0577 45.4151 53.6391C45.5516 53.1703 45.7937 52.516 46.042 51.8647C46.2152 51.41 46.3913 50.9552 46.5342 50.5629C46.6741 50.1787 46.7947 49.7691 46.9131 49.3735C47.0552 48.8985 47.195 48.4419 47.3614 48.0717C47.395 47.997 47.4651 47.9146 47.5528 47.811C47.615 47.7374 47.687 47.652 47.7608 47.5531C47.7642 47.5439 47.7671 47.5341 47.7705 47.5248C47.7549 47.5184 47.7388 47.5123 47.7227 47.5053C47.4133 47.3696 47.0521 47.1198 46.7227 46.8227C46.0767 46.2391 45.4199 45.6681 44.7588 45.101C44.5222 44.8621 44.2005 44.5554 43.8828 44.2572C43.6173 44.0079 43.3528 43.7627 43.1426 43.5619C43.0763 43.4986 43.0099 43.4354 42.9385 43.3676C42.6865 43.1287 42.3745 42.8318 41.7813 42.2739C41.5466 42.0533 41.3175 41.861 41.1172 41.6928C40.9248 41.5312 40.7615 41.394 40.6504 41.2817C40.3585 40.9859 39.9511 40.6073 39.7198 40.4574C39.4287 40.269 39.052 39.9975 38.8223 39.7699C38.7516 39.6998 38.6869 39.6251 38.6162 39.5434C38.3774 39.2661 38.0525 38.8929 37.1299 38.2885C36.8389 38.0975 36.6669 37.9 36.5225 37.7348C36.4091 37.6058 36.3134 37.4972 36.1963 37.4272C36.1622 37.4068 36.1267 37.3877 36.0899 37.3676C35.9637 37.2986 35.8115 37.2168 35.5528 37.0053C35.1414 36.6686 34.8193 36.3942 34.5205 36.1381C33.8573 35.5691 33.4299 35.1899 33.042 34.9584C33.0097 34.9387 32.9775 34.9192 32.9463 34.8998C32.5504 34.5289 32.1674 34.161 31.7871 33.7817C31.7156 33.7169 31.6441 33.6522 31.5586 33.5737C31.0513 33.1089 30.3935 32.4764 29.8838 31.8227C29.664 31.5403 29.4344 31.2082 29.1934 30.7778C29.0303 30.4802 28.8643 30.149 28.7334 29.7309C28.4779 29.0861 28.4981 28.0735 29.0948 27.4731C29.5962 26.9399 30.1681 26.7048 30.7666 26.4985C30.9218 26.4474 31.084 26.4239 31.2256 26.4155C33.8137 26.5797 35.5306 28.0715 37.2608 29.435C37.5584 29.6628 37.9315 29.959 38.4453 30.4233C38.846 30.7828 39.4267 31.4155 39.8799 31.9496C39.9024 31.976 39.9243 32.0028 39.9463 32.0287C41.8143 34.0678 43.4264 36.2851 44.8526 38.6391C44.981 38.8515 45.1089 39.0685 45.2364 39.2885C45.7299 40.0317 45.9213 40.3706 46.0791 40.6459C46.1437 40.7591 46.1998 40.8574 46.2608 40.9594C46.2653 40.9671 46.2699 40.9751 46.2744 40.9828C46.5254 41.3993 46.9769 42.1762 47.1221 42.6254C47.1406 42.6831 47.1586 42.7414 47.1768 42.7992C47.256 43.0513 47.3357 43.3064 47.4444 43.5717C47.4589 43.6073 47.473 43.6443 47.4873 43.6801C47.7576 44.2687 48.0096 44.8406 48.2637 45.4321C48.283 45.3407 48.3016 45.2484 48.3242 45.1567C48.5654 44.1866 48.8081 43.2612 49.0791 42.3022C49.0914 42.2515 49.1046 42.2002 49.1172 42.1498C49.211 41.7748 49.276 41.4232 49.3418 41.0746C49.3569 40.9947 49.3712 40.9143 49.3867 40.8344C49.5081 40.2121 49.9328 39.0772 50.1739 38.4662C50.1783 38.4548 50.1831 38.4425 50.1875 38.4311C50.2458 38.2821 50.2977 38.1404 50.3594 37.976C50.5109 37.5758 50.6948 37.0824 51.1836 35.9838C51.3089 35.6644 51.4352 35.3487 51.5635 35.0385C52.9829 31.6133 54.6955 28.3295 56.7705 25.2494C56.7953 25.2102 56.8203 25.1703 56.8457 25.1303C57.3397 24.3496 57.9984 23.3894 58.4532 22.8276C59.0359 22.1034 59.4475 21.6475 59.8047 21.2592C61.7612 19.055 63.8367 16.896 66.7002 15.6244Z" fill="#838D4C"/>
</svg>
